<?xml version="1.0" encoding="utf-8"?>

<!DOCTYPE svg PUBLIC "-//W3C//DTD SVG 1.1//EN" "http://www.w3.org/Graphics/SVG/1.1/DTD/svg11.dtd">
<svg version="1.1" id="Layer_1" xmlns="http://www.w3.org/2000/svg" xmlns:xlink="http://www.w3.org/1999/xlink" x="0px" y="0px"
	 viewBox="0 0 1712.878 1662.054" enable-background="new 0 0 1712.878 1662.054" xml:space="preserve">
<g>
	<path d="M670.755,475.68c-0.55-0.571-1.099-1.141-1.649-1.712c0.921-1.754,1.842-3.508,2.764-5.262
		c-0.901-0.276-1.802-0.551-2.702-0.827c0.079,0.026,5.555-23.637,5.673-26.418c0.242-5.7,1.396-11.467,1.878-17.215
		c0.894-10.667,0.796-21.387-0.208-32.042c-0.906-9.608,0.62-17.975,2.329-27.432c2.477-13.705,5.872-27.244,10.146-40.499
		c10.08-31.268,26.325-59.089,41.96-87.655c12.032-21.984,25.186-42.872,42.695-60.988c12.482-12.915,26.494-24.288,41.383-34.311
		c12.662-8.524,33.039-17.878,33.039-17.878c3.867-3.272,8.557-4.736,13.327-5.468c18.318-2.81,29.326-11.374,74.819-2.783
		c11.44,2.16,22.447,5.942,33.912,8.041c8.168,1.496,16.132,4.433,23.492,8.606c6.446,3.655,2.777,6.322,9.791,8.507
		c5.604,1.746,10.945,4.357,16.912,4.873c0.864,0.075,1.735,0.431,2.537,0.8c37.238,17.111,25.05,11.107,47.104,27.655
		c25.895,19.43,30.648,20.125,37.774,30.811c4.444,6.663,6.836,1.559,15.249,22.598c3.108,7.774,3.767,10.543,1.412,47.761
		c-0.2,3.165-1.714,5.725-2.412,8.61c-3.197,13.214,1.095,6.137-3.029,35.688c-1.785,12.786-23.716,28.358,12.225,56.689
		c10.277,8.101,21.092,18.343,20.211,31.377c-1.452,21.478-26.467,14.401-24.169,30.514c0.837,5.861,2.01,11.728,6.8,16.026
		c1.647,1.479,2.814,3.423,2.43,5.753c-2.323,14.084-5.613,13.301-10.872,17.008c7.094,8.178,4.193,21.011,0.133,23.405
		c-5.964,3.517-9.476,9.192-12.995,14.854c-1.867,3.004-1.37,6.194-0.782,9.425c4.519,24.846-9.232,38.306-25.312,39.627
		c-22.074,1.813-120.339-23.267-115.534-4.404c2.802,11.002,3.733,22.286,5.154,33.49c1.165,9.189,22.624,11.277,36.596,16.051
		c2.863,0.978,3.117-0.621,17.308-11.02c19.05-13.959,59.577-27.707,85.854-35.144c46.997-13.3,135.977,4.548,161.112,2.928
		c77.496-4.996,52.085-13.513,137.704-0.296c8.01,1.237,17.949-0.625,26.429,0.449c6.721,0.851,5.517-9.843,7.701-21.682
		c8.847-47.96,59.735-158.658,70.677-194.543c9.82-32.205,9.524-35.32,21.758-93.889c15.9-76.123,9.51-72.139,5.293-77.675
		c-0.744-0.976-1.979-1.126-2.942-0.511c-6.352,4.057-13.104,4.069-20.865,1.268c11.215,20.227-6.271,48.924-21.639,25.922
		c-10.264-15.362-28.272-3.94-25.251-47.49c0.161-2.327,0.63-4.808-0.389-6.953c-5.013-10.557,1.964-17.248,6.543-34.482
		c3.055-11.501,8.276-33.732,13.627-40.994c4.815-6.534-3.035-17.772,20.955-36.808c4.877-3.87,11.513-9.77,24.197-5.555
		c43.63,14.498,43.319,11.035,47.312,15.389c9.768,10.652,11.299,4.178,33.917,20.09c9.49,6.677,39.531,32.038,42.956,46.402
		c3.706,15.541,13.592,14.001,11.461,30.221c-2.02,15.375,0.057,19.15,1.382,34.897c5.692,67.659,1.437,190.608,1.446,201.789
		c0.223,269.883-26.713,325.771-152.132,374.175c-55.49,21.416-129.463,42.051-159.295,47.693
		c-96.643,18.279-170.232-21.69-162.647,0.337c6.021,17.487,14.114,34.172,19.268,52.023c25.531,88.427,5.16,146.364,4.412,152.67
		c-2.283,19.258-7.364,12.017-18.983,50.409c-4.156,13.732-13.269,21.084-24.462,30.656c-4.688,4.009,1.305,7.519-3.57,15.706
		c-0.544,0.914-0.76,1.838-0.642,3.033c1.383,13.991,0.768,27.878-1.369,41.813c-7.458,48.623-3.519,156.735-3.539,157.815
		c-0.324,17.603,0.599,35.362,5.14,52.448c2.651,9.977,7.422,18.933,10.869,28.507c3.843,10.673,6.712,21.814,9.901,32.692
		c12.921,44.079,24.928,88.597,33.638,133.719c4.521,23.422,9.375,48.194,7.63,72.169c-0.289,3.972-1.855,3.17-7.458,3.17
		c-793.913,0.002-726.793,4.254-725.792-7.87c3.496-42.33,11.58-60.014,22.69-84.309c62.189-135.996,73.089-124.131,100.039-181.176
		c6.61-13.991,16.879-24.613,24.796-37.598c7.613-12.485,14.317-25.523,20.048-38.977c5.407-12.694,7.896-25.99,12.86-38.922
		c7.664-19.965,20.23-41.967,13.864-63.979c-3.128-10.816-2.732-21.617,1.124-32.258c0.646-1.782,1.504-3.475-0.315-5.45
		c-3.041-3.301,2.98-5.996-1.559-9.806c-5.16-4.332-2.218-6.294-12.517-31.647c-6.656-16.385-24.085-6.802-26.445-26.291
		c-1.379-11.384-10.312-17.553-4.533-29.829c2.056-4.368,4.112-15.243-2.906-18.824c-1.434-0.732-2.99-1.228-4.404-1.992
		c-5.607-3.029-8.591-10.946-3.825-16.456c1.794-2.074,1.844-3.275,2.013-4.087c-2.736-0.534-5.552-0.291-8.302-1.009
		c-9.201-2.404-15.013-10.892-15.129-11.915c-1.006-8.818-10.073-8.452-26.001-29.403c-39.686-52.201-25.656-36.797-62.82-95.485
		c-10.64-16.803-32.78-25.982-54.38-19.917c-44.245,12.424-102.44,46.557-291.014,8.153c-40.224-8.192-68.337-12.575-98.675-33.148
		c-20.248-13.731-34.926-9.043-41.321-33.872c-3.978-15.443-17.75-58.818-17.806-115.023c-0.012-12.174-10.663-83.553,3.485-162.349
		c2.49-13.866,14.625-71.737,15.476-82.721c9.477-122.334,45.819-133.329,88.907-177.903c12.104-12.521,41.683-41.483,41.933-41.683
		c9.889-7.886,21.084-6.596,32.141-0.349c21.645,12.231,19.705,4.965,54.971,25.523c6.422,3.743,10.97,4.499,13.202,16.245
		c1.066,5.607-5.28,7.09-0.96,11.224c3.043,2.912,7.389,14.052-2.302,21.966c-2.882,2.354-2.776,2.553-0.309,5.374
		c1.539,1.76,3.038,3.609,4.832,5.08c6.073,4.976,10.305,18.297-0.311,23.154c-16.815,7.694-27.981-3.035-29.632,4.359
		c-2.534,11.352-19.73,17.511-30.887,20.074c-2.8,0.643-9.928-2.94-12.475-4.257c-6.922-3.578-7.776,5.702-28.424,10.246
		c-1.285,0.283-2.25,1.176-2.891,2.29c-4.303,7.482-10.858,12.234-18.568,15.733c-10.947,4.968-14.164,8.646-18.382,8.697
		c-3.877,0.047-5.029,2.296-5.624,5.283c-5.282,26.535,2.543,36.297,8.75,75.903c0.307,1.958,0.278,4.012,0.867,5.875
		c4.237,13.407,4.131,27.506,6.694,41.173c20.374,108.629,34.425,129.99,45.272,167.711c2.111,7.341,2.773,7.778,10.526,7.379
		c58.569-3.016,38.89-2.298,99.897-14.557c33.329-6.697,66.815-1.95,110.739-17.673c51.469-18.423,95.34-22.846,147.289-26.038
		c14.417-0.886,31.92-4.063,82.037,8.01c8.445,2.034,13.588,4.989,22.758,3.521c9.771-1.564,28.41-13.145,14.955-22.616
		c-1.293-0.91-3.142-1.549-4.281-2.39c-3.201-2.369-5.816-9.384-10.806-4.467c-3.009-6.104,3.389-12.668-1.414-18.37
		c-0.968-1.149-2.218-2.036-3.162-3.205s-1.558-2.796-0.963-4.174c1.409-0.174,2.44-1.796,2-3.146
		c-0.439-1.349-2.228-2.053-3.469-1.365c1.165-11.321-2.271-21.89-1.971-32.901c0.107-3.916,3.29-8.555,3.56-12.91
		c-0.905,0.568-1.81,1.135-2.715,1.703c3.432-5.846,4.859-12.845,3.991-19.569c-1.331-8.551-0.984-17.36,1.015-25.781
		c-1.141,0.715-2.282,1.431-3.423,2.146c-0.8-1.671,0.797-3.93,2.639-3.733C670.786,475.711,670.771,475.696,670.755,475.68z"/>
	<path d="M665.14,534.91c0.261,0.475,0.736,1.165,0.576,1.749c-0.104,0.381-0.464,0.434-0.559,0.131c0,0,0.083-0.827-0.027-1.864
		C665.13,534.926,665.14,534.91,665.14,534.91z"/>
	<path d="M664.112,546.196c0-0.445-0.092-0.635,0.253-0.68C664.307,545.671,664.249,545.827,664.112,546.196z"/>
	<path d="M672.519,582.532c-0.153,0.337,0.003,0.342-0.55,0.204C672.118,582.381,671.965,582.377,672.519,582.532z"/>
	<path d="M667.283,523.104c-0.01-0.121-0.021-0.243-0.031-0.364c-0.332,0.19-0.268,0.265,0.188,0.235
		C667.437,522.985,667.283,523.104,667.283,523.104z"/>
</g>
</svg>
