<?xml version="1.0" encoding="UTF-8" standalone="no"?>
<svg id="svg3409" xmlns:rdf="http://www.w3.org/1999/02/22-rdf-syntax-ns#" xmlns="http://www.w3.org/2000/svg" height="1244" viewBox="0 0 2037.1875 1244.0625" width="2037" version="1.1" xmlns:cc="http://creativecommons.org/ns#" xmlns:dc="http://purl.org/dc/elements/1.1/">
<path id="path3421" d="m1.172 1243c-6.345-2.355 5.078-14.48 22.58-23.96 9.829-5.327 42.84-25.77 50.31-31.15 2.32-1.672 7.805-5.048 12.19-7.502 4.383-2.454 11.61-6.916 16.06-9.916 11.95-8.06 23.26-14.57 36.43-20.96 21.12-10.25 32.1-17.24 35.45-22.54 8.96-14.2 51.49-59.58 79.79-85.14 6.397-5.778 15.47-14.09 20.16-18.47 8.238-7.701 24.71-22.32 32.75-29.06 27.61-23.16 27.48-21.74 1.945-20.46-21.62 1.087-21.99 1.04-35.07-4.432-9.023-3.773-14.15-8.557-20.38-19.03l-5.394-9.059-0.3174-9.422-0.3174-9.422 5.175-10.65c5.362-11.04 14.31-20.91 25.22-27.83 1.934-1.227 3.516-2.607 3.516-3.067 0-0.4601 3.27-2.811 7.266-5.224 8.936-5.396 11.85-7.305 19.26-12.61 5.855-4.193 10.24-6.886 23.16-14.24 3.867-2.2 10.59-6.315 14.94-9.145 4.351-2.83 10.72-6.289 14.16-7.687 8.931-3.635 11.84-5.254 17.72-9.874 15.86-12.46 63.55-46.24 90.06-63.79 5.93-3.927 14.37-10.16 18.75-13.84 4.383-3.687 14.09-11.09 21.56-16.46 7.477-5.365 17.76-13.15 22.86-17.31 5.098-4.154 11-8.872 13.12-10.48 13.76-10.45 13.31-11.56-2.421-5.949-5.829 2.078-18.61 6.329-28.41 9.449-9.797 3.119-20.98 6.87-24.84 8.336-3.867 1.465-12.3 3.791-18.75 5.168-6.445 1.377-13.62 2.91-15.94 3.407-40.5 8.676-69.04 2.67-75.05-15.79-0.6372-1.959-2.128-5.46-3.312-7.781-3.48-6.817-3.708-14.04-0.7565-23.94 1.377-4.621 2.705-9.576 2.951-11.01 1.071-6.246 28.96-25.58 73.35-50.84 7.992-4.548 17.58-10.1 21.31-12.33 3.73-2.235 6.989-4.064 7.243-4.064s4.796-2.048 10.09-4.551c5.298-2.503 11.32-5.092 13.38-5.753 2.062-0.6612 5.85-2.255 8.416-3.542 2.567-1.287 6.955-3.127 9.751-4.089 7.139-2.456 33.26-25.94 34.35-30.88 0.2987-1.36-0.1477-12.77-0.9919-25.35-1.677-24.99-2.088-53.96-0.7832-55.18 2.942-2.748 34.25-7.247 38.5-5.533 1.452 0.5852 7.069 1.175 12.48 1.311 11.39 0.286 63.55 8.608 94.22 15.03 9.884 2.07 49.82 9.605 64.49 12.17 8.323 1.454 14.44 2.051 17.17 1.677 3.358-0.4603 4.762-0.1987 6.761 1.259 2.343 1.709 8.475 3.246 23.62 5.917 3.352 0.5913 7.781 1.468 9.844 1.949 2.062 0.4806 6.703 1.304 10.31 1.829 3.609 0.5252 10.36 1.77 15 2.765 8.317 1.784 23.87 4.807 44.06 8.562 5.672 1.055 17.48 3.357 26.25 5.115 8.766 1.758 19.73 3.807 24.38 4.552 14.47 2.323 36.42 6.507 56.72 10.81 2.32 0.492 12.02 2.37 21.56 4.174 76.94 14.55 75.52 14.42 87.19 7.693 9.789-5.644 23.26-12.58 82.03-42.24 25.27-12.75 46.39-23.56 46.95-24.02 0.5563-0.4575 3.931-1.928 7.5-3.269 10.66-4.004 11.26-4.721 21.9-26.37 5.273-10.73 11.62-22.89 14.1-27.03 2.48-4.134 5.605-10.12 6.944-13.3 1.339-3.182 11.63-24.06 22.86-46.39s23.61-47.14 27.51-55.13c16.97-34.81 57.97-115.2 65.07-127.5 1.927-3.352 13.95-26.8 26.72-52.1 21.5-42.61 27.06-53.37 35.36-68.36 1.71-3.094 4.385-8.367 5.944-11.72 1.559-3.352 5.076-10.73 7.815-16.41 2.74-5.672 5.87-12.3 6.956-14.73 2.568-5.747 5.538-7.231 22.79-11.39 34.14-8.231 36.38-7.423 32.21 11.59-1.302 5.93-3.223 14.73-4.269 19.55-1.046 4.822-2.926 11.82-4.178 15.55-1.252 3.728-2.884 10.54-3.628 15.14-0.744 4.598-2.255 11.95-3.358 16.33-1.103 4.383-2.585 10.92-3.292 14.53-1.448 7.389-3.531 15.47-8.217 31.88-1.767 6.188-4.39 16.31-5.828 22.5-1.438 6.188-4.623 18.42-7.077 27.19-2.454 8.766-6.854 25.85-9.777 37.97s-6.189 25.2-7.257 29.06c-1.068 3.867-2.516 9.562-3.217 12.66-0.7015 3.094-1.885 7.945-2.63 10.78-0.7451 2.836-2.05 8.742-2.9 13.12-0.8496 4.383-2.152 10.08-2.893 12.66-0.7415 2.578-2.625 10.17-4.186 16.88-2.618 11.24-4.544 18.92-11.74 46.79-2.989 11.58-3.635 9.582 5.064 15.65 12.33 8.605 7.868 23.87-9.512 32.53-10.1 5.039-14.9 21.55-7.256 25 1.971 0.8888 5.834 3.895 8.585 6.68 6.178 6.256 6.46 6.253 12.26-0.0922 6.43-7.036 10.66-5.965 10.58 2.677-0.065 6.998-0.9819 8.739-5.519 10.47-6.858 2.619-7.787 4.249-9.346 16.4-4.146 32.32-15.67 49.15-47.14 68.85-2.44 1.528-6.406 4.481-8.814 6.562-2.407 2.082-6.441 5.517-8.963 7.633-15.93 13.37-13.93 37.11 3.916 46.38 2.56 1.33 5.498 2.862 6.529 3.406 6.559 3.456 21.77 7.313 41.72 10.57 3.352 0.548 11.16 2.044 17.34 3.324 6.188 1.28 21.38 4.233 33.75 6.561 43.61 8.206 52.59 9.919 61.88 11.8 5.156 1.046 16.12 2.91 24.38 4.144 8.25 1.233 17.39 2.902 20.32 3.708 4.67 1.286 19.13 3.75 35.58 6.061 2.903 0.4078 7.333 1.201 9.844 1.763 2.511 0.5618 10.26 1.915 17.22 3.008 6.961 1.092 15.82 2.553 19.69 3.246 3.867 0.693 11.67 1.941 17.34 2.773 5.672 0.8321 12.21 1.916 14.53 2.408 2.32 0.4926 8.438 1.497 13.59 2.232 5.156 0.7351 16.34 2.376 24.84 3.647 23.6 3.525 30.25 4.284 32.93 3.763 1.352-0.2628 3.672 0.1444 5.156 0.9048s5.019 1.677 7.855 2.036c2.836 0.3594 6.768 1.066 8.738 1.57 1.97 0.5042 10.83 2.204 19.69 3.776 8.858 1.573 18 3.208 20.32 3.633 2.32 0.4255 10.12 1.849 17.34 3.162 7.219 1.314 16.29 3.01 20.16 3.768 8.228 1.614 34.45 6.067 55.78 9.471 8.25 1.317 19.22 3.193 24.38 4.17 5.156 0.9769 10.64 1.731 12.19 1.675 18.16-0.6524 28.77 3.82 45.81 19.3 14.29 12.99 12.82 16.22-8.306 18.3-6.188 0.6079-13.15 1.488-15.47 1.956-5.104 1.029-28.04 4.243-40.31 5.65-12.79 1.466-35.08 4.43-49.22 6.544-6.703 1.002-16.83 2.112-22.5 2.465-24.35 1.518-25.24 2.06-28.94 17.71-4.068 17.22-26.38 42.51-52.62 59.64-2.066 1.349-5.021 3.827-6.568 5.508-3.704 4.025-22.97 19.51-39.38 31.66-7.219 5.343-15.02 11.53-17.34 13.76-2.32 2.222-6.75 5.69-9.844 7.706-7.293 4.753-17.57 12.16-22.35 16.1-2.08 1.717-5.706 4.109-8.058 5.317s-8.377 5.077-13.39 8.598c-13.13 9.222-21.49 14.44-32.14 20.07-5.156 2.726-10.94 5.925-12.85 7.109-13.4 8.316-43.85 17.27-46.14 13.56-0.3603-0.5829-2.001-1.065-3.647-1.072-6.571-0.0263-19.52-5.272-26.33-10.67-23.59-18.69-24.31-52.14-1.634-76.11 3.938-4.163 9.48-10.43 12.32-13.93 5.903-7.281 36.13-36.29 46.2-44.35 3.716-2.972 11.4-9.354 17.07-14.18 5.675-4.83 12.64-10.37 15.47-12.32 12.15-8.33 11.91-10.09-1.17-8.538-5.286 0.6271-14.89 1.76-21.33 2.518-19.77 2.324-26.3 3.132-37.5 4.639-16.69 2.246-28.1 3.546-57.19 6.513-15.94 1.626-39.73 4.441-55.78 6.602-5.672 0.7634-12.21 1.565-14.53 1.782-2.32 0.2168-12.87 1.468-23.44 2.781s-25.97 3.036-34.22 3.83c-25.86 2.49-24.45 2.209-28.82 5.724-6.188 4.979-19.08 16.17-26.41 22.93-3.653 3.367-10.86 9.575-16.02 13.79-8.129 6.652-17.34 15.95-17.34 17.5 0 0.2759 2.275 1.578 5.056 2.893 23.54 11.14 24.82 31.15 4.543 71.05l-9.916 19.51-12.26 12.5c-6.745 6.874-13.74 13.54-15.54 14.8-1.805 1.268-9.82 7.155-17.81 13.08-7.992 5.927-17.06 12.38-20.16 14.35-3.094 1.963-8.771 5.936-12.62 8.828-3.846 2.893-10.23 7.369-14.18 9.947-3.955 2.578-11.36 7.474-16.45 10.88s-10.31 6.731-11.6 7.389c-1.289 0.6582-5.297 3.402-8.906 6.098s-9.094 6.388-12.19 8.205c-3.094 1.817-15.54 9.193-27.66 16.39-28.22 16.76-32.67 19.19-41.49 22.68-8.295 3.278-21.53 9.774-25.22 12.38-1.369 0.9671-3.6 1.758-4.959 1.758s-4.244 0.9045-6.411 2.01-6.264 2.529-9.103 3.163c-2.84 0.6339-7.272 2.025-9.851 3.091-5.898 2.439-15.39 4.574-26.25 5.909-24.71 3.035-37.7-3.077-55.38-26.08-7.879-10.25-6.274-40.5 2.833-53.4 1.761-2.495 4.886-7.296 6.943-10.67 2.057-3.372 5.802-8.012 8.322-10.31 12.47-11.38 46.7-38.08 61.19-47.73 4.383-2.918 9.867-6.669 12.19-8.335 23.95-17.2 40.02-28.06 48.03-32.46 5.194-2.853 8.683-6.069 19.69-18.15 12.49-13.72 19.97-21.76 37.01-39.82 3.791-4.019 6.666-7.676 6.387-8.126-1.836-2.971-22.45-10.68-47.37-17.72-36.33-10.26-38.57-10.67-42.3-7.76-1.23 0.9604-4.134 2.693-6.455 3.851-2.32 1.158-9.492 5.569-15.94 9.803-16.53 10.86-19.66 12.83-23.91 15.07-5.589 2.952-17.94 10.69-24.84 15.56-3.352 2.365-9.469 6.139-13.59 8.385-4.125 2.247-10.66 6.02-14.53 8.386-3.867 2.366-9.562 5.303-12.66 6.528-3.094 1.225-8.367 3.984-11.72 6.131-3.352 2.147-11.16 6.883-17.34 10.53-6.188 3.642-20.74 12.31-32.34 19.25-11.6 6.947-26.16 15.39-32.34 18.76-6.188 3.37-14.13 8.066-17.65 10.44-3.521 2.37-7.447 4.31-8.725 4.31-2.206 0-38.12 17.82-49.09 24.35-2.836 1.69-6.785 3.649-8.775 4.354-1.99 0.7048-5.998 2.721-8.906 4.48s-7.819 4.027-10.91 5.04c-6.805 2.228-16.98 7.214-44.52 21.82-2.841 1.506-10.86 5.084-17.82 7.951-6.961 2.866-14.49 6.51-16.72 8.098-2.236 1.587-5.986 3.464-8.335 4.171-2.349 0.7069-4.775 1.704-5.391 2.215-0.6163 0.5115-2.889 1.554-5.051 2.317-2.162 0.7627-6.19 2.886-8.951 4.719-3.349 2.223-6.476 3.479-9.396 3.775-2.407 0.2435-5.17 0.8679-6.141 1.387-0.9708 0.5196-2.577 0.9446-3.57 0.9446-0.9926 0-3.657 1.472-5.921 3.272-3.188 2.534-4.987 3.274-7.974 3.281-2.317 0.01-4.751 0.7038-6.094 1.748-1.23 0.9563-3.923 2.288-5.986 2.96-4.364 1.422-18.58 8.237-23.42 11.23-1.831 1.132-6.171 2.65-9.644 3.374-3.473 0.7238-9.965 3.21-14.43 5.525-5.876 3.048-9.108 4.174-11.72 4.081-2.443-0.087-8.742 1.874-19.54 6.082-8.766 3.416-16.58 6.222-17.37 6.237-0.7852 0.015-4.582 1.236-8.438 2.714-3.855 1.478-9.963 3.411-13.57 4.295-3.609 0.8846-10.36 3.011-15 4.724-4.641 1.714-12.66 3.989-17.81 5.055-5.156 1.067-14.51 3.005-20.78 4.307-6.272 1.303-12.18 2.365-13.12 2.36-0.9465 0-6.362 1.018-12.03 2.272-10.2 2.256-25.83 4.325-32.53 4.308-6.006-0.016-8.696-3.641-8.359-11.27 0.144-3.264 27.98-37.05 34.01-41.28 3.409-2.391 26.88-25.7 26.5-26.31-0.2715-0.4393-2.689 0.036-5.373 1.056-2.683 1.02-5.972 1.855-7.307 1.855-1.336 0.0003-6.187 1.304-10.78 2.898-4.594 1.594-10.96 3.669-14.16 4.613-3.192 0.9433-9.52 3.183-14.06 4.977-10.69 4.222-19.98 7.305-37.32 12.38-7.734 2.264-16.77 4.988-20.08 6.053-3.309 1.065-11.75 3.423-18.75 5.239-7.004 1.816-14 3.693-15.55 4.17-1.547 0.4771-7.242 2.002-12.66 3.388-5.414 1.386-11.95 3.104-14.53 3.817-2.578 0.7127-6.375 1.65-8.438 2.082-2.062 0.4326-9.656 2.285-16.88 4.117-11.64 2.954-35.5 7.032-52.97 9.057-3.404 0.3944-9.624 0.2758-14.09-0.2686l-7.999-0.9745-7.47 4.053c-19.39 10.52-50.26 26.11-62.31 31.47-7.627 3.39-53.93 26.64-73.59 36.94-20.51 10.75-34.62 16.49-37.73 15.33zm109.1-64.6c1.985-0.8293 5.306-2.652 7.38-4.05s7.568-4.367 12.21-6.598c22.55-10.84 29.41-14.64 47.34-26.2 11.32-7.3 19.66-12.13 22.57-13.09 1.845-0.6049 5.853-2.905 8.906-5.111s9.348-6.046 13.99-8.532c4.641-2.487 10.12-5.733 12.19-7.215 2.062-1.482 6.492-4.038 9.844-5.68s7.667-3.964 9.591-5.16c1.923-1.196 4.831-2.174 6.461-2.174 1.978 0 5.69-1.72 11.16-5.171 8.416-5.31 14.67-7.726 25.24-9.757 3.922-0.7531 7.781-2.311 10.98-4.431 2.709-1.798 6.421-3.682 8.248-4.187 1.827-0.5043 3.321-1.303 3.321-1.774 0-0.4714 2.101-1.862 4.669-3.091l4.669-2.234-0.5406 2.154c-1.227 4.888 8.486 0.7167 17.7-7.604 2.898-2.616 4.92-3.078 4.098-0.9355-0.5992 1.562 0.8323 1.946 1.745 0.4687 0.3187-0.5156 2.016-0.9375 3.772-0.9375 2.154 0 3.497-0.5677 4.127-1.745 0.5135-0.9595 3.186-2.884 5.94-4.277 4.76-2.409 22.26-18.36 22.26-20.29 0-1.308 2.588-1.062 3.091 0.2935 0.6755 1.822 3.02-0.8648 8.005-9.173 2.648-4.412 5.512-7.944 7.198-8.872 1.688-0.9305 3.219-2.819 3.855-4.757 1.806-5.5 4.374-4.878 11.68 2.833l6.337 6.686 1.531-2.147c0.842-1.181 3.67-5.46 6.283-9.51 3.501-5.424 5.611-7.721 8.013-8.725 1.793-0.7493 5.221-3.155 7.617-5.345 2.396-2.191 7.52-6.368 11.39-9.283 3.867-2.915 10.83-8.27 15.47-11.9 9.303-7.278 26.8-19.46 29.33-20.42 2.704-1.027 18.02-9.92 26.45-15.36 4.383-2.827 12.36-7.576 17.72-10.55 10.42-5.782 22.24-13.31 23.11-14.72 0.8084-1.308-0.5317-1.059-8.036 1.493-9.131 3.106-13.18 0.4609-14.36-9.381-0.3049-2.536-0.3519-2.478-0.4786 0.5883-0.2374 5.748-11.13 7.738-17.39 3.178-1.084-0.7893-2.984-2.155-4.222-3.035-4.433-3.152-12.19-3.155-13.82-0.006-2.813 5.441-9.466 27.68-10.39 34.73-0.5915 4.518-3.685 6.363-7.018 4.186-1.237-0.8082-2.912-1.133-3.95-0.7671-0.9913 0.3497-3.355 0.101-5.252-0.5526-9.333-3.215-37.2-1.976-46.65 2.075-1.918 0.822-6.547 1.583-10.29 1.691-8.977 0.2597-9.044 0.4976 5.151-18.31 2.971-3.936 7.932-10.68 11.03-14.98 3.094-4.301 10.99-15 17.56-23.78 6.563-8.779 11.94-16.65 11.95-17.5 0.0667-4.899 2.273-5.604 20.94-6.695 23.3-1.361 23.06-1.768 13.79 23.23-2.789 7.525-10.34 31.47-10.3 32.66 0.1182 3.429 3.228-4.712 13.73-35.94 7.521-22.37 6.845-21.1 11.93-22.38 13.21-3.326 17.12 1.016 19.76 21.91 1.569 12.43 3.294 17.56 3.291 9.797-0.00094-3.799-1.353-12.33-3.707-23.39-1.925-9.045-0.4634-11.67 7.292-13.11 4.908-0.9115 10.48 0.5001 10.48 2.655 0 0.4093 1.734 3.035 3.853 5.835 7.971 10.53 19.42 41 17.39 46.29-0.3277 0.854-2.856 2.552-5.618 3.774-2.762 1.221-8.231 4.259-12.15 6.75-3.922 2.491-11.61 7.061-17.09 10.15-5.476 3.094-12.51 7.452-15.62 9.686-3.116 2.233-9.731 6.284-14.7 9.001-12.06 6.597-27.45 16.93-35.38 23.78-3.555 3.065-9.839 7.986-13.96 10.94-16.29 11.65-31.65 26.99-37.38 37.33l-3.521 6.355 0.5895 10.05c0.3242 5.528 0.7469 12.57 0.9394 15.65 0.2221 3.55 0.8625 5.969 1.753 6.62 1.213 0.887 1.003 1.806-1.546 6.785-4.951 9.67-1.087 9.216 7.32-0.8596 8.561-10.26 8.683-10.36 11.52-9.74 2.188 0.4806 3.151-0.1628 7.275-4.861 7.412-8.444 8.627-10.57 6.041-10.57-2.391 0-0.3022-4.835 2.98-6.899 2.402-1.51 3.085-0.039 1.269 2.733-2.266 3.459-1.798 3.446 5.439-0.144 3.536-1.754 7.066-3.189 7.845-3.189 0.7791 0 2.858-1.266 4.62-2.812 7.045-6.185 8-2.283 1.263 5.156-2.578 2.847-4.688 5.528-4.688 5.958 0 0.4299-2.109 3.192-4.688 6.138-4.941 5.646-5.612 7.123-3.237 7.123 3.593 0 17.15-17.31 22.22-28.36 1.332-2.906 2.092-3.516 4.383-3.516 2.181 0 3.63-1.018 6.802-4.779 5.852-6.94 14.83-11.74 14.83-7.932 0 3.162 2.298 2.167 8.235-3.565 8.522-8.227 12.39-9.682 12.39-4.661 0 3.109 0.567 2.84 6.956-3.294 5.663-5.438 13.99-10.95 10.88-7.209-1.4 1.688-4.646 12.65-4.691 15.85-0.0136 0.9632-1.29 3.193-2.837 4.954-5.435 6.19-3.39 7.827 2.61 2.089 3.489-3.337 3.989-4.307 3.807-7.391-0.2945-4.992 12.66-19.68 17.37-19.7 1.612-0.009 4.452-0.2618 6.31-0.5692 4.779-0.7906 5.776 3.548 2.212 9.629-4.596 7.842 4.344 0.1298 10.4-8.974 5.47-8.22 12.6-12.68 12.6-7.876 0 2.306 2.126 7.801 3.019 7.801 1.749 0 10.05-7.23 11.12-9.682 1.477-3.396 5.251-5.994 6.661-4.584 0.7248 0.7248-0.3515 2.828-3.789 7.405-6.63 8.827-6.384 10.45 0.6691 4.417 4.91-4.202 7.858-9.581 6.541-11.93-1.114-1.99-0.0176-3.535 5.197-7.323 4.251-3.088 5.444-2.788 4.332 1.089-0.8623 3.007-0.1753 3.463 2.809 1.866 1.926-1.031 6.198-7.045 10.12-14.24 1.4-2.572 3.279-6.002 4.175-7.622 1.081-1.956 3.257-3.664 6.473-5.084 6.002-2.649 6.498-2.28 2.283 1.696-3.215 3.033-6.785 9.943-5.698 11.03 1.119 1.119 5.785-2.657 10.78-8.725 7.658-9.299 10.96-10.55 8.104-3.061-2.006 5.252-1.952 5.665 0.5678 4.32 6.867-3.665 13.16-10.74 17.2-19.33 5.048-10.75 9.488-12.27 9.001-3.082-0.1652 3.12-0.0922 3.209 1.228 1.497 0.772-1.001 1.404-2.293 1.404-2.871 0-1.768 5.136-6.09 7.238-6.09 2.94 0 7.037-5.849 10.92-15.58 3.889-9.761 3.882-9.728 2.03-9.728-1.033 0-0.7802-0.8804 1.009-3.516 1.93-2.843 2.352-4.502 2.204-8.672-0.2678-7.517-0.2202-7.723 2.86-12.37 3.282-4.956 21.22-21.06 27.81-24.96 10.24-6.063 24.03-15.39 27.74-18.75 3.814-3.456 11.56-8.977 17.85-12.73 1.647-0.9818 6.581-4.2 10.96-7.152 8.673-5.841 12.29-8.011 24.38-14.64 4.383-2.403 8.812-5.094 9.844-5.982 1.031-0.8873 4.323-2.513 7.316-3.612 2.992-1.099 8.899-3.753 13.12-5.897 16.87-8.557 20.35-10.14 32.53-14.77 11.69-4.449 28.73-11.27 41.25-16.5 8.317-3.477 31.37-12.46 44.53-17.35 6.703-2.49 15.35-5.877 19.22-7.526 3.867-1.649 11.46-4.379 16.88-6.067 15.33-4.778 29.13-9.747 33.75-12.16 2.32-1.209 5.815-2.464 7.767-2.789 5.178-0.8614 26.48-7.788 33.01-10.74 3.094-1.395 8.367-3.1 11.72-3.788 5.611-1.152 20.78-6.749 22.97-8.475 1.457-1.149 10.84-3.743 13.54-3.743 1.332 0 4.103-0.9058 6.158-2.013s5.635-2.555 7.955-3.218c8.203-2.344 37.01-12.73 40.94-14.77 1.471-0.7607 5.2-2.111 8.287-3 6.841-1.971 14-5.476 17.9-8.766 2.447-2.065 7.259-5.196 9.982-6.494 0.3867-0.1844 0.7031 0.3327 0.7031 1.149 0 3.864 13.92-5.123 14.04-9.063 0.036-1.236-2.52-0.7535-3.729 0.7031-1.523 1.835-5.625 1.851-5.625 0.0217 0-0.7616 1.035-2.063 2.299-2.891 1.265-0.8286 5.028-4.556 8.364-8.283l6.065-6.776-0.8441-11.66c-1.41-19.48-2.206-23.49-6.012-30.3-4.938-8.829-5.347-8.78-17.82 2.138-6.177 5.405-7.047 5.716-7.047 2.515 0-1.246-0.5273-2.461-1.172-2.7-0.8642-0.3204-0.7535-0.8735 0.4217-2.107 1.318-1.384 1.844-1.465 3.042-0.4703 1.191 0.9882 1.867 0.9283 3.797-0.3365 2.318-1.519 3.232-4.308 1.411-4.308-1.718 0-0.9714-1.453 2.857-5.558 4.1-4.397 4.467-6.92 1.077-7.403-1.663-0.2368-2.008-0.7217-1.548-2.172 0.7795-2.456-3.105-8.392-9.271-14.17-4.441-4.16-4.654-4.561-3.196-6.02 2.278-2.278 8.928 2.09 15.99 10.5 8.137 9.694 8.13 9.695 23.63-3.816 9.365-8.163 14.33-11.31 15.69-9.953 6.569 6.569 10.46-7.958 4.135-15.45-1.367-1.621-2.486-4.039-2.486-5.373 0-4.788-6.217-3.763-29.53 4.872-4.125 1.528-12.77 4.361-19.22 6.295-6.445 1.935-14.13 4.301-17.08 5.258-16.03 5.201-19.48-0.3208-7.167-11.44 8.184-7.39 8.484-9.441 0.6793-4.638-2.647 1.629-7.016 3.32-9.71 3.758-3.096 0.5038-10.2 3.5-19.33 8.146-7.936 4.042-17.8 8.931-21.93 10.86-4.125 1.933-10.03 4.88-13.12 6.55-3.094 1.67-7.102 3.688-8.906 4.486-1.805 0.7976-7.078 3.422-11.72 5.833-4.641 2.411-9.914 5.039-11.72 5.842-3.824 1.7-12.49 6.968-16.1 9.782-1.376 1.075-3.907 2.226-5.625 2.56-2.806 0.5446-24.16 10.56-26.53 12.45-2.093 1.661-65.25 33.81-66.42 33.81-0.2402 0-9.448 4.778-20.46 10.62-11.01 5.84-31.72 16.43-46.01 23.53-14.29 7.101-28.43 14.39-31.41 16.2-2.979 1.81-6.901 3.824-8.715 4.477-1.814 0.6527-6.665 2.891-10.78 4.975-11.36 5.748-24.54 11.16-33.62 13.79-4.491 1.302-10.75 3.67-13.91 5.264-3.157 1.594-8.22 3.248-11.25 3.677-5.562 0.7862-20.29 5.021-29.8 8.568-2.836 1.058-9.409 3.09-14.61 4.515-5.198 1.425-10.33 3.061-11.4 3.636-1.074 0.5747-9.055 3.409-17.74 6.298-8.681 2.889-18.74 6.455-22.35 7.923-8.538 3.473-22.2 8.178-28.12 9.687-2.578 0.6565-5.625 1.7-6.771 2.319-2.506 1.354-18.71 6.712-20.3 6.712-0.6179 0-2.76 0.8345-4.761 1.854-2 1.02-5.148 2.343-6.995 2.941-1.847 0.5978-5.749 2.283-8.671 3.745-6.715 3.359-14.83 6.458-16.91 6.459-0.8813 0.00025-5.311 1.926-9.844 4.28s-10.77 5.26-13.87 6.458c-3.094 1.198-9.844 4.172-15 6.609s-13.38 6.08-18.28 8.096c-4.898 2.016-10.59 4.84-12.66 6.277-2.062 1.437-5.486 3.163-7.607 3.836-2.121 0.6729-5.918 2.428-8.438 3.9-2.519 1.472-8.472 4.569-13.23 6.881-4.756 2.312-11.26 5.9-14.45 7.972-3.189 2.072-8.688 4.901-12.22 6.287-7.026 2.756-13.55 7.732-14.95 11.39-1.275 3.354-0.828 3.374 5.776 0.2503 10.18-4.812 8.866-2.838-6.804 10.26-5.242 4.383-11.56 10.5-14.03 13.59-11.14 13.92-12.78 16.11-14.24 18.94-0.8489 1.651-3.241 4.815-5.316 7.031-4.234 4.523-6.767 8.026-11.73 16.22-1.873 3.094-5.026 7.312-7.006 9.375-1.98 2.062-6.365 7.969-9.745 13.12-9.537 14.55-12.92 19.28-16.95 23.74l-3.728 4.121 2.1 1.7c1.155 0.9352 2.622 1.887 3.259 2.115 0.6376 0.2279 0.8679 0.7284 0.5116 1.112-0.7593 0.8182-9.204-0.9787-13.79-2.934-9.691-4.134-16.88-6.062-18.79-5.041-3.142 1.682-2.268 2.645 3.454 3.806 2.965 0.6013 7.237 1.897 9.494 2.879 2.257 0.9821 5.222 1.786 6.588 1.786 2.714 0 6.652 2.323 6.652 3.925 0 0.6651-1.51 0.7897-4.453 0.3673-7.296-1.047-7.651-1.05-7.82-0.0769-0.0895 0.5138 2.906 2.585 6.657 4.603 6.184 3.326 6.662 3.784 5.122 4.91-1.638 1.198-1.638 1.309 0.0173 3.137 2.368 2.616 1.161 3.36-2.576 1.587-1.716-0.8142-5-1.888-7.299-2.387-2.299-0.4984-8.901-2.037-14.67-3.419-5.771-1.382-10.92-2.249-11.44-1.927-0.5211 0.3221-3.461 0.1808-6.533-0.3139-6.12-0.9857-9.504-0.5211-9.504 1.305 0 1.171 3.973 2.352 7.916 2.352 3.156 0 11.77 2.771 11.77 3.786 0 0.4957-2.848 0.9077-6.328 0.9156-7.194 0.0159-6.569 1.336 1.127 2.377 5.444 0.737 9.417 2.528 10.21 4.605 0.7452 1.942-1.564 1.868-10.48-0.3341-3.953-0.9763-7.82-1.781-8.594-1.789-0.7734-0.009-3.516-0.2755-6.094-0.5952-4.576-0.5673-4.621-0.5496-1.875 0.7462 5.807 2.74 15.86 6.34 21.18 7.579 5.547 1.294 7.883 2.701 15.41 9.28 8.687 7.592 4.66 13.74-8.998 13.74-2.202 0-5.218 0.7802-6.855 1.774-1.608 0.9757-4.4 2.062-6.204 2.414-5.579 1.088-6.346 1.446-6.797 3.169-0.2682 1.026-2.614 2.464-6.083 3.728-4.144 1.511-7.035 3.459-10.87 7.323-6.163 6.212-8.753 6.398-7.788 0.5593 0.3181-1.924 0.583-4.625 0.5887-6.001 0.007-1.802 0.8625-3.033 3.057-4.4 6.345-3.953 6.637-8.027 0.633-8.833-4.089-0.5486-25.82 6.422-29.44 9.442-1.044 0.8714-2.071 1.692-2.283 1.823-1.186 0.7353 3.626 4.144 7.761 5.498 8.42 2.757 12.81 5.209 14.23 7.952 1.742 3.368 1.775 3.193-0.9271 4.963-2.227 1.46-5.681 1.178-4.716-0.3845 0.6383-1.033-3.275-3.716-5.419-3.716-1.39 0-1.522 0.3305-0.7289 1.813 1.345 2.513 1.316 2.57-1.833 3.668-2.056 0.7168-2.644 1.391-2.207 2.53 0.3383 0.8816 0.0303 1.911-0.7126 2.381-2.049 1.297-2.695 1.032-3.66-1.506-1.018-2.678-3.369-2.104-11.95 2.92-6.109 3.579-5.557 4.771 1.46 3.153 5.876-1.355 8.538 0.3054 3.727 2.326-1.917 0.8052-3.935 1.464-4.484 1.464-3.307 0-10.09 4.755-10.63 7.452-0.4917 2.459-0.985 2.861-3.508 2.861-1.932 0-3.505 0.7247-4.603 2.12-0.917 1.166-3.829 2.897-6.471 3.847-2.642 0.9501-5.679 2.84-6.748 4.199-2.054 2.611-7.202 5.76-21.01 12.85-12.71 6.523-16.25 8.773-16.87 10.71-0.5764 1.816-8.927 8.916-18.76 15.95-3.094 2.213-7.523 5.841-9.844 8.061-2.32 2.221-6.245 4.9-8.721 5.954-5.808 2.472-14.72 8.877-21.42 15.4-3.239 3.151-6.659 5.53-8.796 6.12-1.924 0.5311-5.023 1.988-6.888 3.238-3.208 2.149-24.54 14.47-35.73 20.64-2.836 1.563-6.802 4.026-8.813 5.473s-4.12 2.635-4.688 2.64c-0.5672 0.01-2.78 1.376-4.918 3.047s-4.669 3.54-5.625 4.155c-2.538 1.63-0.1931 1.465 3.985-0.281zm434.4-180.1c0-2.641 9.274-12.59 11.74-12.59 2.618 0 1.386 2.256-4.201 7.688-4.975 4.838-7.534 6.505-7.534 4.906zm45.9-15.4c1.257-2.348 5.457-5.168 6.357-4.268 0.3703 0.3702-0.7042 1.904-2.388 3.408-3.611 3.227-5.449 3.625-3.969 0.8601zm-15.94-6.402c0-2.051 5.859-7.66 8.001-7.66 2.162 0 1.612 2.529-1.205 5.537-3.384 3.615-6.797 4.681-6.797 2.123zm15 0c0-1.407 4.53-5.06 5.766-4.648 0.8298 0.2767 0.4208 1.196-1.297 2.913-2.473 2.473-4.469 3.248-4.469 1.735zm-67.94-6.671c-0.3002-0.4856 0.6996-2.157 2.222-3.714s3.114-3.398 3.537-4.092c0.4234-0.6933 3.34-3.135 6.482-5.427 3.142-2.291 11.37-8.405 18.28-13.59 13.34-10 18.8-13.57 27.1-17.72 2.836-1.418 7.145-3.836 9.576-5.373 4.073-2.575 6.362-2.846 6.362-0.7518 0 1.849-35.54 29.36-42.92 33.22-1.918 1.003-4.201 2.727-5.074 3.83-1.181 1.492-2.319 1.898-4.442 1.587-2.017-0.2961-3.022 0.0169-3.425 1.065-0.3132 0.816-3.174 3.129-6.357 5.139s-6.359 4.343-7.056 5.184c-1.407 1.695-3.447 2.002-4.286 0.6451zm-124.3-2.4c-1.805-0.6828-4.125-1.272-5.156-1.309-1.031-0.0366-2.508-0.5127-3.281-1.057-1.026-0.7225-0.1398-0.8316 3.281-0.404 5.949 0.7436 10.78 2.254 10.78 3.37 0 1.111-1.536 0.9469-5.625-0.6005zm186.6-5.977c-1.146-0.7252-1.161-1.41-0.1027-4.618 0.7168-2.172 0.9983-5.273 0.6651-7.327-0.5719-3.524-0.4753-3.66 9.478-13.29 5.531-5.353 8.79-8.969 7.243-8.037-5.801 3.495-7.44 4.121-8.368 3.192-1.099-1.099-1.5-0.6799 9.775-10.25 4.898-4.156 9.855-7.81 11.02-8.12 1.16-0.3098 2.109-0.9092 2.109-1.332 0-1.254 2.84-3.715 4.286-3.715 0.7366 0 1.339 0.6328 1.339 1.406 0 2.284 1.716 1.652 7.345-2.704 6.963-5.388 8.844-6.281 12.03-5.712 6.939 1.24 11.57-7.855 7.381-14.49l-2.305-3.651-4.392 1.322c-2.415 0.7269-7.075 2.589-10.35 4.139-8.953 4.23-12.52 3.57-12.52-2.318 0-1.587-0.5784-3.717-1.285-4.734-0.7069-1.017-1.766-4.104-2.353-6.86-0.5872-2.756-1.696-5.908-2.465-7.005-3.281-4.684-1.617-6.404 11.07-11.44 11.4-4.524 11.06-4.069 11.3-15.16 0.4948-23.75 20.46-36.33 38.36-24.17 1.875 1.274 3.874 2.316 4.444 2.316 0.5693 0 2.532 1.582 4.362 3.516l3.327 3.516-0.6255-2.812c-0.344-1.547-1.034-6.188-1.534-10.31-1.907-15.75-15.16-35.34-29.2-43.15-7.329-4.08-8.955-6.546-4.974-7.545 9.859-2.475 33.11 23.52 37.12 41.51 0.5523 2.476 1.701 5.556 2.553 6.845 0.8987 1.36 1.566 4.303 1.589 7.011 0.0622 7.308 4.231 6.053 20.2-6.079 3.352-2.547 7.992-5.994 10.31-7.66 2.32-1.666 6.904-5.3 10.19-8.074 3.282-2.775 8.236-6.497 11.01-8.271 2.774-1.775 5.729-4.272 6.566-5.549 1.83-2.793 11.63-9.914 12.72-9.242 1.795 1.11 0.3742 3.093-6.268 8.748-6.686 5.692-12.33 11.93-11.53 12.74 0.5476 0.5476 10.07-5.986 15.37-10.55 9.142-7.865 22.77-18.89 25.38-20.53 1.465-0.9227 4.727-3.7 7.25-6.171 6.057-5.933 9.226-6.318 5.175-0.6288-1.925 2.703-27.63 24.41-36.5 30.82-2.496 1.805-6.672 4.969-9.281 7.031-9.296 7.35-13.95 10.65-17.82 12.62-3.893 1.986-3.917 2.031-3.31 6.082 1.275 8.5-1.096 10.09-6.2 4.157-6.857-7.971-15.42 2.158-10.3 12.19 7.2 14.11 7.519 24.59 0.8236 27.12-18.19 6.867-19.83 8.666-18.29 20.11 0.9335 6.96-23.92 33.51-31.37 33.51-1.513 0-0.7769-1.827 2.02-5.013 6.422-7.315-0.7585-6.224-10.18 1.547-11.25 9.282-13.68 9.318-4.351 0.0634 4.433-4.397 6.466-7.847 4.626-7.847-1.252 0-4.979 2.515-13.43 9.064-4.956 3.841-11.12 8.616-13.7 10.61-2.578 1.996-6.797 5.336-9.375 7.422s-7.641 5.967-11.25 8.623c-5.245 3.86-5.998 4.698-3.75 4.172 5.12-1.197 21.74-9.745 26.38-13.57 9.679-7.976 10.74-8.742 11.32-8.165 0.327 0.327-0.3211 1.569-1.44 2.761-2.399 2.554-2.539 3.741-0.6287 5.327 0.7734 0.6419 1.406 2.181 1.406 3.419 0 1.54 0.7414 2.534 2.344 3.143 6.122 2.328-3.419 9.438-22.03 16.42-5.55 2.081-8.051 3.691-11.87 7.641-5.227 5.403-6.781 6.047-7.544 3.129-0.6553-2.506-2.009-2.376-9.796 0.9375-7.367 3.135-7.29 3.119-9.165 1.932zm53.85-84.06c2.498-1.1 3.226-1.769 2.18-2.005-2.21-0.4989-8.449 1.308-10.65 3.084-2.522 2.037 2.981 1.336 8.466-1.079zm32.32-10.65c2.469-3.467 4.671-3.586 9.215-0.4982 4.613 3.135 4.763 1.771 0.6208-5.636-3.311-5.921-3.406-6.339-2.368-10.46 1.395-5.542 1.331-5.609-5.563-5.825-2.87-0.0897-4.598-0.8855-7.379-3.398-4.709-4.254-4.674-4.275-4.128 2.578l0.4666 5.859-3.988 3.197-3.988 3.197 4.387 2.229c5.085 2.584 7.601 6.205 8.571 12.33 0.6344 4.008 0.7469 4.153 1.407 1.817 0.3944-1.397 1.631-3.822 2.747-5.391zm-37.24 1.678c7.983-2.911 8.411-7.341 0.7088-7.341-7.071 0-11.85 3.118-10.85 7.085 0.7237 2.883 2.795 2.936 10.14 0.2569zm71.72-18.61c4.03-1.768 5.773-5.604 2.547-5.604-2.753 0-13.56 6.33-13.56 7.942 0 1.037 6.435-0.3286 11.02-2.338zm-4.688-11.42c4.345-1.609 7.278-5.438 4.166-5.438-4.925 0-15.02 5.492-13.78 7.497 0.6681 1.081 1.771 0.8448 9.611-2.059zm-262.3 120.8c-4.888-2.611-5.468-4.048-2.79-6.922 2.652-2.847 6.271-2.624 11.53 0.7092 9.611 6.095 1.646 11.76-8.737 6.213zm211-3.145c0.0287-1.404 1.505-2.983 5.017-5.367l3.584-2.432-3.483 4.251c-3.218 3.927-5.153 5.269-5.118 3.548zm-136.2-21.42c-2.562-2.562 8.782-9.315 27.76-16.53 6.147-2.336 9.781-1.017 7.39 2.683-1.852 2.865-33.62 15.38-35.15 13.84zm196.7-24.05c1.418-4.598 3.474-7.362 10.74-14.43 8.732-8.501 9.912-9.21 8.952-5.386-0.3718 1.481-3.112 5.017-6.088 7.857-2.977 2.84-6.384 6.64-7.57 8.445-3.581 5.445-7.293 7.609-6.03 3.516zm12.6-7.666c0-1.815 0.4809-2.412 1.94-2.412 1.474 0 1.868 0.505 1.641 2.1-0.4446 3.116-3.581 3.39-3.581 0.3127zm-131.9-31c-6.073-6.073-5.165-10.06 3.406-14.95 6.579-3.752 7.503-2.667 6.843 8.039-0.7716 12.53-3.076 14.08-10.25 6.907zm-98.08-14.73c-3.578-2.084-1.887-4.382 6.562-8.919 4.512-2.422 13.05-7.106 18.97-10.41 12.58-7.02 11.45-7.084 23.86 1.353 18.26 12.41 16.46 14.65-12.95 16.16-11.28 0.5771-22.62 1.45-25.21 1.94-5.937 1.126-9.158 1.091-11.24-0.1215zm250.3-17.5c-1.235-2.146-1.524-9.324-0.4345-10.77 1.967-2.612 33.62-15.88 35.05-14.69 1.738 1.442 3.41 7.073 2.734 9.204-0.4733 1.491-16.72 10.4-18.97 10.4-0.2908 0-3.426 1.477-6.967 3.281-6.122 3.12-10.53 4.116-11.42 2.578zm-41.82-35.5c3.239-3.489 12.93-9.937 14.26-9.492 0.6602 0.2201-0.2292 1.646-2.152 3.451-6.974 6.546-17.42 11.75-12.11 6.041zm88.87 0.9089c-0.7077-0.8466-1.925-3.905-2.706-6.797-1.225-4.539-1.738-5.272-3.75-5.359-4.947-0.2157-4.945-0.214-4.388-3.648 0.6695-4.126 0.294-4.092-5.443 0.4846-2.578 2.057-6.164 4.888-7.969 6.293s-4.939 3.935-6.966 5.622c-4.241 3.532-6.707 3.899-7.587 1.127-0.7041-2.219 1.777-5.549 4.151-5.572 0.8224-0.007 5.292-3.018 9.933-6.69s9.759-7.568 11.37-8.658c2.909-1.963 10.57-8.156 21.44-17.33 3.094-2.611 7.523-5.905 9.844-7.32 3.365-2.052 13.16-9.827 18.21-14.46 2.884-2.644-13.82-28.03-18.44-28.03-1.598 0-11.01-8.477-11.01-9.916 0-1.629 3.448-1.7 6.246-0.1287 2.888 1.622 17.19 13.96 17.19 14.83 0 0.3991 1.706 2.696 3.79 5.105 2.085 2.409 5.238 7.255 7.008 10.77 1.77 3.514 3.64 6.65 4.156 6.969 1.284 0.7936 17.79-8.857 25.11-14.68 5.777-4.597 6.106-4.726 10.5-4.144 4.319 0.5729 4.667 0.4473 7.405-2.671 1.866-2.125 4.781-3.941 8.316-5.179 2.993-1.049 6.584-2.747 7.979-3.774 3.086-2.271 10.61-5.304 16.35-6.59 2.412-0.5406 7.49-3.164 11.78-6.085 4.147-2.824 8.148-5.135 8.892-5.135 0.7438 0 6.49-2.564 12.77-5.697 10.19-5.083 11.84-5.634 15.33-5.111 3.47 0.5204 4.228 0.2731 6.766-2.207 1.572-1.536 5.72-4.369 9.22-6.294 3.499-1.926 7.206-4.496 8.237-5.713 1.327-1.565 3.465-2.467 7.316-3.085 3.44-0.5525 6.445-1.718 8.17-3.17 1.501-1.263 5.702-3.217 9.335-4.341 4.048-1.253 6.978-2.74 7.567-3.839 2.453-4.583 12.59-7.464 18-5.116 1.298 0.563 1.645 0.2498 1.661-1.498 0.046-4.893 8.362-10.31 17.79-11.59 4.932-0.6694 7.697-2.149 15.24-8.153 1.791-1.426 2.88-1.756 3.558-1.077 1.097 1.097-1.868 4.541-7.949 9.236-2.004 1.547-4.966 4.078-6.583 5.625s-4.327 3.974-6.022 5.395c-4.605 3.858-3.079 5.042 1.776 1.377 11.48-8.664 18.82-13.91 22.12-15.82 2.005-1.158 6.223-4.342 9.374-7.076 5.268-4.571 8.802-6.225 8.802-4.121 0 1.098-13.7 13.32-21.56 19.24-9.202 6.927-10.26 8.972-4.632 8.972 5.253 0 1.505 5.515-6.149 9.05-6.335 2.925-9.044 11.13-2.904 8.798 6.194-2.355 14.62 0.6454 14.62 5.206 0 2.7-13.91 9.759-19.24 9.759-1.669 0-3.573 0.6482-4.231 1.44-1.546 1.863-12.39 7.935-14.18 7.935-0.7526 0-2.768 1.033-4.479 2.295s-4.429 2.583-6.042 2.935c-1.612 0.3523-3.804 1.58-4.872 2.728-1.075 1.156-4.211 2.626-7.031 3.295-2.8 0.6644-6.097 1.99-7.327 2.947-1.23 0.9562-2.651 1.738-3.159 1.738-0.5078 0-4.852 1.898-9.655 4.219-4.802 2.32-9.341 4.219-10.09 4.219-0.7448 0-1.9 0.6572-2.566 1.46-1.447 1.743-6.96 4.165-9.483 4.165-0.9892 0-2.999 0.8875-4.466 1.972-3.517 2.6-5.782 1.748-7.734-2.91-0.8641-2.062-2.019-3.749-2.566-3.749-0.5489 0-0.0978 1.847 1.006 4.119 2.959 6.09-0.4873 9.973-9.177 10.34-2.071 0.0877-3.691 1.026-5.515 3.193-4.1 4.872-6.269 3.869-7.769-3.591-0.6736-3.352-1.526-7.566-1.893-9.365-0.8552-4.184-2.656-4.484-6.689-1.118l-3.225 2.692 3.533 7.151c5.212 10.55 3.259 13.67-11.27 18.02-2.65 0.7936-7.209 3.118-10.13 5.164-13.8 9.667-21.57 9.538-25.38-0.4227-3.262-8.541-7.316-7.592-21.62 5.066-15.03 13.3-21.02 16.79-21.02 12.26 0-2.422 8.07-9.239 12.31-10.4 1.874-0.5136 3.963-1.604 4.643-2.423 0.6799-0.8192 4.317-3.808 8.082-6.642 6.757-5.086 6.844-5.205 6.692-9.235l-0.1544-4.082-2.897 1.222c-1.593 0.672-7.263 4.552-12.6 8.622-5.336 4.07-12.42 9.371-15.74 11.78-12.16 8.819-16.18 13.21-16.24 17.77-0.0467 3.462-2.029 4.916-4.329 3.176-2.587-1.957-4.613-1.732-7.605 0.8451l-2.63 2.265 2.213 6.514c3.551 10.45-12.05 22.61-18.74 14.6zm7.416-6.486c3.818-2.674 5.144-6.454 3.135-8.934l-1.719-2.123-3.185 1.886c-2.633 1.56-3.16 2.403-3.045 4.869 0.2748 5.86 1.291 6.769 4.813 4.302zm31.36-38.82c1.684-1.532 2.494-2.797 1.8-2.812-1.6-0.0349-6.707 3.562-6.707 4.724 0 1.607 1.818 0.8987 4.907-1.911zm80.89-14.56c0.0232-4.958 0.8825-6.094 4.61-6.094 3.642 0 5.622-1.931 4.761-4.643-0.7254-2.285-1.408-2.33-7.478-0.4889-9.8 2.973-12.08 5.93-9.434 12.25 2.172 5.198 7.514 4.469 7.54-1.029zm-8.555-11.33c0.924-2.408 0.651-6.793-0.4659-7.484-1.906-1.178-5.848 3.81-5.165 6.534 0.7012 2.794 4.667 3.463 5.631 0.9499zm-6.163-11.41c0.2-1.7-0.1-2.1-2-2.1-2.591 0-4.887 2.202-3.922 3.763 1.168 1.89 5.589 0.6551 5.917-1.653zm20.15-0.3766c4.571-2.41 12.83-9.614 12.83-11.19 0-4.146-5.435-3.249-7.5 1.237-1.034 2.247-2.511 3.457-5.584 4.576-4.308 1.569-5.289 2.708-4.378 5.082 0.6356 1.656 1.899 1.737 4.633 0.2956zm64.57-12.61c-0.5766-7.157-4.656-9.951-8.67-5.937-2.877 2.877-1.96 5.445 2.861 8.016 5.275 2.813 6.177 2.49 5.808-2.078zm12.85-3.886 1.982-1.641-2.432-4.038c-3.096-5.141-6.567-5.356-6.34-0.3934 0.2788 6.085 3.401 8.878 6.79 6.072zm-32-5.1c3.527-3.527-0.7522-8.661-4.614-5.534-1.907 1.544-2.03 2.042-1.045 4.205 1.182 2.595 3.782 3.206 5.658 1.329zm40.5-4.999c0-3.594-2.227-9.814-3.515-9.814-3.201 0-3.682 3.669-1.198 9.141 2.27 5.001 4.713 5.35 4.713 0.673zm-30.99-6.8c-1.712-3.051-4.058-3.328-4.457-0.5261-0.3489 2.448 3.42 5.536 4.923 4.033 0.6577-0.6576 0.51-1.767-0.4665-3.507zm12.4-5.1c1.657-1.657 1.378-4.5-0.4418-4.5-2.202 0-4.968 2.73-4.363 4.307 0.6191 1.613 3.278 1.72 4.805 0.1932zm58.06-6.058c0.968-2.914 2.113-4.289 4.527-5.435 3.786-1.797 3.807-1.894 1.301-6.005-1.681-2.757-2.278-3.083-4.744-2.59-2.953 0.5905-3.005 0.3546-1.066-4.803 0.6105-1.624-0.4199-1.474-4.965 0.7268-6.72 3.253-9.308 8.414-4.219 8.414 1.672 0 1.763 0.2653 0.8116 2.354-0.894 1.962-0.7045 3.14 1.137 7.073 2.799 5.976 5.291 6.068 7.218 0.265zm34.94-30.71c0-1.852 9.205-9.66 20.16-17.1 3.798-2.579 7.01-5.359 14.39-12.45 6.662-6.404 11.84-7.501 7.301-1.547-4.542 5.955-1.754 6.021 5.229 0.1232 2.724-2.301 6.481-5.465 8.348-7.031 3.641-3.054 5.511-3.599 5.511-1.608 0 1.331-9.896 10.33-14.53 13.22-1.547 0.9626-5.649 4.049-9.116 6.859-7.979 6.467-10.5 6.064-3.775-0.6028 2.707-2.683 4.922-5.291 4.922-5.796 0-1.371-2.836 0.393-6.035 3.754-1.514 1.591-3.304 2.893-3.977 2.893s-2.387 1.308-3.809 2.907-3.841 3.557-5.375 4.352-6.112 4.128-10.17 7.406c-7.635 6.164-9.07 6.896-9.07 4.627zm58.12-25.81c0-0.49 1.973-2.494 4.385-4.453s7.012-5.883 10.22-8.719c12.02-10.62 21.01-17.86 23.22-18.7 3.868-1.471 1.998 2.084-3.941 7.491-2.911 2.65-7.846 7.205-10.97 10.12-3.122 2.917-7.551 6.465-9.844 7.884-2.293 1.42-5.602 3.635-7.354 4.922-3.272 2.404-5.721 3.025-5.721 1.45zm13.12-0.8414c0-1.092 9.786-10.11 15.92-14.67 2.774-2.062 8.025-6.567 11.67-10.01 7.395-6.987 23.72-20.31 30.39-24.8 2.397-1.613 7.003-5.298 10.24-8.189 5.741-5.133 11.21-8.667 12.07-7.804 0.5102 0.5102-14.82 14.68-17.4 16.08-0.9786 0.5319-3.402 2.957-5.384 5.39-4.272 5.242-21.34 19.62-26.34 22.19-1.933 0.9942-4.78 3.157-6.327 4.806-8.838 9.423-24.84 20.38-24.84 17zm-8.438-17.44c0-2.116 6.428-6.651 7.669-5.41 0.7349 0.7348 0.1404 1.823-2.127 3.894-3.394 3.1-5.542 3.687-5.542 1.516zm41.25-1.291c0-1.728 4.71-5.204 5.704-4.209 0.6976 0.6976 0.2391 1.584-1.545 2.988-2.655 2.088-4.159 2.53-4.159 1.222zm10.76-7.692c-0.3004-0.4861 2.016-3.414 5.147-6.507 5.428-5.36 8.279-7.691 21.12-17.26 3.094-2.306 7.312-5.511 9.375-7.121 13.26-10.35 15.85-12.2 17.03-12.2 2.397 0-0.2854 3.342-7.661 9.546-3.873 3.258-10.73 9.111-15.24 13.01-4.506 3.896-9.67 8.088-11.47 9.315-1.805 1.227-4.618 3.313-6.251 4.635-7.462 6.04-11.14 8.056-12.05 6.593zm-11-11.2c1.211-2.263 5.444-5.181 6.289-4.336 0.8122 0.8122-4.428 6.211-6.029 6.211-0.9733 0-1.033-0.431-0.2603-1.875zm-668.9 546.1c2.062-1.778 3.202-3.248 2.532-3.267-1.273-0.037-6.75 2.554-6.75 3.194 0 0.2024-0.2561 1.035-0.569 1.851-0.8937 2.329 0.7178 1.731 4.788-1.777zm24.19-7.064c4.921-4.921 5.45-7.136 0.9468-3.964-1.448 1.02-3.596 2.154-4.773 2.519-2.203 0.6843-5.828 4.032-5.828 5.383 0 2.545 5.355 0.3608 9.654-3.938zm542-6.196c8.215-2.799 14.29-11.51 10.64-15.24-1.422-1.453 13.58-16.42 22.17-22.13 3.142-2.086 7.087-5.953 9.721-9.53 4.246-5.767 4.571-5.999 7.714-5.51 3.903 0.6067 4.864 0.058 6.919-3.953 0.8558-1.67 3.475-5.198 5.821-7.839l4.265-4.802-1.94-2.065c-1.164-1.239-1.952-3.353-1.971-5.286-0.1273-13.39-15.47-33.19-29.38-37.92l-4.565-1.55-11.03 5.7c-13.52 6.99-16.87 7.11-16.87 0.6026 0-1.842 9.91-14.9 17.26-22.75 9.408-10.04 5.648-8.646-13.23 4.904-5.052 3.626-10.44 7.387-11.97 8.358-1.53 0.9712-5.116 3.588-7.969 5.815-10.81 8.438-12.8 9.919-16.91 12.57-2.32 1.498-6.75 4.842-9.844 7.43s-7.162 5.737-9.04 6.997-4.294 3.525-5.368 5.034c-1.074 1.508-3.123 2.977-4.554 3.264-4.542 0.91-13 7.973-11.39 9.514 0.1926 0.1846 3.514-0.287 7.381-1.048 18.67-3.674 29.91-0.1703 46.76 14.58 13.62 11.92 19.47 39.53 11.51 54.26-1.424 2.632-0.4244 2.732 5.863 0.5897zm-514.3-12.3c7.122-5.074 12.47-10.3 16.02-15.63 2.297-3.456 11.7-8.97 13.02-7.641 0.27 0.2699-2.393 3.249-5.917 6.621-9.818 9.393-17.67 22.42-11.54 19.14 3.373-1.805 25.58-22.96 28.45-27.11 1.481-2.136 3.985-4.541 5.566-5.342 1.581-0.8018 4.667-2.91 6.859-4.685 5.381-4.358 5.063-2.546-0.4688 2.671-15.02 14.17-27.69 32.1-17.7 25.07 11.75-8.279 19.13-15.03 30.44-27.86 3.72-4.22 6.655-6.736 7.854-6.736 1.143 0 5.657-3.591 11.19-8.906 8.917-8.559 13.45-11.41 11.07-6.971-1.181 2.206 0.1894 4.628 2.618 4.628 0.7802 0 4.891-3.48 9.135-7.734s9.679-9.378 12.08-11.39c7.938-6.649 7.126-9.387-3.411-11.51l-7.022-1.414-8.576 5.944c-4.717 3.269-10.62 7.42-13.11 9.225-2.496 1.805-5.969 4.295-7.716 5.535-1.748 1.24-5.076 4.033-7.396 6.208-2.32 2.174-8.227 6.614-13.12 9.866-7.787 5.169-14.99 11.09-24.75 20.35-1.806 1.714-2.853 2.184-3.125 1.404-0.5863-1.679-2.749-1.447-5.682 0.6091-1.397 0.9795-5.493 3.497-9.103 5.594-12.5 7.261-24.84 19.06-24.84 23.74 0 2.469 1.263 1.963 9.183-3.68zm556-9.581c4.646-4.308 4.591-5.916-0.1026-3.016-2.793 1.726-7.301 6.747-7.301 8.131 0 0.9865 3.23-1.245 7.404-5.115zm-97.11 0.7274c1.126-0.6111 3.479-1.349 5.228-1.641 6.104-1.016 10.65-14.18 6.175-17.89-4.476-3.715-13.91-0.6076-16.5 5.436-0.9834 2.294-2.626 5.348-3.65 6.786-4.403 6.184 1.59 11.19 8.746 7.308zm116.8-10.87c12.8-13.29 17.33-19.36 13.33-17.86-1.02 0.3817-20.73 21.16-20.73 21.85 0 1.82 3.753-0.2036 7.4-3.99zm-506.2-7.642c8.341-7.048 15.42-14.52 17.77-18.74l2.213-3.978-2.682 1.39c-2.554 1.324-13.1 11.72-14.94 14.72-0.4776 0.7808-3.083 3.246-5.79 5.478s-4.922 4.638-4.922 5.348c0 1.95 2.608 0.6328 8.346-4.216zm17.3-2.873c1.666-1.805 5.663-5.551 8.88-8.325 3.218-2.774 7.796-7.52 10.17-10.55 3.397-4.323 4.875-5.503 6.894-5.503 2.971 0 4.069-0.882 12.5-10.04 4.741-5.153 6.22-7.419 6.22-9.531 0-6.027-4.814-3.892-12.66 5.614-3.094 3.75-7.666 8.741-10.16 11.09-2.495 2.35-6.292 6.127-8.438 8.393s-6.622 6.695-9.948 9.844c-13.55 12.83-15.19 14.57-14.61 15.52 0.8515 1.378 7.392-2.442 11.15-6.511zm18.66-4.027c4.473-3.888 7.763-7.72 9.642-11.23 1.569-2.93 4.069-6.598 5.557-8.151 5.647-5.894 1.271-3.617-6.11 3.18-4.242 3.907-8.032 7.103-8.42 7.103-0.6661 0-10.29 13.62-10.29 14.56 0 1.74 3.845-0.4438 9.617-5.461zm494.5-0.5655c4.83-3.498 11.98-12.9 12.76-16.78 0.947-4.735-0.6151-3.637-8.059 5.664-11.3 14.11-12.38 16.67-4.698 11.11zm-479.6-6c4.446-3.22 4.836-3.334 4.836-1.406 0 3.588 11.75-1.968 17.61-8.329 4.22-4.578 4.49-5.316 2.98-8.139-1.566-2.925-3.292-2.154-8.449 3.775-5.059 5.817-9.331 9.258-9.331 7.518 0-0.5495 1.84-2.985 4.088-5.412 5.701-6.155 7.439-10.51 4.195-10.51-1.965 0-9.014 6.722-12.5 11.92-2.001 2.983-4.551 6.479-5.667 7.768-4.805 5.55-3.614 7.049 2.235 2.812zm506.7-10.16c3.561-2.348 7.246-7.552 7.246-10.23 0-2.876-0.9141-2.241-6.587 4.575-6.011 7.223-6.259 9.348-0.6595 5.656zm-34.3-10.25c2.156-2.955 5.205-6.602 6.775-8.105s3.308-4.106 3.862-5.785c0.7171-2.173 2.127-3.606 4.892-4.975 4.99-2.469 5.032-2.338 1.127 3.46-3.306 4.908-5.471 9.513-4.793 10.19 1.933 1.933 11.82-9.836 16.56-19.72 0.989-2.06 2.177-3.024 3.984-3.232 3.188-0.3673 3.189-0.3978-0.2376 6.39-3.947 7.819-3.897 10.75 0.1182 6.972 4.906-4.609 8.818-15.58 5.038-14.13-1.811 0.6949-1.781 0.4112 0.5155-4.927l1.922-4.467-1.919-5.13c-4.445-11.88-15.17-23.32-23.54-25.11-7.076-1.518-7.132-1.503-21.14 5.46-7.162 3.56-17.17 8.263-22.24 10.45-9.458 4.08-11.66 6.088-8.619 7.861 10.74 6.258 22.62 21.17 27.68 34.74 1.463 3.922 3.165 7.739 3.782 8.483 0.6972 0.84 0.8893 2.593 0.5073 4.63-0.8547 4.556 0.8435 3.654 5.73-3.04zm-622.3-1.154c3.613-2.836 7.67-6.844 9.017-8.906l2.448-3.75-3.063-0.3096c-2.321-0.2346-3.478 0.2197-4.777 1.875-0.9425 1.202-2.429 3.022-3.304 4.046-11.07 12.96-11.19 15.58-0.3212 7.045zm-147.9 2.911c2.912-2.314 5.811-7.306 4.657-8.019-0.4893-0.3024-1.642 0.7233-2.561 2.279-0.9191 1.556-1.954 2.829-2.299 2.829-0.3452 0-1.319 1.055-2.163 2.344-1.824 2.784-0.748 3.041 2.365 0.5669zm810.2-14.05c2.645-4.859 3.071-6.67 1.571-6.67-0.9489 0-5.641 8.552-5.641 10.28 0 2.218 1.734 0.6795 4.07-3.611zm28.76-5.264c5.192-5.872 11.24-15.69 11.24-18.25 0-2.225-1.775-0.5577-6.602 6.2-2.814 3.941-6.944 9.32-9.178 11.95-2.233 2.634-4.707 6.02-5.497 7.526l-1.437 2.738 2.838-1.8c1.561-0.9901 5.449-4.753 8.64-8.363zm-675.3-5.391c3.734-3.945 5.506-7.266 3.877-7.266-1.275 0-10.14 8.37-10.14 9.574 0 1.809 3.637 0.4688 6.266-2.308zm23.86-3.198c4.866-5.242 7.552-12.51 4.623-12.51-1.066 0-1.938-0.4219-1.938-0.9375s-0.4219-0.9375-0.9375-0.9375-0.9375 0.9923-0.9375 2.205-1.048 3.639-2.329 5.391c-7.073 9.676-8.244 13.26-3.531 10.79 1.418-0.7408 3.69-2.544 5.049-4.008zm643.6-4.968c0.1853-1.214 2.056-4.072 4.157-6.352 4.343-4.711 9.469-15.22 12.46-25.56 2.487-8.584 4.539-9.462 5.246-2.243 0.542 5.537 1.431 5.618 6.892 0.6324 2.984-2.725 4.995-6.041 6.602-10.89 0.9885-2.982 2.915-1.206 2.605 2.402-0.6489 7.531 5.706 1.775 11.97-10.85 3.287-6.618 4.893-7.986 7.445-6.344 1.057 0.68 0.7751 1.77-1.514 5.858-3.271 5.842-6.486 14.57-5.668 15.39 3.376 3.376 18.07-23.18 16.38-29.62-0.2523-0.9647 0.074-2.482 0.725-3.373 1.471-2.011 3.306 0.687 3.306 4.861 0 2.037 0.3495 2.423 1.84 2.034 1.685-0.4407 1.616-0.0366-0.8306 4.812-2.794 5.539-5.019 12.38-4.27 13.13 2.598 2.598 15.5-21.3 14.19-26.29-0.5615-2.147 1.668-7.321 3.155-7.321 0.5024 0 0.9134 1.452 0.9134 3.226 0 4.262 1.274 4.865 3.717 1.76 2.549-3.24 2.129-6.045-1.138-7.606-1.418-0.6775-2.578-1.614-2.578-2.082 0-2.64-12.37-3.528-36.6-2.627l-11.76 0.4374-14.49 8.464c-7.97 4.655-15.76 9.095-17.3 9.866-51.76 25.8-48.01 23.63-44.53 25.85 4.968 3.172 15.62 14.97 18.56 20.56 1.685 3.199 4.051 6.594 5.259 7.543 1.207 0.9496 2.492 3.078 2.855 4.73 1.246 5.674 8.722-1.052 12.33-11.1 1.762-4.901 3.452-5.682 5.42-2.503 0.8266 1.335 0.5079 2.633-1.565 6.374-3.549 6.403-7.407 16.88-6.8 18.46 0.7377 1.922 2.619 0.8995 3.006-1.634zm39.12-6.565c3.839-1.459 8.061-8.089 8.061-12.66 0-3.107 0.5697-4.449 2.796-6.581 2.759-2.643 6.408-10.34 5.386-11.36-1.932-1.932-19.43 24.71-19.43 29.59 0 2.21 0.028 2.219 3.189 1.017zm-654.8-1.895c1.968-1.053 7.903-10.26 7.119-11.05-0.7551-0.7552-4.099 2.488-7.2 6.984-3.553 5.15-3.536 6.001 0.0811 4.065zm634-2.593c8.151-8.438 12.56-15.76 11.82-19.6-0.3839-1.994-7.704 6.578-12.68 14.85-5.43 9.022-5.088 10.91 0.8605 4.753zm38.34-3.877c1.23-0.9719 3.667-4.663 5.417-8.203s4.386-8.844 5.859-11.79c3.481-6.958 2.143-9.918-1.713-3.788-0.8922 1.418-2.63 3.819-3.863 5.336-2.132 2.624-9.558 17.7-9.558 19.4 0 1.299 1.458 0.9357 3.858-0.9608zm-18.18-10.06c3.658-7.3 3.551-10.09-0.2117-5.483-4.272 5.232-8.22 16.49-4.782 13.64 0.8526-0.7075 3.1-4.378 4.993-8.157zm-146.2 3.479c2.98-1.496 9.637-4.642 14.79-6.99 5.156-2.348 21.29-10.19 35.85-17.44 14.56-7.242 26.71-13.17 26.98-13.17 0.5198 0 52.1-25.11 57.16-27.83 20.54-11.03 21.21-12.13 17.83-29.33-0.7623-3.879-1.609-8.549-1.882-10.38-0.2726-1.829-1.699-4.766-3.17-6.528l-2.675-3.204-8.365 7.935c-11.49 10.9-31.84 29.19-36.66 32.95-2.188 1.708-8.776 7.64-14.64 13.18-5.865 5.543-11.33 10.08-12.14 10.08-6.951 0 1.608-9.69 28.49-32.26 4.857-4.077 9.674-8.317 10.71-9.422 1.031-1.105 6.726-6.184 12.66-11.29 28.58-24.59 53.37-51.16 51.13-54.79-0.2753-0.4454-3.561-1.116-7.301-1.49-10.21-1.02-11.02-1.493-11.02-6.404 0-5.587 0.4044-5.778 15.94-7.531 33.2-3.747 39.69-4.511 52.5-6.182 7.477-0.9748 18.45-2.228 24.38-2.785 20.39-1.914 29.55-2.842 37.5-3.796 4.383-0.526 11.55-1.37 15.94-1.875 4.383-0.5054 10.92-1.348 14.53-1.872 3.609-0.5241 10.78-1.368 15.94-1.874 16.22-1.594 25-2.689 29.45-3.671 2.368-0.5228 10-1.389 16.96-1.924 6.961-0.5354 16.66-1.396 21.56-1.913 4.898-0.5168 13.34-1.401 18.75-1.964 5.414-0.5634 11.74-1.411 14.06-1.884s11.6-1.723 20.62-2.779c9.023-1.055 19.36-2.303 22.97-2.772 3.609-0.4693 14.32-1.506 23.79-2.304 9.476-0.7981 20.02-2.06 23.44-2.803 5.459-1.189 27.85-3.994 48.86-6.121 3.867-0.3915 11.93-1.249 17.93-1.906 13.87-1.521 13.95-1.49 13.95 5.632 0 5.561-1.918 9.404-4.693 9.404-0.5186 0-3.577 2.575-6.797 5.722s-8.083 7.205-10.81 9.018c-2.724 1.813-7.539 6.515-10.7 10.45-8.22 10.23-12.14 14.19-14.07 14.19-2.867 0-1.899-2.493 3.885-10 6.489-8.425 6.474-9.076-0.1602-6.85-12.33 4.137-14.7 5.78-35.88 24.81-4.641 4.17-11.18 9.855-14.53 12.63-23.3 19.31-29.45 27.7-20.86 28.42 28.59 2.418 50.35 25.38 48.82 51.51-0.279 4.782 0.3772 5.054 4.17 1.724 1.798-1.579 3.635-2.884 4.083-2.901 1.429-0.0548 4.77-3.29 5.379-5.209 0.3237-1.02 1.857-2.603 3.407-3.519 1.55-0.9157 3.443-2.872 4.206-4.348s2.666-3.593 4.228-4.706 3.472-3.243 4.243-4.734c2.314-4.474 5.573-5.674 4.791-1.763-0.3403 1.701-1.246 3.786-2.014 4.634-0.7673 0.8479-1.395 2.06-1.395 2.693 0 1.806 2.936-0.6053 8.606-7.069 11.08-12.63 13.37-16.68 12.46-22.04-2.715-16.07-14.65-32.44-26.2-35.95-11.92-3.617-15.97-7.549-12.14-11.78 8.259-9.126 39.18 17.11 48.23 40.92 0.6449 1.696 1.403 2.297 2.411 1.911 0.8084-0.3102 1.767-0.5641 2.13-0.5641 0.3634 0 2.236-2.109 4.16-4.688 5.174-6.931 9.094-5.961 5.377 1.33-1.716 3.367-1.742 3.745-0.3223 4.783 2.205 1.612-2.012 8.12-11.54 17.81-7.996 8.132-12.86 15.45-10.28 15.45 0.7999 0 3.971-3.059 7.047-6.797s6.456-7.328 7.512-7.977c1.056-0.6489 1.919-1.859 1.919-2.689 0-0.8299 1.263-2.947 2.807-4.706 4.739-5.397 6.903-10.36 4.985-11.44-1.956-1.095 0.2925-5.198 3.742-6.829 1.133-0.5356 5.013-5.003 8.622-9.927 5.706-7.785 8.51-12.39 15.21-24.95 2.449-4.596-0.6244-15.01-6.971-23.61-2.401-3.256-3.857-4.121-10.66-6.332-10.73-3.485-10.11-3.636-22.62 5.518-11.67 8.535-21.04 12.52-22.79 9.687-1.6-2.589 0.6005-5.382 6.435-8.169 5.869-2.803 29.05-18.19 33.25-22.07 3.582-3.31 2.421-5.752-2.898-6.092-11.43-0.7304-10.37-11.72 1.218-12.63 3.352-0.2642 10.31-1.147 15.47-1.962 11.75-1.857 57.17-6.923 68.44-7.633 4.641-0.2925 16.03-1.561 25.31-2.819 9.281-1.258 23.41-2.946 31.41-3.752 7.992-0.8059 15.16-1.644 15.94-1.862 0.7734-0.2183 9.211-1.245 18.75-2.281 18.01-1.956 24.95-2.811 43.12-5.309 10.68-1.468 14.23-1.889 34.22-4.063 5.672-0.6168 14.22-1.735 19-2.485 6.463-1.014 9.185-1.099 10.62-0.331 2.293 1.227 4.596 0.552 4.596-1.347 0-1.398-6.597-7.139-8.203-7.139-0.4962 0-2.884-1.513-5.306-3.363-4.984-3.805-9.823-5.163-34.3-9.624-13.79-2.514-21.56-3.799-55.31-9.156-4.898-0.7775-12.91-2.211-17.81-3.185-18.08-3.595-34.4-6.576-40.78-7.45-3.609-0.4941-9.649-1.548-13.42-2.341-3.772-0.7935-8.132-1.443-9.69-1.443s-5.432-0.6096-8.611-1.355c-29.62-6.943-28.5-6.878-41.94-2.45-7.413 2.443-12.9 4.9-15.97 7.153l-4.675 3.432-17.07-1.071c-9.388-0.589-21.92-1.49-27.85-2.002s-13.1-1.101-15.94-1.31c-4.545-0.334-43.39-3.71-71.25-6.193-28.84-2.57-29.97-2.504-26.16 1.546 1.638 1.743 2.372 3.825 2.719 7.702l0.4743 5.313 4.685 0.6667c5.722 0.8142 7.307-0.3046 2.761-1.949-4.372-1.581-3.99-4.017 0.8169-5.208 4.431-1.097 53.78 3.955 67.67 6.929 2.578 0.5518 6.058 1.265 7.734 1.584 4.407 0.8406 3.816 2.379-3.201 8.332-14.1 11.96-19.1 13.07-44.42 9.85-8.997-1.145-19.73-2.433-23.86-2.862-12.67-1.319-19.57-2.781-22.23-4.705-3.284-2.38-4.086-2.322-6.517 0.4742-2.358 2.712-10.04 5.441-22.41 7.959-4.867 0.9912-11.76 2.451-15.32 3.244-20.77 4.631-49.45-1.537-64.62-13.9-6.699-5.457-7.622-5.87-14.69-6.582-3.352-0.3377-10.95-1.212-16.88-1.944-5.93-0.7315-14.79-1.781-19.69-2.333-15.87-1.786-18.96-2.435-20.29-4.259-2.784-3.807-1.007-7.461 4.865-10.01 1.539-0.6674 6.028-3.24 9.976-5.717 8.703-5.46 16.23-7.067 25.47-5.438 3.17 0.5586 12.51 1.866 20.76 2.906s18.21 2.35 22.14 2.913c6.113 0.8763 7.559 0.8049 10.08-0.4979 3.996-2.067 3.696-3.14-1.043-3.722-18-2.209-42.93-4.488-52.73-4.822-4.641-0.1581-12.45-0.7338-17.34-1.279-13.8-1.537-19.47-1.333-22.17 0.7959-1.273 1.001-4.714 2.318-7.646 2.927-2.933 0.6088-7.572 2.098-10.31 3.308-2.738 1.211-7.801 2.816-11.25 3.568-7.442 1.622-27.79 8.47-37.66 12.67-4.097 1.745-10.13 3.402-14.53 3.986-4.856 0.6455-10.55 2.289-16.07 4.639-4.703 2.001-9.066 3.639-9.694 3.639-4.346 0-52.44 18.82-58.89 23.05-4.188 2.744-1.818 3.555 23.22 7.944 5.93 1.039 14.58 2.711 19.22 3.715 8.693 1.881 39.14 7.208 48.28 8.446 2.836 0.3843 9.164 1.393 14.06 2.241 18.42 3.19 25 4.218 30.26 4.727 2.982 0.2886 7.2 0.9272 9.375 1.419s7.661 1.401 12.19 2.02c9.118 1.246 12.25 2.693 10.23 4.734-2.072 2.099-14.71 0.9604-43.31-3.902-6.445-1.096-16.78-2.778-22.97-3.739-6.188-0.961-13.99-2.378-17.34-3.15-3.352-0.7715-8.625-1.696-11.72-2.054-3.094-0.3584-8.578-1.256-12.19-1.994-3.609-0.7385-9.094-1.729-12.19-2.201-3.094-0.4722-10.9-1.927-17.34-3.233-14.86-3.01-20.38-4.007-28.76-5.193-3.702-0.5236-7.843-1.375-9.202-1.891-4.735-1.8-8.049-0.887-26 7.165-9.937 4.457-20.81 9.261-24.16 10.68-6.317 2.666-20.18 9.184-40.23 18.92-6.399 3.106-14.34 7.497-17.64 9.757-6.281 4.3-9.316 5.091-10.25 2.668-1.081-2.816 12.66-13.03 23.76-17.67 3.191-1.333 14.04-6.438 24.1-11.34 10.06-4.905 18.54-8.918 18.85-8.918 0.5657 0 7.073-2.928 21.33-9.598 10.3-4.818 8.577-6.997-7.266-9.203-2.578-0.359-7.008-1.15-9.844-1.759-2.836-0.6083-6.844-1.241-8.906-1.405-2.062-0.1646-7.969-1.187-13.12-2.271-5.156-1.084-13.17-2.61-17.81-3.391-18.9-3.179-34.43-6.068-39.56-7.359-2.989-0.7521-12.32-2.357-20.74-3.567l-15.3-2.2-9.073 2.511c-4.99 1.381-12.07 3.578-15.73 4.883s-8.934 2.987-11.72 3.738c-2.785 0.7514-8.649 2.812-13.03 4.58-4.383 1.768-16.41 6.482-26.72 10.48-10.31 3.994-23.6 9.19-29.53 11.55-5.93 2.356-13.52 5.226-16.88 6.377-3.352 1.151-9.891 3.993-14.53 6.314-4.641 2.321-14.34 6.558-21.56 9.414-23.74 9.394-71.21 33.98-94.2 48.79-3.364 2.167-8.637 5.375-11.72 7.129-3.081 1.754-8.143 5.345-11.25 7.981s-6.915 5.577-8.462 6.536c-10.51 6.515-25.26 16.68-30.07 20.71-3.132 2.628-7.076 5.584-8.763 6.569-4.081 2.382-9.788 13.58-6.87 13.49 0.3867-0.0132 6.82-1.275 14.3-2.804 7.477-1.529 15.28-2.785 17.34-2.79 2.062-0.006 7.336-0.6526 11.72-1.439 8.26-1.481 28.52-3.724 46.41-5.136 5.672-0.4479 14.53-1.253 19.69-1.789 5.156-0.5362 21.19-2.071 35.62-3.41 14.44-1.339 29.2-3.053 32.81-3.808 3.609-0.7549 13.1-1.777 21.09-2.271 7.992-0.4941 17.48-1.301 21.09-1.793 3.609-0.4921 9.727-1.152 13.59-1.467 3.867-0.3148 10.93-1.208 15.69-1.985 4.761-0.7771 8.99-1.207 9.398-0.9546 0.4078 0.252 6.848-0.6286 14.31-1.957 7.464-1.328 14.84-2.354 16.38-2.279 1.547 0.0751 5.555-0.2632 8.906-0.7519 3.352-0.4887 12.63-1.55 20.62-2.358 7.992-0.8082 18.12-1.868 22.5-2.356 9.254-1.029 24.53-2.121 28.59-2.044 3.661 0.0694 43.6-4.321 49.69-5.461 2.578-0.4833 10.59-1.333 17.81-1.887 7.219-0.5548 16.71-1.612 21.09-2.348 7.122-1.197 14.48-2.064 34.73-4.091 4.64-0.4645 7.216-1.33 10.57-3.549 7.208-4.775 10.4-2.723 7.766 4.998-0.8251 2.421-1.5 5.401-1.5 6.622 0 3.636-3.924 6.828-7.65 6.223-2.981-0.4838-3.766 0.1015-15.79 11.78-13.86 13.45-23.21 22.69-26.64 26.32-1.221 1.289-3.424 3.422-4.896 4.739-1.472 1.318-5.419 5.707-8.77 9.754-5.853 7.068-14.88 16.92-50.62 55.29-16.57 17.78-17.82 19.2-31.5 35.83-4.175 5.076-8.288 9.808-9.141 10.52-1.448 1.201-2.102 2.931-1.108 2.931 0.2424 0 2.879-1.224 5.859-2.72zm-271.9-154.1c-2.697-2.855 0.0536-5.13 6.17-5.101 2.149 0.01 9.392-0.8326 16.1-1.872 11.03-1.71 21.58-3.143 62.81-8.527 7.219-0.9426 15.45-1.735 18.29-1.76 2.839-0.0254 6.636-0.4691 8.438-0.986 1.801-0.5169 6.861-1.4 11.24-1.963 4.383-0.5626 10.71-1.423 14.06-1.913 3.352-0.4894 9.258-1.274 13.12-1.744 3.867-0.4696 13.57-1.743 21.56-2.83 7.992-1.087 16.01-2.146 17.81-2.354 1.805-0.2078 10.66-1.267 19.69-2.353 9.023-1.086 22.73-2.562 30.47-3.279 30.07-2.787 44.32-4.214 50.62-5.069 7.981-1.082 19.3-2.059 28.12-2.427 3.609-0.1504 10.57-0.7045 15.47-1.231 4.898-0.5268 14.18-1.428 20.62-2.003 6.445-0.5748 13.2-1.412 15-1.86 1.805-0.4482 7.922-1.09 13.59-1.426 5.672-0.3361 13.05-1.032 16.41-1.546 3.352-0.5144 9.891-1.299 14.53-1.743 4.641-0.4442 16.45-1.677 26.25-2.741 9.797-1.063 20.34-1.94 23.44-1.949 3.094-0.008 7.135-0.4354 8.98-0.9481 1.846-0.5127 6.275-1.113 9.844-1.334 17.9-1.108 33.42-2.502 43.99-3.952 1.031-0.1415 5.461-0.7128 9.844-1.27 7.385-0.9384 12.52-1.498 33.75-3.677 4.383-0.4499 12.19-1.506 17.34-2.348 5.156-0.8413 14.44-2.121 20.62-2.844 6.188-0.7227 11.88-1.546 12.66-1.828 1.763-0.645 35.85-4.713 55.78-6.658 8.25-0.8048 22.17-2.268 30.94-3.253 8.766-0.9841 18.68-2.037 22.03-2.339 18.85-1.701 58.03-6.161 79.3-9.027 7.261-0.9784 15.28-1.778 17.81-1.778 2.536 0.00066 7.986-0.433 12.11-0.9636 4.125-0.5306 16.99-2.049 28.59-3.374s24.26-2.783 28.12-3.239c3.867-0.456 11.88-1.248 17.81-1.76 5.93-0.5122 16.05-1.562 22.5-2.333 12.13-1.451 28.64-3.062 44.06-4.3 4.898-0.3933 14.6-1.4 21.56-2.236 6.961-0.8368 15.4-1.683 18.75-1.881 3.352-0.1976 8.836-0.8094 12.19-1.36 3.352-0.5502 9.047-1.21 12.66-1.467 3.609-0.2564 9.315-0.7426 12.68-1.08 5.068-0.5089 6.34-0.3463 7.413 0.9476 2.894 3.487 3.488 3.381-45.41 8.089-16.5 1.589-33.66 3.502-38.13 4.251-4.473 0.7493-14.39 1.772-22.03 2.272-14.67 0.9606-25.85 2.13-34.76 3.636-2.963 0.5009-8.763 1.171-12.89 1.49-4.125 0.3185-10.66 0.9778-14.53 1.465-3.867 0.4874-16.31 1.753-27.66 2.812-11.34 1.059-21.26 2.158-22.03 2.442-0.7734 0.2836-6.047 0.8687-11.72 1.3-5.672 0.4316-18.12 1.655-27.66 2.719-9.539 1.064-23.46 2.553-30.94 3.309-32.8 3.317-108.9 11.78-123.3 13.71-4.125 0.5537-10.88 1.348-15 1.765-4.125 0.4173-11.51 1.42-16.41 2.229-31.14 5.14-50.82 7.556-84.84 10.41-9.797 0.8231-21.19 1.916-25.31 2.429-13.01 1.618-35.33 3.788-43.12 4.192-4.125 0.2139-9.398 0.803-11.72 1.309-6.062 1.322-16.83 2.442-20.46 2.129-1.715-0.1478-4.668 0.2641-6.562 0.9155-1.895 0.6514-5.554 1.228-8.132 1.281-6.028 0.1249-23.68 2.067-30.94 3.403-3.094 0.5699-7.524 1.16-9.844 1.312-2.32 0.1516-8.438 0.7155-13.59 1.253-5.156 0.5375-13.2 1.343-17.88 1.789-4.679 0.4464-8.97 1.098-9.536 1.448-0.5658 0.3497-8.339 1.086-17.27 1.637-8.935 0.5505-17.72 1.172-19.53 1.382-1.805 0.2098-5.602 0.5651-8.438 0.7897s-6.344 0.8638-7.795 1.42c-1.452 0.5566-5.038 1.015-7.969 1.02s-8.916 0.4158-13.3 0.9145c-4.383 0.4988-13.82 1.348-20.97 1.887-7.15 0.5392-14.74 1.414-16.88 1.943-2.131 0.5295-6.828 1.119-10.44 1.309-10.52 0.555-21.51 1.94-23 2.897-1.397 0.8982-16.93 2.407-24 2.332-2.128-0.0228-5.326 0.5674-7.107 1.311-1.781 0.744-7.634 1.644-13.01 1.999-5.373 0.3556-10.19 0.967-10.71 1.359-0.5156 0.3917-4.102 0.9194-7.969 1.173-9.795 0.6416-23.02 2.476-28.59 3.965-2.578 0.6893-8.695 1.513-13.59 1.83-4.898 0.3175-12.28 1.22-16.41 2.005-4.125 0.7855-10.45 1.789-14.06 2.229-3.609 0.4407-10.78 1.473-15.94 2.293-10.45 1.664-42.73 3.073-43.83 1.913zm458.9 139.2c4.45-9.007 2.939-10.06-1.965-1.372-3.115 5.52-3.594 7.415-1.73 6.841 0.6445-0.1982 2.307-2.659 3.695-5.469zm-634.4-4.988c8.689-6.384 13.55-11.29 13.55-13.68 0-2.061-1.584-1.633-3.75 1.012-0.2578 0.3147-1.734 1.22-3.281 2.013-3.141 1.608-13.59 12.18-13.59 13.75 0 1.719 1.309 1.148 7.078-3.091zm-300.6-1.1c-1.749-2.108 0.3585-3.274 5.684-3.145 6.777 0.1639 7.288 0.0731 5.625-1.002-2.596-1.677-12.17-1.154-12.85 0.7031-0.3317 0.9024-1.162 1.978-1.846 2.39-2.164 1.305-1.348 2.532 1.685 2.532 2.559 0 2.773-0.1861 1.701-1.478zm950.2-4.278c1.735-2.061 2.392-3.796 2.193-5.787-0.6077-6.085-4.686-2.805-5.901 4.746-0.7738 4.808 0.2881 5.106 3.709 1.041zm-991.1-4.322c3.471-3.571 15.89-23.52 17.15-27.56 0.381-1.215 1.479-3.216 2.439-4.446 0.9603-1.23 1.746-2.767 1.746-3.415 0-0.6487 0.6328-1.422 1.406-1.719 0.9565-0.367 1.406 0.0506 1.406 1.306 0 2.933 1.58 2.157 3.857-1.894 1.936-3.445 4.95-5.578 6.164-4.364 0.2778 0.2778-0.3868 1.948-1.477 3.712-1.989 3.218-2.708 7.633-1.148 7.048 3.99-1.496 10.22-14.17 7.722-15.71-0.5412-0.3344-0.6216-1.132-0.1854-1.838 0.5393-0.8727 0.9634-0.9356 1.412-0.2096 1.489 2.409 4.429 0.8494 8.651-4.587 6.533-8.413 8.8-7.706 4.354 1.359-2.395 4.884-2.536 7.062-0.3684 5.723 0.5391-0.3332 4.957-5.547 9.818-11.59 4.861-6.04 9.787-11.82 10.95-12.85l2.111-1.866-0.6385 2.344c-1.464 5.375-1.716 7.5-0.8878 7.5 1.276 0 13.94-14.82 18.78-21.98 4.308-6.37 5.307-7.125 6.234-4.711 0.3771 0.9828 1.259 1.251 2.822 0.8586 1.558-0.391 2.539-0.0959 3.117 0.937 1.58 2.823 5.329-2.383 4.583-6.363-1.361-7.253-13.52-19.36-19.44-19.36-2.312 0.00061-15.55 4.169-30.85 9.715-8.998 3.261-19.92 5.51-32.58 6.71l-6.841 0.6483-1.099-2.912c-1.566-4.15-1.176-4.33-24.76 11.38-30.21 20.13-29.54 19.49-22.04 21.29 28.46 6.827 44.87 50.79 24.56 65.81-2.907 2.149-3.754 4.547-1.607 4.547 0.6688 0 2.754-1.582 4.633-3.516zm11.88 1.97c1.214-0.85 3.531-4.33 5.15-7.734 4.894-10.29 8.161-16.24 8.645-15.76 0.9929 0.993-2.77 12.62-5.35 16.53-3.451 5.231-2.261 8.6 1.655 4.684 0.7276-0.7276 1.51-0.7073 2.766 0.0722 3.808 2.362 8.724-2.04 14.13-12.65 4.336-8.511 6.223-13.8 6.102-17.12-0.0707-1.929-0.1605-4.682-0.1995-6.119-0.1036-3.81-1.202-2.569-5.622 6.354-4.036 8.146-6.026 10.19-5.02 5.164 0.6683-3.341-2.412-4.017-5.515-1.209-1.528 1.382-1.889 1.415-2.625 0.2344-1.593-2.555-4.057 0.3578-9.354 11.06-2.841 5.74-6.368 11.69-7.837 13.22-3.937 4.11-1.631 6.564 3.073 3.27zm970.9-9.442c0.8014-1.918 1.325-4.344 1.164-5.391l-0.2933-1.903-1.068 1.892c-1.264 2.24-2.626 8.889-1.82 8.889 0.3083 0 1.216-1.569 2.018-3.487zm-911.3-0.1626c-0.7997-0.752-9.493-2.913-11.72-2.913-2.303 0-0.5123 1.789 2.624 2.622 4.557 1.21 10.27 1.392 9.094 0.2902zm-20.98-17.81c4.701-9.913 5.813-15.1 3.235-15.1-1.9 0-3.773 3.11-6.21 10.31-1.134 3.352-3.053 8.845-4.265 12.21-4.361 12.1 0.1979 7.431 7.24-7.416zm1281 0.5994c7.733-7.037 14.39-15.9 12.97-17.29-0.4245-0.416-2.183 0.8689-3.907 2.855s-4.364 4.518-5.867 5.627c-3.02 2.228-11.44 11.77-11.44 12.97 0 1.988 3.328 0.3058 8.239-4.163zm-1364-1.7c10.3-2.854 13.66-6.121 9.677-9.423-2.436-2.022-18.17 7.095-18.24 10.57-0.0215 1.051 1.238 0.8823 8.562-1.147zm180.3-0.906c6.545-0.6456 12.71-0.7132 16.88-0.1849 9.281 1.177 10.55-1.773 11.05-25.65l0.1966-9.375-3.548-0.2929c-3.35-0.2765-3.516-0.1642-2.971 2.007 0.769 3.064-0.5922 3.753-7.295 3.689-4.735-0.0446-5.927 0.3083-8.202 2.428-1.464 1.364-5.73 5.012-9.48 8.106s-8.479 7.207-10.51 9.141c-2.03 1.934-4.067 3.516-4.528 3.516-1.061 0-4.552 5.663-4.557 7.392-0.004 1.393 1.527 1.342 22.97-0.7731zm-87.25-10.13c0.4645-1.481 0.28-2.109-0.6196-2.109-1.435 0-3.089 4.196-3.881 9.844l-0.5257 3.75 2.182-4.688c1.2-2.578 2.48-5.637 2.844-6.797zm1228 4.562c0.2818-0.4557 2.406-1.719 4.721-2.807 9.825-4.618 9.758-10.8-0.1544-14.1-8.413-2.805-22.98 8.555-17.73 13.82 2.972 2.978 11.93 5.079 13.16 3.087zm-1212-9.9c3.31-7.164 3.938-9.522 2.261-8.485-1.16 0.7169-6.541 12.38-6.541 14.18 0 2.614 1.146 1.089 4.28-5.693zm1287-0.6411c1.705-2.123 5.275-6.295 7.932-9.27 2.658-2.975 6.808-8.407 9.222-12.07 2.414-3.664 4.775-6.901 5.246-7.192 1.104-0.6824 1.123-3.487 0.021-3.075-0.8226 0.3077-7.138 7.839-10.97 13.08-1.077 1.474-3.819 4.713-6.094 7.198-6.34 6.927-11.17 13.06-11.17 14.18 0 2.217 2.871 0.8099 5.806-2.847zm-1248-7.7c3.189-4.77 7.803-10.99 10.25-13.83 5.745-6.651 18.98-27.72 18.59-29.6-0.5887-2.825-2.253-1.412-7.975 6.77-16.82 24.06-19.98 28.27-25.32 33.77-5.498 5.661-5.752 6.123-4.83 8.767 1.529 4.386 3.07 3.409 9.281-5.88zm136.9-4.539 2.824-2.011-3.113-2.668c-6.165-5.284-11.08-4.4-11.08 1.991 0 7.976 2.961 8.676 11.37 2.688zm172.3-8.536c3.45-4.692 3.466-4.834 0.8266-7.293-2.697-2.513-4.082-1.919-3.801 1.63 0.1241 1.57-0.3816 4.025-1.124 5.456-1.327 2.559-1.173 4.142 0.4037 4.142 0.4406 0 2.103-1.771 3.695-3.935zm992.9-17.31c3.503-3.164 6.295-6.878 5.173-6.878-0.6973 0-9.907 9.042-9.907 9.727 0 1.135 0.9701 0.5511 4.734-2.849zm8.693-12.2c-1.591-0.5935 0.287-5.514 2.89-7.572 2.931-2.318 10.87-14.17 10.87-16.23 0-2.073-1.919-6.498-2.818-6.498-1.852 0-8.924 12.13-11.25 19.3-0.6556 2.02-1.977 4.792-2.937 6.161-2.106 3.003-2.259 5.48-0.3387 5.48 0.7735 0 1.406 0.7232 1.406 1.607 0 1.475 0.1348 1.466 1.641-0.1124 1.124-1.179 1.293-1.849 0.5368-2.131zm-1306 0.5728 2.723-1.939v1.939c0 4.324 7.423-2.817 13.58-13.06 8.177-13.61 33.08-35.85 50.49-45.08 19.61-10.4 26.74-17.85 9.775-10.21-4.776 2.149-14.76 6.422-22.19 9.497-16.65 6.891-30.01 12.96-58.68 26.64-2.578 1.23-6.797 2.925-9.375 3.765-7.513 2.449-7.62 2.777-2.765 8.459 2.356 2.758 6.15 8.82 8.431 13.47 4.635 9.452 4.29 9.172 8.018 6.517zm779-17.24c15.73-15.7 16.25-14.71-6.131-11.78-26.34 3.455-25.03 2.808-20.21 10.03 11.35 16.99 11.08 16.97 26.34 1.744zm-844.1-0.5801c3.167-1.505 6.646-2.736 7.73-2.736s6.086-1.729 11.12-3.843c5.03-2.114 13.79-5.506 19.46-7.539 5.672-2.033 17.48-7.242 26.25-11.57 14.99-7.411 34.2-16.1 44.93-20.32 25.22-9.929 52.37-22.77 55.49-26.23 6.399-7.127 17.67-31.8 22.32-48.85 3.098-11.36 2.636-11.47-8.689-2.152-3.787 3.117-8.023 6.511-9.415 7.542-5.632 4.173-16.81 13.28-21.51 17.52-2.747 2.48-10.36 8.093-16.92 12.47-6.558 4.381-15.49 11.03-19.85 14.77-11.76 10.09-22.6 16.57-25.7 15.38-2.241-0.86-0.952-2.565 6.06-8.016 3.352-2.605 9.21-7.173 13.02-10.15 10.21-7.982 13.03-10.01 20.13-14.49 6.61-4.164 16.75-11.65 34.82-25.7 5.672-4.41 12.42-9.398 15-11.08 8.616-5.637 17.4-13.84 19.72-18.44 1.399-2.761 3.573-5.225 5.789-6.563 1.952-1.178 5.132-3.542 7.067-5.253s3.858-3.111 4.274-3.111c1.938 0 3.565 20.93 4.334 55.74 0.2015 9.128 0.6249 16.85 0.9408 17.17 1.295 1.295 24.88-9.274 29.65-13.29 1.864-1.568 4.448-2.506 8.132-2.949 6.094-0.7342 5.756-0.6044 25.56-9.819 21.62-10.06 35.09-15.04 75.94-28.05 8.508-2.71 19.3-6.318 23.98-8.017 4.682-1.699 11.64-3.814 15.47-4.7 6.511-1.508 29.62-8.542 47.74-14.53 4.383-1.449 12.61-4.139 18.28-5.977 26.9-8.72 32.9-12.01 24.66-13.53-5.325-0.98-27-4.726-47.63-8.231-6.961-1.183-19.33-3.318-27.49-4.744-17.15-2.999-16.04-3.177-34.39 5.525-10.53 4.997-18.45 8.589-46.2 20.98-9.684 4.322-17.88 7.859-18.22 7.859-0.337 0-2.328 0.8133-4.424 1.807-16.38 7.768-25.04 10.57-26.31 8.509-1.394-2.255 4.229-5.68 17.81-10.85 3.609-1.374 9.094-3.687 12.19-5.141 3.094-1.454 13.43-6.21 22.97-10.57 45.94-20.99 47.93-22 45.79-23.19-1.788-0.9983-13.58-3.483-44.39-9.349-37.48-7.138-62.01-13.63-61.16-16.18 0.6675-2.005 3.705-1.88 17.57 0.724 12.53 2.354 17.94 3.45 37.5 7.589 7.736 1.637 9.927 2.031 30.47 5.478 7.734 1.298 16.17 2.98 18.75 3.739 9.424 2.773 17.22 2.885 22.99 0.3301 2.846-1.261 7.487-3.056 10.31-3.99 2.826-0.9338 8.302-3.305 12.17-5.269 3.867-1.964 12.73-5.866 19.69-8.671 6.961-2.805 17.51-7.082 23.44-9.504 9.872-4.033 59.08-21.02 64.77-22.35 1.476-0.3469 3.129-0.039 4.219 0.7858 2.676 2.025 5.036 1.737 15.04-1.838 13.51-4.827 13.47-5.268-0.735-8.52-14.11-3.229-24.28-1.443-43.41 7.623-10.48 4.966-20.03 4.873-25.78-0.2515-2.522-2.245 7.968-7.122 22.94-10.66 19.88-4.702 31.57-9.97 26.07-11.75-0.9343-0.3022-2.753-0.9254-4.043-1.385-13.34-4.755-32.4-7.484-31.45-4.505 1.794 5.658 1.701 8.123-0.3308 8.768-4.282 1.359-7.718 0.8136-9.935-1.577-1.467-1.582-4.645-3.027-9.599-4.364-8.995-2.427-12.34-2.61-8.216-0.4496 1.547 0.8105 4.346 3.114 6.22 5.119 2.231 2.387 4.23 3.645 5.792 3.645 2.532 0 5.332 2.165 5.332 4.122 0 2.152-4.133 4.979-12.44 8.508-9.224 3.918-10.35 3.942-24.12 0.51-20.82-5.19-35.54-8.453-38.12-8.453-6.159 0-11-11.08-7-16.02 2.264-2.796 8.391-1.127 12.78 3.48 3.208 3.372 12.35 7.23 20.67 8.725 3.117 0.56 8.701 1.859 12.41 2.887 8.175 2.265 19.6 1.262 16.86-1.481-0.7685-0.7685-18.67-5.088-21.09-5.088-5.236 0-10.79-2.357-13.44-5.707-1.943-2.453-4.122-3.844-7.873-5.024-8.633-2.715-5.698-7.563 6.04-9.977 11.53-2.371 10.94-3.283-4.765-7.404-12.06-3.165-11.52-3.265-12.94 2.373-1.099 4.365-4.549 6.986-9.197 6.988-0.9189 0.0004-4.345 1.266-7.614 2.812-3.64 1.722-7.456 2.812-9.847 2.812-4.746 0-15.6 3.003-19.79 5.475-4.202 2.479-16.13 4.592-17.61 3.118-0.6013-0.6013-2.169-1.099-3.484-1.105-3.28-0.0166-14.36-3.571-15.16-4.862-1.057-1.711 0.165-3.564 2.351-3.564 3.42 0 5.909-2.497 12.42-12.46 3.439-5.262 7.608-11.26 9.263-13.32 2.403-2.995 2.919-4.373 2.557-6.833l-0.4523-3.082-6.685 0.2704c-12.16 0.492-7.933-5.075 6.703-8.818 30.67-7.843 31.33-9.462 5.83-14.29-4.383-0.8295-18.7-3.608-31.81-6.175s-24.98-4.667-26.37-4.667c-1.393 0-5.643-0.6467-9.445-1.437-3.802-0.7905-9.021-1.811-11.6-2.269-2.578-0.4574-8.484-1.561-13.12-2.453-4.641-0.8916-11.39-1.961-15-2.376-28.09-3.232-26.18-3.16-37.76-1.437-6.044 0.8993-12.25 2.082-13.8 2.628-1.547 0.5462-4.819 1.555-7.272 2.242s-4.879 1.508-5.391 1.824c-1.283 0.7931-1.152 6.885 0.5138 23.9 0.7825 7.992 1.807 20.81 2.278 28.49 0.4701 7.678 1.302 14.41 1.847 14.95 2.783 2.783-0.8464 9.702-6.85 13.06-8.764 4.898-28.89 24.15-25.2 24.1 10.32-0.1229 16.61-3.604 22.37-12.37 12.23-18.63 13.24-16.34 16.79 38.17 0.7718 11.86 1.809 24.73 2.305 28.59 0.4958 3.867 1.194 14.14 1.55 22.82l0.649 15.79 2.851-0.5702c1.568-0.3136 3.742-1.407 4.831-2.431 2.407-2.261 4.734-2.397 5.531-0.3222 0.6193 1.614-1.69 5.962-3.167 5.962-1.168 0-20.36 16.24-22.69 19.2-1.024 1.301-2.617 2.366-3.542 2.366-0.9243 0-2.687 0.7708-3.916 1.713-1.23 0.9421-4.232 2.663-6.671 3.825s-6.447 3.888-8.906 6.059-7.656 6.316-11.55 9.21c-3.892 2.894-7.658 5.964-8.369 6.821-0.7112 0.857-2.532 2.199-4.047 2.982-1.514 0.7832-4.498 2.975-6.631 4.871-2.132 1.896-5.987 4.896-8.565 6.666-2.578 1.771-6.586 4.826-8.906 6.79-6.717 5.684-11.93 9.552-23.11 17.14-5.751 3.903-10.69 7.701-10.97 8.44-0.2838 0.7396-2.54 2.421-5.013 3.737s-7.661 4.699-11.53 7.518c-3.867 2.819-9.773 7.05-13.12 9.401-3.352 2.351-8.414 5.945-11.25 7.986s-7.477 5.276-10.31 7.188c-2.836 1.913-7.335 5.183-9.998 7.268s-6.882 5.05-9.375 6.589-7.697 5.369-11.56 8.51c-3.867 3.141-9.352 7.335-12.19 9.319-14.9 10.42-10.05 15.13 7.165 6.952zm246.3-103.2c-0.3546-0.5737-1.027-5.554-1.494-11.07-0.4674-5.513-1.675-17.62-2.684-26.9-1.009-9.281-2.501-24.05-3.315-32.81-0.8147-8.766-2.099-22.48-2.854-30.47-0.7548-7.992-1.77-23.71-2.255-34.92-0.4855-11.22-1.105-20.75-1.378-21.19-1.262-2.042-5.43-75.31-4.346-76.4 2.992-2.992 4.964 7.051 6.141 31.27 0.866 17.82 1.502 27.58 1.893 29.06 0.2039 0.7734 0.5943 4.359 0.8677 7.969 0.2734 3.609 0.9452 11.62 1.493 17.81 0.5477 6.188 1.368 17.58 1.822 25.31 0.4543 7.734 1.249 18.49 1.767 23.91 0.5174 5.414 1.429 16.59 2.026 24.84 0.5968 8.25 1.686 20.7 2.419 27.66 4.372 41.47 4.346 53.13-0.1031 45.94zm35.53-197.7c-2.89-1.691-9.739-3.502-25.69-6.795-14.17-2.925-15.17-3.784-11.12-9.473 2.334-3.278 2.801-3.26 21.91 0.8538 6.188 1.332 12.52 2.463 14.06 2.513 4.258 0.138 4.258-1.674 0-2.595-22.42-4.848-23.87-5.925-15.51-11.46l3.802-2.516 6.791 1.447c3.735 0.796 11.22 2.78 16.63 4.409 5.414 1.629 10.75 3.186 11.86 3.46 1.197 0.2961 7.267-1.492 14.93-4.397 16.51-6.262 21.86-6.718 23.25-1.978 1.172 4.004-0.6686 5.582-10.66 9.139-9.466 3.37-24.06 9.39-28.25 11.65-1.875 1.012-4.663 1.84-6.196 1.84s-5.104 1.236-7.935 2.747c-5.009 2.673-5.221 2.704-7.866 1.157zm-56.21-40.88c-2.815-2.091 0.3004-4.57 9.899-7.878 4.383-1.51 10.92-3.801 14.53-5.09 9.736-3.478 12.17-3.847 13.91-2.108 3.308 3.308 1.156 4.628-16.72 10.26-7.219 2.273-14.31 4.592-15.76 5.152-3.379 1.304-3.672 1.287-5.854-0.3337zm1172 331.7c1.428-1.934 3.832-4.973 5.344-6.754 1.511-1.781 3.816-5.578 5.122-8.438 1.306-2.859 3.516-6.779 4.911-8.71 12.94-17.91-13.41-37.12-42.88-31.26-8.765 1.744-12.51 7.299-6.639 9.846 7.044 3.054 17.63 14.45 20.81 22.4 1.504 3.765 3.08 7.06 3.503 7.321 0.4228 0.2613 0.7744 2.032 0.7815 3.935 0.032 8.519 1.743 9.588 5.414 3.381 1.398-2.364 3.478-5.422 4.622-6.797l2.08-2.499 0.03 2.534c0.033 2.844-1.277 6.212-4.303 11.06-4.47 7.162-3.501 10.36 1.208 3.984zm-523-121c15.55-7.385 28.97-12.76 51.92-20.81 8.508-2.984 19.58-6.935 24.6-8.78 5.024-1.845 11.85-3.789 15.18-4.32 3.322-0.5308 10.18-2.661 15.24-4.733s11.94-4.345 15.29-5.051c8.142-1.714 21.17-7.87 19.72-9.319-1.17-1.169-10.77-2.11-30.03-2.942-21-0.9072-24.24-1.82-23.07-6.487 0.3639-1.45-0.068-2.252-1.568-2.912-4.607-2.027-1.802-7.761 4.854-9.922 1.858-0.6032 11.39-4.353 21.19-8.334 9.797-3.98 24.05-9.663 31.68-12.63 15.76-6.126 15.96-6.468 5.748-9.899-7.65-2.57-18.1-11.42-21.84-18.48-2.527-4.777-7.768-21.15-7.32-22.87 1.073-4.104-1.094-2.062-11.55 10.88-2.836 3.51-5.724 6.849-6.417 7.42-0.6936 0.5711-2.295 1.988-3.558 3.148-2.706 2.485-3.149 2.584-3.149 0.7031 0-0.7734 0.4323-1.406 0.9608-1.406 1.004 0 2.372-2.987 3.347-7.307 0.4459-1.975-1.68-0.2111-9.602 7.968-10.71 11.06-17.75 17.13-19.89 17.14-0.7053 0.005-2.688 1.169-4.405 2.587-10.59 8.741-13.38 10.55-16.3 10.55-1.667 0-4.216 0.844-5.665 1.876-2.3 1.637-10.09 5.453-22.97 11.24-2.062 0.9277-4.805 1.995-6.094 2.373-4.377 1.281-9.771 4.431-15.43 9.007-5.946 4.811-7.017 5.2-9.704 3.522-1.312-0.8195-3.457-0.4-10.07 1.969-4.619 1.656-11.35 3.984-14.96 5.173-3.609 1.189-12.26 4.348-19.22 7.018-19.64 7.534-40.64 14.84-52.79 18.36-6.091 1.764-11.79 3.584-12.66 4.044-0.8696 0.4598-6.854 2.406-13.3 4.325-27.4 8.156-28.62 10.21-7.5 12.61 3.352 0.3804 12.63 1.986 20.62 3.568 7.992 1.582 17.06 3.328 20.16 3.88 3.094 0.5524 11.74 2.089 19.22 3.415 7.477 1.326 15.7 2.81 18.28 3.298 2.578 0.4881 7.008 1.308 9.844 1.821 2.836 0.5137 9.797 1.96 15.47 3.215 15.79 3.493 18.93 3.062 35.73-4.916zm-802.3-9.765c6.762-6.87 6.219-13.22-0.7091-8.283-2.374 1.69-8.525 10.78-8.525 12.6 0 2.31 5.022-0.0367 9.234-4.316zm1084 0.6859c3.425-1.289 7.156-2.344 8.292-2.344s4.072-0.6838 6.525-1.519c4.433-1.511 9.035-1.275 23.77 1.217 1.676 0.2835 3.047 0.1367 3.047-0.3263 0-1.182-10.07-5.667-14.3-6.372-11.73-1.953-5.461-8.912 13.33-14.78 7.652-2.392 5.862-3.175-4.093-1.79-24.99 3.476-35.62 2.965-38.6-1.859-1.519-2.458-4.684-0.6073-6.662 3.894-2.255 5.132-3.888 6.128-12.34 7.52-6.403 1.055-8.581 1.757-8.581 2.766 0 1.329 10.36 3.064 14.72 2.466 6.302-0.8638 9.041 2.527 6.8 8.419-2.084 5.48-0.5878 5.981 8.097 2.712zm119.7-0.2668c-3.22-0.8046-6.161-1.156-6.535-0.7815-1.314 1.314 2.126 2.425 7.233 2.335l5.156-0.0907-5.854-1.463zm-1195-2.3c3.489-3.251 5.526-9.155 3.148-9.124-1.771 0.0233-6.932 6.44-7.715 9.592-0.8538 3.436 0.5296 3.294 4.568-0.4688zm1152-3.156c-9.065-2.406-12.08-2.087-9.507 1.007 0.9282 1.118 3.138 1.433 9.757 1.388l8.557-0.0578-8.808-2.338zm-1119-7.1c7.102-7.824 12.76-16.23 11.66-17.32-1.224-1.224-5.887 3.398-11.13 11.03-2.973 4.33-6.748 9.258-8.387 10.95-2.656 2.74-2.773 3.075-1.074 3.075 1.196 0 4.524-2.883 8.928-7.734zm27.78-2.963c4.206-2.197 16.13-17.82 16.13-21.13 0-2.84-2.392-1.181-6.562 4.552-2.616 3.597-6.956 8.511-9.644 10.92-7.428 6.654-7.387 9.562 0.0813 5.661zm965.3 0.7535c1.757-0.6743 1.996-3.156 0.311-3.238-8.121-0.3968-15.55-1.06-26.48-2.366-20.71-2.472-22.65-2.594-21.45-1.35 0.5766 0.5984 4.162 1.447 7.969 1.886 8.15 0.9394 26.82 3.689 37.55 5.529 0.3445 0.0592 1.294-0.1486 2.109-0.4616zm-970.8-7.626c4.77-6.586 3.655-7.92-2.002-2.396-2.119 2.069-3.555 4.36-3.555 5.672 0 2.952 1.827 1.875 5.557-3.276zm-92.95 2.986c4.834-3.386 0.9979-11.24-4.159-8.521-6.18 3.263-9.414 7.003-7.406 8.565 2.367 1.841 8.91 1.816 11.57-0.0441zm41.91-10.82c9.413-10.63 12.67-13.14 12.67-9.756 0 2.403 1.975 1.569 6.659-2.812 4.408-4.123 6.466-5.167 6.466-3.281 0 1.446 3.378 1.109 4.688-0.4688 1.309-1.577 4.688-1.915 4.688-0.4688 0 2.367 2.115 0.483 4.801-4.275 2.19-3.88 3.809-5.559 6.336-6.571 4.715-1.886 5.315-1.681 4.95 1.697-0.286 2.649-0.1594 2.823 1.221 1.678 7.194-5.97-4.609-28.79-18.88-36.5-9.081-4.905-3.978-8.947 5.49-4.349 7.174 3.483 13.87 12.15 17.23 22.29 1.411 4.26 3.452 8.616 4.534 9.681 1.082 1.064 2.45 2.752 3.04 3.75 0.9291 1.571 1.343 1.653 3.085 0.6109 2.228-1.333 3.811-0.81 3.811 1.259 0 9.51 11.79-10.67 16.76-28.71 5.949-21.55 4.228-34.41-4.197-31.36-4.519 1.637-9.843 2.65-20.07 3.821-2.836 0.3247-7.003 1.262-9.261 2.082-3.867 1.405-4.177 1.392-5.361-0.2268-1.608-2.198-5.433-0.8585-20.53 7.194-5.672 3.024-14.11 7.308-18.75 9.52-4.641 2.212-10.34 5.222-12.66 6.689s-8.438 4.839-13.59 7.492c-17.51 9.014-33.35 20.5-29.87 21.67 15.22 5.125 26.09 13.97 28.55 23.24 1.289 4.847 4.964 9.786 7.151 9.609 1.743-0.1409 1.964 1.162 0.8105 4.781-1.193 3.742 1.503 1.556 10.22-8.285zm79.35-2.908c3.575-5.249 4.807-9.732 2.464-8.964-1.292 0.4238-13.85 20.27-13.79 21.79 0.0554 1.369 7.063-6.567 11.33-12.83zm1224 5.709c5.342-2.686 7.248-4.066 6.307-4.569-1.787-0.9548-13.88-3.573-21.5-4.655-3.352-0.4758-13.05-1.918-21.56-3.205-8.508-1.287-20.11-3.007-25.78-3.822-5.672-0.8152-13.69-2.076-17.81-2.801-4.125-0.7253-9.609-1.586-12.19-1.912-2.578-0.3262-8.906-1.387-14.06-2.357-5.156-0.9701-12.75-2.236-16.88-2.813-4.125-0.5772-11.09-1.685-15.47-2.462-4.383-0.7772-12.82-2.236-18.75-3.241-30.12-5.108-49.35-8.507-53.29-9.417-2.404-0.5565-6.902-1.359-9.996-1.782-3.094-0.4238-15.54-2.655-27.66-4.959s-26.25-4.921-31.41-5.817c-5.156-0.8955-14.62-2.667-21.04-3.937-13.16-2.604-18.46-3.551-30.44-5.433l-8.356-1.313-6.644 3.13c-3.654 1.721-9.808 4.434-13.68 6.028-56.08 23.12-63.25 27.1-49.22 27.35 2.062 0.0369 7.969 0.4306 13.12 0.8749 5.156 0.4443 18.45 1.473 29.53 2.286 11.09 0.8127 23.74 1.914 28.12 2.448 4.383 0.5336 13.03 1.362 19.22 1.842 6.188 0.4796 15.88 1.329 21.55 1.888 5.663 0.5586 15.16 1.416 21.09 1.906 5.938 0.4897 15.23 1.318 20.64 1.84 5.414 0.5223 14.91 1.398 21.09 1.947 6.188 0.5485 15.47 1.396 20.62 1.883 5.156 0.4871 13.17 1.114 17.81 1.394 4.641 0.2796 13.08 0.9086 18.75 1.398 27.52 2.373 47.28 3.88 60.94 4.648 8.25 0.4638 23.02 1.459 32.81 2.212 9.797 0.7526 25.62 1.86 35.16 2.461 9.539 0.601 21.77 1.42 27.19 1.819 5.414 0.3995 10.8 0.786 11.97 0.8588 1.172 0.0729 5.575-1.599 9.785-3.716zm-1209-2.6c4.983-5.212 6.911-9.609 4.215-9.609-1.643 0-4.426 3.197-7.547 8.672-3.148 5.521-1.494 5.987 3.333 0.9375zm338.7-26.11c7.734-3.388 16.06-6.931 18.51-7.873 2.447-0.9426 12.15-5.708 21.56-10.59 26.86-13.93 71.83-36.57 78.29-39.42 6.706-2.955 7.444-4.866 2.344-6.059-1.934-0.4521-7.312-1.752-11.95-2.889-18.93-4.638-27.97-5.801-29.41-3.785-0.7074 0.9897-1.811 1.799-2.452 1.799-0.6411 0-2.292 0.8858-3.668 1.969-1.722 1.355-3.224 1.787-4.818 1.387-1.368-0.3433-3.177-0.0235-4.421 0.7815-1.158 0.7494-5.058 2.041-8.668 2.871-3.609 0.8296-10.15 2.722-14.53 4.205-14.34 4.855-24.2 6.979-26.83 5.783-1.279-0.5825-3.279-1.059-4.445-1.059s-2.939-0.6194-3.94-1.376c-2.651-2.005-4.539-1.762-14.94 1.923-5.156 1.826-12.96 4.521-17.34 5.989-9.789 3.279-24.63 9.003-28.41 10.96-1.542 0.7972-8.107 3.55-14.59 6.119-6.482 2.568-12.64 5.152-13.69 5.743-1.047 0.5908-7.122 3.404-13.5 6.251-13.59 6.068-13.97 6.656-5.279 8.274 3.609 0.6723 10.15 2.028 14.53 3.014 4.383 0.9852 13.85 2.656 21.04 3.713 7.191 1.057 14.79 2.386 16.88 2.953 2.859 0.7761 25.68 4.303 34.74 5.368 0.5156 0.0607 7.266-2.661 15-6.049zm393.8-50.81c2.578-2.554 7.852-8.103 11.72-12.33 12.11-13.24 15.69-16.75 19.62-19.23 3.944-2.49 4.163-3.08 3.822-10.28-0.2944-6.214-9.246-29.62-12.28-32.11-1.368-1.123-9.734 3.681-14.41 8.276-2.848 2.798-9.01 6.552-10.14 6.176-1.088-0.3628 5.324-6.619 9.403-9.173 6.882-4.31 12.84-13.08 8.883-13.08-1.139 0-6.241 3.894-12.78 9.755-6.654 5.961-13.22 11.52-20.59 17.43-6.28 5.036-6.322 5.456-1.509 15.03 3.838 7.634 4.71 11.37 6.555 28.1 1.233 11.18 1.362 11.54 3.868 10.74 2.106-0.6684 2.205 1.036 0.3226 5.539-1.118 2.675 1.894 0.7374 7.522-4.838zm-247-22.03c28.33-14.17 40.81-21.18 39.68-22.27-0.4245-0.407-8.998-2.076-19.05-3.708-10.05-1.633-27.56-4.673-38.91-6.757-11.34-2.084-22.52-4.135-24.84-4.558-2.32-0.4232-8.859-1.684-14.53-2.802-5.672-1.118-12.63-2.353-15.47-2.745-2.836-0.3919-6.844-1.177-8.906-1.746-2.062-0.5682-7.547-1.704-12.19-2.524-4.641-0.8202-10.34-1.882-12.66-2.36-17.48-3.6-24.15-4.914-39.84-7.85-9.797-1.833-22.66-4.224-28.59-5.312s-14.79-2.78-19.69-3.759c-9.913-1.982-38.48-7.014-47.65-8.395-3.263-0.4912-6.638-1.27-7.5-1.731-7.845-4.196-18.16-2.79-45.16 6.155-9.515 3.153-12.13 4.44-11.11 5.464 0.5386 0.5386 17.6 5.368 24.23 6.86 2.32 0.5219 15.4 3.742 29.06 7.155s26.95 6.678 29.53 7.254c2.578 0.5762 8.568 2.059 13.31 3.295 4.743 1.236 13.11 2.836 18.59 3.556 5.483 0.7197 12.15 2.138 14.81 3.153 2.664 1.014 7.165 2.328 10 2.919 2.836 0.5914 8.32 1.896 12.19 2.9 3.867 1.003 16.73 4.161 28.59 7.017s24.73 6.004 28.59 6.995c9.851 2.525 34.35 8.117 51.56 11.77 7.992 1.695 18.12 3.91 22.5 4.921 11.63 2.685 12.49 2.579 23.44-2.897zm297-21.29c0.5959 0 1.083 0.8438 1.083 1.875 0 5.298 5.805-0.4875 8.841-8.812 3.015-8.267 4.835-10.4 5.753-6.74 1.059 4.22 6.549 1.248 9.95-5.387 1.101-2.148 2.181-3.379 2.4-2.735 0.2486 0.7305 1.25 0.9565 2.665 0.6015 2.962-0.7435 3.02 1.366 0.1354 4.953-2.756 3.428-7.588 13.81-7.104 15.26 0.3525 1.058 3.3-2.822 9.045-11.91 1.398-2.211 3.25-3.984 4.161-3.984 2.355 0 6.845-6.657 9.139-13.55 2.493-7.491 4.856-9.95 7.372-7.673 1.656 1.498 1.903 1.214 5.605-6.428 4.763-9.835 7.591-11.81 10.93-7.621l2.099 2.633 2.124-3.436c1.168-1.89 3.044-3.786 4.169-4.214 1.348-0.5126 2.958-2.966 4.722-7.197 3.327-7.979 4.064-8.947 6.28-8.244 2.376 0.754 7.21-9.778 10.14-22.08 1.165-4.898 2.911-10.71 3.879-12.92 3.152-7.176 2.723-8.048-5.602-11.4-11.81-4.762-14.15-7.58-9.043-10.92 2.678-1.755 3.096-4.84 0.7749-5.731-3.478-1.335-9.089 9.49-5.931 11.44 3.124 1.931-3.696 10.22-9.142 11.12-1.933 0.3174-15.54 6.309-30.23 13.31-14.7 7.006-30.09 13.98-34.22 15.51-4.125 1.525-10.04 3.97-13.15 5.434-3.107 1.464-7.11 2.983-8.895 3.375-1.786 0.3922-8.314 2.712-14.51 5.154-6.194 2.443-11.97 4.685-12.85 4.982-4.873 1.663-4.918 4.98-0.1329 9.865 8.653 8.834 10.2 8.931 18.62 1.168 4.279-3.944 7.818-6.144 8.611-5.351 1.097 1.097-0.8153 3.538-5.048 6.443-7.7 5.283-11.24 9.943-8.729 11.49 1.241 0.7667 10.75-5.999 18.61-13.24 7.748-7.139 19.23-15.99 21.81-16.8 2.567-0.8148 4.155 0.7739 2.488 2.489-0.6947 0.7145-2.202 2.636-3.351 4.269-1.148 1.633-4.349 4.587-7.114 6.562-2.764 1.976-6.8 4.858-8.968 6.405s-6.024 4.597-8.568 6.778c-2.545 2.181-5.888 4.618-7.429 5.415-3.628 1.876-3.548 2.999 1.009 14.13 2.096 5.119 5.351 14.01 7.233 19.75l3.422 10.44 2.933-2.237c1.614-1.231 3.421-2.237 4.017-2.237zm16.63-43.94c-0.2771-0.4483 1.913-2.723 4.866-5.054 2.954-2.331 7.269-6.097 9.589-8.368 27.16-26.58 44.22-41.67 45.92-40.62 1.86 1.149-0.7929 4.786-8.955 12.28-5.471 5.022-9.116 9.153-9.738 11.04-1.758 5.327-16.45 18.41-20.67 18.41-1.132 0-3.57 1.512-5.418 3.359-8.321 8.321-13.98 11.57-15.6 8.951zm-12-3.8c0-0.4485 3.02-3.296 6.712-6.328 3.691-3.032 8.648-7.429 11.02-9.772 2.367-2.343 7.289-6.654 10.94-9.582 3.648-2.927 8.804-7.655 11.46-10.51 4.636-4.981 7.69-6.551 7.69-3.953 0 1.683-16.98 18.13-23.91 23.16-3.094 2.245-8.367 6.69-11.72 9.878-7.3 6.943-12.19 9.791-12.19 7.103zm-571.3 26.05c3.545-1.083 6.787-2.292 7.205-2.688 1.013-0.959-10.79-5.278-17.99-6.584-3.155-0.5721-7.43-1.638-9.5-2.368-8.712-3.074-12.53-2.178-14.18 3.33-1.359 4.535-2.208 3.798 9.031 7.833 10.63 3.816 14.27 3.885 25.43 0.4767zm478.3-34.95c4.501-1.739 10.43-3.892 13.17-4.785 7.29-2.372 6.927-6.32-0.9578-10.42-3.827-1.991-3.862-1.971-13.89 7.823-12.42 12.13-12.27 12.77 1.672 7.385zm52-19.36c4.778-2.072 12.42-5.059 16.99-6.638 4.564-1.579 12.37-4.763 17.34-7.076 4.975-2.313 12.62-5.433 16.98-6.932 4.367-1.499 9.008-3.511 10.31-4.471 1.305-0.9596 4.693-2.478 7.529-3.375 11.74-3.711 13.29-4.944 16.6-13.21 4.479-11.19 4.914-10.59-7.61-10.46-23.51 0.2482-15.17-11.34 26.82-37.25 7.417-4.577 10.04-8.011 11.56-15.1 0.33-1.547 1.022-3.933 1.539-5.303 0.8367-2.22 2.455-8.704 5.637-22.59 0.8471-3.696 2.65-6.251 2.646-3.75 0 1.246-2.669 13.71-3.761 17.58-0.5824 2.062-1.424 5.648-1.871 7.969-0.4465 2.32-1.092 5.539-1.434 7.152-0.8052 3.798 0.3888 4.437 4.086 2.188 2.545-1.547 2.981-2.357 2.981-5.536 0-7.302 9.721-33.32 10.47-28.02 0.2329 1.644 0.8348 0.7656 2.419-3.532 2.562-6.949 2.726-8.614 0.6805-6.916-2.066 1.715-2.652 0.5638-1.527-3.003 0.5392-1.71 1.458-5.852 2.041-9.203 1.312-7.54 4.099-19.5 6.992-30 3.066-11.13 4.897-18.58 5.644-22.97 0.3509-2.062 1.636-6.703 2.856-10.31 1.22-3.609 2.662-9.094 3.205-12.19 0.5429-3.094 2.683-11.32 4.756-18.28 2.073-6.961 5.39-19.02 7.372-26.79 1.982-7.774 4.068-15.58 4.636-17.34 3.362-10.45 10.76-41.19 10.07-41.87-0.5654-0.5654-1.754 2.279-3.426 8.196-0.6554 2.32-3.047 9.914-5.315 16.88-2.268 6.961-4.514 14.55-4.993 16.88-3.231 15.68-14.5 50.2-17.74 54.38l-1.824 2.344 0.5812-3.661c0.9036-5.692-1.084-3.35-2.474 2.915-0.6632 2.988-1.742 6.488-2.398 7.777-1.623 3.189-7.026 19.46-7.026 21.16 0 0.752-1.688 5.624-3.75 10.83-4.803 12.12-4.864 13.95-0.4688 13.95 5.404 0 4.24 3.345-2.384 6.848-3.445 1.822-4.179 2.677-4.179 4.869 0 3.795 2.038 3.964 3.682 0.3049 1.373-3.058 1.389-3.003 0.8428 2.979-0.8011 8.779-4.993 15.86-4.993 8.438 0-5.829-4.043-1.865-6.571 6.442-6.565 21.57-8.338 27.64-9.346 32-4.808 20.77-6.117 24.38-8.848 24.38-4.184 0-2.84-6.756 9.201-46.23 4.052-13.28 4.215-15.14 1.268-14.41-10.78 2.671-11.84 2.989-24.14 7.235-1.805 0.6232-5.433 2.135-8.062 3.36-2.63 1.225-5.852 2.227-7.162 2.227-4.614 0-6.395 2.823-13.44 21.3-1.223 3.208-3.671 8.707-5.44 12.22-1.769 3.512-5.005 10.59-7.191 15.73-2.186 5.139-6.256 14.19-9.044 20.12s-6.568 15.21-8.4 20.62c-3.56 10.52-4.941 12.78-7.283 11.88-2.18-0.8367-1.806-5.049 0.971-10.94 1.337-2.836 3.83-8.742 5.539-13.12 1.709-4.383 6.306-14.86 10.22-23.27 3.909-8.417 7.108-15.53 7.108-15.81 0-0.2802 1.748-4.362 3.883-9.071 4.485-9.889 10.03-23.26 13.92-33.54 1.489-3.942 4.47-10.68 6.626-14.96 3.48-6.921 8.962-20.32 13.96-34.12 0.9344-2.578 2.839-7.219 4.232-10.31 11.26-25.01 12.09-31.35 1.515-11.55-5.008 9.372-7.026 6.21-2.348-3.679 2.303-4.867 2.496-6.689 0.5834-5.507-0.4834 0.2987-1.12 1.748-1.414 3.222-0.2947 1.473-1.931 4.386-3.637 6.474-1.706 2.087-3.852 5.167-4.771 6.843-2.608 4.76-2.877 2.692-0.6317-4.848 1.856-6.233 11.86-26.86 15.85-32.67 0.8841-1.289 3.018-5.93 4.741-10.31 1.724-4.383 4.323-9.352 5.777-11.04 2.874-3.342 4.908-6.99 10.31-18.49 2.397-5.106 4.356-7.968 6.138-8.966 1.87-1.047 4.759-5.498 10.12-15.58 4.125-7.764 8.604-15.55 9.954-17.29 1.35-1.747 2.754-4.543 3.121-6.214s1.101-3.038 1.63-3.038c0.5299 0 0.7669 0.5273 0.5268 1.172-1.061 2.849-2.528 8.065-3.361 11.95-0.4972 2.32-2.239 7.383-3.87 11.25-1.632 3.867-6.33 16.01-10.44 26.99-7.083 18.91-9.957 26-17.18 42.38-1.706 3.867-3.615 8.627-4.242 10.58-0.6279 1.95-3.233 7.769-5.789 12.93-5.801 11.72-21.37 48.06-22 51.38-0.7957 4.152 4.172 6.324 8.796 3.846 1.904-1.02 4.214-1.855 5.136-1.855 0.9211 0 2.155-1.055 2.742-2.344 1.248-2.739 0.7721-2.558 7.329-2.788 3.344-0.1174 7.001-1.06 10.4-2.681 2.886-1.375 5.933-2.5 6.773-2.5 1.924 0 3.457-3.074 6.544-13.12 2.521-8.208 7.668-24.9 15.76-51.09 2.547-8.25 7.556-24.07 11.13-35.16 7.942-24.63 10.46-33.17 13.59-46.09 1.332-5.501 4.48-16.05 6.995-23.44s5.049-15.33 5.632-17.66c0.583-2.32 1.883-6.961 2.889-10.31 10.16-33.85 10.33-32.57-4.53-34.36-4.529-0.5456-5.02-0.838-5.508-3.277-1.306-6.528-4.91-1.869-13.88 17.95-3.386 7.477-9.791 20.96-14.23 29.96-4.442 9.002-9.286 19.3-10.76 22.88-1.477 3.583-3.056 6.975-3.508 7.538-0.452 0.5634-6.85 12.84-14.22 27.27-7.368 14.44-14.51 28.15-15.88 30.47-1.364 2.32-4.287 8.016-6.495 12.66-2.208 4.641-6.235 13.08-8.948 18.75-2.713 5.672-9.314 19.56-14.67 30.86s-15.52 31.97-22.59 45.94c-24.04 47.47-80.42 160.7-80.4 161.5 0.3278 9.867 17.49 16.63 29.26 11.52zm-11-14.2c-1.654-1.654-1.611-1.792 4.5-14.27 3.094-6.317 5.625-11.81 5.625-12.2 0-1.041 10.82-24.7 20.09-43.93 4.421-9.172 8.038-16.87 8.038-17.11 0-0.5505 4.813-11.14 8.972-19.74 1.768-3.656 3.215-7.024 3.215-7.482 0-0.4589 2.376-5.905 5.279-12.1 6.557-14 7.999-17.21 11.15-24.86 7.657-18.57 18.04-37.09 19.81-35.32 0.5817 0.5817-4.203 13.67-6.746 18.45-1.822 3.426-10.74 23.42-10.74 24.08 0 0.3084-2.073 5.036-4.606 10.51-2.533 5.47-6.587 14.8-9.007 20.73-2.421 5.93-5.595 13.34-7.053 16.47-1.458 3.131-2.96 6.922-3.337 8.425-0.6174 2.459-6.7 16.18-10.37 23.38-2.741 5.385-7.784 17.69-7.406 18.07 0.2097 0.2097 3.616-6.096 7.57-14.01 7.772-15.56 9.453-18.34 10.48-17.32 1.376 1.376-20.11 51.5-29.58 68.99-3.016 5.574-3.802-0.6031-1.066-8.382 2.381-6.769 2.371-8.639-0.031-5.756-1.014 1.217-1.844 2.739-1.844 3.382s-1.429 3.91-3.175 7.26-3.484 7.102-3.861 8.336c-1.356 4.44-3.938 6.365-5.902 4.401zm46.69-83.47c0-1.214 1.498-4.509 3.329-7.321 3.214-4.937 3.307-5 2.698-1.832-1.249 6.5-6.027 13.76-6.027 9.153zm59.63 54.04c1.916-4.585 1.749-9.044-0.3228-8.645-1.747 0.3364-2.76 3.604-2.943 9.488-0.1313 4.23 1.301 3.861 3.266-0.8428zm8.66-3.71c1.296-2.846 1.425-6.05 0.2422-6.05-0.8849 0-2.904 4.986-2.904 7.171 0 2.071 1.494 1.442 2.662-1.122zm11.4-25.1c32.83-9.486 42.12-14.76 40.98-23.27-1.539-11.47-13.79-9.928-35.17 4.437-3.768 2.532-8.416 5.447-10.33 6.478-9.871 5.32-24.5 17.15-22.64 18.3 1.324 0.8182 11.35-1.376 27.16-5.944zm18.23-38.37c1.285-3.12 3.046-15.65 2.068-14.72-1.131 1.074-5.116 17.77-4.241 17.77 0.5047 0 1.482-1.371 2.173-3.047zm10.34-13.7c0.8494-3.28 1.358-6.15 1.13-6.378-0.4808-0.4808-4.392 12.01-4.349 13.89 0.053 2.339 1.607-1.288 3.22-7.515zm1.809-32.15c0.8279-2.915 1.505-6.372 1.505-7.681s0.8132-3.775 1.807-5.481c0.994-1.705 2.303-5.843 2.91-9.194 0.6064-3.352 2.062-9.258 3.236-13.12 4.323-14.25 5.364-18.47 4.991-20.23-0.6017-2.843-3.568 3.44-3.568 7.557 0 1.847-0.5666 4.715-1.259 6.375-0.6925 1.659-1.552 4.583-1.911 6.498-0.3585 1.914-1.781 5.922-3.161 8.906s-2.802 7.746-3.16 10.58c-0.3582 2.836-1.519 7.526-2.58 10.42-2.727 7.443-3.668 13.99-1.737 12.08 0.7824-0.7734 2.1-3.791 2.928-6.707zm35.16-129.2c1.169-4.383 2.757-9.867 3.529-12.19 0.7718-2.32 1.951-6.75 2.621-9.844 0.6699-3.094 1.691-6.813 2.27-8.264 0.5786-1.452 1.039-3.35 1.023-4.219-0.047-2.591-1.869 1.144-3.289 6.74-5.464 21.54-7.998 30.83-8.833 32.39-0.5364 1.002-0.9752 2.567-0.9752 3.478 0 3.228 1.547-0.2002 3.653-8.095zm17-57.71c2.145-7.703 5.288-18.44 6.984-23.85 3.865-12.33 4.802-17.22 3.2-16.68-1.307 0.4356-4.968 10.49-6.93 19.03-1.396 6.076-4.66 17.72-7.846 27.99-1.096 3.535-1.977 7.754-1.956 9.375l0.038 2.948 1.305-2.4c0.7179-1.32 3.06-8.703 5.205-16.41zm-6.292-8.856c1.787-5.41 4.169-13.21 5.293-17.34 1.124-4.125 3.074-10.66 4.334-14.53 2.367-7.267 2.879-10.8 1.438-9.91-0.4568 0.2823-1.561 3.366-2.453 6.852-0.8925 3.486-2.381 8.448-3.308 11.03-0.927 2.578-2.814 8.906-4.194 14.06-1.38 5.156-3.103 11.08-3.83 13.16-1.24 3.545-1.808 7.799-0.9248 6.915 0.2185-0.2185 1.859-4.824 3.646-10.23zm25.43-73.86c5.587-2.994 6.554-5.664 2.914-8.049-2.016-1.321-2.391-2.276-2.391-6.092 0-8.012-1.492-10.71-5.504-9.959-4.543 0.8523-4.695 0.9829-6.761 5.803-2.54 5.926-2.412 6.226 2.436 5.679 7.996-0.9013 3.357 5.873-6.271 9.155-5.506 1.877-7.126 3.606-5.366 5.727 2.009 2.421 14.78 1.041 20.94-2.263z"/>
</svg>
