<?xml version="1.0" encoding="utf-8"?>

<!DOCTYPE svg PUBLIC "-//W3C//DTD SVG 1.1//EN" "http://www.w3.org/Graphics/SVG/1.1/DTD/svg11.dtd">
<svg version="1.1" id="Layer_1" xmlns="http://www.w3.org/2000/svg" xmlns:xlink="http://www.w3.org/1999/xlink" x="0px" y="0px"
	 viewBox="143.4813 163.6142 1221.5889 1115.8857" enable-background="new 143.4813 163.6142 1221.5889 1115.8857"
	 xml:space="preserve">
<g>
	<path fill="#496579" stroke="#496579" d="M1015.38,195.53c9.17-3.1,18.16-6.76,27.4399-9.53c6.79,17.64,13.4301,35.35,20.2001,53
		c1.0599,2.71,2.64,5.39,2.2999,8.41c-33.5699-6.53-67.08-13.33-100.6099-19.98c-8.09-1.75-16.32-2.89-24.27-5.16
		C965.35,213.18,990.41,204.47,1015.38,195.53z"/>
	<path fill="#587287" stroke="#587287" d="M1042.8199,186c31.4301,1.43,62.8301,3.49,94.26,5.07c1.61,0.09,3.3401,0.17,4.74,1.11
		c-0.36,4.72,1.05,9.3,1.88,13.9c1.99,10.41,3.8501,20.84,5.8301,31.25c1.4299,9.36,4.0399,18.53,4.7999,28
		c-29.61-6.24-59.39-11.73-89.01-17.92c0.3401-3.02-1.24-5.7-2.2999-8.41C1056.25,221.35,1049.61,203.64,1042.8199,186z"/>
	<path fill="#60778C" stroke="#60778C" d="M1143.7,206.08c-0.83-4.6-2.24-9.18-1.88-13.9c34.89,24.11,69.8201,48.15,104.8101,72.11
		c-1.29,1.17-3.1,0.83-4.64,0.95c-5.64-0.16-11.26,1.02-16.88,0.35c-11.36-1.17-22.77,0.17-34.14-0.54
		c-9.6699-0.32-19.34,0.33-29-0.08c-2.39-0.05-4.78-0.05-7.14,0.27l-0.5,0.09c-0.76-9.47-3.37-18.64-4.7999-28
		C1147.55,226.92,1145.6899,216.49,1143.7,206.08z"/>
	<path fill="#E0D9D1" stroke="#E0D9D1" d="M422.73,346.16c10.32-49.84,20.84-99.63,31.21-149.45c20.14,5.95,40.31,11.83,60.44,17.83
		c-16.45,66.35-32.58,132.77-48.94,199.14c-2.71,10.61-5.39,21.23-7.81,31.91c-0.31,0.08-0.95,0.23-1.26,0.31
		c-5.7-17.41-12.38-34.51-18.45-51.8c-1.88-4.3-2.63-9.13-5.22-13.09c-4.61-5.73-9.05-11.59-13.63-17.35
		C420.34,357.84,421.56,352,422.73,346.16z"/>
	<path fill="#233345" stroke="#233345" d="M939.45,222.63c0.25-0.09,0.74-0.27,0.99-0.36c7.95,2.27,16.18,3.41,24.27,5.16
		c33.53,6.65,67.04,13.45,100.6099,19.98c29.62,6.19,59.4,11.68,89.01,17.92c-8.71,1.85-17.6499,2.32-26.4199,3.79
		C1079.2,276,1030.46,282.61,981.76,289.57c-0.5-0.08-1.52-0.23-2.03-0.31C966.12,267.17,953.17,244.66,939.45,222.63z"/>
	<path fill="#557188" stroke="#557188" d="M939.45,222.63c13.72,22.03,26.67,44.54,40.28,66.63l-0.06,0.54
		c-0.46,0.7-0.91,1.4-1.35,2.11c-3.27,0.8-5.28,3.61-7.57,5.83c-10.56,10.45-21.05,20.99-31.58,31.47
		c-20.04,17.88-37.85,38.15-57.88,56.04c-10.67,10.68-21.47,21.22-32.08,31.95c-3.2401,3.17-6.15,6.8-10.17,9.02l-0.45-1.32
		C872.16,357.45,905.96,290.11,939.45,222.63z"/>
	<path fill="#506D83" stroke="#506D83" d="M1246.63,264.29c1.41,0.91,2.6899,2.12,3.0699,3.84
		c14.12,42.09,28.6801,84.04,42.75,126.14c-45.9199-42.63-91.5399-85.6-137.37-128.33l-0.25-0.7c2.36-0.32,4.75-0.32,7.14-0.27
		c9.66,0.41,19.3301-0.24,29,0.08c11.37,0.71,22.78-0.63,34.14,0.54c5.62,0.67,11.24-0.51,16.88-0.35
		C1243.53,265.12,1245.34,265.46,1246.63,264.29z"/>
	<path fill="#314151" stroke="#314151" d="M1154.33,265.33l0.5-0.09l0.25,0.7c3.3301,9.27,8.24,17.9,11.9801,27.02
		c5.1699,10.54,10,21.23,14.8999,31.9c-54.37-9.48-108.72-19.04-163.0699-28.58c-12.38-2.24-24.82-4.14-37.13-6.71
		c48.7-6.96,97.4399-13.57,146.15-20.45C1136.6801,267.65,1145.62,267.18,1154.33,265.33z"/>
	<path fill="#2A4057" stroke="#2A4057" d="M1155.08,265.94c45.8301,42.73,91.4501,85.7,137.37,128.33l0.1001,0.36
		c-2.5601,2.37-1.39,6.23-1.89,9.34c-0.4-1.32-0.77-2.63-1.11-3.94c-5.37,5.88-9.7301,12.58-14.76,18.74
		c-6.87,8.8-13.64,17.69-20.51,26.5c-3.49,4.79-7.89,9.03-10.04,14.67c-0.34-0.21-1-0.63-1.34-0.84c0.13-0.4,0.4-1.19,0.53-1.59
		c0.1599-2.67-1.78-4.83-2.7401-7.17c-17.7-37.92-35.4299-75.82-53.11-113.75c-0.8199-1.76-1.6599-3.51-2.49-5.25
		c-1.0599-2.16-2.08-4.33-3.13-6.48c-4.8999-10.67-9.73-21.36-14.8999-31.9C1163.3199,283.84,1158.41,275.21,1155.08,265.94z"/>
	<path fill="#1D272C" stroke="#1D272C" d="M979.73,289.26c0.51,0.08,1.53,0.23,2.03,0.31c12.31,2.57,24.75,4.47,37.13,6.71
		c54.35,9.54,108.7,19.1,163.0699,28.58c1.05,2.15,2.0701,4.32,3.13,6.48c-5.83,11.68-9.45,24.32-14.35,36.41
		c-4.12,9.5-7.0699,19.46-11.29,28.91l-0.38,0.79c-1.2-0.53-2.37-1.04-3.5599-1.49c-1.09-0.43-2.14-0.87-3.2-1.27
		c0.24-1.02-0.0701-1.74-0.9401-2.17c-53.02-31.58-105.9-63.43-158.97-94.94c-3.7-2.23-7.09-5.41-11.61-5.69
		c-0.28-0.52-0.84-1.57-1.12-2.09L979.73,289.26z"/>
	<path fill="#263B52" stroke="#263B52" d="M978.32,291.91c0.44-0.71,0.89-1.41,1.35-2.11c0.28,0.52,0.84,1.57,1.12,2.09
		c9.53,23.05,19.86,45.78,29.15,68.93c-11.9,1.52-23.91,1.72-35.87,2.59c-5.91,0.92-11.92,0.32-17.83,1.19
		c-5.46,0.76-11.02-0.07-16.43,1.15l-1,0.14C951.96,341.22,965.4,316.7,978.32,291.91z"/>
	<path fill="#4C687F" stroke="#4C687F" d="M970.75,297.74c2.29-2.22,4.3-5.03,7.57-5.83c-12.92,24.79-26.36,49.31-39.51,73.98
		l-0.39,0.18c-11.74,6.45-22.76,14.16-34.13,21.24c-22.87,14.21-45.36,29.06-68.39,43c0.84-1.83,1.77-3.62,2.69-5.41l0.45,1.32
		c4.02-2.22,6.93-5.85,10.17-9.02c10.61-10.73,21.41-21.27,32.08-31.95c20.03-17.89,37.84-38.16,57.88-56.04
		C949.7,318.73,960.19,308.19,970.75,297.74z"/>
	<path fill="#1D2933" stroke="#1D2933" d="M980.79,291.89c4.52,0.28,7.91,3.46,11.61,5.69c53.0699,31.51,105.95,63.36,158.97,94.94
		c0.87,0.43,1.1801,1.15,0.9401,2.17c-21.8101-6.52-43.6001-13.12-65.42-19.6c-12.62-3.6-25.0701-7.87-37.79-11.09
		c-12.6899-1.29-25.43-2.4-38.16-3.11c-0.08,0.79-0.23,2.37-0.3,3.16c-0.21-1.09-0.45-2.17-0.7-3.23
		C1000.65,337.67,990.32,314.94,980.79,291.89z"/>
	<path fill="#35505E" stroke="#35505E" d="M230.5,410.79c41.4-32.76,82.66-65.7,124.19-98.3c22.58,11.41,45.42,22.33,68.04,33.67
		c-1.17,5.84-2.39,11.68-3.66,17.5c4.58,5.76,9.02,11.62,13.63,17.35c-1.44-0.32-2.82-0.85-4-1.73
		c-10.51-7.17-21.26-13.99-31.8-21.13c-1.53-0.97-3.19-2.45-5.09-1.47c-10.72,3.65-21.47,7.23-32.16,10.98
		c-0.38,0.22-0.75,0.45-1.11,0.71c-3.41-0.19-6.44,1.61-9.61,2.57c-34.84,11.88-69.66,23.79-104.57,35.46
		C239.72,407.83,235.27,409.82,230.5,410.79z"/>
	<path fill="#222D3A" stroke="#222D3A" d="M1170.74,367.75c4.9-12.09,8.52-24.73,14.35-36.41c0.8301,1.74,1.67,3.49,2.49,5.25
		c-0.99,3.73-0.6,7.59-0.59,11.39c0.01,5.85-0.01,11.71,0.58,17.53c1.01,9.54-0.22,19.18,0.9701,28.72
		c0.97,8.2-0.0901,16.48,0.7,24.68c1.36,8.01,0.5601,16.15,0.67,24.22c-2.5601-4.26-4.65-8.76-6.9601-13.14
		c-7.62-11.26-15.98-22.01-23.5-33.33C1163.67,387.21,1166.62,377.25,1170.74,367.75z"/>
	<path fill="#1B2A36" stroke="#1B2A36" d="M1186.99,347.98c-0.01-3.8-0.4-7.66,0.59-11.39c17.6801,37.93,35.41,75.83,53.11,113.75
		c0.9601,2.34,2.9,4.5,2.7401,7.17c-17.5701-4.14-35.0901-8.46-52.62-12.7c-0.2301-0.42-0.67-1.26-0.9-1.68
		c-0.11-8.07,0.6899-16.21-0.67-24.22c-0.79-8.2,0.27-16.48-0.7-24.68c-1.1901-9.54,0.0399-19.18-0.9701-28.72
		C1186.98,359.69,1187,353.83,1186.99,347.98z"/>
	<path fill="#6D7882" stroke="#6D7882" d="M391.81,356.68c1.9-0.98,3.56,0.5,5.09,1.47c10.54,7.14,21.29,13.96,31.8,21.13
		c1.18,0.88,2.56,1.41,4,1.73c2.59,3.96,3.34,8.79,5.22,13.09c6.07,17.29,12.75,34.39,18.45,51.8c-0.4-0.01-1.2-0.04-1.59-0.05
		c-9.28-5.87-18.63-11.68-27.65-17.95c-15.7-13.96-31.41-27.9-47.14-41.83c-6.74-6.19-13.87-11.96-20.34-18.41
		C370.34,363.91,381.09,360.33,391.81,356.68z"/>
	<path fill="#304256" stroke="#304256" d="M974.07,363.41c11.96-0.87,23.97-1.07,35.87-2.59c0.25,1.06,0.49,2.14,0.7,3.23
		c2.06,16.17,3.77,32.39,6.02,48.53l0.03,0.24c4.38,26.05,8.72,52.1,13.1299,78.14c0.04,0.86,0.1001,2.57,0.13,3.43
		c-4.3899-7.54-9.98-14.27-14.77-21.56c-15.55-21.8-30.93-43.74-46.42-65.58c-9.04-12.98-18.5-25.67-27.24-38.85
		c-0.56-0.89-1.15-1.79-1.71-2.65c5.41-1.22,10.97-0.39,16.43-1.15C962.15,363.73,968.16,364.33,974.07,363.41z"/>
	<path fill="#0E1D22" stroke="#0E1D22" d="M1010.94,360.89c12.73,0.71,25.47,1.82,38.16,3.11c-0.49,5.25-2.2899,10.46-1.5699,15.76
		c-3.13,2.11-6.0701,4.5-8.85,7.05c-7.52,8.43-14.66,17.2-22.0201,25.77c-2.25-16.14-3.96-32.36-6.02-48.53
		C1010.71,363.26,1010.86,361.68,1010.94,360.89z"/>
	<path fill="#06181D" stroke="#06181D" d="M1049.1,364c12.72,3.22,25.17,7.49,37.79,11.09c21.8199,6.48,43.61,13.08,65.42,19.6
		c1.0599,0.4,2.11,0.84,3.2,1.27c-8.61-0.07-17.04-2.2-25.5601-3.14c-10.1699-1.22-20.24-3.49-30.47-3.82
		c-0.4199,0.17-1.25,0.52-1.6699,0.7c-7.6001,4.21-14.28,9.87-21.76,14.25c-0.26-4.52-0.14-9.06-0.66-13.55
		c-0.78-0.94-2.08-1.19-3.11-1.68c-8.28-2.92-16.53-5.9-24.75-8.96C1046.8101,374.46,1048.61,369.25,1049.1,364z"/>
	<path fill="#324C65" stroke="#324C65" d="M904.29,387.31c11.37-7.08,22.39-14.79,34.13-21.24c-0.42,8.39-2.46,16.59-3.34,24.94
		c-5.16,35.48-10.54,70.92-15.67,106.4c-2.53,14.69-3.87,29.57-6.91,44.18l0.3,0.55c0.27,0.45,0.81,1.34,1.08,1.79
		c5.12,15.16,11.18,29.99,16.67,45.02c-8.72,7.97-18.76,14.35-28.15,21.48c-5.6801,4.34-11.47,8.52-17.27,12.69
		c-3.17,2.63-6.98,4.5-9.61,7.73c-0.13-0.14-0.37-0.41-0.49-0.55c-1.66-11.87-4.5601-23.54-6.75-35.32
		c-10.84-54.7-22.11-109.33-32.66-164.08l0.28-0.59C858.93,416.37,881.42,401.52,904.29,387.31z"/>
	<path fill="#2B435D" stroke="#2B435D" d="M938.42,366.07l0.39-0.18l1-0.14c0.56,0.86,1.15,1.76,1.71,2.65
		c-0.77,2.44,0.42,4.88,1,7.23c8.61,28.99,16.88,58.09,25.55,87.06c-18.08,26.49-36.5,52.74-54.34,79.38l-0.93,0.07l-0.3-0.55
		c3.04-14.61,4.38-29.4901,6.91-44.18c5.13-35.48,10.51-70.92,15.67-106.4C935.96,382.66,938,374.46,938.42,366.07z"/>
	<path fill="#52626A" stroke="#52626A" d="M358.54,368.37c0.36-0.26,0.73-0.49,1.11-0.71c6.47,6.45,13.6,12.22,20.34,18.41
		c15.73,13.93,31.44,27.87,47.14,41.83c-7.65,15.48-15.37,30.93-22.88,46.47c-0.25,0.44-0.51,0.89-0.77,1.33
		c-28.17-20.3-56.49-40.39-84.51-60.89c-1.62-1.24-3.34-2.36-5.06-3.44C328.52,396.77,343.68,382.72,358.54,368.37z"/>
	<path fill="#274051" stroke="#274051" d="M348.93,370.94c3.17-0.96,6.2-2.76,9.61-2.57c-14.86,14.35-30.02,28.4-44.63,43
		c-9.55,8.03-17.76,17.5-26.97,25.91c-8.97-4.76-18.71-7.84-27.65-12.64c-9.85-4.51-20.06-8.28-29.73-13.18
		c0.24-0.17,0.71-0.5,0.94-0.67c4.77-0.97,9.22-2.96,13.86-4.39C279.27,394.73,314.09,382.82,348.93,370.94z"/>
	<path fill="#3C556E" stroke="#3C556E" d="M942.52,375.63c-0.58-2.35-1.77-4.79-1-7.23c8.74,13.18,18.2,25.87,27.24,38.85
		c15.49,21.84,30.87,43.78,46.42,65.58c4.79,7.29,10.3801,14.02,14.77,21.56c-8.35,6.76-16.34,13.95-24.59,20.83
		c0.44,0.11,1.3,0.33,1.74,0.4301c-3.31,3.25-3.0699,8.17-4.15,12.36c-2.26,10.4-3.76,20.98-6.57,31.25
		c-7.46-26.26-15.27-52.42-22.84-78.65c-1.78-5.99-3.3-12.06-5.47-17.92C959.4,433.72,951.13,404.62,942.52,375.63z"/>
	<path fill="#4E3B1D" stroke="#4E3B1D" d="M1038.6801,386.81c2.7799-2.55,5.72-4.94,8.85-7.05c8.22,3.06,16.47,6.04,24.75,8.96
		c1.03,0.49,2.33,0.74,3.11,1.68c0.52,4.49,0.4,9.03,0.66,13.55c-5.4401,1.86-10.9501,3.53-16.37,5.43
		C1052.65,401.88,1045.61,394.4,1038.6801,386.81z"/>
	<path fill="#537892" stroke="#537892" d="M1016.66,412.58c7.36-8.57,14.5001-17.34,22.0201-25.77c6.9299,7.59,13.97,15.07,21,22.57
		c2.0199,9.66,4.85,19.17,6.35,28.93l0.21,1.06c-8.8-3.69-16.8-8.99-25.28-13.32c-8.13-4.34-16.13-8.91-24.27-13.23L1016.66,412.58z
		"/>
	<path fill="#49647F" stroke="#49647F" d="M1097.8101,389.7c0.4199-0.18,1.25-0.53,1.6699-0.7c8.01,19.53,17.0601,38.64,25.5,58.01
		c2.53,6.14,5.79,11.99,7.72,18.36c-18.26-6.49-36.1799-13.95-54.3099-20.82c-4.13-1.44-8.04-3.53-12.34-4.37
		c0.0499-0.2,0.1399-0.61,0.1899-0.81l-0.21-1.06c0.38,0.19,1.14,0.58,1.52,0.77C1077.4,422.48,1088.23,406.45,1097.8101,389.7z"/>
	<path fill="#142736" stroke="#142736" d="M1099.48,389c10.23,0.33,20.3,2.6,30.47,3.82c8.52,0.94,16.9501,3.07,25.5601,3.14
		c1.1899,0.45,2.36,0.96,3.5599,1.49c-3.9099,10.74-7.12,21.75-11.1599,32.45c-1.0701,2.75-1.8101,5.61-2.64,8.44l-0.12,0.26
		c-3.9401,9.12-7.63,18.37-11.88,27.35l-0.5701-0.58c-1.9299-6.37-5.1899-12.22-7.72-18.36
		C1116.54,427.64,1107.49,408.53,1099.48,389z"/>
	<path fill="#1C2931" stroke="#1C2931" d="M1076.05,403.95c7.48-4.38,14.1599-10.04,21.76-14.25
		c-9.5801,16.75-20.41,32.78-30.26,49.38c-0.38-0.19-1.14-0.58-1.52-0.77c-1.5-9.76-4.3301-19.27-6.35-28.93
		C1065.1,407.48,1070.61,405.81,1076.05,403.95z"/>
	<path fill="#28445B" stroke="#28445B" d="M1290.66,403.97c0.5-3.11-0.67-6.97,1.89-9.34c0.1899,3.46-0.1001,6.92-0.17,10.39
		c-1.71,55.35-3.51,110.7-5.17,166.05c-0.59,8.84-0.1499,17.77-1.1699,26.57c-2.74-6.29,0.25-13.39-1.7001-19.85
		c-0.7999,6.29-0.01,12.63-0.5299,18.94c-11.6201,1.32-23.26,2.46-34.8501,4c-4.95,0.24-9.8199,1.6-14.7799,1.21
		c-0.77-5.03,1.21-9.91,0.86-14.94c-0.3501-4.76,1.37-9.38,0.88-14.13c-3.51,3.94-1.0701,9.67-2.29,14.37
		c-1.1801,5.08,0.16,10.5-1.74,15.41c-14.33-1.06-28.62-2.97-42.98-3.53l-0.6801,0.2c-5.1-15.16-9.72-30.48-14.78-45.65
		c-1.2799-0.66-2.5399-1.33-3.7999-1.96l1.5599-0.07c0.4401,0.06,1.3401,0.19,1.79,0.26c1.3199-7.14,2.8-14.25,3.9-21.4301
		c0.2-1.34,0.52-2.64,0.88-3.9399l0.23-0.85c14.71-14.16,28.48-29.33,42.8-43.9c7.46-7.46,14.3999-15.45,22.09-22.68
		c0.34,0.21,1,0.63,1.34,0.84c2.15-5.64,6.55-9.88,10.04-14.67c6.87-8.81,13.64-17.7,20.51-26.5c5.0299-6.16,9.39-12.86,14.76-18.74
		C1289.89,401.34,1290.26,402.65,1290.66,403.97z"/>
	<path fill="#0B1A1B" stroke="#0B1A1B" d="M1159.0699,397.45l0.38-0.79c7.52,11.32,15.88,22.07,23.5,33.33
		c-6.85-1.52-13.6399-3.66-20.58-4.53c-5.91,3.99-11.24,8.81-17.1,12.88c0.83-2.83,1.5699-5.69,2.64-8.44
		C1151.95,419.2,1155.16,408.19,1159.0699,397.45z"/>
	<path fill="#263C4A" stroke="#263C4A" d="M226.89,417.81c0.77-2.17,1.46-4.38,2.67-6.35c9.67,4.9,19.88,8.67,29.73,13.18
		c8.94,4.8,18.68,7.88,27.65,12.64c27.87,12.47,55.85,24.66,83.75,37.05c5.57,2.1,10.67,5.42,16.5,6.77
		c-3.8-4.93-9.18-8.27-13.39-12.81c-4.81-4.92-9.91-9.52-15.07-14.06c-6.67-7-14.24-13.04-21.03-19.92
		c-6.47-6.66-14-12.24-20.11-19.25l1.38-0.25c28.02,20.5,56.34,40.59,84.51,60.89c-4.41,2.65-9.05,4.86-13.57,7.3
		c-12.8,49.35-25.36,98.77-38.21,148.1l-0.86-0.86c-0.46,0.79-0.91,1.59-1.36,2.4c-58.58-23.6-117.26-46.95-175.84-70.5
		C191.34,514.01,209.16,465.92,226.89,417.81z"/>
	<path fill="#374B55" stroke="#374B55" d="M286.94,437.28c9.21-8.41,17.42-17.88,26.97-25.91c1.72,1.08,3.44,2.2,5.06,3.44
		l-1.38,0.25c6.11,7.01,13.64,12.59,20.11,19.25c6.79,6.88,14.36,12.92,21.03,19.92c5.16,4.54,10.26,9.14,15.07,14.06
		c4.21,4.54,9.59,7.88,13.39,12.81c-5.83-1.35-10.93-4.67-16.5-6.77C342.79,461.94,314.81,449.75,286.94,437.28z"/>
	<path fill="#7F91AD" stroke="#7F91AD" d="M1016.69,412.82c8.14,4.32,16.14,8.89,24.27,13.23c8.48,4.33,16.48,9.63,25.28,13.32
		c-0.05,0.2-0.14,0.61-0.1899,0.81c-0.75,2.85-2.75,5.07-4.3201,7.48c-10.4199,15.35-20.8199,30.71-31.24,46.06l-0.54,0.67
		c-0.0299-0.86-0.09-2.57-0.13-3.43C1025.41,464.92,1021.07,438.87,1016.69,412.82z"/>
	<path fill="#535D57" stroke="#535D57" d="M457.63,445.59c2.42-10.68,5.1-21.3,7.81-31.91c8.57,15.09,16.76,30.39,25.11,45.59
		c-12.83,3.02-25.69,5.94-38.58,8.66c1.72-7.01,3.5-14.01,5.2-21.03l-0.56-0.1c-0.46-0.24-1.38-0.71-1.83-0.95
		c0.39,0.01,1.19,0.04,1.59,0.05C456.68,445.82,457.32,445.67,457.63,445.59z"/>
	<path fill="#4E3B1D" stroke="#4E3B1D" d="M1162.37,425.46c6.9401,0.87,13.73,3.01,20.58,4.53c2.3101,4.38,4.4,8.88,6.9601,13.14
		c0.23,0.42,0.6699,1.26,0.9,1.68c-3.5901,2.27-6.1901,6.17-10.3,7.46c-11.8201-4.48-23.48-9.37-35.36-13.67l0.12-0.26
		C1151.13,434.27,1156.46,429.45,1162.37,425.46z"/>
	<path fill="#E8E1D8" stroke="#E8E1D8" d="M427.13,427.9c9.02,6.27,18.37,12.08,27.65,17.95c0.45,0.24,1.37,0.71,1.83,0.95
		c-8.65,5.16-17.71,9.63-26.63,14.32c-5.89,3.61-12.31,6.23-18.27,9.72c-2.41,1.32-4.68,3.09-7.46,3.53
		C411.76,458.83,419.48,443.38,427.13,427.9z"/>
	<path fill="#5C7287" stroke="#5C7287" d="M672.89,429.23c4.36-0.25,8.73-0.02,13.11-0.05c49.88,0.56,99.75,1.21,149.62,1.72
		c10.55,54.75,21.82,109.38,32.66,164.08c2.1899,11.78,5.09,23.45,6.75,35.32c-64.83-64.99-129.98-129.66-194.89-194.56
		C677.9,433.38,675.48,431.2,672.89,429.23z"/>
	<path fill="#284459" stroke="#284459" d="M507.06,612.75c55.26-61.18,110.51-122.38,165.83-183.52
		c-0.96,21.61-3.21,43.14-4.53,64.73c-3.54,46.68-6.94,93.39-10.45,140.08c-0.08,0.52-0.22,1.57-0.3,2.09
		c-0.12-0.54-0.38-1.64-0.51-2.18c-47.96-7.21-96.03-13.77-144.02-20.82C511.08,612.82,509.06,612.78,507.06,612.75z"/>
	<path fill="#4B5B70" stroke="#4B5B70" d="M672.89,429.23c2.59,1.97,5.01,4.15,7.25,6.51c64.91,64.9,130.06,129.57,194.89,194.56
		c0.12,0.14,0.36,0.41,0.49,0.55c3.74,4.16,7.99,7.82,12.13,11.58c23.94,23.03,48.2599,45.64,72.23,68.63
		c8.38,7.09,15.42,15.69,24.28,22.23l0.03,1.08c-44.54-13.49-88.97-27.4-133.48-41.01c-3.71-1-7.26-2.71-11.12-3.05
		c-60.45-19.1-121.23-37.2-181.6801-56.27c3.51-46.69,6.91-93.4,10.45-140.08C669.68,472.37,671.93,450.84,672.89,429.23z"/>
	<path fill="#48647B" stroke="#48647B" d="M1145.15,438.6c11.88,4.3,23.5399,9.19,35.36,13.67c0.92,6.88-0.21,13.84-0.4,20.75
		c-0.7999,14.66-1.16,29.35-2.24,43.99c-0.1899,2.51,0.14,5.01,0.38,7.5l-0.24,1.17l-0.23,0.85c-14.97-20.1-29.48-40.54-44.51-60.58
		C1137.52,456.97,1141.21,447.72,1145.15,438.6z"/>
	<path fill="#CDDCEB" stroke="#CDDCEB" d="M1066.05,440.18c4.2999,0.84,8.21,2.93,12.34,4.37
		c18.13,6.87,36.0499,14.33,54.3099,20.82l0.5701,0.58c15.03,20.04,29.54,40.48,44.51,60.58c-0.36,1.3-0.6801,2.6-0.88,3.9399
		c-0.28-1.55-0.73-3.0699-1.14-4.5699c-20.46-5.11-41.1901-9.22-61.75-13.91c-5.88-1.36-11.77-2.6-17.73-3.5
		c-9.99-2.91-20.25-4.76-30.36-7.18c-11.8501-2.38-23.5601-5.38-35.4301-7.59c10.42-15.35,20.8201-30.71,31.24-46.06
		C1063.3,445.25,1065.3,443.03,1066.05,440.18 M1069.74,466.72c2.72,11.03,5.25,22.11,8.08,33.12c6.77,2.63,13.5,5.4,20.1801,8.27
		c1.76-6.98,3.86-13.89,5.36-20.93C1092.03,480.57,1080.96,473.51,1069.74,466.72 M1114.08,491.57
		c-0.2999,5.11-1.71,10.07-2.22,15.17c1.53,0.04,3.1,0.37,4.65,0.08c2.77,0.41,5.58,0.74,8.39,0.91c2.28,0.19,4.5699,0.65,6.89,0.53
		c5.88-2.68,11.33-6.26,17.2899-8.81c-0.46-1.17-1.97-0.98-2.9099-1.25C1135.4301,496.19,1124.85,493.27,1114.08,491.57z"/>
	<path fill="#324D65" stroke="#324D65" d="M1180.51,452.27c4.11-1.29,6.71-5.19,10.3-7.46c-4.2101,26.56-8.3401,53.15-12.5601,79.7
		c-0.24-2.49-0.5699-4.99-0.38-7.5c1.08-14.64,1.4401-29.33,2.24-43.99C1180.3,466.11,1181.4301,459.15,1180.51,452.27z"/>
	<path fill="#48637E" stroke="#48637E" d="M1190.8101,444.81c17.5299,4.24,35.0499,8.56,52.62,12.7c-0.13,0.4-0.4,1.19-0.53,1.59
		c-7.6901,7.23-14.63,15.22-22.09,22.68c-14.3201,14.57-28.0901,29.74-42.8,43.9l0.24-1.17
		C1182.47,497.96,1186.6,471.37,1190.8101,444.81z"/>
	<path fill="#DED8D0" stroke="#DED8D0" d="M456.61,446.8l0.56,0.1c-1.7,7.02-3.48,14.02-5.2,21.03
		c-23.75,94.73-47.46,189.47-71.24,284.19c-0.38-0.26-1.12-0.77-1.49-1.03c-0.57,2.67-1.18,5.34-1.73,8.02
		c-8.57-38.61-16.5-77.37-24.88-116.03c-0.62-2.9-0.46-5.94-1.55-8.74c0.2-1.09,0.4-2.17,0.62-3.2401
		c12.85-49.33,25.41-98.75,38.21-148.1c4.52-2.44,9.16-4.65,13.57-7.3c0.26-0.44,0.52-0.89,0.77-1.33c2.78-0.44,5.05-2.21,7.46-3.53
		c5.96-3.49,12.38-6.11,18.27-9.72C438.9,456.43,447.96,451.96,456.61,446.8z"/>
	<path fill="#14252B" stroke="#14252B" d="M490.55,459.27c0.88,56.75,1.06,113.52,2.06,170.26c-8.35,10.29-17.28,20.09-25.85,30.2
		c-28.5,32.84-56.83,65.85-85.32,98.69c-0.71,1.21-1.17,2.54-1.71,3.84c-0.25-0.55-0.77-1.65-1.02-2.21
		c0.58-2.66,1.43-5.27,2.02-7.93c23.78-94.72,47.49-189.46,71.24-284.19C464.86,465.21,477.72,462.29,490.55,459.27z"/>
	<path fill="#384D65" stroke="#384D65" d="M913.73,542.07c17.84-26.64,36.26-52.89,54.34-79.38c2.17,5.86,3.69,11.93,5.47,17.92
		c7.57,26.23,15.38,52.39,22.84,78.65l0.01,0.83c0.14,2.53,1.21,4.87,1.78,7.3199l-0.41,0.59
		C969.69,559.58,941.7,550.82,913.73,542.07z"/>
	<path fill="#222C38" stroke="#222C38" d="M1069.74,466.72c11.22,6.79,22.29,13.85,33.62,20.46c-1.5,7.04-3.6,13.95-5.36,20.93
		c-6.6801-2.87-13.41-5.64-20.1801-8.27C1074.99,488.83,1072.46,477.75,1069.74,466.72z"/>
	<path fill="#14212C" stroke="#14212C" d="M1114.08,491.57c10.77,1.7,21.3501,4.62,32.0901,6.63c0.9399,0.27,2.45,0.08,2.9099,1.25
		c-5.96,2.55-11.4099,6.13-17.2899,8.81c-2.3201,0.12-4.61-0.34-6.89-0.53c0.25-0.37,0.75-1.1,1-1.47
		c-3.15-0.29-6.36-0.55-9.39,0.56c-1.55,0.29-3.12-0.04-4.65-0.08C1112.37,501.64,1113.78,496.68,1114.08,491.57z"/>
	<path fill="#BBCBDD" stroke="#BBCBDD" d="M1029.95,494.39l0.54-0.67c11.87,2.21,23.58,5.21,35.4301,7.59
		c10.11,2.42,20.37,4.27,30.36,7.18c5.96,0.9,11.85,2.14,17.73,3.5c20.5599,4.69,41.29,8.8,61.75,13.91
		c0.41,1.5,0.86,3.02,1.14,4.5699c-1.1,7.1801-2.5801,14.29-3.9,21.4301c-0.45-0.07-1.35-0.2-1.79-0.26
		c-20.97-5.13-42.1599-9.29-63.21-14.03c-26.64-5.81-53.28-11.61-79.91-17.43c-6.73-1.33-13.36-3.2-20.16-4.12l-0.83-0.41
		c-0.44-0.1-1.3-0.32-1.74-0.4301C1013.61,508.34,1021.6,501.15,1029.95,494.39z"/>
	<path fill="#010A15" stroke="#010A15" d="M1116.51,506.82c3.03-1.11,6.24-0.85,9.39-0.56c-0.25,0.37-0.75,1.1-1,1.47
		C1122.09,507.56,1119.28,507.23,1116.51,506.82z"/>
	<path fill="#496479" stroke="#496479" d="M1007.1,515.65l0.83,0.41c6.42,4.51,13.62,7.68,20.41,11.56
		c17.2101,9.45,34.64,18.52,51.74,28.18c-27.89,1.5-55.7799,3.11-83.6899,4.29l-0.01-0.83c2.81-10.27,4.31-20.85,6.57-31.25
		C1004.03,523.82,1003.79,518.9,1007.1,515.65z"/>
	<path fill="#627D97" stroke="#627D97" d="M1007.93,516.06c6.8,0.92,13.43,2.79,20.16,4.12c26.63,5.82,53.27,11.62,79.91,17.43
		c21.05,4.74,42.24,8.9,63.21,14.03l-1.5599,0.07c-16.54,1.36-33.15,1.33-49.7001,2.35c-12.71,1-25.5299,0.41-38.1699,2.1
		c-0.4301-0.09-1.27-0.27-1.7001-0.36c-17.1-9.66-34.5299-18.73-51.74-28.18C1021.55,523.74,1014.35,520.57,1007.93,516.06z"/>
	<path fill="#283242" stroke="#283242" d="M912.8,542.14l0.93-0.07c27.97,8.75,55.96,17.51,84.03,25.93l0.41-0.59
		c3.6,0.88,7.33,0.79,11,1.26c-2.54,0.04-5.07,0.28-7.59,0.41c-0.61-0.02-1.83-0.06-2.43-0.08c10.34,27.53,21.56,54.71,31.96,82.21
		l-0.17,0.88c-4.1499-3.17-7.2299-7.48-11.39-10.6201c-5.31-3.97-9.25-9.42-14.49-13.45c-5.46-4.19-9.62-9.79-15.07-13.99
		c-4.71-3.61-8.26-8.48-13-12.04c-5.64-4.34-9.9-10.17-15.58-14.46c-4.1299-3.13-7.23-7.3701-11.28-10.58
		c-6.22-4.73-11-11.04-17.28-15.71c-6.09-6.03-12.12-12.12-18.97-17.31C913.61,543.48,913.07,542.59,912.8,542.14z"/>
	<path fill="#2F3747" stroke="#2F3747" d="M913.88,543.93c6.85,5.19,12.88,11.28,18.97,17.31c6.28,4.67,11.06,10.98,17.28,15.71
		c4.05,3.21,7.15,7.45,11.28,10.58c5.6801,4.29,9.94,10.12,15.58,14.46c4.74,3.56,8.29,8.43,13,12.04c5.45,4.2,9.61,9.8,15.07,13.99
		c5.24,4.03,9.18,9.48,14.49,13.45c4.16,3.14,7.2401,7.45,11.39,10.6201C1020.53,671.78,1009.44,691.11,998.75,710.66
		c-4.29,8.17-9.29,15.98-13.15,24.36c-0.5-1.11-1-2.2-1.47-3.29c-18.09-47.5-35.66-95.21-53.58-142.78
		C925.06,573.92,919,559.09,913.88,543.93z"/>
	<path fill="#3E596D" stroke="#3E596D" d="M1119.95,554.06c16.55-1.02,33.16-0.99,49.7001-2.35c1.26,0.63,2.52,1.3,3.7999,1.96
		c5.0601,15.17,9.6801,30.49,14.78,45.65c-22.23-8.96-44.4399-17.94-66.6799-26.87c-13.2301-5.49-26.7101-10.41-39.77-16.29
		C1094.42,554.47,1107.24,555.06,1119.95,554.06z"/>
	<path fill="#212A34" stroke="#212A34" d="M996.39,560.09c27.91-1.1801,55.7999-2.79,83.6899-4.29
		c0.4301,0.09,1.27,0.27,1.7001,0.36c13.0599,5.88,26.5399,10.8,39.77,16.29c22.24,8.93,44.45,17.91,66.6799,26.87
		c-4.5699,2.89-9.41,5.3-14.22,7.75c-1.1901,0.71-2.5701,0.71-3.86,0.4c-1.62-0.66-3.2101-1.37-4.8201-1.99
		c-28.26-10.56-56.38-21.49-84.58-32.18c-3.22-1.12-6.29-2.82-9.7-3.2c-20.62-0.8-41.27-0.59-61.8801-1.43
		c-3.67-0.47-7.4-0.38-11-1.26C997.6,564.96,996.53,562.62,996.39,560.09z"/>
	<path fill="#24393B" stroke="#24393B" d="M169.28,800.97c1.47-79.61,2.72-159.23,4.36-238.83c58.58,23.55,117.26,46.9,175.84,70.5
		c0.45-0.81,0.9-1.61,1.36-2.4l0.86,0.86c-0.22,1.07-0.42,2.15-0.62,3.2401c-0.48,2.0099-0.98,4.02-1.39,6.06
		c-0.32-1.39-0.7-2.77-1.07-4.13c-4.83,6.25-11,11.25-16.38,17c-2.7,2.99-5.96,5.38-8.98,8.02c-20.26,20.06-40.25,40.41-60.6,60.38
		c-3.3,4.04-7.53,7.12-11.42,10.54c-21.64,21.72-43.35,43.37-65.02,65.06c-4.1,3.89-8,8-12.44,11.52c-1.85,1.36-3.08,3.32-4.31,5.23
		C168.71,809.7,169.39,805.31,169.28,800.97z"/>
	<path fill="#34495A" stroke="#34495A" d="M999.15,569c0.6,0.02,1.8199,0.06,2.43,0.08c21.37,4.61,42.69,9.51,63.97,14.57
		c-1.01,4.18-3.78,7.54-5.5901,11.35c-5.1,10.51-10.51,20.87-15.74,31.31c-4.6,7.91-8.48,16.21-12.4199,24.46l-0.6901,0.44
		C1020.71,623.71,1009.49,596.53,999.15,569z"/>
	<path fill="#39546A" stroke="#39546A" d="M1001.58,569.08c2.52-0.13,5.05-0.37,7.59-0.41c20.61,0.84,41.2601,0.63,61.8801,1.43
		c3.4099,0.38,6.48,2.08,9.7,3.2c28.2,10.69,56.3199,21.62,84.58,32.18c-2.88,0.7-5.6899-0.39-8.4299-1.08
		c-30.4601-6.87-60.88-13.95-91.35-20.75C1044.27,578.59,1022.95,573.69,1001.58,569.08z"/>
	<path fill="#264258" stroke="#264258" d="M1233.63,587.24c1.22-4.7-1.22-10.43,2.29-14.37c0.49,4.75-1.2301,9.37-0.88,14.13
		c0.35,5.03-1.63,9.91-0.86,14.94c4.96,0.39,9.83-0.97,14.7799-1.21c11.5901-1.54,23.23-2.68,34.8501-4
		c0.5199-6.31-0.27-12.65,0.5299-18.94c1.9501,6.46-1.0399,13.56,1.7001,19.85c-19.78,28.69-39.79,57.23-59.52,85.96
		c-3.9301-7.05-6.71-14.66-10.13-21.95c-9.13-20.86-18.71-41.52-27.48-62.53c14.36,0.56,28.65,2.47,42.98,3.53
		C1233.79,597.74,1232.45,592.32,1233.63,587.24z"/>
	<path fill="#2B4358" stroke="#2B4358" d="M1065.55,583.65c30.47,6.8,60.8899,13.88,91.35,20.75c2.74,0.69,5.5499,1.78,8.4299,1.08
		c1.61,0.62,3.2001,1.33,4.8201,1.99c-4.74,2.67-10.12,3.71-15.2001,5.48c-33.0399,10.22-66.0499,20.55-99.0699,30.82
		c-8.09,2.13-15.8199,5.51-24.08,7c3.9399-8.25,7.8199-16.55,12.4199-24.46c5.23-10.44,10.64-20.8,15.74-31.31
		C1061.77,591.19,1064.54,587.83,1065.55,583.65z"/>
	<path fill="#324860" stroke="#324860" d="M930.55,588.95c17.92,47.57,35.49,95.28,53.58,142.78l0.03,1.56
		c-8.86-6.54-15.9-15.14-24.28-22.23c-23.97-22.99-48.29-45.6-72.23-68.63c-4.14-3.76-8.39-7.42-12.13-11.58
		c2.63-3.23,6.44-5.1,9.61-7.73c5.8-4.17,11.59-8.35,17.27-12.69C911.79,603.3,921.83,596.92,930.55,588.95z"/>
	<path fill="#283E51" stroke="#283E51" d="M1188.23,599.32l0.6801-0.2c8.77,21.01,18.35,41.67,27.48,62.53
		c3.42,7.29,6.2,14.9,10.13,21.95l-0.26,0.47c-55.0601-9.17-110.13-18.2-165.17-27.41c-9.7799-1.3-19.4-3.73-29.24-4.48l-0.91-0.09
		l0.17-0.88l0.6901-0.44c8.26-1.49,15.99-4.87,24.08-7c33.02-10.27,66.03-20.6,99.0699-30.82c5.0801-1.77,10.4601-2.81,15.2001-5.48
		c1.2899,0.3101,2.6699,0.3101,3.86-0.4C1178.8199,604.62,1183.66,602.21,1188.23,599.32z"/>
	<path fill="#1A2B3A" stroke="#1A2B3A" d="M507.06,612.75c2,0.03,4.02,0.07,6.02,0.38c47.99,7.05,96.06,13.61,144.02,20.82
		c0.13,0.54,0.39,1.64,0.51,2.18c-9.32,67.06-18.57,134.14-27.66,201.23c-73.6-22.21-147.26-44.22-220.87-66.39
		c-9.78-2.91-19.5-6.05-29.35-8.71c0.54-1.3,1-2.63,1.71-3.84c28.49-32.84,56.82-65.85,85.32-98.69
		c8.57-10.11,17.5-19.91,25.85-30.2C497.37,623.9,502.24,618.34,507.06,612.75z"/>
	<path fill="#737F92" stroke="#737F92" d="M657.91,634.04c60.45,19.07,121.23,37.17,181.6801,56.27
		c17.2599,42.29,34.52,84.58,51.61,126.95c-15.76,1.29-31.52,2.26-47.25,3.7c-6.02-0.29-11.91,1.34-17.93,1.03
		c-20.98,2.04-42.02,3.2-63.03,4.96c-6.01,0-11.93,1.4-17.95,1.09c-6.34,0.95-12.77,0.7401-19.07,1.87
		c-11.68,0.23-23.28,1.81-34.95,2.35c-6.29,1.18-12.73,0.42-19.03,1.57c-6.37,0.02-12.65,1.2-19.02,1.25
		c-7.65,1.13-15.43,0.71-23.02,2.28c9.09-67.09,18.34-134.17,27.66-201.23C657.69,635.61,657.83,634.56,657.91,634.04z"/>
	<path fill="#E9E1D8" stroke="#E9E1D8" d="M349.69,640.4c0.41-2.04,0.91-4.05,1.39-6.06c1.09,2.8,0.93,5.84,1.55,8.74
		c8.38,38.66,16.31,77.42,24.88,116.03c0.55-2.68,1.16-5.35,1.73-8.02c0.37,0.2599,1.11,0.77,1.49,1.03
		c-0.59,2.66-1.44,5.27-2.02,7.93c-12.75,53.03-25.85,105.97-38.71,158.97l-0.51,0.01c-3.78-0.17-7.53-0.61-11.3-0.82
		c-0.93-0.06-1.85-0.09-2.78-0.1c-4.03-0.33-8.07-0.62-12.11-0.91c-0.94-0.06-1.88-0.09-2.82-0.11
		c-5.72-0.44-11.43-0.94-17.15-1.1201c0.1-0.52,0.32-1.55,0.43-2.06C312.42,822.74,331.12,731.58,349.69,640.4z"/>
	<path fill="#273A40" stroke="#273A40" d="M332.24,653.27c5.38-5.75,11.55-10.75,16.38-17c0.37,1.36,0.75,2.74,1.07,4.13
		c-18.57,91.18-37.27,182.34-55.93,273.5099c-0.3,0.5-0.92,1.52-1.23,2.03c-8.12,4.47-17.08,7.16-25.52,10.96
		c-10.45,4.62-21.4,8.18-31.5,13.52l-0.48-0.66c-2.84-4.56-5.01-9.5-7.59-14.2c-19.34-37.17-38.48-74.45-57.97-111.54
		c1.23-1.91,2.46-3.87,4.31-5.23c4.44-3.52,8.34-7.63,12.44-11.52c21.67-21.69,43.38-43.34,65.02-65.06
		c3.89-3.42,8.12-6.5,11.42-10.54c20.35-19.97,40.34-40.32,60.6-60.38C326.28,658.65,329.54,656.26,332.24,653.27z"/>
	<path fill="#142125" stroke="#142125" d="M1030.9399,652.09l0.91,0.09c24.27,33.04,48.97,65.75,73.34,98.71
		c1.14,1.84,3.5601,3.39,3.0901,5.85c-9.67-2.3-19.55-3.62-29.3201-5.39c-31.11-5.52-62.2599-10.79-93.36-16.33
		c3.86-8.38,8.86-16.19,13.15-24.36C1009.44,691.11,1020.53,671.78,1030.9399,652.09z"/>
	<path fill="#1A2C38" stroke="#1A2C38" d="M1031.85,652.18c9.84,0.75,19.4601,3.18,29.24,4.48
		c55.04,9.21,110.11,18.2401,165.17,27.41l-0.21,0.35c-11.0601,16.16-22.37,32.14-33.3401,48.36c-1.6,2.02-2.7899,4.91-5.62,5.4
		c-25.96,6.22-51.98,12.3-77.9199,18.58c-0.2201,0-0.67-0.02-0.89-0.02c0.47-2.46-1.9501-4.01-3.0901-5.85
		C1080.8199,717.93,1056.12,685.22,1031.85,652.18z"/>
	<path fill="#253C4A" stroke="#253C4A" d="M1192.71,732.78c10.9701-16.22,22.28-32.2,33.3401-48.36
		C1257.7,737.24,1288.98,790.28,1320.45,843.2c-91.5,16.91-183.0599,33.64-274.59,50.44c-6.5,1.07-12.89,2.64-19.42,3.45
		c5.1201-7.88,9.77-16.05,14.3501-24.25c4.73-8.28,9.9099-16.3,14.4099-24.7c4.67-7.72,9.6001-15.27,13.7201-23.3
		c10.8099-17.92,21.12-36.15,31.7999-54.15c3.16-4.44,4.9601-9.7,8.4501-13.93c25.9399-6.28,51.96-12.36,77.9199-18.58
		C1189.92,737.69,1191.11,734.8,1192.71,732.78z"/>
	<path fill="#273A4B" stroke="#273A4B" d="M839.59,690.31c3.86,0.34,7.41,2.05,11.12,3.05c44.5099,13.61,88.94,27.52,133.48,41.01
		l-0.03-1.08l-0.03-1.56c0.47,1.09,0.97,2.18,1.47,3.29c31.1,5.54,62.25,10.81,93.36,16.33c9.77,1.77,19.65,3.09,29.3201,5.39
		c0.22,0,0.6699,0.02,0.89,0.02c-3.49,4.23-5.29,9.49-8.4501,13.93c-10.6799,18-20.99,36.23-31.7999,54.15
		c-4.12,8.03-9.05,15.58-13.7201,23.3c-4.5,8.4-9.6799,16.42-14.4099,24.7c-4.5801,8.2-9.23,16.37-14.3501,24.25l-0.1399,0.18
		c-45.0001-26.72-90.17-53.18-135.1-80.01C874.11,774.89,856.85,732.6,839.59,690.31z"/>
	<path fill="#32424E" stroke="#32424E" d="M340,919.02c12.86-53,25.96-105.94,38.71-158.97c0.25,0.56,0.77,1.66,1.02,2.21
		c9.85,2.66,19.57,5.8,29.35,8.71c73.61,22.17,147.27,44.1801,220.87,66.39l-0.28,0.1c-33.79,30.87-67.36,61.99-101.21,92.78
		c-28.93,25.07-57.16,50.96-86.02,76.1c-18.54-28.06-37.1-56.1201-55.68-84.15C371.19,920.99,355.59,919.89,340,919.02z"/>
	<path fill="#6E7F95" stroke="#6E7F95" d="M843.95,820.96c15.73-1.44,31.49-2.41,47.25-3.7c44.93,26.83,90.1,53.29,135.1,80.01
		c-0.9501,0.87-1.9401,1.71-2.96,2.5c-1.92,1.22-3.83,2.44-5.72,3.71c-64.08,42.95-128.03,86.09-192.06,129.12
		c-11.95,8.16-24.14,15.9601-35.92,24.37l-1.5,0.5c-0.18-0.11-0.55-0.3199-0.74-0.4299c-4.12-7.16-9.5-13.51-14.1-20.36
		C727.66,972.98,682,909.31,636.47,845.52c-1.96-2.93-3.91-5.95-6.8-8.06l0.28-0.1c7.59-1.57,15.37-1.15,23.02-2.28
		c6.3701-0.05,12.65-1.23,19.02-1.25c6.3-1.15,12.74-0.39,19.03-1.57c11.67-0.54,23.27-2.12,34.95-2.35
		c6.3-1.1299,12.73-0.92,19.07-1.87c6.02,0.31,11.94-1.09,17.95-1.09c21.01-1.76,42.05-2.92,63.03-4.96
		C832.04,822.3,837.93,820.67,843.95,820.96z"/>
	<path fill="#67788B" stroke="#67788B" d="M528.46,930.24c33.85-30.79,67.42-61.91,101.21-92.78c2.89,2.11,4.84,5.13,6.8,8.06
		c45.53,63.79,91.19,127.46,136.83,191.16c4.6,6.85,9.98,13.2,14.1,20.36c-7.9-2.76-15.08-7.2101-22.66-10.7201
		c-56.15-27.4999-112.23-55.16-168.4-82.65c-19.57-9.88-39.44-19.11-58.98-29.05c-2.1-1.17-4.38-1.9-6.71-2.41
		C530.1,931.72,529.01,930.74,528.46,930.24z"/>
	<path fill="#1D353E" stroke="#1D353E" d="M1320.45,843.2c7.53,52.2,14.4301,104.5,21.74,156.73c-0.9199-0.24-1.8199-0.47-2.7-0.7
		c-8.65-2.24-17.02-5.4-25.54-8.05c-91.0199-29.7-182.0599-59.29-273.0699-89c-4.76-1.86-9.9-2.72-14.4401-5.09
		c6.53-0.81,12.92-2.38,19.42-3.45C1137.39,876.84,1228.95,860.11,1320.45,843.2z"/>
	<path fill="#24425A" stroke="#24425A" d="M1026.3,897.27l0.1399-0.18c4.54,2.37,9.6801,3.23,14.4401,5.09
		c91.01,29.71,182.05,59.3,273.0699,89c8.52,2.65,16.89,5.81,25.54,8.05c-2.03,1.91-4.9299,1.52-7.46,1.83
		c-118.13,12.08-236.25,24.36-354.38,36.48c-1.7,0.25-3.37,0.59-5.06,0.8099c-7.4301-0.21-14.8701-0.23-22.3-0.48
		c-3.34-0.98-6.83-0.86-10.2599-0.9c11.28-17.18,21.59-34.97,32.5-52.39c15.96-25.75,31.66-51.66,47.7-77.36
		c1.28-2.36,3.35-4.59,3.11-7.45C1024.36,898.98,1025.35,898.14,1026.3,897.27z"/>
	<path fill="#284761" stroke="#284761" d="M1017.62,903.48c1.89-1.27,3.8-2.49,5.72-3.71c0.24,2.86-1.83,5.09-3.11,7.45
		c-16.04,25.7-31.74,51.61-47.7,77.36c-10.91,17.42-21.22,35.21-32.5,52.39c3.43,0.04,6.92-0.08,10.2599,0.9
		c-4.28,0.26-8.66-0.54-12.84,0.6901c-3.34,0.98-6.65,2.0499-10.02,2.8999c-4.56-0.89-9,0.67-13.44,1.4401
		c-6.12,1.1-12.13,2.7899-18.33,3.3199c25.76-29.43,51.55-58.8,77.34-88.1899c15.5-18,31.55-35.51,46.83-53.7
		C1019.28,904.12,1018.17,903.69,1017.62,903.48z"/>
	<path fill="#304C64" stroke="#304C64" d="M825.56,1032.6c64.03-43.03,127.98-86.17,192.06-129.12c0.55,0.21,1.66,0.64,2.21,0.85
		c-15.28,18.19-31.33,35.7-46.83,53.7c-25.79,29.39-51.58,58.7599-77.34,88.1899c-26.21,3.16-52.5,5.62-78.75,8.48
		c-9.09,0.7101-18.12,2.64-27.27,2.27C801.42,1048.5601,813.61,1040.76,825.56,1032.6z"/>
	<path fill="#06181D" stroke="#06181D" d="M292.53,915.94c0.31-0.51,0.93-1.53,1.23-2.03c-0.11,0.51-0.33,1.54-0.43,2.06
		c5.72,0.1801,11.43,0.6801,17.15,1.1201c-4.35,1.8-9.14,0.67-13.7,0.99C295.36,917.36,293.95,916.64,292.53,915.94z"/>
	<path fill="#263B4F" stroke="#263B4F" d="M267.01,926.9c8.44-3.8,17.4-6.4901,25.52-10.96c1.42,0.7,2.83,1.42,4.25,2.14
		c10.24,7.94,21.21,14.9,31.74,22.46c12.86,8.92,25.64,17.95,38.49,26.89c-7.56,10.09-14.4,20.7-21.43,31.16
		c-3.33,5.31-7.39,10.14-10.54,15.56c-22.68-16.34-44.92-33.26-67.5-49.73c-10.52-8.22-21.65-15.61-32.03-24
		C245.61,935.08,256.56,931.52,267.01,926.9z"/>
	<path fill="#172632" stroke="#172632" d="M310.48,917.09c0.94,0.02,1.88,0.05,2.82,0.11c-0.29,0.37-0.87,1.12-1.16,1.49
		c4.42,0.2,8.99,0.93,13.27-0.58c0.93,0.01,1.85,0.04,2.78,0.1c-0.24,0.36-0.74,1.09-0.98,1.45c4.08,0.21,8.37,1.02,12.28-0.6299
		l0.51-0.01c15.59,0.87,31.19,1.97,46.76,3.17c18.58,28.03,37.14,56.09,55.68,84.15l-0.22,0.71c-10.06-5.92-20.49-11.19-30.95-16.37
		c-14.67-7.91-29.51-15.5-44.26-23.25c-12.85-8.94-25.63-17.97-38.49-26.89c-10.53-7.56-21.5-14.52-31.74-22.46
		C301.34,917.76,306.13,918.89,310.48,917.09z"/>
	<path fill="#020F1E" stroke="#020F1E" d="M312.14,918.69c0.29-0.37,0.87-1.12,1.16-1.49c4.04,0.29,8.08,0.58,12.11,0.91
		C321.13,919.62,316.56,918.89,312.14,918.69z"/>
	<path fill="#010F1D" stroke="#010F1D" d="M327.21,919.66c0.24-0.36,0.74-1.09,0.98-1.45c3.77,0.21,7.52,0.65,11.3,0.82
		C335.58,920.68,331.29,919.87,327.21,919.66z"/>
	<path fill="#24364A" stroke="#24364A" d="M442.44,1006.34c28.86-25.14,57.09-51.03,86.02-76.1c0.55,0.5,1.64,1.48,2.19,1.97
		c6.5099,7.22,13.9,13.56,20.77,20.43c43.8,42.14,87.59,84.2999,131.42,126.42c10.11,10.08,20.84,19.5499,30.68,29.8999
		c-17.15-5.46-33.69-12.6699-50.64-18.73c-60.5-22.9199-121.02-45.75-181.51-68.69c-12.88-4.63-25.47-10.05-38.46-14.36l-0.69-0.13
		L442.44,1006.34z"/>
	<path fill="#4E6779" stroke="#4E6779" d="M530.65,932.21c2.33,0.5099,4.61,1.24,6.71,2.41c19.54,9.94,39.41,19.17,58.98,29.05
		c56.17,27.49,112.25,55.15,168.4,82.65c7.58,3.51,14.76,7.9601,22.66,10.7201c0.19,0.11,0.56,0.3199,0.74,0.4299
		c2.57,2.0801,5.96,2.4301,8.99,3.51c5.51,1.8301,11.04,3.61,16.6,5.3201c4.33,1.3999,8.88,2.36,12.79,4.7999
		c-0.18,0.0701-0.55,0.23-0.74,0.3c-36.96,12.95-74.21,25.11-111.14,38.14c-0.28-0.15-0.84-0.4401-1.12-0.5801
		c-9.84-10.35-20.57-19.8199-30.68-29.8999c-43.83-42.1201-87.6201-84.28-131.42-126.42C544.55,945.77,537.16,939.43,530.65,932.21z
		"/>
	<path fill="#334C60" stroke="#334C60" d="M235.03,939.76l0.48,0.66c10.38,8.39,21.51,15.78,32.03,24
		c22.58,16.47,44.82,33.39,67.5,49.73c-6.78,11.78-13.97,23.3199-20.89,35.02c-9.59-6.0801-20.02-10.7101-29.82-16.4401
		c-23.3-12.33-46.42-24.98-69.67-37.42c-5.87-2.71-11.13-6.59-17.19-8.9C209.84,970.74,222.6,955.38,235.03,939.76z"/>
	<path fill="#1C3042" stroke="#1C3042" d="M345.58,998.59c7.03-10.46,13.87-21.07,21.43-31.16c14.75,7.75,29.59,15.34,44.26,23.25
		c10.46,5.18,20.89,10.45,30.95,16.37c-6.96,8.53-12.8,17.93-19.51,26.67c-25.23,35.0701-50.51,70.1-75.83,105.11
		c-7.26,10.66-15.45,20.6901-22.37,31.5801l-0.35-0.0801c-2.78-7.46-6.32-14.6-9.82-21.74c-5.19-11.9399-11.21-23.5-16.29-35.48
		c1.97-5.88,2.68-12.0599,4.02-18.09c0.58-3.53,2.11-7.04,1.32-10.66c3.52-11.75,6.98-23.53,10.76-35.1899
		c6.92-11.7001,14.11-23.24,20.89-35.02C338.19,1008.73,342.25,1003.9,345.58,998.59z"/>
	<path fill="#243D52" stroke="#243D52" d="M176.61,1033.8199c6.85-15.85,13.81-31.65,20.86-47.41c6.06,2.31,11.32,6.19,17.19,8.9
		c23.25,12.44,46.37,25.09,69.67,37.42c9.8,5.73,20.23,10.36,29.82,16.4401c-3.78,11.6599-7.24,23.4399-10.76,35.1899
		C261.03,1067.77,218.9,1050.58,176.61,1033.8199z"/>
	<path fill="#1F3A4B" stroke="#1F3A4B" d="M1339.49,999.23c0.88,0.23,1.78,0.46,2.7,0.7c-10.48,29.72-21.5699,59.2501-32.2699,88.89
		C1293.6,1133.55,1277.29,1178.28,1260.97,1223.01c-1.02,2.7-1.74,5.5599-3.39,7.98c-5.36-4.8-12.09-7.72-18.1899-11.4399
		c-93.8-54.12-187.8101-107.8501-281.52-162.12c-0.59,0.38-1.16,0.7699-1.71,1.1699c-0.1-0.41-0.3-1.21-0.4-1.62l0.29-0.85
		c5.55-5.9,11.05-11.83,16.54-17.78c1.69-0.22,3.36-0.5599,5.06-0.8099c118.13-12.12,236.25-24.4,354.38-36.48
		C1334.5601,1000.75,1337.46,1001.14,1339.49,999.23z"/>
	<path fill="#172936" stroke="#172936" d="M442.22,1007.05l0.69,0.13c6.23,50.18,13.1,100.3,19.57,150.46
		c4.93,37.11,9.7,74.25,14.67,111.36c0.42,2.8,0.53,5.62,0.67,8.46c-37.61-14.24-75.15-28.6599-112.76-42.9099
		c-2.87-0.88-3.72-4.1101-5.3-6.3301c-11.74-19.28-23.54-38.52-35.25-57.8099c6.92-10.89,15.11-20.92,22.37-31.5801
		c25.32-35.01,50.6-70.0399,75.83-105.11C429.42,1024.98,435.26,1015.58,442.22,1007.05z"/>
	<path fill="#233D56" stroke="#233D56" d="M442.91,1007.18c12.99,4.31,25.58,9.73,38.46,14.36
		c60.49,22.94,121.01,45.7701,181.51,68.69c16.95,6.0601,33.49,13.27,50.64,18.73c0.28,0.14,0.84,0.4301,1.12,0.5801
		c9.65,5.25,19.3,10.5,28.96,15.74c2.52,1.28,4.84,3.0399,7.64,3.6899c16.18,7.36,32.77,13.79,49.11,20.79
		c36.27,15.27,72.66,30.27,108.89,45.66c-6.58,18.2699-12.37,36.84-18.62,55.24c-2.83,9.25-6.56,18.23-8.88,27.63
		c-26.88,1.22-53.8,0.22-80.7,0.3999c-56.66-0.1899-113.33-0.4099-169.99-0.5499c-51.07-0.47-102.16-0.15-153.23-0.6801
		c-0.14-2.84-0.25-5.6599-0.67-8.46c-4.97-37.11-9.74-74.25-14.67-111.36C456.01,1107.48,449.14,1057.36,442.91,1007.18z"/>
	<path fill="#1B2E3F" stroke="#1B2E3F" d="M176.61,1033.8199c42.29,16.76,84.42,33.9501,126.78,50.54
		c0.79,3.62-0.74,7.13-1.32,10.66c-1.34,6.03-2.05,12.21-4.02,18.09c-27.12-5.2-54.22-10.5-81.35-15.6899
		c-16.76-3.16-33.44-6.77-50.28-9.5C169.68,1069.86,173.06,1051.8101,176.61,1033.8199z"/>
	<path fill="#C4B596" stroke="#C4B596" d="M937.45,1038.5601c4.18-1.2301,8.56-0.4301,12.84-0.6901c7.43,0.25,14.87,0.27,22.3,0.48
		c-5.4901,5.9501-10.9901,11.88-16.54,17.78c-12.91,1.61-25.92,2.67-38.72,4.9399c-8.94,0.05-17.77,1.65-26.64,2.4801
		c-14.79,1.61-29.56,3.37-44.35,4.8899c-5.21,0.42-10.33,1.7301-15.57,1.6101c32.15-9.76,64.5-18.87,96.66-28.5901
		C930.8,1040.61,934.11,1039.54,937.45,1038.5601z"/>
	<path fill="#374657" stroke="#374657" d="M913.99,1042.9c4.44-0.77,8.88-2.3301,13.44-1.4401
		c-32.16,9.7201-64.51,18.8301-96.66,28.5901c-1.45,0.22-2.89,0.5199-4.25,1.0499c-3.91-2.4399-8.46-3.4-12.79-4.7999
		c-5.56-1.7101-11.09-3.49-16.6-5.3201c-3.03-1.08-6.42-1.4299-8.99-3.51l1.5-0.5c9.15,0.37,18.18-1.5599,27.27-2.27
		c26.25-2.86,52.54-5.3199,78.75-8.48C901.86,1045.6899,907.87,1044,913.99,1042.9z"/>
	<path fill="#34556F" stroke="#34556F" d="M917.33,1061.0699c12.8-2.2699,25.81-3.33,38.72-4.9399l-0.29,0.85
		c-13.57,40.66-27.05,81.36-40.81,121.96c-1.91,5.4801-3.52,11.0801-5.71,16.4801c-36.23-15.39-72.62-30.39-108.89-45.66
		c-16.34-7-32.93-13.4301-49.11-20.79c0.34-0.26,1.01-0.7899,1.34-1.0499c16.93-6.29,33.5-13.51,50.3-20.16
		c23.91-9.7,47.83-19.41,71.75-29.12C888.84,1072.73,903.27,1067.33,917.33,1061.0699z"/>
	<path fill="#1F3C52" stroke="#1F3C52" d="M914.95,1178.9399c13.76-40.6,27.24-81.2999,40.81-121.96c0.1,0.41,0.3,1.21,0.4,1.62
		c0.55-0.4,1.1201-0.7899,1.71-1.1699c93.71,54.2699,187.72,108,281.52,162.12c6.1,3.72,12.83,6.6399,18.1899,11.4399
		c-14.99,15.88-29.9199,31.83-44.76,47.85c-110.36-0.0299-220.72-0.46-331.08-0.5499c2.32-9.4,6.05-18.38,8.88-27.63
		c6.25-18.4,12.04-36.9701,18.62-55.24C911.43,1190.02,913.04,1184.42,914.95,1178.9399z"/>
	<path fill="#B19776" stroke="#B19776" d="M890.69,1063.55c8.87-0.8301,17.7-2.4301,26.64-2.4801
		c-14.06,6.26-28.49,11.66-42.7,17.5701c-23.92,9.71-47.84,19.42-71.75,29.12c-16.8,6.65-33.37,13.87-50.3,20.16
		c5.32-5.2301,11.73-9.15,17.53-13.8c16.74-12.63,33.48-25.25,50.21-37.88c1.89-1.52,4.38-2.54,5.46-4.84
		c0.1899-0.0701,0.56-0.23,0.74-0.3c1.36-0.53,2.8-0.83,4.25-1.0499c5.24,0.12,10.36-1.1901,15.57-1.6101
		C861.13,1066.92,875.9,1065.16,890.69,1063.55z"/>
	<path fill="#D6C1AB" stroke="#D6C1AB" d="M714.64,1109.54c36.93-13.03,74.18-25.1901,111.14-38.14
		c-1.08,2.2999-3.57,3.3199-5.46,4.84c-16.73,12.63-33.47,25.25-50.21,37.88c-5.8,4.65-12.21,8.5699-17.53,13.8
		c-0.33,0.26-1,0.7899-1.34,1.0499c-2.8-0.65-5.12-2.4099-7.64-3.6899C733.94,1120.04,724.29,1114.79,714.64,1109.54z"/>
	<path fill="#14252D" stroke="#14252D" d="M166.42,1087.92c16.84,2.73,33.52,6.34,50.28,9.5c27.13,5.1899,54.23,10.49,81.35,15.6899
		c5.08,11.98,11.1,23.54,16.29,35.48c3.5,7.14,7.04,14.28,9.82,21.74c-16.35-1.73-32.72-3.3099-49.07-5.0299
		c-6-0.53-11.99-1.25-17.98-1.8401c-8.96-0.85-17.92-1.77-26.87-2.71c-14.3-1.4399-28.58-2.9399-42.87-4.35
		C180.29,1133.6,173.34,1110.76,166.42,1087.92z"/>
	<path fill="#66645B" stroke="#66645B" d="M230.24,1160.75c8.95,0.9399,17.91,1.86,26.87,2.71c-0.5,0.1001-1.51,0.3-2.01,0.4
		c-6.61,33.71-13.16,67.4301-19.75,101.14c-0.88,3.9399-1.06,8.13-3.08,11.73c-1.68-34.27-2.91-68.5699-4.39-102.85
		C228.62,1169.49,229.43,1165.12,230.24,1160.75z"/>
	<path opacity="0.96" fill="#8F877C" stroke="#8F877C" enable-background="new    " d="M255.1,1163.86c0.5-0.1,1.51-0.2999,2.01-0.4
		c5.99,0.5901,11.98,1.3101,17.98,1.8401c-14.22,37.87-28,75.9299-42.44,113.7h-0.36c-0.01-0.5699-0.01-1.7-0.02-2.27
		c2.02-3.6,2.2-7.79,3.08-11.73C241.94,1231.29,248.49,1197.5699,255.1,1163.86z"/>
	<path fill="#C3B7AA" stroke="#C3B7AA" d="M202.08,1279c8.47-35.0699,17.13-70.1,25.8-105.12c1.48,34.28,2.71,68.58,4.39,102.85
		c0.01,0.5701,0.01,1.7001,0.02,2.27H202.08z"/>
</g>
</svg>
