<?xml version="1.0" encoding="utf-8"?>

<!DOCTYPE svg PUBLIC "-//W3C//DTD SVG 1.1//EN" "http://www.w3.org/Graphics/SVG/1.1/DTD/svg11.dtd">
<svg version="1.1" id="Layer_1" xmlns="http://www.w3.org/2000/svg" xmlns:xlink="http://www.w3.org/1999/xlink" x="0px" y="0px"
	 viewBox="0 0 964.434 1652.337" enable-background="new 0 0 964.434 1652.337" xml:space="preserve">
<g>
	<path d="M137.303,298.829c-0.885,5.039,2.143,13.435-0.487,22.548c-0.417,1.446,1.307,2.754,2.759,2.01
		c4.949-2.538,10.118-3.763,15.687-3.309c0.936,0.076,1.85-0.301,2.467-1.144c9.169-12.535,51.441-19.186,68.819-4.459
		c14.52,12.305,78.577-49,127.608-14.011c2.538,1.811,4.525,4.179,9.491,1.38c30.474-17.178,56.533-23.597,64.707-61.028
		c1.566-7.169,0.988-8.035-3.751-38.6c-2.617-16.88-4.644,1.863-15.918-22.089c-5.856-12.442-8.222-17.29-7.9-23.281
		c0.64-11.884,10.611-5.252,10.085-8.667c-0.906-5.878,1.461-10.051-2.073-27.178c-0.206-1,2.424-46.899,16.115-56.676
		c8.126-5.803-1.078-23.207,7.377-21.447c2.793,0.581,4.983-1.164,7.439-1.834c1.726-0.471,1.128-4.627,5.087-3.098
		c2.689,1.038,2.402-0.033,4.314-1.15c3.556-2.077,3.719-1.992,4.638,2.275c0.492,2.283,2.785,0.563,2.592-0.437
		c-0.822-4.258,6.31-8.205,7.355-10.371c0.345-0.716,9.409-3.219,17.191-1.419c9.959,2.303,6.605-3.228,28.716,5.092
		c2.103,0.791,2.283,3.865,8.298,2.563c1.14-0.247,2.642-0.675,3.36,0.29c1.21,1.625,3.815,2.092,3.811,4.735
		c-0.003,1.754,1.82,3.236,0.88,5.18c4.145,6.756,3.295,7.716,6.813,8.623c10.785,2.78,7.77,9.614,10.773,12.495
		c5.776,5.539,17.187,34.784,12.91,51.245c-0.289,1.114,0.226,5.955,0.068,6.257c-1.996,3.818-0.267,7.875-0.954,11.787
		c-0.692,3.943-0.802,7.992-1.107,11.999c-0.326,4.291,9.439,1.847,7.68,11.286c-1.128,6.052-2.581,11.925-5.996,17.31
		c-5.161,8.14-3.943,15.733-9.698,19.229c-4.297,2.61-2.093,5.436-4.778,15.794c-4.01,15.47-8.1,13.711-9.424,22.019
		c-4.914,30.832-5.094,29.505-3.398,32.06c6.731,10.136,10.123,13.662,39.512,26.101c22.526,9.534,20.739,9.797,23.788,6.392
		c3.762-4.202,8.383-12.979,22.806-18.438c40.804-15.442,70.105,4.821,102.99,12.718c4.159,0.999,4.696-0.435,11.163-6.158
		c29.571-26.17,85.166,13.956,83.707,5.893c-0.872-4.817-3.45-6.787-5.326-21.219c-7.647-58.841-1.942-37.19-16.926-85.235
		c-7.335-23.52-18.178-27.811-23.638-38.309c-2.594-4.989-8.277-6.347-11.932-4.607c-23.95,11.396-34.868-2.069-58.328,5.938
		c-4.783,1.632-6.799,1.903-8.952,1.087c-8.35-3.165-9.878,0.916-14.772-3.605c-6.463-5.971,1.814-12.853,7.235-14.394
		c7.982-2.27,7.79-2.182-1.328-7.612c-4.728-2.816-1.397-2.866-6.966-7.779c-9.099-8.027,7.534-16.762,20.957-32.5
		c2.621-3.073,10.046-8.533,17.851-5.642c90.318,33.456,79.643,33.33,104.437,67.895c13.977,19.485,82.886,95.528,95.543,157.004
		c5.435,26.398,13.153,27.399,6.118,39.184c-10.936,18.322-34.597,27.076-103.014,51.522c-58.572,20.928-93.249,6.832-132.257,1.178
		c-1.287-0.187-2.347,0.154-3.019,1.307c-3.955,6.789-7.427,13.869-8.332,21.717c-3.946,34.201-30.258,59.004-45.691,112.596
		c-4.753,16.506-1.228,19.227-5.528,42.126c-2.22,11.822,1.81,2.83-6.696,40.557c-5.537,24.557-3.13,32.522-6.28,49.94
		c-5.458,30.183-11.285-6.673,5.147,54.838c3.479,13.022,9.973,20.678,14.918,57.408c1.425,10.584,3.905,22.878,2.629,33.479
		c-0.341,2.835,0.082,5.597,0.77,8.404c5.383,21.946,1.194,18.927,6.357,53.485c6.039,40.419,2.984,40.007,7.337,49.68
		c4.135,9.188,0.305,13.777,5.492,25.429c3.851,8.653,1.648,8.214,9.744,31.101c3.022,8.543,1.242,15.266-3.961,30.25
		c-7.59,21.859,4.482,62.217,2.113,89.537c-0.352,4.056,1.432,20.688,2.165,25.413c2.988,19.256-0.726,26.996,2.071,37.397
		c2.547,9.47,5.631,13.501-1.294,16.823c-14.752,7.078-31.795,4.975-31.309,10.188c0.937,10.073,2.938,11.795,3.249,25.275
		c0.171,7.422,2.428,20.264,2.656,25.398c3.714,83.719-9.41,95.024-11.487,118.714c-0.088,1-12.897,88.264-28.974,130.664
		c-0.525,1.384-3.854,10.669-3.569,12.909c0.749,5.883-0.159,11.845,0.983,17.712c1.896,9.743-4.744,6.733,5.496,15.224
		c7.56,6.269,8.656,16.725,15.448,18.768c1.741,0.523,3.593,0.572,5.346,1.054c1.419,0.391,2.766,1.065,4.224,1.269
		c2.186,0.306,11.725-2.453,11.349,5.827c-0.483,10.619,5.824,16.378-1.924,19.249c-20.702,7.672-21.362,9.553-27.295,9.366
		c-8.244-0.261-19.405,18.728-44.549,14.057c-20.755-3.857-18.935,0.912-28.747-8.875c-3.126-3.119,0.058-11.148,2.024-13.915
		c4.539-6.389,6.499-13.688,10.12-27.805c1.991-7.76-1.845-3.938-3.199-22.147c-0.349-4.695-0.092-9.358-2.217-13.836
		c-1.262-2.659-0.413-5.892,0.884-8.232c4.551-8.214-1.24-25.216,1.784-56.377c8.92-91.901-9.66-91.636-8.412-135.301
		c0.592-20.715,9.754-74.612,14.054-91.101c4.122-15.81-0.546-23.925-3.747-35.336c-0.542-1.933-1.451-3.476-3.385-4.264
		c-4.505-1.836-7.178-6.037-11.104-8.636c-1.299-0.86-1.306-1.397-0.135-10.956c1.168-9.539-3.404-21.243-2.577-38.791
		c0.982-20.836-23.913-76.144-29.841-87.401c-14.599-27.723-19.578-46.463-24.341-61.232c-1.079-3.345-3.561,1.004-4.561,1.717
		c-10.74,7.661-1.031,14.739-7.956,22.927c-3.364,3.977-2.13,6.636-7.85,13.374c-34.991,41.229-33.578,39.145-41.704,52.001
		c-9.738,15.406-16.305,30.91-22.621,37.561c-14.961,15.756-18.894,30.345-21.188,33.346c-22.101,28.91,8.128,38.481-57.46,19.079
		c-4.59-1.358-4.585,0.682-14.737,14.414c-6.222,8.416-5.583,11.896-14.828,50.735c-26.287,110.443-34.502,79.416-42.934,103.817
		c-4.878,14.116-12.787,25.631-22.249,54.439c-11.862,36.114-32.836,49.339-29.915,88.733c1.442,19.441-6.894,17.388-3.891,29.704
		c3.65,14.97,8.497,18.171,5.953,26.502c-1.093,3.58,0.425,5.236-3.272,10.552c-2.348,3.377-2.098,7.694-3.545,11.43
		c0.863,25.89,3.124,13.968,6.449,34.577c3.653,22.641,3.532,21.491,3.278,26.008c-0.326,5.81-4.948,13.869-12.733,13.655
		c-6.487-0.178-29.708,0.434-38.685,3.422c-7.197,2.395-8.916-0.298-17.58-0.154c-4.313,0.072-5.38-2.668-10.154-9.013
		c-3.277-4.356-5.274-11.115,0.404-23.599c3.167-6.964,8.308-40.242,10.553-46.953c1.76-5.26-4.663-16.896,3.741-31.792
		c5.915-10.485-0.906-26.142,0.499-31.224c1.333-4.82,1.894-9.742,2.253-14.717c0.948-13.154,11.38-22.634,12.758-35.295
		c0.616-5.659-0.568-11.281-0.254-16.863c0.057-1.012,12.071-83.1,15.126-95.694c6.231-25.692,7.014-36.834,7.617-46.873
		c0.821-13.674,2.697-13.459,8.407-44.612c2.625-14.323,3.612-17.039,13.933-47.615c7.885-23.358,18.815-30.027,25.25-44.206
		c1.862-4.103,5.399-6.401,8.448-13.92c1.194-2.943-2.614-1.8-1.992-5.393c8.011-46.333,45.124-164.938,71.859-234.403
		c13.849-35.984,27.242-52.843,32.457-76.259c1.378-6.187,4.787-9.783,7.85-14.873c0,0,33.403-90.869,47.838-117.895
		c5.824-10.904-2.51-11.762-1.914-30.341c0.843-26.264-4.329-64.108-4.432-65.111c-7.236-70.619-39.755-77.829-68.005-142.249
		c-6.953-15.856-10.07-23.455-19.988-22.261c-23.161,2.787-24.781,12.949-39.64,14.06c-25.563,1.912-33.163,3.701-57.936-0.637
		c-12.956-2.269-29.582-6.667-32.639-6.615c-7.436,0.125-46.74-5.729-91.583-30.288c-12.342-6.759-14.313-12.734-13.717-19.349
		c6.025-66.906,27.471-126.254,56.216-171.536c37.236-58.659,3.339-54.859,96.872-92.547c24.32-9.8,15.682-10.665,42.815,7.051
		c15.623,10.201,16.591,11.439,12.69,18.848c-13.568,25.768-13.561,15.075-18.501,19.447c-1.523,1.348-2.017,2.355-0.036,2.821
		c4.452,1.048,8.18,3.671,12.221,5.606c4.692,2.247,4.797,11.035-2.26,12.197c-1.387,0.228-2.826,0.167-4.241,0.188
		c-7.735,0.115-9.7,1.821-17.374-1.296c-11.462-4.655-17.834-6.526-24.59-4.298c-2.309,0.761-9.614,0.257-14.081,1.059
		c-4.809,0.863-9.367,0.409-13.775-1.508c-1.409-0.613-2.79-0.927-4.084-0.298c-3.542,1.723-6.732-1.958-7.621,1.182
		c-2.912,10.281-6.396,11.266-12.742,32.264c-3.716,12.297-1.252,23.469-6.049,44.939
		C135.413,267.627,141.171,276.819,137.303,298.829z"/>
</g>
</svg>
