<?xml version="1.0" encoding="UTF-8" standalone="no"?>
<!-- Created with Inkscape (http://www.inkscape.org/) -->

<svg
   xmlns:dc="http://purl.org/dc/elements/1.1/"
   xmlns:cc="http://creativecommons.org/ns#"
   xmlns:rdf="http://www.w3.org/1999/02/22-rdf-syntax-ns#"
   xmlns:svg="http://www.w3.org/2000/svg"
   xmlns="http://www.w3.org/2000/svg"
   xmlns:sodipodi="http://sodipodi.sourceforge.net/DTD/sodipodi-0.dtd"
   xmlns:inkscape="http://www.inkscape.org/namespaces/inkscape"
   height="57.996662mm"
   width="147.06584mm"
   viewBox="0 0 521.09944 205.49998"
   id="svg2"
   version="1.1"
   inkscape:version="0.91 r13725"
   sodipodi:docname="tanker.svg"
   inkscape:export-filename="/home/algot/Documents/runeman.org/clipart/tanker.png"
   inkscape:export-xdpi="77.720291"
   inkscape:export-ydpi="77.720291">
  <title
     id="title3393">Tanker</title>
  <defs
     id="defs8">
    <filter
       inkscape:collect="always"
       style="color-interpolation-filters:sRGB"
       id="filter3319"
       x="-0.034181818"
       width="1.0683635"
       y="-0.080571428"
       height="1.1611429">
      <feGaussianBlur
         inkscape:collect="always"
         stdDeviation="0.94"
         id="feGaussianBlur3321" />
    </filter>
    <filter
       inkscape:collect="always"
       style="color-interpolation-filters:sRGB"
       id="filter3333"
       x="-0.01912256"
       width="1.0382451"
       y="-0.30662605"
       height="1.613252">
      <feGaussianBlur
         inkscape:collect="always"
         stdDeviation="2.651016"
         id="feGaussianBlur3335" />
    </filter>
    <filter
       inkscape:collect="always"
       style="color-interpolation-filters:sRGB"
       id="filter3339"
       x="-0.012748373"
       width="1.0254967"
       y="-0.20441736"
       height="1.4088347">
      <feGaussianBlur
         inkscape:collect="always"
         stdDeviation="1.767344"
         id="feGaussianBlur3341" />
    </filter>
  </defs>
  <sodipodi:namedview
     pagecolor="#ffffff"
     bordercolor="#666666"
     borderopacity="1"
     objecttolerance="10"
     gridtolerance="10"
     guidetolerance="10"
     inkscape:pageopacity="0"
     inkscape:pageshadow="2"
     inkscape:window-width="1366"
     inkscape:window-height="712"
     id="namedview6"
     showgrid="false"
     inkscape:zoom="1"
     inkscape:cx="134.56757"
     inkscape:cy="129.18108"
     inkscape:window-x="0"
     inkscape:window-y="0"
     inkscape:window-maximized="1"
     inkscape:current-layer="svg2"
     fit-margin-top="0"
     fit-margin-left="0"
     fit-margin-right="0"
     fit-margin-bottom="0" />
  <metadata
     id="metadata4">
    <rdf:RDF>
      <cc:Work
         rdf:about="">
        <dc:format>image/svg+xml</dc:format>
        <dc:type
           rdf:resource="http://purl.org/dc/dcmitype/StillImage" />
        <dc:title>Tanker</dc:title>
        <dc:date>2016-01-02</dc:date>
        <dc:creator>
          <cc:Agent>
            <dc:title>Algot Runeman</dc:title>
          </cc:Agent>
        </dc:creator>
        <dc:rights>
          <cc:Agent>
            <dc:title>Algot Runeman</dc:title>
          </cc:Agent>
        </dc:rights>
        <dc:publisher>
          <cc:Agent>
            <dc:title>runeman.org</dc:title>
          </cc:Agent>
        </dc:publisher>
        <dc:identifier>tanker.svg</dc:identifier>
        <cc:license
           rdf:resource="http://creativecommons.org/publicdomain/zero/1.0/" />
      </cc:Work>
      <cc:License
         rdf:about="http://creativecommons.org/publicdomain/zero/1.0/">
        <cc:permits
           rdf:resource="http://creativecommons.org/ns#Reproduction" />
        <cc:permits
           rdf:resource="http://creativecommons.org/ns#Distribution" />
        <cc:permits
           rdf:resource="http://creativecommons.org/ns#DerivativeWorks" />
      </cc:License>
    </rdf:RDF>
  </metadata>
  <path
     style="fill:#000000;fill-rule:evenodd;stroke:#000000;stroke-width:1px;stroke-linecap:butt;stroke-linejoin:miter;stroke-opacity:1"
     d="m 85.5976,120.5 4,53 90,3 -5,-59 z"
     id="path3248"
     inkscape:connector-curvature="0" />
  <path
     style="fill:#000000;fill-rule:evenodd;stroke:#000000;stroke-width:1px;stroke-linecap:butt;stroke-linejoin:miter;stroke-opacity:1"
     d="m 175.5976,143.5 2,-5 329,-2 -1,14 -329,4 z"
     id="path3244"
     inkscape:connector-curvature="0" />
  <path
     style="fill:#000000;fill-rule:evenodd;stroke:#000000;stroke-width:0.93733162px;stroke-linecap:butt;stroke-linejoin:miter;stroke-opacity:1"
     d="m 515.62706,171.53321 -43.06516,-5.01385 1.75232,-19.05263 41.31284,3.00831 c 5.62821,5.89375 7.64002,12.51078 0,21.05817 z"
     id="path3233"
     inkscape:connector-curvature="0"
     sodipodi:nodetypes="ccccc" />
  <path
     style="fill:#e6e6e6;fill-rule:evenodd;stroke:#000000;stroke-width:1px;stroke-linecap:butt;stroke-linejoin:miter;stroke-opacity:1"
     d="m 175.5976,28.5 314,38 c 47.02089,30.37032 18.78887,62.15488 0,73 l -312,-8 z"
     id="path3151"
     inkscape:connector-curvature="0"
     sodipodi:nodetypes="ccccc" />
  <path
     inkscape:connector-curvature="0"
     id="path3153"
     d="m 175.23813,129.10137 330.71897,1.68012 -2,7.06971 -326.71439,1.22524 z"
     style="fill:#808080;fill-rule:evenodd;stroke:#000000;stroke-width:0.31155586px;stroke-linecap:butt;stroke-linejoin:miter;stroke-opacity:1"
     sodipodi:nodetypes="ccccc" />
  <path
     style="fill:#1a1a1a;fill-rule:evenodd;stroke:#000000;stroke-width:0.31155586px;stroke-linecap:butt;stroke-linejoin:miter;stroke-opacity:1"
     d="m 175.23813,111.10137 330.71897,11.68012 0,7.06971 -328.71439,-0.77476 z"
     id="path3155"
     inkscape:connector-curvature="0"
     sodipodi:nodetypes="ccccc" />
  <path
     sodipodi:nodetypes="ccccc"
     inkscape:connector-curvature="0"
     id="path3157"
     d="m 175.23813,101.10137 336.71897,11.68012 -4,9.06971 -330.71439,-6.77476 z"
     style="fill:#4d4d4d;fill-rule:evenodd;stroke:#000000;stroke-width:0.31155586px;stroke-linecap:butt;stroke-linejoin:miter;stroke-opacity:1" />
  <path
     style="fill:#333333;fill-rule:evenodd;stroke:#000000;stroke-width:1px;stroke-linecap:butt;stroke-linejoin:miter;stroke-opacity:1"
     d="m 71.5976,48.5 41,2 2,37 -30,3 -20,12 z"
     id="path3159"
     inkscape:connector-curvature="0" />
  <path
     style="fill:#4d4d4d;fill-rule:evenodd;stroke:#000000;stroke-width:1px;stroke-linecap:butt;stroke-linejoin:miter;stroke-opacity:1"
     d="m 71.5976,46.5 -68.0000002,0 -3.00000004,13 12.00000024,3 -5.0000002,37 -7.00000004,7 1.00000004,44 4,2 0,32 c 0,0 20.1400672,9.48869 31.0000002,11 20.511961,2.85453 62,-4 62,-4 l 4,-35 11,-12 31,1 11,33 0,16 96,-9 11,-39 -104,1 0,-16 -50,0 -13,14 -36,2 -16,2 -2,-47 23,-8 z"
     id="path3161"
     inkscape:connector-curvature="0"
     sodipodi:nodetypes="cccccccccsccccccccccccccccc" />
  <path
     style="fill:#cccccc;fill-rule:evenodd;stroke:#000000;stroke-width:1px;stroke-linecap:butt;stroke-linejoin:miter;stroke-opacity:1"
     d="m 22.5976,62.5 0,26 32,-5 1,-23 z"
     id="path3163"
     inkscape:connector-curvature="0" />
  <path
     style="fill:#ffffff;fill-rule:evenodd;stroke:#000000;stroke-width:1px;stroke-linecap:butt;stroke-linejoin:miter;stroke-opacity:1"
     d="m 66.5976,47.5 0,49 5,1 1,-50 z"
     id="path3165"
     inkscape:connector-curvature="0" />
  <path
     style="fill:#ffffff;fill-rule:evenodd;stroke:#000000;stroke-width:1px;stroke-linecap:butt;stroke-linejoin:miter;stroke-opacity:1"
     d="m 13.5976,49.5 2,-11 41,-8 25,-9 30,-14 48,-7 14,0 2,12 c 5.75111,37.28267 9.43246,75.80719 2,121 l -70,-4 -12,17 -50,1 -1,-45 18,-7 0,7 20,-10 34,-6 -3,-37 -48,-4 -12,1 z"
     id="path3167"
     inkscape:connector-curvature="0"
     sodipodi:nodetypes="ccccccccccccccccccccc" />
  <path
     style="fill:#666666;fill-rule:evenodd;stroke:#000000;stroke-width:1px;stroke-linecap:butt;stroke-linejoin:miter;stroke-opacity:1"
     d="m 204.5976,30.5 36,-4 -1,18 c -3.34642,-6.74673 -22.02671,-9.65999 -35,-14 z"
     id="path3169"
     inkscape:connector-curvature="0"
     sodipodi:nodetypes="cccc" />
  <path
     style="fill:#ffffff;fill-rule:evenodd;stroke:#000000;stroke-width:1px;stroke-linecap:butt;stroke-linejoin:miter;stroke-opacity:1"
     d="m 241.5976,25.5 40,7 0,15 -42,-2 z"
     id="path3171"
     inkscape:connector-curvature="0" />
  <path
     inkscape:connector-curvature="0"
     id="path3173"
     d="m 315.29286,44.49054 27.81826,-2.27275 -1.17273,14.89096 C 336.6605,51.10071 325.72185,47.92304 315.29286,44.49054 Z"
     style="fill:#666666;fill-rule:evenodd;stroke:#000000;stroke-width:0.82727545px;stroke-linecap:butt;stroke-linejoin:miter;stroke-opacity:1"
     sodipodi:nodetypes="cccc" />
  <path
     inkscape:connector-curvature="0"
     id="path3175"
     d="m 343.59294,41.39051 33.09102,5.79093 0,12.40913 -34.74557,-1.65455 z"
     style="fill:#ffffff;fill-rule:evenodd;stroke:#000000;stroke-width:0.82727545px;stroke-linecap:butt;stroke-linejoin:miter;stroke-opacity:1" />
  <path
     style="fill:#666666;fill-rule:evenodd;stroke:#000000;stroke-width:0.82727545px;stroke-linecap:butt;stroke-linejoin:miter;stroke-opacity:1"
     d="m 398.29286,58.49054 26.81826,-8.27275 -1.17273,14.89096 c -8.54851,-6.80489 -17.09702,-7.77211 -25.64553,-6.61821 z"
     id="path3177"
     inkscape:connector-curvature="0"
     sodipodi:nodetypes="cccc" />
  <path
     style="fill:#ffffff;fill-rule:evenodd;stroke:#000000;stroke-width:0.82727545px;stroke-linecap:butt;stroke-linejoin:miter;stroke-opacity:1"
     d="m 425.59294,49.39051 33.09102,5.79093 0,12.40913 -34.74557,-1.65455 z"
     id="path3179"
     inkscape:connector-curvature="0" />
  <ellipse
     style="opacity:1;fill:#1a1a1a;fill-opacity:1;stroke:#000000;stroke-width:2;stroke-linecap:round;stroke-linejoin:bevel;stroke-miterlimit:4;stroke-dasharray:none;stroke-dashoffset:0;stroke-opacity:1"
     id="path3181"
     cx="126.0976"
     cy="175.99998"
     rx="27.5"
     ry="28.5" />
  <ellipse
     ry="17.362211"
     rx="18.362211"
     cy="175.49998"
     cx="125.5976"
     id="ellipse3183"
     style="opacity:1;fill:#ffffff;fill-opacity:1;stroke:#000000;stroke-width:1.27557576;stroke-linecap:round;stroke-linejoin:bevel;stroke-miterlimit:4;stroke-dasharray:none;stroke-dashoffset:0;stroke-opacity:1" />
  <g
     id="g3189"
     transform="matrix(0.86440678,0,0,0.86440678,141.95353,-372.99953)">
    <ellipse
       style="opacity:1;fill:#1a1a1a;fill-opacity:1;stroke:#000000;stroke-width:2;stroke-linecap:round;stroke-linejoin:bevel;stroke-miterlimit:4;stroke-dasharray:none;stroke-dashoffset:0;stroke-opacity:1"
       id="ellipse3185"
       cx="156.5"
       cy="625.86218"
       rx="27.5"
       ry="28.5" />
    <ellipse
       ry="17.362211"
       rx="18.362211"
       cy="625.36218"
       cx="156"
       id="ellipse3187"
       style="opacity:1;fill:#808080;fill-opacity:1;stroke:#000000;stroke-width:1.27557576;stroke-linecap:round;stroke-linejoin:bevel;stroke-miterlimit:4;stroke-dasharray:none;stroke-dashoffset:0;stroke-opacity:1" />
  </g>
  <g
     transform="matrix(0.67142432,0,0,0.67142432,317.65528,-256.91209)"
     id="g3193">
    <ellipse
       ry="28.5"
       rx="27.5"
       cy="625.86218"
       cx="156.5"
       id="ellipse3195"
       style="opacity:1;fill:#1a1a1a;fill-opacity:1;stroke:#000000;stroke-width:2;stroke-linecap:round;stroke-linejoin:bevel;stroke-miterlimit:4;stroke-dasharray:none;stroke-dashoffset:0;stroke-opacity:1" />
    <ellipse
       style="opacity:1;fill:#808080;fill-opacity:1;stroke:#000000;stroke-width:1.27557576;stroke-linecap:round;stroke-linejoin:bevel;stroke-miterlimit:4;stroke-dasharray:none;stroke-dashoffset:0;stroke-opacity:1"
       id="ellipse3197"
       cx="156"
       cy="625.36218"
       rx="18.362211"
       ry="17.362211" />
  </g>
  <g
     id="g3199"
     transform="matrix(0.67142432,0,0,0.67142432,347.65528,-258.91209)">
    <ellipse
       style="opacity:1;fill:#1a1a1a;fill-opacity:1;stroke:#000000;stroke-width:2;stroke-linecap:round;stroke-linejoin:bevel;stroke-miterlimit:4;stroke-dasharray:none;stroke-dashoffset:0;stroke-opacity:1"
       id="ellipse3201"
       cx="156.5"
       cy="625.86218"
       rx="27.5"
       ry="28.5" />
    <ellipse
       ry="17.362211"
       rx="18.362211"
       cy="625.36218"
       cx="156"
       id="ellipse3203"
       style="opacity:1;fill:#808080;fill-opacity:1;stroke:#000000;stroke-width:1.27557576;stroke-linecap:round;stroke-linejoin:bevel;stroke-miterlimit:4;stroke-dasharray:none;stroke-dashoffset:0;stroke-opacity:1" />
  </g>
  <g
     transform="matrix(0.67142432,0,0,0.67142432,379.65528,-259.91209)"
     id="g3205">
    <ellipse
       ry="28.5"
       rx="27.5"
       cy="625.86218"
       cx="156.5"
       id="ellipse3207"
       style="opacity:1;fill:#1a1a1a;fill-opacity:1;stroke:#000000;stroke-width:2;stroke-linecap:round;stroke-linejoin:bevel;stroke-miterlimit:4;stroke-dasharray:none;stroke-dashoffset:0;stroke-opacity:1" />
    <ellipse
       style="opacity:1;fill:#808080;fill-opacity:1;stroke:#000000;stroke-width:1.27557576;stroke-linecap:round;stroke-linejoin:bevel;stroke-miterlimit:4;stroke-dasharray:none;stroke-dashoffset:0;stroke-opacity:1"
       id="ellipse3209"
       cx="156"
       cy="625.36218"
       rx="18.362211"
       ry="17.362211" />
  </g>
  <path
     style="fill:#ececec;fill-rule:evenodd;stroke:#000000;stroke-width:1px;stroke-linecap:butt;stroke-linejoin:miter;stroke-opacity:1"
     d="m 333.5976,169.5 1,-25 70,0 0,20 -17,-2 2,5 z"
     id="path3211"
     inkscape:connector-curvature="0" />
  <path
     style="fill:#000000;fill-rule:evenodd;stroke:#000000;stroke-width:1px;stroke-linecap:butt;stroke-linejoin:miter;stroke-opacity:1"
     d="m 338.5976,152.5 0,12 44,-2 0,-11 z"
     id="path3213"
     inkscape:connector-curvature="0" />
  <path
     style="fill:#cccccc;fill-rule:evenodd;stroke:#000000;stroke-width:1px;stroke-linecap:butt;stroke-linejoin:miter;stroke-opacity:1"
     d="m 4.5975998,110.5 37.0000002,1 0,6 -37.0000002,0 z"
     id="path3215"
     inkscape:connector-curvature="0" />
  <path
     inkscape:connector-curvature="0"
     id="path3217"
     d="m 4.5975998,120.5 37.0000002,1 0,6 -37.0000002,0 z"
     style="fill:#cccccc;fill-rule:evenodd;stroke:#000000;stroke-width:1px;stroke-linecap:butt;stroke-linejoin:miter;stroke-opacity:1" />
  <path
     style="fill:#cccccc;fill-rule:evenodd;stroke:#000000;stroke-width:1px;stroke-linecap:butt;stroke-linejoin:miter;stroke-opacity:1"
     d="m 4.5975998,130.5 37.0000002,1 0,6 -37.0000002,0 z"
     id="path3219"
     inkscape:connector-curvature="0" />
  <path
     inkscape:connector-curvature="0"
     id="path3221"
     d="m 4.5975998,140.5 37.0000002,1 0,6 -37.0000002,0 z"
     style="fill:#cccccc;fill-rule:evenodd;stroke:#000000;stroke-width:1px;stroke-linecap:butt;stroke-linejoin:miter;stroke-opacity:1" />
  <path
     inkscape:connector-curvature="0"
     id="path3223"
     d="m 9.2487238,153.73983 32.9167432,2.54715 -0.281501,5.99339 -32.9636602,-1.54825 z"
     style="fill:#cccccc;fill-rule:evenodd;stroke:#000000;stroke-width:1px;stroke-linecap:butt;stroke-linejoin:miter;stroke-opacity:1"
     sodipodi:nodetypes="ccccc" />
  <path
     style="fill:#cccccc;fill-rule:evenodd;stroke:#000000;stroke-width:1px;stroke-linecap:butt;stroke-linejoin:miter;stroke-opacity:1"
     d="m 8.7795548,163.72881 32.9167442,2.54716 -0.281501,5.99339 -32.9636602,-1.54825 z"
     id="path3225"
     inkscape:connector-curvature="0"
     sodipodi:nodetypes="ccccc" />
  <path
     inkscape:connector-curvature="0"
     id="path3227"
     d="m 8.3103878,173.7178 32.9167422,2.54715 -0.2815,5.9934 -32.9636602,-1.54825 z"
     style="fill:#cccccc;fill-rule:evenodd;stroke:#000000;stroke-width:1px;stroke-linecap:butt;stroke-linejoin:miter;stroke-opacity:1"
     sodipodi:nodetypes="ccccc" />
  <path
     style="fill:#666666;fill-rule:evenodd;stroke:#000000;stroke-width:1px;stroke-linecap:butt;stroke-linejoin:miter;stroke-opacity:1"
     d="m 53.5976,155.5 31,2 5,3 1,23 -3,4 -33,0 -6,-4 0,-22 z"
     id="path3231"
     inkscape:connector-curvature="0" />
  <path
     style="fill:#000000;fill-rule:evenodd;stroke:#000000;stroke-width:1px;stroke-linecap:butt;stroke-linejoin:miter;stroke-opacity:1"
     d="m 331.5976,169.5 -37,-10 0,-12 40,-1 z"
     id="path3246"
     inkscape:connector-curvature="0" />
  <path
     style="fill:#666666;fill-rule:evenodd;stroke:none;stroke-width:1px;stroke-linecap:butt;stroke-linejoin:miter;stroke-opacity:1;filter:url(#filter3319)"
     d="m 60.5976,28.5 51,-22 -6,16 21,12 z"
     id="path3250"
     inkscape:connector-curvature="0" />
  <path
     style="fill:#f9f9f9;fill-rule:evenodd;stroke:none;stroke-width:0.31155586px;stroke-linecap:butt;stroke-linejoin:miter;stroke-opacity:1;filter:url(#filter3333)"
     d="m 181.23813,75.10137 330.71897,14.68012 2,9.06971 -330.71439,-9.77476 z"
     id="path3323"
     inkscape:connector-curvature="0"
     sodipodi:nodetypes="ccccc" />
  <path
     sodipodi:nodetypes="ccccc"
     inkscape:connector-curvature="0"
     id="path3337"
     d="m 211.64053,510.96357 330.71897,11.68012 2,9.06971 -330.71439,-6.77476 z"
     style="fill:#ffffff;fill-rule:evenodd;stroke:none;stroke-width:0.31155586px;stroke-linecap:butt;stroke-linejoin:miter;stroke-opacity:1;filter:url(#filter3339)"
     transform="matrix(0.97919188,0.03525587,0,1.0024484,-26.036931,-464.46535)" />
  <path
     style="fill:#000000;fill-rule:evenodd;stroke:#000000;stroke-width:0.25091299px;stroke-linecap:butt;stroke-linejoin:miter;stroke-opacity:1"
     d="m 115.9904,97.36713 -3.26187,0 -1.50547,2.50913 0,6.02192 1.25456,1.75639 3.01096,0.25091 z"
     id="path3343"
     inkscape:connector-curvature="0" />
  <ellipse
     style="opacity:1;fill:#000000;fill-opacity:1;stroke:none;stroke-width:2;stroke-linecap:round;stroke-linejoin:bevel;stroke-miterlimit:4;stroke-dasharray:none;stroke-dashoffset:0;stroke-opacity:1"
     id="path3345"
     cx="126.0976"
     cy="176.13524"
     rx="7.5"
     ry="7.6352549" />
  <ellipse
     ry="7.6352549"
     rx="7.5"
     cy="167.13524"
     cx="276.0976"
     id="ellipse3347"
     style="opacity:1;fill:#000000;fill-opacity:1;stroke:none;stroke-width:2;stroke-linecap:round;stroke-linejoin:bevel;stroke-miterlimit:4;stroke-dasharray:none;stroke-dashoffset:0;stroke-opacity:1" />
  <ellipse
     style="opacity:1;fill:#000000;fill-opacity:1;stroke:none;stroke-width:2;stroke-linecap:round;stroke-linejoin:bevel;stroke-miterlimit:4;stroke-dasharray:none;stroke-dashoffset:0;stroke-opacity:1"
     id="ellipse3349"
     cx="423.0976"
     cy="163.13524"
     rx="7.5"
     ry="7.6352549" />
  <ellipse
     ry="7.6352549"
     rx="7.5"
     cy="161.13524"
     cx="453.0976"
     id="ellipse3351"
     style="opacity:1;fill:#000000;fill-opacity:1;stroke:none;stroke-width:2;stroke-linecap:round;stroke-linejoin:bevel;stroke-miterlimit:4;stroke-dasharray:none;stroke-dashoffset:0;stroke-opacity:1" />
  <ellipse
     style="opacity:1;fill:#000000;fill-opacity:1;stroke:none;stroke-width:2;stroke-linecap:round;stroke-linejoin:bevel;stroke-miterlimit:4;stroke-dasharray:none;stroke-dashoffset:0;stroke-opacity:1"
     id="ellipse3353"
     cx="485.0976"
     cy="160.13524"
     rx="7.5"
     ry="7.6352549" />
</svg>
