<?xml version="1.0" encoding="utf-8"?>
<!DOCTYPE svg PUBLIC "-//W3C//DTD SVG 1.1//EN" "http://www.w3.org/Graphics/SVG/1.1/DTD/svg11.dtd">
<svg version="1.1" id="Layer_1" xmlns="http://www.w3.org/2000/svg" xmlns:xlink="http://www.w3.org/1999/xlink" x="0px" y="0px"
	 viewBox="0 0 1920 1201" enable-background="new 0 0 1920 1201" xml:space="preserve">
<g>
	<path fill="#A4A5A9" d="M971.83,175.89c1.4-1.87,3.21-5.49,6.07-3.83c3.79,2.76,7.03,7.04,7.1,11.9c0.02,3.21-1.77,6.01-3.8,8.34
		c-0.06,5.77,0,11.54-0.04,17.31c3.59,2.55,7.27,5.8,7.98,10.4c0.89,4.96-2.23,9.42-5.62,12.68c2.28,3.29,4.54,7.35,3.23,11.48
		c-0.85,3.19-3.89,5.09-6.72,6.36c2.11,0.89,4.2599,1.9,5.61,3.86c16.44,21,36.9,38.98,60.25,51.93
		c6.6799,3.69,14.5599,6.24,19.1899,12.7c2.0801,2.88-0.0299,6.75-3.2,7.57c-6.78-0.79-13.1801-4.06-20.01-4.15
		c7.8,1.17,14.17,5.99,20.62,10.16c20.33,13.43,38.76,29.66,54.85,47.94c13.39,15.62,24.9401,32.97,32.9601,51.96
		c12.2699,28.66,16.24,61.01,10.0599,91.64c5.34-9.44,15.1901-14.7,22.65-22.2c8.03-6.7,14.9399-14.62,23.08-21.19
		c-2.5599-2.55-1.35-6.18,1.5801-7.79c-1.4701-1.29-3.38-2.72-3.1001-4.92c0.37-2.04,2.13-3.18,3.92-3.9
		c-1.51-0.71-3.63-1.11-3.74-3.15c-0.87-2.01,0.85-3.6,1.86-5.12c-0.3199-4.11-0.73-8.33,0.0701-12.4
		c1.47-3.76,7.2899-3.71,8.8099,0c0.8101,4.11,0.37,8.39,0.05,12.55c0.71,1.25,1.7999,2.43,1.85,3.96
		c-0.3101,1.88-1.84,3.07-3.16,4.26c1.1801,1.08,2.84,1.98,3.04,3.78c0.47,2.15-1.59,3.59-2.89,4.92c2.71,1.77,3.9,5.14,1.52,7.74
		c5.26,8.29,14.0499,13.24,22.35,18.01c16.3101,8.22,29.47,22.39,36.55,39.22c4.86,11.82,7.22,24.69,6.58,37.47
		c6.62,1.55,13.1,4.76,17.79,9.75c1.96,3.74-3.42,4.84-6.0801,4.36c-8.95-2.02-18.11-3.15-27.2899-3.18
		c4.97,0.64,10.0199,0.82,14.8999,2.06c0.78,1.41,0.6901,3.06,0.7301,4.63c-0.05,18.95-0.01,37.9-0.02,56.86
		c7.1899,0.12,14.39-0.04,21.59-0.14c18.53,2.26,37.16,3.88,55.71,6.01c-1.33-15.53-1.84-31.14-2.83-46.7
		c-0.76-10.9901-0.89-22.04-2.28-32.97c-0.12-3.67,2.2001-6.66,4.86-8.89c-2.11-1.86-2.64-4.61-0.6799-6.8
		c-0.24-3.1-0.54-6.26-0.01-9.34c0.2999-2.6201,3.6799-3.58,5.83-2.6c3.92,2.47,1.89,7.8,2.2101,11.61
		c1.0699,1.77,1.7599,3.72,1.0199,5.79c3.51,3.37,3.99,8.49,3.4,13.08c-0.91,6.23-1.51,12.51-2.2,18.77
		c4.14-0.49,8.2899-0.97,12.45-1.29c-0.46-14.82-0.75-29.65-1.1-44.47c0.13-4.06-2.84-7.79-1.54-11.88
		c0.62-3.45,3.4501-5.86,6.4501-7.32c-1.86-1.96-1.8-4.5-0.37-6.67c0.0299-3.33-0.5801-6.77,0.4099-10
		c1.0601-3.65,7.52-2.91,7.76,0.91c0.3101,2.85,0.11,5.72,0.0601,8.59c1.64,2.36,1.85,5.33-0.5601,7.28
		c4.27,4.59,4.26,11.26,3.64,17.12c-0.51,14.23-0.8199,28.48-1.1899,42.72c1.5399-0.48,3.0699-0.99,4.6599-1.41
		c-2.21-1.9-2-4.57-0.5699-6.88c-0.12-3.34-0.64-6.8,0.37-10.05c1.49-2.64,5.72-2.75,7.17-0.01c1.37,3.18,0.61,6.79,0.48,10.14
		c2.65,2.54,1.4399,6.75-2.15,7.57c2.9399,1.54,5.35,3.89,6.65,6.98c-3.0801,10.66-2.9,21.89-3.6,32.88
		c-0.64,9.66,0.0299,19.39-1.02,29.01c0.2999,3.86-0.11,7.73-0.13,11.6c-0.47,3.53-0.6801,7.17-1.87,10.55
		c-0.86,1.91-3.36,1.2-4.98,1.24c-28.38-3.12-56.79-5.97-85.1801-8.96c-7.27-0.85-14.5699-1.26-21.88-1.21
		c-31.3099-0.05-62.62-0.26-93.9299-0.36c-14.53,0.09-29.0801-0.63-43.6001,0.17c-1.7999-0.11-3.6-0.21-5.39-0.3
		c-0.0099,108.39-0.0199,216.78,0.01,325.17c10.7101,0.06,21.42-0.13,32.14,0.11c-1.2999-6.24-0.5499-12.61-0.5399-18.91
		c0.2999-22.02,0.7-44.04,0.95-66.07c-0.0601-7.94,4.4301-15.05,9.61-20.72c8.08-8.92,19-14.68,30.1801-18.76
		c4.14-1.81,8.3999,0.57,12.3099,1.9c13.79,5.38,27.62,14.03,33.96,27.98c3.4501,7.04,3.25,15.01,3.27,22.65
		c0.25,16.99,0.55,33.97,0.8101,50.97c0.04,6.97,0.58,13.98-0.23,20.94c17.6-0.13,35.21-0.19,52.8099,0.04
		c-1.21-6.28-0.5699-12.67-0.5699-19c0.1699-21.99,0.46-43.97,0.61-65.96c-0.12-7.59,3.46-14.6899,8.0499-20.53
		c5.1001-6.34,11.5901-11.59,18.89-15.18c2.2301-1.36,4.76-0.21,6.9701,0.6c8.61,3.53,16.2699,9.78,20.76,18.02
		c3.74,6.71,5.3799,14.44,5.4099,22.09c0.12,16.67,0.3401,33.35,0.5,50.03c-0.14,9.96,0.8101,19.95-0.2899,29.88
		c6.33-0.12,12.6699-0.07,19.0099-0.1c0.01-101.3,0.0601-202.6-0.0199-303.9c0.5299,0.04,1.58,0.12,2.11,0.17
		c-0.16,100.58-0.03,201.17-0.0701,301.75c34.28,0,68.5701,0,102.8501,0c1.2899-38.81,2.6299-77.63,3.8999-116.44
		c-3.51-0.01-7.0299,0.07-10.5-0.37c-0.38-4.4-1.4299-9.43,0.39-13.51c3.24-1.22,7.1-0.28,10.6-0.54
		c1.16-35.16,2.41-70.31,3.51-105.47c0.37,0.19,1.11,0.5601,1.48,0.7401c0.1201,2.33,0.2401,4.65,0.3,6.99
		c-1.08,32.57-2.23,65.14-3.26,97.72c20.4401,0.01,40.88,0,61.3101,0c-0.63-27.7-1.49-55.4-2.12-83.1
		c0.58,0.19,1.73,0.58,2.3099,0.77c-0.45,10.47,0.4301,20.97,0.51,31.46c0.4401,16.96,0.9,33.92,1.33,50.89
		c3.16,0.48,7.38-1.24,9.8501,1.17c0.72,4.23,0.5,8.67-0.17,12.92c-3.1,0.33-6.21,0.33-9.29,0.3199
		c1.02,38.82,2.03,77.64,3.0701,116.45c36.33-0.01,72.6599,0.01,108.99-0.01c1.9299-57.28,3.85-114.57,5.78-171.86
		c-3.89-0.04-7.76,0.1-11.62-0.03c-1.17-0.16-3.3201-0.33-3.2401-1.91c-0.23-5.29-0.5399-10.68,0.38-15.92
		c5-0.61,10.0601-0.26,15.1001-0.34c1.5399-49.18,3.45-98.36,4.8199-147.54c-4.58-0.33-9.26,0.49-13.74-0.53
		c-1.35-3.73-0.4-7.8199-0.6899-11.69c0.21-1.9-0.5901-4.68,1.34-5.8799c4.59-0.39,9.21-0.06,13.8199-0.16
		c1.6801-49.89,3.3401-99.77,5.03-149.66c-6.59-0.19-13.22,0.45-19.76-0.44c-0.67-5.1-0.45-10.26-0.3099-15.38
		c-0.03-1.67,1.84-2.31,3.22-2.51c5.61-0.9,11.27-1.49,16.9299-2.16c0-21.58-0.0199-43.15,0-64.72
		c-4.2799,0.58-8.47,1.65-12.74,2.19c-1.59-0.64-2.11-2.34-2.73-3.75c-1.65-4.2-3.4299-8.34-4.87-12.62c2.21-2.2,5.46-2.1,8.35-2.57
		c4.04-0.53,8.0801-1.02,12.15-1.42c-2.05-11.76-2.25-24.65,3.62-35.41c4.13-7.75,12.33-12.56,20.87-13.85
		c0.36-5.9,1.27-11.76,1.46-17.68c-0.2599-2.45,1.8-4.81,4.2201-5.09l0.89-0.09c0.4299-0.11,1.2799-0.32,1.71-0.42
		c-2.1901-1.48-5.7-1.28-6.67-4.33c-1.4299-3.64,2.25-5.9,4.8301-7.52c3.48,0.32,7.6699-0.03,9.6599,3.58
		c2.52,4.23-2.3999,7.9-6.2799,8.05c3.4399,0.07,8.1499,2.88,6.58,6.89c-2.41,5.21-0.24,10.98-0.48,16.46
		c9.6699-0.33,18.76,5.51,23.1899,13.97c5.62,11.05,6.0601,23.95,4.9301,36.07c4.1699,0.42,8.36,0.86,12.52,1.51
		c1.3099,0.2,2.8999,0.59,3.45,2.02c-1.41,5.52-4.14,10.59-5.99,15.96c-4.4399,0.36-8.74-1.13-13.09-1.61
		c0,21.54,0.01,43.09-0.01,64.63c5.5499,0.77,11.1699,1.06,16.6799,2.13c0.9301,0.22,2.4501,0.63,2.42,1.9
		c0.3101,4.29,0.14,8.61,0.13,12.92c0.02,1.36-0.59,3.17-2.21,3.17c-4.62,0.31-9.27,0.02-13.88,0.11
		c1.2999,49.89,2.63,99.78,3.9299,149.67c3.52,0.05,7.0801-0.19,10.62,0.15c1.02,0.53,1.62,1.64,1.53,2.82
		c0.0699,4.06,0.0699,8.13,0,12.2c0.08,1.17-0.51,2.28-1.51,2.88c-3.39,0.33-6.79,0.1-10.16,0.15c1.3,49.2,2.5801,98.41,3.89,147.61
		c4.02,0.08,8.0601-0.26,12.0801,0.18c2.4299,0.9,1.61,4.04,1.8099,6.06c-0.34,3.65,0.6901,7.67-0.66,11.11
		c-3.97,1.71-8.5599,0.49-12.75,0.84c1.5,57.29,3.01,114.58,4.52,171.88c4.36,0.08,8.74-0.24,13.1,0.14
		c1.3701,0.33,1.8401,1.69,2.13,2.94c3.26,13.41,6.4601,26.84,9.8401,40.22c-1.02,1.22-2.12,2.59-3.9,2.16
		c-544.34-0.01-1088.6799,0-1633.01,0c-13.32-0.21-26.68,0.41-39.98-0.3301c-0.68-3.0399,0.08-6.09,0.5-9.08
		c1.66-11,3.2-22,4.85-32.99c0.14-1.4,0.82-3.26,2.6-2.99c4.95-0.23,9.91-0.01,14.87-0.08c1.92-57.29,3.84-114.58,5.77-171.87
		c-4.78-0.57-10.22,1.26-14.57-1.09c-0.91-5.44-0.61-11.21,0.01-16.7c5.03-0.74,10.12-0.31,15.17-0.41
		c1.6-49.18,3.39-98.36,4.88-147.54c-4.65-0.14-9.32,0.14-13.95-0.33c-0.64-5.78-1.08-11.87,0.14-17.57
		c4.78-0.79,9.67-0.18,14.49-0.36c1.68-49.89,3.35-99.77,5.03-149.66c-6.56-0.17-13.16,0.39-19.69-0.39
		c-0.8-4.92-0.46-9.93-0.43-14.89c-0.23-1.87,1.65-2.96,3.25-3.05c5.63-0.88,11.29-1.49,16.95-2.16c0-21.57-0.01-43.15,0-64.72
		c-4.32,0.58-8.55,1.72-12.88,2.17c-1.45-0.71-1.95-2.29-2.54-3.65c-1.65-4.24-3.46-8.41-4.92-12.72c1.07-0.68,2.03-1.71,3.37-1.8
		c5.68-0.96,11.41-1.54,17.13-2.18c-2.07-12.16-2.31-25.63,4.29-36.51c4.28-7.18,12.1-11.5,20.22-12.73
		c0.46-6.28,1.18-12.54,1.61-18.83c0.31-3.17,3.85-4.31,6.54-4.7c-3.48-0.34-7.87-2.98-6.65-7.06c1.74-4.2,7.21-5.07,11.11-3.72
		c2.65,0.77,4.98,3.78,3.84,6.56c-0.82,2.58-3.59,3.52-5.93,4.21c2.29,0.63,4.98,1.5,5.89,3.96c1.03,2.07-0.36,4.16-1.25,5.99
		c0.15,4.48,0.62,8.94,0.73,13.42c9.9-0.29,19.3,5.77,23.56,14.62c5.22,10.96,5.72,23.52,4.57,35.42c5.38,0.99,11.43,0.16,16.2,3.2
		c-1.71,5.55-4.21,10.81-6.22,16.26c-4.42,0.45-8.73-1.12-13.09-1.57c-0.01,21.53,0.03,43.06-0.03,64.58
		c6.19,1.19,12.8,0.7,18.71,2.98c1.19,3.83,0.29,8.05,0.58,12.04c0.01,1.83,0.23,4.95-2.31,5.16c-4.6,0.29-9.21,0.02-13.82,0.1
		c1.31,49.89,2.63,99.78,3.94,149.67c3.49,0.05,6.99-0.19,10.48,0.15c2.65,1.23,1.4,4.64,1.71,6.93c-0.37,3.69,1,7.9-1.32,11.14
		c-3.46-0.03-6.93-0.02-10.39-0.02c1.28,49.2,2.59,98.41,3.88,147.61c3.69,0.03,7.38-0.13,11.07,0.05c1.73-0.22,2.91,1.56,2.76,3.13
		c0.05,4.33,0.19,8.69-0.11,13.03c0.02,1.29-1.46,1.79-2.52,1.85c-3.57,0.31-7.15,0.08-10.71,0.13
		c1.48,57.29,3.01,114.58,4.51,171.87c34.24,0,68.49,0,102.73,0c1.28-38.82,2.63-77.63,3.89-116.45c-3.52-0.03-7.05,0.14-10.53-0.42
		c-0.61-3.62-0.57-7.31-0.43-10.96c-0.05-1.45,0.58-3.3,2.38-2.97c3.02-0.19,6.05-0.05,9.08-0.06c1.15-35.16,2.42-70.31,3.5-105.47
		c0.38,0.19,1.14,0.58,1.52,0.77c0.1,2.64,0.22,5.29,0.22,7.95c-1.07,32.24-2.17,64.48-3.24,96.73c20.45,0,40.89,0,61.33,0
		c-0.62-27.71-1.48-55.41-2.12-83.11c0.58,0.19,1.74,0.58,2.31,0.78c-0.39,13.1,0.57,26.23,0.72,39.35
		c0.37,14.33,0.76,28.66,1.12,42.99c3.18,0.6,7.86-1.5,9.98,1.54c0.15,4.01,1.03,8.4901-0.61,12.28c-2.85,1.1-6.01,0.41-8.98,0.59
		c1.02,38.8199,2.04,77.64,3.07,116.46c37.29,0,74.58,0,111.87,0c0-98.58,0-197.16,0-295.74c-0.04-12.74,0.19-25.48-0.41-38.21
		c-1.28-21.21,0.18-42.79-4.3-63.69c0.14-2.64,2.89-4.16,4.48-6.0099c-0.6-1.23-2.07-2.52-1.26-3.9901
		c2-3.99-0.09-8.5699,1.38-12.68c1.47-3.13,6.57-2.73,7.56,0.61c0.76,3.12,0.31,6.3799,0.1201,9.56c0.49,0.73,0.98,1.48,1.48,2.24
		c-0.72,2.27,0.63,3.4,2.67,4.09c-0.53-14.68-0.67-29.38-1.31-44.06c-0.73-6.12-0.13-13.33,5.14-17.37
		c-0.35-0.41-1.05-1.23-1.41-1.64c0.47-1.34,0.9901-2.66,1.56-3.95c-0.11-3.15-0.52-6.38,0.1201-9.4901
		c1.12-3.59,6.74-3.64,7.86-0.02c0.67,3.09,0.23,6.31,0.15,9.44c2.45,2.34,1.4,5.61-1.22,7.27c2.21,1.88,4.74,3.9,5.27,6.95
		c1.22,4.1-1.72,7.82-1.56,11.89c-0.32,14.77-0.7,29.55-1.05,44.32c4.15,0.45,8.31,0.86,12.46,1.37c-0.81-5.84-1.2-11.74-2.11-17.57
		c-0.51-4.05-0.75-8.55,1.53-12.13c1.08-1.79,1.98-3.68,2.95-5.53c-0.26-3.45-0.73-7.03,0.22-10.4c1.61-3.02,6.77-2.47,7.67,0.89
		c0.5,3.01,0.19,6.08,0.1,9.12c1.28,1.86,1.71,3.96,0.85,6.13c3.04,3.59,3.77,8.39,2.58,12.87c-1.61,23.44-2.67,46.93-4.1,70.39
		c-0.15,1.42-0.33,2.85-0.55,4.28c16.18-1.81,32.39-3.38,48.58-5.13c10.2-1.8,20.59-0.26,30.9-0.74
		c0.11-20.93-0.23-41.87,0.17-62.79c-4.48,0.43-8.88,1.4-13.27,2.33c-2.84,0.57-5.86-0.21-7.57-2.66
		c4.06-6.29,11.57-9.56,18.6-11.34c-0.7-17.75,3.76-35.92,13.8-50.7c4.08-6.38,9.5-11.75,15.16-16.73
		c11.58-9.8,27.7-13.96,36.53-26.99c-0.47-1.3-1.52-2.5-1.36-3.93c-0.06-2.1,1.93-3.13,3.31-4.31c-4.36-0.97-4.3-7.46,0.01-8.44
		c-1.39-1.19-3.47-2.24-3.34-4.35c-0.2-1.56,1.19-2.69,1.86-3.95c-0.53-4.02-0.76-8.16-0.14-12.18c0.94-4.48,8.15-4,9.1,0.25
		c0.55,3.92,0.3,7.92-0.12,11.85c0.71,1.27,2.23,2.39,2.03,4c0.13,2.12-1.93,3.19-3.29,4.4c4.4901,1.11,4.09,7.71-0.32,8.68
		c3.52,0.75,4.79,5.21,2.04,7.61c11.68,10.32,22.52,21.64,34.78,31.32c4.63,3.66,8.94,7.9,11.82,13.11
		c-8.17-39.89,1.2-82.24,22.49-116.62c20.8-33.69,51.25-60.41,84.39-81.57c6.55-2.38,13.56-3.39,20.42-4.6
		c-9.54,0.78-18.99,2.32-28.47,3.57c-4.14,0.27-6.46-5.78-3.46-8.52c4.11-4.91,10.73-5.71,16.51-7.3
		c14.44-6.26,26.04-17.33,37.5-27.82c7.32-7.46,15.71-14.37,20.23-24.02c1.55-2.91,2.21-6.39,4.8-8.65
		c-2.55-2.78-4.73-6.61-3.45-10.46c0.53-2.71,2.5-4.72,4.52-6.44c-3.6201-2.7-6.73-6.92-5.97-11.67c0.58-4.99,4.44-8.61,8.04-11.71
		c-0.03-5.55,0.04-11.09-0.04-16.63C966.69,187.99,968.16,180.63,971.83,175.89 M970.34,185.01c-0.28,2.7,1.58,4.86,3.02,6.93
		c0.11,6.03,0.04,12.06,0.03,18.09c-3.61,3.2-7.84,6.78-8.15,11.98c-0.23,4.75,3.74,7.97,7.16,10.55
		c-2.57,2.29-5.7401,4.71-5.95,8.46c-0.28,3.85,2.8,6.58,5.44,8.87c4.54-0.47,10.21-0.86,12.63-5.44c2-4.36-1.28-8.57-3.61-12.03
		c3.1-3.08,6.78-6.66,6.3701-11.44c-0.39-4.75-4.52-7.77-8.08-10.31c0.11-6.2-0.31-12.41,0.14-18.59
		c1.12-2.73,3.8199-4.87,3.66-8.06c0.1-4.6-3.5-8.01-6.73-10.76C973.64,176.77,970.59,180.43,970.34,185.01 M965.15,259.22
		c-4.22,9.19-12.11,15.81-19.04,22.9c-10.97,10.46-22.33,20.91-35.81,28.05c-5.3,3.05-11.88,2.63-16.95,6.15
		c-1.61,1.09-3.55,2.5-3.54,4.66c0.56,1.08,1.22,2.11,1.89,3.14c24.6-3.98,49.47-6.2,74.35-7.34c31.67-1.1,63.8801-0.54,94.68,7.67
		c2.4501,0.63,4.28-2.87,2.48-4.67c-4.73-6.03-12.3999-8.38-18.85-12.05c-23.28-12.99-43.68-30.97-60.12-51.92
		c-3.5-4.49-9.99-4.33-15.14-4.19C967.18,253.79,966.46,256.7,965.15,259.22 M208.35,306.32c-1.99,0.64-3.49,3.35-1.67,5
		c2.86,2.74,8.98,2.56,10.65-1.38C217.43,305.66,211.42,304.88,208.35,306.32 M1738.34,306.3c-2.0699,0.61-3.58,3.4-1.6899,5.07
		c2.95,2.85,10.12,2.47,10.6799-2.31C1746.1801,305.49,1741.33,305.05,1738.34,306.3 M209.34,317.35c-2.23,0.37-4.74,3.04-2.81,5.17
		c2.71,2.84,8.26,2.71,10.61-0.55C218.37,317.73,212.41,316.31,209.34,317.35 M1739.3199,317.33c-1.99,0.44-4.3999,2.38-3.25,4.62
		c2.4401,3.67,9.7401,3.55,11.29-0.89C1747.0601,317.33,1742.26,316.52,1739.3199,317.33 M958.94,319.13
		c-18.09,0.99-35.98,4.22-53.61,8.26c-4.17,0.9-7.48,3.71-10.95,5.99c-28.02,18.95-53.81,42-72.62,70.32
		c-19.13,28.47-30.03,62.76-28.72,97.18c39.23-13.41,80.84-17.79,122.03-20.01c17.61-0.9,35.25-0.97,52.88-0.76
		c40.98-0.65,82.06,0.06,122.8699,4.16c23.76,2.57,47.5701,6.04,70.4,13.32c0.62-29.25-7.6599-58.35-22.37-83.54
		c-18.28-31.48-44.95-57.48-74.7999-78.02c-6.63-4.23-12.9801-9.27-20.64-11.48c-8.0701-2.56-16.38-4.36-24.83-5
		C998.75,317.9,978.8,318.11,958.94,319.13 M205.77,325.12c-0.48,5.05-0.95,10.11-1.45,15.16c-7.91,1.14-15.86,4.84-20.14,11.88
		c-6.79,10.94-6.06,24.58-3.95,36.78c21.51-0.27,43.02-0.71,64.52-1.11c0.77-12.74,0.7-26.8-6.92-37.68
		c-4.68-6.83-13.05-10.08-21.15-9.81c-0.32-4.74-0.65-9.48-0.94-14.22C212.37,326.63,208.97,326.29,205.77,325.12 M1735.71,325.13
		c-0.49,5.04-0.96,10.08-1.4399,15.11c-7.88,1.21-15.84,4.83-20.12,11.87c-6.8101,10.95-6.14,24.63-3.97,36.85
		c21.5099-0.33,43.0199-0.69,64.5299-1.15c0.7201-12.73,0.6801-26.75-6.9099-37.63c-4.6901-6.86-13.0701-10.11-21.1801-9.85
		c-0.34-4.73-0.66-9.46-0.9399-14.2C1742.29,326.63,1738.9,326.27,1735.71,325.13 M179.91,405.82c0.05,21.63-0.27,43.27,0.16,64.9
		c1.01-0.19,2.02-0.37,3.03-0.54c0.13-12.39,0.08-24.78,0.04-37.16c0.05-4.37-0.54-8.86,0.66-13.12c1.11-4.41,8.05-4.59,10.28-1.02
		c1.86,3.02,1.77,6.72,1.83,10.15c-0.11,13.45,0.05,26.9-0.09,40.35c1.56-0.05,3.12-0.1,4.69-0.14c-0.19-11.41-0.06-22.83-0.1-34.24
		c-0.06-5.93,1.58-12.28,6.01-16.46c3.42-3.05,9.22-2.75,12.09,0.89c3.01,4.18,3.51,9.56,3.61,14.57
		c0.03,11.89-0.04,23.78,0.01,35.68c1.09-0.12,2.19-0.23,3.28-0.33c-0.03-14.13,0.11-28.26-0.11-42.39c0.06-2.81-0.02-5.8,1.37-8.33
		c2.22-3.04,7.41-2.92,9.58,0.14c1.86,2.71,1.77,6.15,1.91,9.3c-0.07,14.23-0.02,28.46-0.06,42.7c1.15-0.07,2.3-0.13,3.46-0.18
		c-0.24-21.5,0.06-42.99-0.15-64.49C221.03,403.47,200.29,402.91,179.91,405.82 M1709.87,405.8c-0.1,21.58-0.02,43.15-0.04,64.73
		c0.8101-0.06,2.41-0.18,3.2101-0.25c0.1499-14.75,0.13-29.51-0.04-44.26c0.11-2.77,0-5.9,1.87-8.16c2.59-2.26,7.34-1.94,9.23,1.12
		c1.77,3.01,1.67,6.64,1.76,10.03c-0.1,13.45,0.0601,26.91-0.1,40.37c1.54-0.06,3.1-0.1,4.6799-0.14
		c-0.1699-11.41-0.0599-22.83-0.09-34.24c-0.08-5.76,1.47-11.84,5.59-16.06c3.16-3.23,8.9401-3.39,12.0601,0.01
		c3.25,3.87,3.84,9.18,4.03,14.05c0.14,12.23-0.12,24.47,0.11,36.71c1.0499-0.14,2.13-0.27,3.22-0.4
		c-0.0599-14.09,0.11-28.19-0.13-42.27c0.02-2.34-0.02-4.74,0.75-6.97c0.8101-4.33,7.13-4.7,9.76-1.85
		c2.3201,2.68,2.21,6.47,2.36,9.81c-0.0499,14.2-0.0599,28.4-0.03,42.6c0.8101,0.07,2.4401,0.2,3.25,0.26
		c0.1801-21.59,0.1001-43.19,0.04-64.79C1750.98,403.46,1730.25,402.92,1709.87,405.8 M207.95,420c-4.21,3.69-5.63,9.57-5.54,14.97
		c0.02,11.32-0.03,22.64,0.04,33.96c5.84,0.33,11.69,0.18,17.53,0.36c0.29-11.09,0.04-22.19,0.15-33.29
		c-0.07-5.08,0.02-10.66-3.02-15C215.14,417.99,210.52,417.53,207.95,420 M228.47,419.45c-1.17,1.97-1.07,4.36-1.17,6.57
		c0.17,14.57,0.17,29.13,0.05,43.7c2.87,0.21,5.74,0.42,8.62,0.61c0.34-13.78,0-27.57,0.2-41.35c-0.12-2.92,0.12-6.07-1.29-8.72
		C233.69,418.02,230.21,417.77,228.47,419.45 M1735.14,423.28c-2.5601,4.06-2.9,9.02-2.8201,13.7
		c0.0701,10.66-0.0399,21.32,0.0801,31.98c5.83,0.27,11.6699,0.16,17.51,0.33c0.3199-10.76,0.0499-21.54,0.1699-32.3
		c-0.0699-4.96,0.12-10.23-2.24-14.75c-1.08-2.19-3.3099-3.95-5.8199-3.84C1738.9399,418.36,1736.6,420.84,1735.14,423.28
		 M186.34,419.32c-1.37,1.95-1.17,4.46-1.29,6.73c0.19,14.68,0.17,29.37,0.06,44.06c2.87-0.21,5.75-0.41,8.63-0.59
		c0.34-13.19,0.02-26.37,0.18-39.56c-0.1-3.2,0.23-6.63-1.23-9.59C191.61,418.06,188.14,417.78,186.34,419.32 M1715.02,424.94
		c0.1,15.06,0.15,30.11,0.03,45.17c2.86-0.21,5.74-0.41,8.62-0.59c0.2899-14.53,0.13-29.08,0.11-43.61
		c-0.04-3.01-0.76-7.72-4.72-7.52C1715.37,418,1714.96,422.3,1715.02,424.94 M1757.26,424.99c0.1,14.91,0.14,29.83,0.03,44.74
		c2.86,0.21,5.73,0.41,8.61,0.6c0.2999-14.79,0.13-29.58,0.13-44.37c0.03-3.1-0.88-8.06-5.04-7.55
		C1757.45,418.24,1757.3,422.46,1757.26,424.99 M740.35,443.42c-1.62,3.11-0.77,7.13-0.66,10.59c0.11,2.58,4.04,3.06,5.12,0.82
		c0.65-3.24,0.55-6.6,0.2-9.86C745,442.71,741.71,441.71,740.35,443.42 M1209.16,443.28c-1.66,3.16-0.8201,7.15-0.73,10.63
		c0.0099,2.72,4.24,3.21,5.1699,0.79c0.54-3.17,0.4401-6.43,0.17-9.62C1213.79,442.81,1210.71,441.73,1209.16,443.28 M738.6,457.83
		c-0.29,1.33-0.91,3.19,0.6801,3.99c2.68,1.8,6.02,0.64,8.03-1.58c-0.32-0.59-0.97-1.77-1.3-2.36
		C743.54,457.96,741.06,457.95,738.6,457.83 M1205.99,460.27c2.66,3.08,7.26,3.12,9.9-0.02c-0.42-0.59-1.27-1.76-1.7001-2.35
		c-2.1499,0.06-4.2999,0.05-6.4299-0.03C1207.3199,458.47,1206.4399,459.67,1205.99,460.27 M737.35,469.01
		c2.8,3.07,7.46,3.1,10.22-0.06C745.61,464.68,739.25,464.68,737.35,469.01 M1208.36,466.27c-1.22,0.49-1.87,1.4-1.96,2.75
		c1.6699,3.03,6.33,3.17,8.63,0.8C1216.61,466.16,1210.83,464.77,1208.36,466.27 M159.68,475.1c-0.05,4.71-0.05,9.43-0.01,14.14
		c33.66,0.05,67.33,0.01,101,0.02c0.07-4.74,0.08-9.47-0.04-14.2c-8.18-0.97-16.36-2.02-24.57-2.68
		C210.61,469.93,184.92,471.22,159.68,475.1 M1689.63,475.09c-0.08,4.72-0.08,9.44-0.02,14.16c33.67,0.03,67.33,0.01,101,0.01
		c0.05-4.73,0.0601-9.45-0.01-14.18c-13.5699-1.75-27.1899-3.18-40.86-3.74C1729.63,470.44,1709.51,472.17,1689.63,475.09
		 M739.36,475.28c-1.44,0.67-1.92,2.92-0.39,3.77c2.36,1.97,7.4901,1.54,8.04-2.01C745.78,474.18,741.77,473.78,739.36,475.28
		 M1208.17,475.07c-1.4701,0.75-2.3301,2.29-1.11,3.73c2.3899,2.2,7.87,1.99,8.4199-1.83
		C1214.24,474.28,1210.58,473.87,1208.17,475.07 M738.35,482.94c-9.31,13.53-26.53,17.38-38.13,28.33
		c-18.1899,15.69-27.41,40.21-26.22,63.99c43.19-0.5,86.39-1.08,129.59-1.73c-0.4301-7.63-0.22-15.42-2.32-22.83
		c-1.74-4.9-3.76-9.72-4.93-14.8c-1.83-8.75-7.7-16.12-14.55-21.6c-12.2599-9.72-23.36-20.78-34.7599-31.47
		C744.13,482.85,741.24,482.87,738.35,482.94 M1204.51,484.54c-8.33,8-16.7,15.97-25.4,23.57c-5.28,4.71-11.46,8.6-15.45,14.59
		c-10.4,14.64-13.27,33.15-13.01,50.74c42.91,0.89,85.84,1.25,128.76,1.82c1.2-23.85-8.1-48.47-26.41-64.16
		c-11.59-10.84-28.72-14.71-37.98-28.21C1211.55,483.18,1207.1899,481.69,1204.51,484.54 M179.32,491.32
		c-0.13,3.32-0.11,6.66,0.21,9.97c-1.68,46.54-3.17,93.08-4.73,139.63c24.57,0.02,49.14-0.02,73.71,0.02
		c-0.86-36.91-2.03-73.81-2.81-110.71c0.49-5.43,0.19-10.87-0.25-16.29c-0.61-7.58-0.27-15.18-0.45-22.76
		C223.1,491.39,201.21,491.12,179.32,491.32 M1709.17,491.3c-0.1801,2.71-0.16,5.44,0.34,8.13c-1.66,47.16-3.21,94.32-4.76,141.49
		c24.5601,0.02,49.13-0.02,73.6899,0.02c-0.86-34.56-1.7599-69.12-2.73-103.67c0.29-7.12,0.29-14.25-0.27-21.34
		c-0.6899-8.24-0.22-16.51-0.48-24.76C1753.03,491.39,1731.1,491.14,1709.17,491.3 M963.94,497.26c-21-0.65-42.02-0.96-63,0.12
		c-36.06,1.97-72.54,6.19-106.57,18.87c1.06,8.83,3.19,17.49,5.82,25.97c37.39-6.66,75.38-9.02,113.29-10.42
		c30.84-1.12,61.7-0.91,92.55-0.78c29.36,0.29,58.72,1.06,88,3.21c19.58,1.55,39.2,3.38,58.4199,7.58
		c1.0901-3.56,2.4-7.05,3.89-10.46c2.3101-5.16,2.73-10.85,3.5901-16.36c-31.25-11.71-64.76-15.44-97.8401-17.7
		C1029.41,495.29,996.62,495.57,963.94,497.26 M565.9,516c-1.09,2.81-0.88,5.99-0.41,8.92c0.2,2.04,3.6,1.99,4.02,0.01
		c0.37-2.26,0.36-4.57,0.13-6.84C569.88,515.9,567.59,515.07,565.9,516 M1386.38,516.24c-0.98,2.76-0.75,5.85-0.35,8.71
		c0.45,1.95,3.5499,1.94,3.98-0.02c0.4-2.84,0.61-5.89-0.3101-8.64C1388.58,515.4,1387.47,515.39,1386.38,516.24 M563.68,528.3
		c0.73,4.12,7.64,4.21,7.59-0.39C568.73,528.02,566.2,528.14,563.68,528.3 M1384.4301,528c0,4.42,6.8999,4.29,7.6,0.3
		C1389.49,528.16,1386.95,528.07,1384.4301,528 M1379.53,542c0.1599,3.38,1.83,6.52,1.86,9.94c0.36,15.34,0.64,30.68,1.15,46.02
		c-5.53,0.85-11.11,1.3-16.66,1.91c0.5599-6.33,1.22-12.64,2.09-18.92c0.42-3.55,0.87-7.29-0.39-10.72
		c-0.5699-1.59-1.9299-2.95-3.6499-3.09c-4.66,0.62-8.9601,4.99-8.2301,9.9c1.27,10.26,1.41,20.61,2.12,30.92
		c0.8301,15.53,1.8301,31.05,2.5601,46.59c2.61,0.35,5.22,0.68,7.85,1c-0.0599-5.55-0.3099-11.1-0.02-16.64
		c-0.11-3.5099,3.38-6.49,6.8401-5.91c2.96,0.29,5.2999,3.06,5.2699,6.02c0.29,5.92,0.15,11.86-0.25,17.77
		c8.14,0.83,16.27,1.77,24.42,2.58c0.0701-11.81,0.29-23.62,0.9301-35.41c0.5-7.67,0.7899-15.41,2.6599-22.91
		c1.17-3.07-2.08-5.41-4.33-6.82c-4.61-2.71-9.39,0.88-13.74,2.36c1.11-2.07,2.2-4.25,2.11-6.67c0.29-12.3,0.61-24.6,0.98-36.91
		c0.11-5.33,1.3201-11.02-1.0499-16.05c-0.87-1.51-2.0601-3.43-3.9-3.63C1384.02,534.28,1379.73,537.43,1379.53,542 M562.83,534.81
		c-2.73,3.02-3.05,7.34-2.88,11.22c0.7,11.66,0.73,23.35,1.14,35.02c0.29,5.22-0.6201,10.81,2.14,15.55
		c-3.35-1.2599-6.56-3.44-10.24-3.37c-3.6,0.16-6.09,3.03-8.18,5.62c2.15,7.5,2.54,15.32,3.06,23.06
		c0.73,12.48,0.98,24.97,1.04,37.47c8.21-0.81,16.4-1.81,24.6201-2.57c-0.75-5.93-0.6801-11.93-0.4301-17.89
		c-0.11-3.55,3.48-6.55,6.96-5.89c2.87,0.37,5.22,3.06,5.15,5.97c0.29,5.5,0.03,11.01-0.04,16.51c2.57-0.28,5.15-0.55,7.73-0.8
		c1.75-26.54,2.74-53.16,4.81-79.66c-0.39-3.74-3.57-6.62-7.01-7.69c-2.01-0.74-4.09,0.76-4.77,2.62
		c-1.39,3.39-0.92,7.17-0.53,10.72c0.92,6.32,1.44,12.69,2.2599,19.03c-5.59-0.31-11.14-1.04-16.7-1.64
		c0.31-15.39,0.75-30.78,1.07-46.16c0-4.75,3.8199-9.95,0.27-14.27C570.14,535.26,565.6,531.43,562.83,534.81 M912.98,543.19
		c-36.38,1.41-72.72,4.66-108.61,10.87c0.51,5.37,1.1,10.73,1.51,16.12c114.27-0.02,228.54,0.15,342.8099-0.09
		c0.01-6.26,0.6201-12.5,1.3701-18.7c-23.5-3.84-47.28-5.68-71.04-7.02c-27.3101-1.47-54.66-2.07-82-2.1
		C969.01,542.58,940.98,541.94,912.98,543.19 M1360.3,550.5c-1.4601,2.45-0.8,5.77-0.5801,8.54c0,2.32,4.0901,2.22,4.0701-0.06
		c0.33-2.58,0.36-5.22-0.05-7.78C1362.9399,550,1361.45,549.5,1360.3,550.5 M590.35,552.52c-1.6,2.32-0.79,5.82-0.66,8.59
		c0.19,1.93,3.06,2.23,3.92,0.63c0.62-2.8,0.54-5.74,0.1-8.55C592.89,552.03,591.51,551.42,590.35,552.52 M1358.89,562.36
		c-0.22,0.43-0.65,1.31-0.87,1.75c2.1699,2.15,7.45,2.04,7.4199-1.77C1363.24,562.39,1361.0601,562.41,1358.89,562.36
		 M588.07,564.97c2.42,0.39,4.77,1.1,7.07,1.94c-0.01-0.64-0.03-1.94-0.04-2.58c-2,0.06-3.99,0.11-5.98,0.12
		C588.86,564.58,588.33,564.84,588.07,564.97 M806.02,572.19c0.47,8.74,0.91,17.49,1.16,26.25c113.77,0.07,227.54,0.02,341.31,0.02
		c-0.1899-4.16,0.36-8.29,0.64-12.42c-0.15-4.61-0.91-9.21-0.36-13.82C1034.52,572.16,920.27,572.23,806.02,572.19 M1401.37,574.39
		c-2.58,1.77-1.21,5.91-1.3199,8.65c-0.15,2.11,3.26,2.76,3.97,0.88c0.75-2.86,0.58-5.94,0.02-8.82
		C1403.25,574.33,1402.36,574.09,1401.37,574.39 M1150.28,576.02c0.37,3.67,0.71,7.34,1.0399,11.02
		c7.29,0.25,14.4401-1.41,21.6801-1.99c17.6-1.83,35.3101-2.86,53.01-2.21c9.6899,0.06,19.33,1.16,29.03,1.03
		c12.2799,0.15,24.7,0.61,36.7,3.46c2.1901,0.62,4.37-0.12,6.45-0.83c-4.71-3.78-9.7899-7.54-15.7999-8.84
		c-4.09-0.75-8.26-0.45-12.38-0.52c-16.6801-0.19-33.35-0.32-50.03-0.52C1196.74,576.61,1173.5,575.3,1150.28,576.02 M549.46,577.18
		c-0.69,2.79-0.65,5.76-0.15,8.59c0.72,1.63,3.01,1.64,3.94,0.21c0.51-3.01,0.57-6.16-0.19-9.12
		C551.71,575.94,550.51,576.05,549.46,577.18 M803.99,579.24c-0.42,1.22-0.55,2.51-0.38,3.86c-0.33,0.7401,0.54,3.94,1.55,2.25
		C804.81,583.39,804.91,580.88,803.99,579.24 M676.07,587.99c-0.01,20.62-0.02,41.24,0,61.86c4.33-0.05,8.66-0.06,12.99-0.05
		c-0.3-10.24-0.44-20.84,3.23-30.57c1.77-4.55,5.55-9.1,10.78-9.36c1.38-0.16,2.39,1.07,2.82,2.25c4.54,11.9,5.71,25.06,3,37.55
		c5.04-0.02,10.09-0.03,15.14,0.06c-0.8101-6.57-1.26-13.35,0.72-19.77c2.31-9.06,8.82-16.59,16.7-21.39
		c1.48-0.88,3.36-1.99,5.06-0.93c4.4,2.8,7.59,7.17,10.09,11.68c4.37,9.36,3.23,20.12,2.84,30.15
		c4.05-0.0099,8.11-0.0099,12.18,0.01c0.02-10.9,0.27-22.16,4.44-32.39c1.6-3.3,3.98-7.36,7.99-7.72c2.84,1.61,5.05,4.18,6.67,6.99
		c5.42,10.05,4.98,21.97,3.73,32.98c3.47,0,6.94-0.03,10.42-0.08c-0.07-20.42,0.17-40.83-0.13-61.25
		c-17.44-2.84-35.07-4.49-52.71-5.23C726.61,581.74,701.18,584.21,676.07,587.99 M1150.47,590.14
		c0.14,19.71-0.03,39.43,0.0901,59.14c2.7899,0,5.6,0.0099,8.4199,0.03c-1.33-11.34-1.75-23.77,4.3301-33.92
		c1.7699-2.55,3.87-6.1,7.4299-5.91c3.36,1.27,5.28,4.78,6.72,7.9c4.0701,10.12,4.3,21.24,4.3401,31.99
		c4.0499,0.08,8.11,0.11,12.1699,0.08c-0.5-7.52-0.75-15.11,0.42-22.58c0.96-6.84,5.12-12.8,10-17.48
		c1.47-1.13,3.2999-3.09,5.2999-1.96c8.4501,4.07,15.38,11.48,18.3301,20.45c2.48,6.98,2.52,14.56,1.1799,21.79
		c5.17-0.01,10.3301-0.01,15.51,0c-3.2-13.01-1.6599-27.08,3.65-39.31c5.12-1.71,10.12,2.8,12.0601,7.27
		c4.4299,10.06,4.2799,21.38,3.87,32.16c5.02,0,10.0499,0.02,15.09,0.09c0.0599-19.96,0.05-39.92,0.01-59.88
		c-23.9501-3.64-48.17-5.94-72.41-5.31C1188.0601,585.34,1169.13,586.92,1150.47,590.14 M1398.77,586.63
		c-0.66,4.71,8.16,4.51,6.71-0.18C1403.24,586.7,1401,586.75,1398.77,586.63 M547.48,588.82c0.8,0.86,0.95,3.28,2.64,2.84
		c1.63-0.16,3.22-0.53,4.82-0.83c-0.09-0.56-0.26-1.69-0.35-2.25C552.22,588.69,549.84,588.74,547.48,588.82 M807.29,600.47
		c1.89,74.4901,1.31,149.02,0.7401,223.52c-0.57,57.52-1.26,115.03-2.4301,172.54c23.41,0.34,46.83-0.17,70.25-0.07
		c0.23-45.16-0.02-90.32,0.13-135.48c0.12-3.39-0.14-6.78-0.94-10.07c-1.17-4.02,1.1-7.9,0.93-11.93
		c-0.04-8.65-0.05-17.31-0.02-25.95c0.05-6.35-0.74-12.72,0.23-19.03c1.77-12.55,6.77-24.53,13.92-34.96
		c8.84-12.93,20.53-23.73,33.31-32.71c16.44-11.55,34.7-20.29,53.46-27.35c3.02-1.48,6.17,0.27,9.07,1.21
		c27.2,10.03,53.3701,25.19,72.06,47.75c12.02,14.64,19.96,32.98,20.71,52.02c1.4,65.18,2.7001,130.36,4.0901,195.54
		c20.51,0.03,41.01-0.1,61.5199-0.26c0.77-55.38,1.4301-110.77,2.17-166.16c0.84-50.34,0.47-100.69,0.5701-151.04
		c-0.7101-11.37,1.45-22.64,1.4099-33.99c0.0801-14.53,0.05-29.05,0.05-43.56C1034.77,600.46,921.03,600.49,807.29,600.47
		 M729.78,622.94c-4.58,7.82-5.32,17.32-3.6801,26.1c10.44,0.22,20.87,0.54,31.31,0.43c0.53-8.65,1.02-17.54-1.18-26.0099
		c-2.2-5.83-6.15-10.97-11.18-14.64C738.9,612.16,733.23,616.75,729.78,622.94 M1208.28,608.82c-5.26,4.05-9.62,9.56-11.48,16
		c-1.6801,8.08-1.3501,16.42-0.8201,24.62c10.4301,0.17,20.85-0.22,31.28-0.38c1.75-8.9,0.9-18.57-3.83-26.46
		C1219.95,616.56,1214.38,612.04,1208.28,608.82 M783.24,610.92c-2.56,2.32-4.85,5.04-5.94,8.37c-3.47,9.61-3.68,19.9901-3.65,30.09
		c6.24,0.06,12.48-0.05,18.72-0.16c0.93-7.04,1.37-14.24,0.16-21.28C791.53,621.41,788.71,614.91,783.24,610.92 M694.68,618.7
		c-4.2,9.74-3.92,20.68-3.55,31.08c5.17-0.0601,10.35-0.05,15.53-0.07c3.22-12.69,1.76-26.36-3.31-38.35
		C699.59,612.54,696.16,614.92,694.68,618.7 M1163.0601,620.14c-3.7201,9.2-3.2301,19.39-2.0801,29.06
		c6.26,0.07,12.51,0.24,18.78,0.19c0.08-8.17-0.1801-16.41-1.95-24.41c-1.13-5.34-3.3201-10.69-7.77-14.09
		C1167.11,613.45,1164.4399,616.44,1163.0601,620.14 M1249.86,611.48c-4.65,12.08-6.5499,25.67-2.98,38.3
		c5.12-0.08,10.25-0.07,15.38,0.0099c0.4299-10.28,0.63-21.05-3.36-30.72C1257.39,615.14,1253.95,612.36,1249.86,611.48
		 M577.3,635.35c-2.58,1.15-2.28,4.29-2.34,6.63c0.11,4.29-0.28,8.61,0.32,12.88c0.93,3.59,6.68,3.65,7.73,0.09
		c0.57-5.3,0.31-10.67,0.2-15.98C583.39,636,579.83,633.93,577.3,635.35 M1372.37,635.37c-1.36,0.63-2.2,2.05-2.17,3.53
		c-0.25,4.03-0.09,8.0699-0.12,12.11c0.0801,2.05-0.2,4.74,1.91,5.95c2.34,1.71,6.25,0.02,6.29-2.98
		c0.28-4.99,0.23-10.01,0.0399-15.01C1378.5,635.99,1374.9,633.91,1372.37,635.37 M159.67,642.95c-0.04,4.72-0.04,9.45,0,14.18
		c33.67,0.02,67.34,0.01,101.01,0c0.05-4.73,0.05-9.46,0-14.19C227.01,642.93,193.34,642.93,159.67,642.95 M1689.61,642.95
		c-0.0499,4.72-0.0499,9.45,0,14.17c33.66,0.04,67.33,0.01,101,0.02c0.05-4.74,0.05-9.47,0-14.2
		C1756.9399,642.94,1723.28,642.93,1689.61,642.95 M658.72,651.96c0.19,6.74-0.53,13.54,0.46,20.25c-1.42,1.34-3.17,2.22-5.16,1.94
		c-9.04-0.45-17.98,1.27-26.98,1.85c-1.94,0.05-3.81-0.52-5.7-0.8c8.2-0.79,16.3799-1.73,24.58-2.53
		c0.04-6.76-0.01-13.53,0.04-20.28c-32.32,3.15-64.58,6.89-96.9,10.02c0.44,6.6801,1.27,13.32,1.72,20
		c1.17,0.6201,2.33,1.25,3.5699,1.77c-1.54,0.05-3.06,0.14-4.58,0.21c-0.11,104.14-0.09,208.28-0.02,312.41c6.12,0,12.25,0,18.37,0
		c0.34-26.27,0.57-52.55,0.85-78.82c0.1-8.19,2.27-16.44,6.72-23.35c5.07-8.05,13.32-13.81,22.28-16.73
		c2.35-1.05,4.6201,0.5699,6.63,1.64c5.07,3.06,9.95,6.57,13.96,10.97c5.69,6.48,10.62,14.53,10.46,23.45
		c0.22,27.61,0.5,55.23,0.81,82.84c17.18-0.03,34.36,0.07,51.54-0.05c0.32-25.94,0.86-51.87,1.19-77.8
		c-0.04-9.56,4.11-18.87,10.68-25.72c8.79-9.38,20.67-15.26,32.81-19.06c2.91-1.25,5.88,0.28,8.6,1.28
		c10.54,4.13,20.74,9.92,28.28,18.51c4.46,5.39,8.7,11.73,8.82,18.98c0.4,27.96,0.79,55.91,1.27,83.87
		c10.22-0.03,20.44,0.01,30.66-0.02c1.73-103.63,3.17-207.27,2.83-310.92c-0.04-4.31-0.1-8.61-0.21-12.91
		c-9.28-0.34-18.71,0.83-27.84-1.22c9.33-0.25,18.67,0.02,28.0099-0.33c-0.17-6.72-0.06-13.45-0.3-20.16
		C757.02,651.58,707.87,651.61,658.72,651.96 M1150.3199,651.26c-0.5699,6.7-1.0299,13.41-1.6399,20.12
		c48.6799,0.5,97.37,0.59,146.0499,0.71c-0.04-6.6801-0.04-13.36,0.01-20.05C1246.6,651.52,1198.46,651.6,1150.3199,651.26
		 M647.95,651.73c-0.03,6.82-0.02,13.65,0,20.48c2.92,0,5.85-0.04,8.78-0.11c-0.03-6.75-0.05-13.5,0.02-20.25
		C653.81,651.75,650.88,651.72,647.95,651.73 M1296.72,651.75c-0.03,6.81-0.03,13.62,0,20.43c2.87,0.01,5.75,0.03,8.64,0.06
		c0.11-6.67,0.3-13.35,0.01-20.01C1302.6801,651.19,1299.5601,651.89,1296.72,651.75 M1307.47,652.34
		c-0.01,6.77,0.04,13.55-0.0499,20.3199c31.7,3.27,63.39,6.6201,95.09,9.9c0.7-6.67,1.23-13.35,1.92-20.02
		c-9.4501-1.11-18.91-2.2-28.39-2.89C1353.22,656.94,1330.33,654.78,1307.47,652.34 M172.53,659.34c0.42,0.22,1.26,0.66,1.68,0.8799
		c-1.82,48.8101-3.28,97.65-5.01,146.47c27.89,0.09,55.78-0.01,83.67,0.05c-0.93-37.42-1.93-74.84-2.95-112.26
		c0.15-8.86,0.53-17.79-0.69-26.6c0.22-3.22-0.08-6.45-0.59-9.62l-0.48,1.16c-7.38-0.63-14.78-0.16-22.17-0.29
		C208.17,659.27,190.34,658.83,172.53,659.34 M1702.46,659.31c0.42,0.22,1.27,0.66,1.6901,0.88
		c-1.8201,48.83-3.3101,97.68-4.99,146.52c27.88,0.03,55.77,0,83.6699,0.0099c-0.9099-37.28-2.0699-74.56-2.86-111.85
		c0-8.03,0.55-16.15-0.78-24.1c0.2301-4.17-0.0599-8.37-0.58-12.5l-0.4399,1.15c-9.05-0.66-18.13-0.13-27.1901-0.3
		C1734.8101,659.25,1718.63,658.87,1702.46,659.31 M977.07,700.98c-26.41,10.14-52.28,23.49-72.47,43.66
		c-14.65,14.78-26.09,34.16-26.9,55.38c0.42,14.32,0.16,28.64,0.26,42.97c25.24,0.05,50.49-0.04,75.74,0.04
		c-1.41-10.92-0.28-22.01-0.63-33c0.45-8-1.72-16.91,3.07-24.01c5.33-7.78,13.9-13.12,22.89-15.62
		c11.23,3.05,22.95,11.3199,24.59,23.66c0.59,10.29,0.47,20.62,0.81,30.93c-0.02,6.01,0.75,12.06-0.22,18.04
		c24.45-0.04,48.91-0.0601,73.3699,0.0099c-0.21-13.36-0.58-26.71-0.7899-40.06c0.0299-16.36-5.51-32.48-14.6001-45.99
		c-8.0499-12.09-18.73-22.23-30.45-30.71c-14.97-10.78-31.66-19.05-49.05-25.14C980.88,700.42,978.87,700.03,977.07,700.98
		 M977.02,772.97c-5.65,2.27-11.12,5.27-15.5,9.5601c-3.86,3.7599-6.75,8.89-6.49,14.43c0.06,14.78,0.02,29.56,0.03,44.33
		c15.91-0.09,31.81-0.06,47.72-0.29c-0.36-15-0.6-30-0.9901-44.99c-0.21-9.8-8.2599-17.17-16.49-21.18
		C982.72,773.79,979.86,771.56,977.02,772.97 M153.61,808.75c-0.04,4.73-0.04,9.46,0,14.19c37.72-0.02,75.44,0.03,113.16-0.03
		c0-4.71,0-9.42,0-14.1299C229.05,808.68,191.33,808.75,153.61,808.75 M1683.55,808.75c-0.05,4.72-0.05,9.46,0,14.19
		c37.6899,0.02,75.3899-0.05,113.09,0.03c0.1-4.75,0.09-9.5,0.01-14.24C1758.95,808.75,1721.25,808.72,1683.55,808.75
		 M168.64,824.67c-1.96,57.37-3.93,114.75-5.75,172.13c31.66,0,63.33-0.01,94.99,0c-1.07-41.52-2.14-83.05-3.28-124.57
		c0.05-4.67,0.59-9.41-0.5-13.99c0.06-11.14-0.17-22.28-0.68-33.4l-1.63,0.11c-22.93-0.09-45.86,0.06-68.79-0.05
		c-3.45-0.04-6.91,0.08-10.35,0.48C171.32,825.07,169.99,824.84,168.64,824.67 M1698.59,824.66c-1.96,57.38-3.97,114.77-5.74,172.15
		c31.66-0.03,63.3201,0.01,94.99-0.02c-1.5399-57.31-2.98-114.63-4.5399-171.93l-1.3301,0.12c-15-0.17-30,0.02-45-0.05
		c-11.4399,0.25-22.9199-0.57-34.33,0.46C1701.28,825.08,1699.9301,824.84,1698.59,824.66 M876.73,845.01
		c-0.01,2.06,0,4.13,0.01,6.21c66.91,0.1,133.81,0.07,200.72,0.01c0-2.09,0-4.16,0.02-6.23C1010.56,845,943.64,844.98,876.73,845.01
		 M878.02,853.26c-0.16,47.84-0.09,95.69-0.04,143.54c20.87-0.03,41.74,0.05,62.61-0.03c-0.02-20.9,0-41.8-0.01-62.69
		c-0.02-5.67-0.57-11.56,1.56-16.96c3.91-10.73,13.2-18.38,22.87-23.83c4.8-2.47,9.63-5.25,14.98-6.31
		c11.01,3.12,21.46,9.27,29.04,17.94c5.03,5.84,8.2,13.33,8.41,21.08c0.49,23.6,0.96,47.2,1.49,70.79
		c20.6301,0.02,41.2599,0.01,61.89,0.01c-0.98-47.86-2.0199-95.71-2.99-143.57C1011.23,853.32,944.62,853.27,878.02,853.26
		 M357.54,867.95c-0.03,3.45-0.03,6.91,0,10.37c27.68,0.03,55.35,0.03,83.03,0c0.02-3.46,0.02-6.92-0.01-10.38
		C412.89,867.94,385.22,867.93,357.54,867.95 M1503.49,867.95c-0.03,3.45-0.03,6.91,0.01,10.37c27.66,0.03,55.33,0.03,83.01,0
		c0.01-3.46,0.01-6.92-0.01-10.37C1558.83,867.93,1531.16,867.92,1503.49,867.95 M701.01,888.83c-6.96,5.31-12.79,12.48-15.21,21
		c-1.68,5.56-1.16,11.42-1.34,17.15c-0.42,23.22-0.66,46.45-1.18,69.67c29.23,0.23,58.46,0.0099,87.6899,0.11
		c-0.36-27.94-0.86-55.88-1.22-83.82c-0.01-5.45-2.85-10.38-5.94-14.67c-7.13-9.65-17.72-16.05-28.68-20.49
		c-2.86-1.0601-5.93-2.9-9.02-1.57C717.15,879.04,708.49,883.1,701.01,888.83 M1218.01,877.89
		c-10.98,4.48-21.5601,10.97-28.64,20.68c-3,4.24-5.7,9.07-5.71,14.42c-0.37,27.98-0.86,55.97-1.23,83.96
		c29.21-0.04,58.4199,0,87.6399-0.02c-0.3999-26.33-0.86-52.65-1.25-78.98c-0.0599-5.68-1.7999-11.26-4.6599-16.14
		c-7.86-13.12-22.15-20.72-36.24-25.42C1224.5601,874.75,1221.14,876.68,1218.01,877.89 M368.01,880.1c0.03,3.05,0.1,6.1,0.26,9.15
		c-1.22,35.86-2.55,71.72-3.55,107.58c23.04-0.07,46.07-0.02,69.1-0.03c-1.04-38.78-1.92-77.57-3.15-116.35l0.04-0.48
		C409.81,879.98,388.9,879.85,368.01,880.1 M574.96,900.02c-3.5,7.13-4.23,15.18-4.04,23.01c-0.22,24.5699-0.56,49.14-0.74,73.71
		c19.21,0,38.41,0,57.62,0c-0.33-28.63-0.43-57.27-0.93-85.89c-2.36-14.47-14.41-25.17-26.88-31.58
		C589.32,882.45,579.66,889.78,574.96,900.02 M1339.5699,888.67c-7.25,6.75-13.6399,15.96-13.1899,26.29
		c-0.2,27.32-0.53,54.65-0.78,81.97c19.2101,0,38.4301,0,57.64,0c-0.2-25.62-0.5599-51.24-0.76-76.86
		c0.02-5.47-0.59-10.99-2.4399-16.16c-3.9401-11.81-14.2201-21.08-26.14-24.35C1348.45,881.23,1343.91,885.08,1339.5699,888.67
		 M1513.91,880.07c0.09,2.38,0.21,4.76,0.37,7.15c-1.26,36.53-2.6,73.08-3.62,109.6201c23.0299-0.1,46.0699-0.01,69.11-0.05
		c-1.03-38.75-2.03-77.5-3.0801-116.24l0.05-0.56C1555.79,879.94,1534.85,879.89,1513.91,880.07 M955.35,902.33
		c-5.35,4.5-9.83,10.28-11.87,17.04c-1.35,4.41-0.92,9.06-0.91,13.61c0.06,21.28-0.06,42.56,0.07,63.83
		c24.74-0.02,49.49-0.01,74.24,0c-0.41-23.62-0.98-47.23-1.44-70.85c-0.16-8.21-4.08-15.95-9.72-21.77
		c-7.09-7.28-16.31-12.1-25.81-15.46C971.1,891.98,962.54,896.23,955.35,902.33 M1146.4399,955.5
		c-0.08,12.15-0.1899,24.29-0.1899,36.44c0.1,1.93-1.0601,3.88-0.4,5.8c1.4501-1.64,0.79-3.85,1.01-5.78
		C1146.61,979.8,1146.85,967.64,1146.4399,955.5 M145.43,998.95c-1.84,13.79-4.07,27.52-5.93,41.3
		c557.79,0.01,1115.58,0.04,1673.36-0.01c-3.3199-13.8099-6.72-27.6-10.0699-41.4c-131.27-0.09-262.54-0.01-393.8-0.05
		c-3.15,0.03-5.78,2.36-8.97,2.04c-83.64-0.16-167.28,0.16-250.91-0.16c-3.42-2.86-8.0499-1.71-12.12-1.88
		c-257.99,0.02-515.98,0-773.97,0.01C290.49,998.9,217.96,998.59,145.43,998.95z"/>
	<path fill="#A4A5A9" d="M394.07,492.03c2.09-5.09,11.3-4.69,12.27,1.03c0.12,2.02-1.54,3.26-2.9,4.43
		c1.13,0.98,2.66,1.85,2.79,3.54c0.51,2.04-1.37,3.42-2.77,4.5c1.2,1.19,3.32,2.4,2.61,4.43c-1.46,3.98-0.58,8.19-0.42,12.3
		c6.05,0.37,12.23,3.14,15.55,8.4c5.54,8.32,5.88,18.81,5.23,28.46c3.95,0.78,8.52,0.07,11.89,2.69c-1.46,3.99-2.81,8.06-4.76,11.85
		c-2.73,2.1-6.44-0.29-9.56-0.29c0,15.44,0,30.88,0,46.32c3.99,0.48,8.03,0.75,11.98,1.52c1.3,0.08,2.11,1.5099,2.09,2.71
		c0.12,3.06,0.13,6.13-0.02,9.2c0.23,1.26-0.99,2.2-2.12,2.31c-3.19,0.26-6.4,0.06-9.6,0.1c0.96,36.2599,1.9,72.53,2.87,108.8
		c2.84,0.4,6.84-1.21,8.77,1.58c0.27,3.69,0.27,7.41,0,11.1c-1.52,2.75-5.25,1.31-7.78,1.63c0.04,0.25,0.13,0.75,0.18,0.99
		c-6.25-2-12.86-1.24-19.3-1.3c-10.36-0.03-20.72,0.04-31.07-0.12c-3.88-0.04-7.74,0.34-11.5,1.2599c-0.09,0-0.27,0.01-0.36,0.01
		c-2.48-1.71-7.77,0.77-8.01-3.48c0.15-3.71-1.3-8.39,1.26-11.45c3.21-0.47,6.47-0.16,9.71-0.21c1.22-36.27,2.44-72.54,3.65-108.81
		c-4.44-0.11-8.91,0.28-13.33-0.19c-1.63-1.29-1.4-3.57-1.46-5.4c0.04-2.55-0.17-5.14,0.38-7.64c0.74-1.26,2.32-1.17,3.56-1.45
		c3.63-0.55,7.28-0.94,10.93-1.37c0.01-15.46-0.04-30.91,0.02-46.36c-3.23,0.18-6.65,2-9.75,1.05c-2.33-3.27-3.48-7.43-4.72-11.24
		c-0.69-1.6,1.27-2.67,2.58-2.71c3.93-0.74,7.92-1.1,11.89-1.54c-1.36-8.42-1.41-17.51,2.51-25.29c3.05-5.91,9.13-9.71,15.58-10.85
		c0.47-4.55,0.78-9.12,1.25-13.66c0.09-1.6,1.77-2.18,2.79-3.09c-1.47-1.21-3.83-2.57-2.92-4.87c0.1-1.68,1.59-2.57,2.69-3.59
		C395.13,496.11,393.26,494.28,394.07,492.03 M397.24,491.18c-1.26,0.73-2,2.27-0.77,3.43c2.14,1.96,6.14,1.82,7.8-0.69
		C404.74,490.37,399.55,489.71,397.24,491.18 M395.23,500.97c1.43,3.72,7.05,4.6,9.18,1.09
		C403.84,497.49,397.69,498.48,395.23,500.97 M398.29,507.44c-1.28,0.25-2.17,1.27-2.59,2.46c1.2,3.59,7.36,3.71,8.73,0.2
		C404.08,507.31,400.51,506.74,398.29,507.44 M395.74,513.92c-0.3,3.44-0.65,6.87-1.04,10.31c-5.53,0.92-11.19,3.24-14.34,8.12
		c-5.39,8.08-4.86,18.4301-3.28,27.59c15.78-0.25,31.56-0.55,47.34-0.83c0.6-9.76,0.51-20.69-5.9-28.7
		c-3.49-4.5-9.24-6.08-14.68-6.28c-0.24-3.22-0.47-6.43-0.7-9.64C400.66,514.44,398.19,514.24,395.74,513.92 M376.84,572.83
		c0.08,15.66-0.23,31.33,0.16,46.99c2.25-1.12,1.62-3.77,1.75-5.8c-0.1-8.34,0.03-16.67-0.13-25c0.09-2.89-0.19-6.18,1.71-8.59
		c2.07-1.18,5.01-1.29,6.81,0.44c1.82,1.9,1.77,4.71,1.96,7.16c0.18,9.99-0.18,20,0.11,29.99c0.54,0.16,1.61,0.48,2.15,0.64
		c0.05-8.56-0.1-17.1299,0.03-25.69c0.06-4.54,1.54-9.4399,5.37-12.21c2.53-1.96,6.46-1.48,8.5,0.96c2.75,3.04,2.91,7.41,3.09,11.29
		c0.04,8.55-0.02,17.1-0.01,25.66c0.32,0,0.96,0,1.28,0.01c0.17-10.24,0.1-20.47,0-30.7c0.1-2.56,0-5.43,1.7-7.53
		c2.42-1.5,6.3-1.2,7.67,1.58c1.2,2.47,1.03,5.3199,1.16,8.0099c-0.07,9.76,0.05,19.52-0.11,29.28c0.49,0.03,1.47,0.1,1.96,0.14
		c0-15.47,0.01-30.94-0.01-46.4C407.03,571.09,391.81,570.73,376.84,572.83 M381.4,582.3c-0.88,2.1-0.73,4.45-0.77,6.69
		c0.14,9.99,0.07,19.97,0.05,29.96c2.1-0.16,4.2-0.29,6.31-0.42c0.27-8.85,0.04-17.7,0.15-26.54c-0.06-2.87,0.16-5.82-0.69-8.59
		C385.78,581.32,382.93,580.95,381.4,582.3 M397.57,582.58c-3.63,2.98-4.34,8.01-4.24,12.43c0.1,7.76-0.18,15.53,0.2,23.28
		c4.25-0.1,8.49-0.05,12.74,0.06c0.15-8.11,0.05-16.22,0.1-24.33c-0.13-3.71-0.05-7.87-2.49-10.92
		C402.38,581.2,399.36,581,397.57,582.58 M411.68,586.06c-0.07,10.83,0.16,21.66-0.05,32.49c2.12,0.21,4.25,0.4,6.39,0.61
		c0.17-10.4,0.1-20.79,0.07-31.19c-0.16-2.28,0.01-6.1299-3.08-6.41C412.22,580.9,411.59,584.01,411.68,586.06 M362.03,623.12
		c-0.06,3.49-0.04,6.97,0.05,10.46c24.63-0.07,49.26-0.07,73.88,0c0.16-3.48,0.2-6.95,0.16-10.43
		C411.58,619.56,386.54,619.13,362.03,623.12 M376.77,635.48c-1.26,36.26-2.42,72.53-3.68,108.79c18.03,0.1,36.06,0.05,54.09,0.03
		c-0.69-30.18-1.74-60.35-2.26-90.52c0.23-6.14,0.2-12.28-0.23-18.4C408.72,635.52,392.74,635.31,376.77,635.48 M362.05,746.31
		c-0.06,3.45-0.06,6.91,0,10.38c24.62-0.01,49.24-0.12,73.86,0.06c0.27-3.5,0.28-7.01,0-10.5
		C411.29,746.43,386.67,746.32,362.05,746.31z"/>
	<path fill="#A4A5A9" d="M1540.05,492.06c1.95-5.14,11.3199-4.71,12.21,0.98c0.2,2.05-1.49,3.29-2.85,4.45
		c1.08,1,2.6599,1.84,2.77,3.52c0.49,2.04-1.3101,3.41-2.7201,4.48c1.3101,1.15,2.23,2.61,2.9601,4.21
		c-2.3101,3.88-0.8101,8.4-0.86,12.61c6.37,0.26,12.85,3.41,16.0699,9.08c5.0699,8.23,5.36,18.33,4.72,27.71
		c3.97,0.78,8.52,0.15,11.9401,2.7c-1.53,3.96-2.87,8.02-4.76,11.83c-2.6801,2.21-6.49-0.3-9.5901-0.26
		c0.01,15.44-0.0099,30.88,0.01,46.32c3.99,0.48,8.03,0.75,12.01,1.52c1.3201,0.05,2.0701,1.52,2.05,2.73
		c0.13,3.05,0.11,6.11,0,9.16c0.22,1.26-1.02,2.28-2.16,2.34c-3.2,0.24-6.4,0.05-9.58,0.09c0.95,36.2599,1.9,72.53,2.86,108.8
		c2.98,0.14,6.35-0.69,8.96,1.24c-0.13,3.81,0.16,7.65-0.1699,11.47c-1.9801,2.87-6.27,1.26-9.29,1.75
		c-11.1801-1.04-22.4301-0.22-33.63-0.47c-8.84,0.29-17.84-1.02-26.53,1.15c-0.0699,0.02-0.21,0.05-0.28,0.0601
		c-2.6499-1.34-5.87-0.27-8.2899-2.11c0.0499-3.94,0.0499-7.88,0-11.82c3.24-2.29,7.4299-0.94,11.13-1.2599
		c1.23-36.27,2.4399-72.54,3.6599-108.81c-4.8899-0.46-10.1899,1.1-14.7699-1.05c0.0599-3.54-0.11-7.08,0.0699-10.61
		c-0.05-1.17,0.7-2.58,2-2.66c4.21-0.85,8.51-1.19,12.78-1.7401c-0.01-15.46-0.01-30.92,0-46.3799c-3.04,0.53-6.09,1.0699-9.09,1.73
		c-3.2001-3.66-4.0601-8.68-5.9701-13.04c4.41-2.9,10.0801-2.14,15.0901-3.11c-1.39-8.4-1.42-17.51,2.5-25.26
		c3.0499-5.92,9.11-9.74,15.59-10.85c0.4299-4.57,0.75-9.15,1.29-13.71c0.0599-1.49,1.61-2.15,2.5499-3.08
		c-1.3199-1.29-3.33-2.53-2.86-4.68c-0.0699-1.82,1.6901-2.67,2.98-3.52C1541.04,496.42,1539.26,494.31,1540.05,492.06
		 M1543.25,491.14c-1.6801,0.69-2,3.11-0.25,3.93c2.35,1.84,8.17,0.79,7.09-2.93C1548.34,490.31,1545.41,489.95,1543.25,491.14
		 M1543.38,499.42c-1.08,0.52-1.62,1.39-1.63,2.61c1.61,2.8,5.9,2.95,8.1,0.78C1551.63,499.22,1545.74,497.84,1543.38,499.42
		 M1544.26,507.41c-0.9401,0.3-1.72,0.82-2.33,1.58c-0.92,4.92,9.1799,4.87,8.2599-0.02
		C1548.74,507.29,1546.3199,506.77,1544.26,507.41 M1541.67,513.87c-0.29,3.44-0.65,6.89-1.02,10.33
		c-5.55,0.97-11.24,3.27-14.39,8.2c-5.33,8.0699-4.83,18.4-3.23,27.54c15.78-0.26,31.5499-0.54,47.33-0.84
		c0.5701-9.73,0.53-20.66-5.88-28.66c-3.48-4.5-9.24-6.14-14.7-6.28c-0.24-3.23-0.48-6.46-0.7001-9.68
		C1546.58,514.49,1544.11,514.26,1541.67,513.87 M1522.78,572.83c0.1,15.68-0.28,31.37,0.2,47.05c1.05-0.69,1.59-1.64,1.63-2.83
		c0.3201-11.01-0.39-22.06,0.23-33.05c-0.1699-4.31,5.52-5.86,8.3101-3.12c1.9,2.24,1.77,5.38,1.91,8.15
		c-0.0901,9.78-0.0601,19.56-0.0701,29.34c0.59-0.01,1.76-0.04,2.34-0.05c-0.0699-7.44-0.0199-14.88-0.0699-22.32
		c-0.05-4.6,0.29-9.66,3.41-13.33c1.83-2.49,5.2799-3.99,8.26-2.62c3.74,1.75,4.86,6.25,5.1899,10.02
		c0.55,9.74-0.24,19.52,0.39,29.26c1.34-1.81,1.13-4.18,1.1899-6.3c-0.13-7.69,0.03-15.38-0.1399-23.07
		c0.0199-2.82-0.16-5.78,1-8.41c1.1-2.26,4.2999-2.4,6.37-1.5c2.5299,1.18,2.88,4.37,3.0499,6.84c0.29,10.67-0.38,21.38,0.23,32.03
		c0.42,0.23,1.25,0.69,1.67,0.92c0.13-15.59,0.02-31.19,0.05-46.78C1552.97,571.08,1537.74,570.73,1522.78,572.83 M1526.83,584.02
		c-0.5499,11.61,0.0601,23.28-0.22,34.91c2.08-0.14,4.1901-0.27,6.3101-0.39c0.1899-9.52-0.02-19.04,0.1499-28.56
		c-0.13-2.35,0.13-4.87-0.9199-7.04C1531.01,580.62,1526.67,581.14,1526.83,584.02 M1543.51,582.58c-3.64,2.98-4.34,8.01-4.24,12.43
		c0.11,7.76-0.2001,15.53,0.22,23.29c4.23-0.11,8.47-0.06,12.72,0.05c0.16-8.13,0.04-16.2599,0.1001-24.39
		c-0.14-3.67-0.0801-7.76-2.4401-10.8C1548.38,581.21,1545.3101,580.98,1543.51,582.58 M1557.84,584.01
		c-0.6,11.49,0.11,23.05-0.2799,34.57c2.12,0.18,4.25,0.35,6.3999,0.53c0.1001-9.72-0.0399-19.44,0.11-29.15
		c-0.12-2.33,0.1101-4.82-0.8999-6.98C1562.11,580.59,1557.65,581.15,1557.84,584.01 M1507.96,623.14
		c-0.0599,3.48-0.0399,6.96,0.11,10.45c24.6101-0.06,49.2201-0.13,73.8301,0.03c0.16-3.49,0.2-6.98,0.15-10.46
		C1557.52,619.56,1532.47,619.11,1507.96,623.14 M1522.27,635.37c0.11,1.27,0.24,2.56,0.39,3.84c-1.4,35.02-2.38,70.07-3.62,105.1
		c18.0299,0.02,36.0499,0.03,54.08-0.01c-0.6899-30.17-1.76-60.33-2.24-90.51c0.3199-6.11,0.1899-12.24-0.33-18.33
		C1554.45,635.35,1538.36,635.49,1522.27,635.37 M1508.02,746.31c-0.11,3.45-0.11,6.92,0,10.38c24.63-0.02,49.26-0.11,73.89,0.04
		c0.1599-3.47,0.1799-6.95,0.08-10.42C1557.33,746.35,1532.6801,746.36,1508.02,746.31z"/>
	<path fill="#F4F3F3" d="M970.34,185.01c0.25-4.58,3.3-8.24,5.93-11.75c3.23,2.75,6.83,6.16,6.73,10.76
		c0.16,3.19-2.54,5.33-3.66,8.06c-0.45,6.18-0.03,12.39-0.14,18.59c3.56,2.54,7.69,5.56,8.08,10.31
		c0.41,4.78-3.27,8.36-6.3701,11.44c2.33,3.46,5.61,7.67,3.61,12.03c-2.42,4.58-8.09,4.97-12.63,5.44
		c-2.64-2.29-5.72-5.02-5.44-8.87c0.21-3.75,3.38-6.17,5.95-8.46c-3.42-2.58-7.39-5.8-7.16-10.55c0.31-5.2,4.54-8.78,8.15-11.98
		c0.01-6.03,0.08-12.06-0.03-18.09C971.92,189.87,970.06,187.71,970.34,185.01z"/>
	<path fill="#E7E7E7" d="M965.15,259.22c1.31-2.52,2.03-5.43,3.95-7.6c5.15-0.14,11.64-0.3,15.14,4.19
		c16.44,20.95,36.84,38.93,60.12,51.92c6.4501,3.67,14.12,6.02,18.85,12.05c1.8,1.8-0.0299,5.3-2.48,4.67
		c-30.7999-8.21-63.01-8.77-94.68-7.67c-24.88,1.14-49.75,3.36-74.35,7.34c-0.67-1.03-1.33-2.06-1.89-3.14
		c-0.01-2.16,1.93-3.57,3.54-4.66c5.07-3.52,11.65-3.1,16.95-6.15c13.48-7.14,24.84-17.59,35.81-28.05
		C953.04,275.03,960.93,268.41,965.15,259.22z"/>
	<path fill="#E7E7E7" d="M958.94,319.13c19.86-1.02,39.81-1.23,59.64,0.42c8.45,0.64,16.7599,2.44,24.83,5
		c7.6599,2.21,14.01,7.25,20.64,11.48c29.85,20.54,56.5199,46.54,74.7999,78.02c14.7101,25.19,22.99,54.29,22.37,83.54
		c-22.83-7.28-46.64-10.75-70.4-13.32c-40.8099-4.1-81.89-4.81-122.8699-4.16c-17.63-0.21-35.27-0.14-52.88,0.76
		c-41.19,2.22-82.8,6.6-122.03,20.01c-1.31-34.42,9.59-68.71,28.72-97.18c18.81-28.32,44.6-51.37,72.62-70.32
		c3.47-2.28,6.78-5.09,10.95-5.99C922.96,323.35,940.85,320.12,958.94,319.13z"/>
	<path fill="#E7E7E7" d="M205.77,325.12c3.2,1.17,6.6,1.51,9.97,1c0.29,4.74,0.62,9.48,0.94,14.22c8.1-0.27,16.47,2.98,21.15,9.81
		c7.62,10.88,7.69,24.94,6.92,37.68c-21.5,0.4-43.01,0.84-64.52,1.11c-2.11-12.2-2.84-25.84,3.95-36.78
		c4.28-7.04,12.23-10.74,20.14-11.88C204.82,335.23,205.29,330.17,205.77,325.12z"/>
	<path fill="#E7E7E7" d="M1735.71,325.13c3.1901,1.14,6.5801,1.5,9.9701,1c0.2799,4.74,0.6,9.47,0.9399,14.2
		c8.11-0.26,16.49,2.99,21.1801,9.85c7.59,10.88,7.63,24.9,6.9099,37.63c-21.51,0.46-43.02,0.82-64.5299,1.15
		c-2.17-12.22-2.8401-25.9,3.97-36.85c4.28-7.04,12.24-10.66,20.12-11.87C1734.75,335.21,1735.22,330.17,1735.71,325.13z"/>
	<path fill="#E7E7E7" d="M179.91,405.82c20.38-2.91,41.12-2.35,61.5,0.28c0.21,21.5-0.09,42.99,0.15,64.49
		c-1.16,0.05-2.31,0.11-3.46,0.18c0.04-14.24-0.01-28.47,0.06-42.7c-0.14-3.15-0.05-6.59-1.91-9.3c-2.17-3.06-7.36-3.18-9.58-0.14
		c-1.39,2.53-1.31,5.52-1.37,8.33c0.22,14.13,0.08,28.26,0.11,42.39c-1.09,0.1-2.19,0.21-3.28,0.33
		c-0.05-11.9,0.02-23.79-0.01-35.68c-0.1-5.01-0.6-10.39-3.61-14.57c-2.87-3.64-8.67-3.94-12.09-0.89
		c-4.43,4.18-6.07,10.53-6.01,16.46c0.04,11.41-0.09,22.83,0.1,34.24c-1.57,0.04-3.13,0.09-4.69,0.14
		c0.14-13.45-0.02-26.9,0.09-40.35c-0.06-3.43,0.03-7.13-1.83-10.15c-2.23-3.57-9.17-3.39-10.28,1.02
		c-1.2,4.26-0.61,8.75-0.66,13.12c0.04,12.38,0.09,24.77-0.04,37.16c-1.01,0.17-2.02,0.35-3.03,0.54
		C179.64,449.09,179.96,427.45,179.91,405.82z"/>
	<path fill="#E7E7E7" d="M1709.87,405.8c20.38-2.88,41.11-2.34,61.49,0.3c0.0601,21.6,0.14,43.2-0.04,64.79
		c-0.8099-0.06-2.4399-0.19-3.25-0.26c-0.0299-14.2-0.0199-28.4,0.03-42.6c-0.15-3.34-0.0399-7.13-2.36-9.81
		c-2.63-2.85-8.95-2.48-9.76,1.85c-0.77,2.23-0.73,4.63-0.75,6.97c0.24,14.08,0.0701,28.18,0.13,42.27
		c-1.09,0.13-2.17,0.26-3.22,0.4c-0.23-12.24,0.03-24.48-0.11-36.71c-0.1901-4.87-0.78-10.18-4.03-14.05
		c-3.12-3.4-8.9-3.24-12.0601-0.01c-4.12,4.22-5.6699,10.3-5.59,16.06c0.03,11.41-0.08,22.83,0.09,34.24
		c-1.58,0.04-3.1399,0.08-4.6799,0.14c0.16-13.46,0-26.92,0.1-40.37c-0.09-3.39,0.01-7.02-1.76-10.03
		c-1.89-3.06-6.64-3.38-9.23-1.12c-1.87,2.26-1.76,5.39-1.87,8.16c0.17,14.75,0.1899,29.51,0.04,44.26
		c-0.8,0.07-2.4,0.19-3.2101,0.25C1709.85,448.95,1709.77,427.38,1709.87,405.8z"/>
	<path fill="#E7E7E7" d="M159.68,475.1c25.24-3.88,50.93-5.17,76.38-2.72c8.21,0.66,16.39,1.71,24.57,2.68
		c0.12,4.73,0.11,9.46,0.04,14.2c-33.67-0.01-67.34,0.03-101-0.02C159.63,484.53,159.63,479.81,159.68,475.1z"/>
	<path fill="#E7E7E7" d="M1689.63,475.09c19.88-2.92,40-4.65,60.11-3.75c13.67,0.56,27.29,1.99,40.86,3.74
		c0.0701,4.73,0.0601,9.45,0.01,14.18c-33.67,0-67.33,0.02-101-0.01C1689.55,484.53,1689.55,479.81,1689.63,475.09z"/>
	<path fill="#E7E7E7" d="M738.35,482.94c2.89-0.07,5.78-0.09,8.6801-0.11c11.4,10.69,22.5,21.75,34.7599,31.47
		c6.85,5.48,12.72,12.85,14.55,21.6c1.17,5.08,3.19,9.9,4.93,14.8c2.1,7.41,1.89,15.2,2.32,22.83c-43.2,0.65-86.4,1.23-129.59,1.73
		c-1.19-23.78,8.03-48.3,26.22-63.99C711.82,500.32,729.04,496.47,738.35,482.94z"/>
	<path fill="#E7E7E7" d="M1204.51,484.54c2.6799-2.85,7.04-1.36,10.51-1.65c9.26,13.5,26.39,17.37,37.98,28.21
		c18.3101,15.69,27.61,40.31,26.41,64.16c-42.92-0.57-85.85-0.93-128.76-1.82c-0.26-17.59,2.61-36.1,13.01-50.74
		c3.99-5.99,10.1699-9.88,15.45-14.59C1187.8101,500.51,1196.1801,492.54,1204.51,484.54z"/>
	<path fill="#E7E7E7" d="M180.23,491.79c20.89,11.06,41.65,22.38,62.52,33.48c2.1,0.78,2.58,2.99,2.95,4.96
		c0.78,36.9,1.95,73.8,2.81,110.71c-24.57-0.04-49.14,0-73.71-0.02c1.56-46.55,3.05-93.09,4.73-139.63
		C179.76,498.12,180.01,494.95,180.23,491.79z"/>
	<path fill="#E7E7E7" d="M1710.26,491.84c18.9399,9.99,37.72,20.28,56.65,30.32c2.6899,1.4901,5.6899,2.65,7.9399,4.85
		c0.7001,3.36,0.66,6.83,0.86,10.26c0.9701,34.55,1.87,69.11,2.73,103.67c-24.5599-0.04-49.1299,0-73.6899-0.02
		c1.55-47.17,3.1-94.33,4.76-141.49C1709.72,496.89,1709.99,494.37,1710.26,491.84z"/>
	<path fill="#E7E7E7" d="M963.94,497.26c32.68-1.69,65.47-1.97,98.15,0.03c33.0801,2.26,66.5901,5.99,97.8401,17.7
		c-0.8601,5.51-1.28,11.2-3.5901,16.36c-1.49,3.41-2.7999,6.9-3.89,10.46c-19.22-4.2-38.84-6.03-58.4199-7.58
		c-29.28-2.15-58.64-2.92-88-3.21c-30.85-0.13-61.71-0.34-92.55,0.78c-37.91,1.4-75.9,3.76-113.29,10.42
		c-2.63-8.48-4.76-17.14-5.82-25.97c34.03-12.68,70.51-16.9,106.57-18.87C921.92,496.3,942.94,496.61,963.94,497.26z"/>
	<path fill="#E7E7E7" d="M395.74,513.92c2.45,0.32,4.92,0.52,7.4,0.57c0.23,3.21,0.46,6.42,0.7,9.64c5.44,0.2,11.19,1.78,14.68,6.28
		c6.41,8.01,6.5,18.94,5.9,28.7c-15.78,0.28-31.56,0.58-47.34,0.83c-1.58-9.16-2.11-19.51,3.28-27.59c3.15-4.88,8.81-7.2,14.34-8.12
		C395.09,520.79,395.44,517.36,395.74,513.92z"/>
	<path fill="#E7E7E7" d="M1541.67,513.87c2.4399,0.39,4.9099,0.62,7.4099,0.61c0.2201,3.22,0.4601,6.45,0.7001,9.68
		c5.46,0.14,11.22,1.78,14.7,6.28c6.41,8,6.4501,18.93,5.88,28.66c-15.78,0.3-31.5499,0.58-47.33,0.84
		c-1.6-9.14-2.1-19.47,3.23-27.54c3.15-4.9301,8.84-7.23,14.39-8.2C1541.02,520.76,1541.38,517.31,1541.67,513.87z"/>
	<path fill="#E7E7E7" d="M1379.53,542c0.2-4.57,4.49-7.72,8.62-8.67c1.84,0.2,3.03,2.12,3.9,3.63
		c2.37,5.03,1.1599,10.72,1.0499,16.05c-0.37,12.31-0.6899,24.61-0.98,36.91c0.09,2.42-1,4.6-2.11,6.67
		c4.35-1.48,9.13-5.07,13.74-2.36c2.25,1.41,5.5,3.75,4.33,6.82c-1.87,7.5-2.1599,15.24-2.6599,22.91
		c-0.64,11.79-0.86,23.6-0.9301,35.41c-8.15-0.81-16.28-1.75-24.42-2.58c0.4-5.91,0.54-11.85,0.25-17.77
		c0.03-2.96-2.3099-5.73-5.2699-6.02c-3.4601-0.58-6.9501,2.4-6.8401,5.91c-0.2899,5.54-0.0399,11.09,0.02,16.64
		c-2.63-0.32-5.24-0.65-7.85-1c-0.73-15.54-1.73-31.06-2.5601-46.59c-0.71-10.31-0.85-20.66-2.12-30.92
		c-0.73-4.91,3.5701-9.28,8.2301-9.9c1.72,0.14,3.08,1.5,3.6499,3.09c1.26,3.43,0.8101,7.17,0.39,10.72
		c-0.87,6.28-1.53,12.59-2.09,18.92c5.55-0.61,11.13-1.06,16.66-1.91c-0.51-15.34-0.79-30.68-1.15-46.02
		C1381.36,548.52,1379.6899,545.38,1379.53,542z"/>
	<path fill="#E7E7E7" d="M562.83,534.81c2.77-3.38,7.31,0.45,9.47,2.85c3.55,4.32-0.27,9.52-0.27,14.27
		c-0.32,15.38-0.76,30.77-1.07,46.16c5.56,0.6,11.11,1.33,16.7,1.64c-0.8199-6.34-1.34-12.71-2.2599-19.03
		c-0.39-3.55-0.86-7.33,0.53-10.72c0.68-1.86,2.76-3.36,4.77-2.62c3.44,1.07,6.62,3.95,7.01,7.69c-2.07,26.5-3.06,53.12-4.81,79.66
		c-2.58,0.25-5.16,0.52-7.73,0.8c0.07-5.5,0.33-11.01,0.04-16.51c0.07-2.91-2.28-5.6-5.15-5.97c-3.48-0.66-7.07,2.34-6.96,5.89
		c-0.25,5.96-0.3199,11.96,0.4301,17.89c-8.22,0.76-16.41,1.76-24.6201,2.57c-0.06-12.5-0.31-24.99-1.04-37.47
		c-0.52-7.74-0.91-15.56-3.06-23.06c2.09-2.59,4.58-5.46,8.18-5.62c3.68-0.07,6.89,2.11,10.24,3.37
		c-2.76-4.74-1.85-10.33-2.14-15.55c-0.41-11.67-0.44-23.36-1.14-35.02C559.78,542.15,560.1,537.83,562.83,534.81z"/>
	<path fill="#E7E7E7" d="M912.98,543.19c28-1.25,56.03-0.61,84.04-0.92c27.34,0.03,54.6899,0.63,82,2.1
		c23.76,1.34,47.54,3.18,71.04,7.02c-0.75,6.2-1.3601,12.44-1.3701,18.7C1034.42,570.33,920.15,570.16,805.88,570.18
		c-0.41-5.39-1-10.75-1.51-16.12C840.26,547.85,876.6,544.6,912.98,543.19z"/>
	<path fill="#E7E7E7" d="M376.84,572.83c14.97-2.1,30.19-1.74,45.15,0.23c0.02,15.46,0.01,30.93,0.01,46.4
		c-0.49-0.04-1.47-0.11-1.96-0.14c0.16-9.76,0.04-19.52,0.11-29.28c-0.13-2.69,0.04-5.54-1.16-8.0099
		c-1.37-2.78-5.25-3.08-7.67-1.58c-1.7,2.1-1.6,4.97-1.7,7.53c0.1,10.23,0.17,20.46,0,30.7c-0.32-0.01-0.96-0.01-1.28-0.01
		c-0.01-8.56,0.05-17.11,0.01-25.66c-0.18-3.88-0.34-8.25-3.09-11.29c-2.04-2.4399-5.97-2.92-8.5-0.96
		c-3.83,2.77-5.31,7.67-5.37,12.21c-0.13,8.5601,0.02,17.13-0.03,25.69c-0.54-0.16-1.61-0.48-2.15-0.64
		c-0.29-9.99,0.07-20-0.11-29.99c-0.19-2.45-0.14-5.26-1.96-7.16c-1.8-1.73-4.74-1.62-6.81-0.44c-1.9,2.41-1.62,5.7-1.71,8.59
		c0.16,8.33,0.03,16.66,0.13,25c-0.13,2.03,0.5,4.68-1.75,5.8C376.61,604.16,376.92,588.49,376.84,572.83z"/>
	<path fill="#E7E7E7" d="M1522.78,572.83c14.96-2.1,30.1899-1.75,45.15,0.23c-0.03,15.59,0.08,31.19-0.05,46.78
		c-0.42-0.23-1.25-0.69-1.67-0.92c-0.61-10.65,0.0601-21.36-0.23-32.03c-0.1699-2.47-0.52-5.66-3.0499-6.84
		c-2.0701-0.9-5.27-0.76-6.37,1.5c-1.16,2.63-0.9801,5.59-1,8.41c0.1699,7.69,0.0099,15.38,0.1399,23.07
		c-0.0599,2.12,0.15,4.49-1.1899,6.3c-0.63-9.74,0.16-19.52-0.39-29.26c-0.33-3.77-1.45-8.27-5.1899-10.02
		c-2.9801-1.37-6.4301,0.13-8.26,2.62c-3.12,3.67-3.4601,8.73-3.41,13.33c0.05,7.44,0,14.88,0.0699,22.32
		c-0.58,0.01-1.75,0.04-2.34,0.05c0.01-9.78-0.02-19.56,0.0701-29.34c-0.14-2.77-0.01-5.91-1.91-8.15
		c-2.79-2.74-8.48-1.19-8.3101,3.12c-0.62,10.99,0.0901,22.04-0.23,33.05c-0.04,1.19-0.58,2.14-1.63,2.83
		C1522.5,604.2,1522.88,588.51,1522.78,572.83z"/>
	<path fill="#E7E7E7" d="M676.07,587.99c25.11-3.78,50.54-6.25,75.96-5.21c17.64,0.74,35.27,2.39,52.71,5.23
		c0.3,20.42,0.06,40.83,0.13,61.25c-3.48,0.05-6.95,0.08-10.42,0.08c1.25-11.01,1.69-22.9301-3.73-32.98
		c-1.62-2.81-3.83-5.38-6.67-6.99c-4.01,0.36-6.39,4.42-7.99,7.72c-4.17,10.23-4.42,21.49-4.44,32.39
		c-4.07-0.02-8.13-0.02-12.18-0.01c0.39-10.03,1.53-20.79-2.84-30.15c-2.5-4.51-5.69-8.88-10.09-11.68
		c-1.7-1.06-3.58,0.05-5.06,0.93c-7.88,4.8-14.39,12.33-16.7,21.39c-1.98,6.42-1.53,13.2-0.72,19.77
		c-5.05-0.09-10.1-0.08-15.14-0.06c2.71-12.49,1.54-25.65-3-37.55c-0.43-1.18-1.44-2.41-2.82-2.25c-5.23,0.26-9.01,4.81-10.78,9.36
		c-3.67,9.73-3.53,20.33-3.23,30.57c-4.33-0.01-8.66,0-12.99,0.05C676.05,629.23,676.06,608.61,676.07,587.99z"/>
	<path fill="#E7E7E7" d="M1150.47,590.14c18.66-3.22,37.5901-4.8,56.51-5.45c24.24-0.63,48.46,1.67,72.41,5.31
		c0.04,19.96,0.0499,39.92-0.01,59.88c-5.04-0.07-10.0699-0.09-15.09-0.09c0.4099-10.78,0.5599-22.1-3.87-32.16
		c-1.9401-4.47-6.9401-8.98-12.0601-7.27c-5.3099,12.23-6.85,26.3-3.65,39.31c-5.1799-0.01-10.34-0.01-15.51,0
		c1.3401-7.23,1.3-14.81-1.1799-21.79c-2.9501-8.97-9.88-16.38-18.3301-20.45c-2-1.13-3.83,0.83-5.2999,1.96
		c-4.88,4.68-9.04,10.64-10,17.48c-1.17,7.47-0.92,15.06-0.42,22.58c-4.0599,0.03-8.12,0-12.1699-0.08
		c-0.04-10.75-0.27-21.87-4.3401-31.99c-1.4399-3.12-3.36-6.63-6.72-7.9c-3.5599-0.19-5.66,3.36-7.4299,5.91
		c-6.0801,10.15-5.66,22.58-4.3301,33.92c-2.8199-0.02-5.63-0.03-8.4199-0.03C1150.4399,629.57,1150.61,609.85,1150.47,590.14z"/>
	<path fill="#E7E7E7" d="M807.29,600.47c113.7401,0.02,227.48-0.0099,341.23,0.02c0,14.51,0.03,29.03-0.05,43.56
		c0.04,11.35-2.12,22.62-1.4099,33.99c-0.1001,50.35,0.2699,100.7-0.5701,151.04c-0.74,55.39-1.4,110.78-2.17,166.16
		c-20.5099,0.16-41.0099,0.29-61.5199,0.26c-1.39-65.18-2.6901-130.36-4.0901-195.54c-0.75-19.04-8.6899-37.38-20.71-52.02
		c-18.6899-22.56-44.86-37.72-72.06-47.75c-2.9-0.94-6.05-2.69-9.07-1.21c-18.76,7.06-37.02,15.8-53.46,27.35
		c-12.78,8.98-24.47,19.78-33.31,32.71c-7.15,10.43-12.15,22.41-13.92,34.96c-0.97,6.31-0.18,12.68-0.23,19.03
		c-0.03,8.64-0.02,17.3,0.02,25.95c0.17,4.03-2.1,7.91-0.93,11.93c0.8,3.29,1.06,6.6801,0.94,10.07
		c-0.15,45.16,0.1,90.32-0.13,135.48c-23.42-0.1-46.84,0.41-70.25,0.07c1.17-57.51,1.86-115.02,2.4301-172.54
		C808.6,749.49,809.18,674.96,807.29,600.47 M828.9,622.86c-1.37,7.97-0.4901,16.12-0.54,24.17
		c0.13,97.3199,0.02,194.65,0.06,291.97c0.23,10.37-0.52,20.77,0.44,31.11c5.98,1.09,12.08,0.48,18.13,0.64
		c1.93-0.13,4.9,0.28,5.6-2.14c0.59-3.48,0.22-7.04,0.29-10.55c0-103.72-0.02-207.44,0.01-311.17
		c83.56,0.07,167.12-0.22,250.6799,0.15c-0.11,97.64-0.0199,195.28-0.0499,292.92c0.21,10.03-0.47,20.09,0.41,30.1
		c7.7,0.67,15.48,0.66,23.1799,0c0.86-9,0.21-18.06,0.41-27.08c0-96.66,0-193.31,0-289.97c-0.24-9.98,0.52-20.01-0.4401-29.96
		c-4.36-0.41-8.73-0.5-13.09-0.44c-25.65,0.49-51.3099,0.15-76.96,0.25c-60.35,0-120.71,0-181.0601,0
		C846.95,622.52,837.9,622.03,828.9,622.86 M870.78,665.76c-1.11,3.27-0.59,6.8-0.6801,10.2c0.05,30.0099-0.02,60.02,0.03,90.03
		c0.32,2.17-0.06,6.02,2.91,6.25c1.43-2.42,2.38-5.09,3.56-7.63c3.1-6.85,7.42-13.08,12.2401-18.82
		c12.6-14.72,28.55-26.2,45.44-35.52c14.6-7.9,29.8799-14.77,45.73-19.68c8.77,1.94,17.12,5.53,25.39,8.99
		c19.0499,8.36,37.1,19.39,52.22,33.76c11.28,10.98,20.78,23.95,26.74,38.58c1.1801,0,2.38,0.01,3.59,0.03
		c0.3101-33.63-0.1899-67.27-0.21-100.9c-0.3099-1.8,0.52-4.32-1.3099-5.46c-3.4-0.94-7-0.45-10.4701-0.54
		c-64.65,0.03-129.3,0.02-193.96,0.01C878.26,665.16,874.38,664.57,870.78,665.76z"/>
	<path fill="#E7E7E7" d="M362.03,623.12c24.51-3.99,49.55-3.56,74.09,0.03c0.04,3.48,0,6.95-0.16,10.43
		c-24.62-0.07-49.25-0.07-73.88,0C361.99,630.09,361.97,626.61,362.03,623.12z"/>
	<path fill="#E7E7E7" d="M1507.96,623.14c24.51-4.03,49.5601-3.58,74.0901,0.02c0.0499,3.48,0.01,6.97-0.15,10.46
		c-24.61-0.16-49.22-0.09-73.8301-0.03C1507.92,630.1,1507.9,626.62,1507.96,623.14z"/>
	<path fill="#E7E7E7" d="M376.77,635.48c16.09,6,32.12,12.15,48.15,18.3c0.52,30.17,1.57,60.34,2.26,90.52
		c-18.03,0.02-36.06,0.07-54.09-0.03C374.35,708.01,375.51,671.74,376.77,635.48z"/>
	<path fill="#E7E7E7" d="M1523.04,635.73c16.0599,5.69,31.9099,12,47.84,18.06c0.48,30.18,1.55,60.34,2.24,90.51
		c-18.03,0.04-36.05,0.03-54.08,0.01c1.24-35.03,2.22-70.08,3.62-105.1C1522.76,638.34,1522.9399,636.6,1523.04,635.73z"/>
	<path fill="#E7E7E7" d="M159.67,642.95c33.67-0.02,67.34-0.02,101.01-0.01c0.05,4.73,0.05,9.46,0,14.19
		c-33.67,0.01-67.34,0.02-101.01,0C159.63,652.4,159.63,647.67,159.67,642.95z"/>
	<path fill="#E7E7E7" d="M1689.61,642.95c33.67-0.02,67.33-0.01,101-0.01c0.05,4.73,0.05,9.46,0,14.2
		c-33.67-0.01-67.34,0.02-101-0.02C1689.5601,652.4,1689.5601,647.67,1689.61,642.95z"/>
	<path fill="#E7E7E7" d="M658.72,651.96c49.15-0.35,98.3-0.38,147.45-0.71c0.24,6.71,0.13,13.44,0.3,20.16
		c-9.34,0.35-18.68,0.08-28.0099,0.33c-29.8-0.45-59.62-0.69-89.42,0.19c-9.95,0.27-19.92-0.25-29.86,0.28
		C658.19,665.5,658.91,658.7,658.72,651.96z"/>
	<path fill="#E7E7E7" d="M1150.3199,651.26c48.14,0.34,96.28,0.26,144.42,0.78c-0.05,6.69-0.05,13.37-0.01,20.05
		c-48.6799-0.1201-97.37-0.21-146.0499-0.71C1149.29,664.67,1149.75,657.96,1150.3199,651.26z"/>
	<path fill="#E7E7E7" d="M647.95,651.73c2.93-0.01,5.86,0.02,8.8,0.12c-0.07,6.75-0.05,13.5-0.02,20.25
		c-2.93,0.07-5.86,0.11-8.78,0.11C647.93,665.38,647.92,658.55,647.95,651.73z"/>
	<path fill="#E7E7E7" d="M1296.72,651.75c2.8401,0.14,5.9601-0.56,8.65,0.48c0.29,6.66,0.1,13.34-0.01,20.01
		c-2.89-0.03-5.77-0.05-8.64-0.06C1296.6899,665.37,1296.6899,658.56,1296.72,651.75z"/>
	<path fill="#E7E7E7" d="M1307.47,652.34c22.86,2.44,45.75,4.6,68.5701,7.31c9.48,0.69,18.9399,1.78,28.39,2.89
		c-0.6901,6.67-1.2201,13.35-1.92,20.02c-31.7-3.28-63.39-6.63-95.09-9.9C1307.51,665.89,1307.46,659.11,1307.47,652.34z"/>
	<path fill="#E7E7E7" d="M549.06,662.41c32.32-3.1299,64.58-6.87,96.9-10.02c-0.05,6.75,0,13.52-0.04,20.28
		c-8.2,0.8-16.38,1.74-24.58,2.53c-23.55,2.06-47.04,4.82-70.56,7.21C550.33,675.73,549.5,669.09,549.06,662.41z"/>
	<path fill="#E7E7E7" d="M174.21,660.22c10.09,4.83,20.38,9.27,30.54,13.98c15.09,6.67,29.89,14.04,45.17,20.28
		c1.02,37.42,2.02,74.84,2.95,112.26c-27.89-0.06-55.78,0.04-83.67-0.05C170.93,757.87,172.39,709.03,174.21,660.22z"/>
	<path fill="#E7E7E7" d="M1704.15,660.19c25.1899,11.74,50.58,23.05,75.8199,34.68c0.79,37.29,1.9501,74.57,2.86,111.85
		c-27.8999-0.0099-55.7899,0.02-83.6699-0.0099C1700.84,757.87,1702.33,709.02,1704.15,660.19z"/>
	<path fill="#E7E7E7" d="M1149.0699,673.63c1.79,0.09,3.5901,0.19,5.39,0.3c7.77,1.66,15.7101,2.19,23.5901,3.12
		c75.0299,7.99,150.36,12.64,225.62,17.83c0.08,101.3,0.0299,202.6,0.0199,303.9c-6.34,0.03-12.6799-0.02-19.0099,0.1
		c1.1-9.93,0.1499-19.92,0.2899-29.88c-0.1599-16.68-0.38-33.36-0.5-50.03c-0.03-7.65-1.6699-15.3799-5.4099-22.09
		c-4.4901-8.24-12.15-14.49-20.76-18.02c-2.2101-0.81-4.74-1.96-6.9701-0.6c-7.2999,3.59-13.7899,8.84-18.89,15.18
		c-4.59,5.84-8.1699,12.94-8.0499,20.53c-0.15,21.9901-0.4401,43.97-0.61,65.96c0,6.33-0.64,12.72,0.5699,19
		c-17.6-0.23-35.21-0.17-52.8099-0.04c0.8099-6.96,0.27-13.97,0.23-20.94c-0.26-17-0.5601-33.98-0.8101-50.97
		c-0.02-7.64,0.1801-15.61-3.27-22.65c-6.34-13.95-20.1699-22.6-33.96-27.98c-3.91-1.33-8.1699-3.71-12.3099-1.9
		c-11.1801,4.08-22.1001,9.84-30.1801,18.76c-5.1799,5.67-9.67,12.78-9.61,20.72c-0.25,22.03-0.65,44.05-0.95,66.07
		c-0.01,6.3-0.76,12.67,0.5399,18.91c-10.72-0.24-21.4299-0.05-32.14-0.11C1149.05,890.41,1149.0601,782.02,1149.0699,673.63
		 M1222.34,716.5c-12.85,4.28-25.22,11.29-33.72,22.04c-3.84,5.02-7.13,10.96-6.98,17.47c-0.22,28.42-1.11,56.83-1.04,85.24
		c3.1,0.57,6.25,0.83,9.42,0.79c27.29,0.12,54.58,1.18,81.86,0.88c0.16-22.63-0.63-45.25-0.84-67.88
		c-0.42-9.58,0.97-19.71-3.4301-28.63c-6.63-14.0099-20.66-22.74-34.7-28.06C1229.51,717.31,1225.9399,715.18,1222.34,716.5
		 M1351.3,722.37c-16.79,5.97-28.5,23.83-27.54,41.58c0.02,16.69-0.05,33.38-0.1,50.07c0.2,10.31-0.5,20.64,0.3199,30.92
		c14.3201,0.75,28.6901,0.14,43.04,0.34c5.88-0.2401,11.86,0.58,17.6899-0.51c1.03-4.52,0.3101-9.19,0.42-13.77
		c-0.2-20.66-0.45-41.32-0.63-61.98c0.1-6.15-0.3-12.38-2.1899-18.27c-3.5901-12.22-13.0801-22.24-24.5901-27.44
		C1355.72,722.47,1353.4301,721.37,1351.3,722.37z"/>
	<path fill="#E7E7E7" d="M549.77,684.39c1.52-0.07,3.04-0.16,4.58-0.21c17.2-0.85,34.4301-0.11,51.65-0.1
		c66.84,0.59,133.67,1.14,200.51,1.79c0.34,103.65-1.1,207.29-2.83,310.92c-10.22,0.03-20.44-0.0099-30.66,0.02
		c-0.48-27.96-0.87-55.91-1.27-83.87c-0.12-7.25-4.36-13.59-8.82-18.98c-7.54-8.59-17.74-14.38-28.28-18.51
		c-2.72-1-5.69-2.53-8.6-1.28c-12.14,3.8-24.02,9.68-32.81,19.06c-6.57,6.85-10.72,16.16-10.68,25.72
		c-0.33,25.93-0.87,51.86-1.19,77.8c-17.18,0.12-34.36,0.02-51.54,0.05c-0.31-27.61-0.59-55.23-0.81-82.84
		c0.16-8.92-4.77-16.97-10.46-23.45c-4.01-4.4-8.89-7.91-13.96-10.97c-2.0099-1.07-4.28-2.69-6.63-1.64
		c-8.96,2.92-17.21,8.68-22.28,16.73c-4.45,6.91-6.62,15.16-6.72,23.35c-0.28,26.27-0.5099,52.55-0.85,78.82
		c-6.12,0-12.25,0-18.37,0C549.68,892.67,549.66,788.53,549.77,684.39 M726.37,716.39c-12.62,3.85-25.01,10.02-33.92,19.98
		c-6.11,6.65-9.85,15.53-9.89,24.61c-0.3,26.33-0.91,52.66-1.14,78.98c-0.37,2.11,1.51,3.56,3.51,3.18
		c28.38-0.42,56.79-0.73,85.17-1.31c2.82,0.38,2.94-2.83,2.86-4.8c-0.4-27.03-0.86-54.05-1.18-81.08c0.1-6.55-3.21-12.56-7.14-17.57
		c-7.56-9.58-18.3-16.09-29.56-20.46C732.31,716.92,729.36,715.32,726.37,716.39 M598.19,722.34c-12.78,4.7-23.39,15.48-27.16,28.68
		c-2.5601,7.75-2.04,15.99-2.16,24.02c-0.23,22-0.48,44-0.7,66c-0.2,1.81,0.53,4.33,2.83,4.15c18.31,0.2,36.63,0.05,54.94,0.08
		c2,0.31,4.12-1.04,3.84-3.24c0.04-24.01-0.14-48.04-0.13-72.0601c-0.1801-6.35,0.66-12.91-1.46-19.04
		c-3.84-12.82-13.37-24.36-26.32-28.61C600.64,721.86,599.41,721.87,598.19,722.34z"/>
	<path fill="#E7E7E7" d="M977.07,700.98c1.8-0.95,3.81-0.56,5.62,0.16c17.39,6.09,34.08,14.36,49.05,25.14
		c11.72,8.48,22.4,18.62,30.45,30.71c9.0901,13.51,14.63,29.63,14.6001,45.99c0.21,13.35,0.58,26.7,0.7899,40.06
		c-24.46-0.07-48.9199-0.05-73.3699-0.0099c0.97-5.98,0.2-12.03,0.22-18.04c-0.34-10.31-0.22-20.64-0.81-30.93
		c-1.64-12.34-13.36-20.61-24.59-23.66c-8.9901,2.5-17.5601,7.84-22.89,15.62c-4.79,7.1-2.62,16.01-3.07,24.01
		c0.35,10.99-0.78,22.08,0.63,33c-25.25-0.08-50.5,0.0099-75.74-0.04c-0.1-14.33,0.16-28.65-0.26-42.97
		c0.81-21.22,12.25-40.6,26.9-55.38C924.79,724.47,950.66,711.12,977.07,700.98z"/>
	<path fill="#E7E7E7" d="M362.05,746.31c24.62,0.01,49.24,0.12,73.86-0.06c0.28,3.49,0.27,7,0,10.5
		c-24.62-0.18-49.24-0.07-73.86-0.06C361.99,753.22,361.99,749.76,362.05,746.31z"/>
	<path fill="#E7E7E7" d="M1508.02,746.31c24.66,0.05,49.3099,0.04,73.97,0c0.1,3.47,0.08,6.95-0.08,10.42
		c-24.63-0.15-49.26-0.06-73.89-0.04C1507.91,753.23,1507.91,749.76,1508.02,746.31z"/>
	<path fill="#E7E7E7" d="M372.96,761.54c18.55,6.76,36.76,14.42,55.27,21.27c0.64,27.7,1.5,55.4,2.12,83.11
		c-20.44,0-40.88,0-61.33,0c1.07-32.25,2.17-64.49,3.24-96.73C372.42,766.63,372.7,764.08,372.96,761.54z"/>
	<path fill="#E7E7E7" d="M1518.92,761.53c18.5299,6.79,36.75,14.42,55.25,21.29c0.63,27.7,1.49,55.4,2.12,83.1
		c-20.4301,0-40.87,0.01-61.3101,0c1.03-32.58,2.1801-65.15,3.26-97.72C1518.38,765.97,1518.65,763.74,1518.92,761.53z"/>
	<path fill="#E7E7E7" d="M977.02,772.97c2.84-1.41,5.7,0.82,8.28,1.86c8.23,4.01,16.28,11.38,16.49,21.18
		c0.39,14.99,0.63,29.99,0.9901,44.99c-15.91,0.23-31.8101,0.2-47.72,0.29c-0.01-14.77,0.03-29.55-0.03-44.33
		c-0.26-5.54,2.6299-10.67,6.49-14.43C965.9,778.24,971.37,775.24,977.02,772.97z"/>
	<path fill="#E7E7E7" d="M153.61,808.75c37.72,0,75.44-0.07,113.16,0.03c0,4.71,0,9.42,0,14.1299
		c-37.72,0.06-75.44,0.01-113.16,0.03C153.57,818.21,153.57,813.48,153.61,808.75z"/>
	<path fill="#E7E7E7" d="M1683.55,808.75c37.7-0.03,75.3999,0,113.1-0.02c0.08,4.74,0.09,9.49-0.01,14.24
		c-37.7001-0.08-75.4-0.0099-113.09-0.03C1683.5,818.21,1683.5,813.47,1683.55,808.75z"/>
	<path fill="#E7E7E7" d="M168.64,824.67c1.35,0.17,2.68,0.4,4.01,0.71c27,11.8,54.06,23.5,81.19,35.03
		c0.29,3.9301,0.57,7.8701,0.76,11.82c1.14,41.52,2.21,83.05,3.28,124.57c-31.66-0.01-63.33,0-94.99,0
		C164.71,939.42,166.68,882.04,168.64,824.67z"/>
	<path fill="#E7E7E7" d="M1698.59,824.66c1.3401,0.1801,2.6901,0.42,4.05,0.73c26.88,11.74,53.79,23.44,80.7999,34.87
		c0.25-11.79-1.12-23.51-1.47-35.28l1.3301-0.12c1.5599,57.3,3,114.62,4.5399,171.93c-31.6699,0.03-63.33-0.0099-94.99,0.02
		C1694.62,939.43,1696.63,882.04,1698.59,824.66z"/>
	<path fill="#E7E7E7" d="M878.02,853.26c66.6,0.01,133.21,0.06,199.8099-0.03c0.9701,47.86,2.01,95.71,2.99,143.57
		c-20.63,0-41.2599,0.01-61.89-0.01c-0.53-23.59-1-47.19-1.49-70.79c-0.21-7.75-3.38-15.24-8.41-21.08
		c-7.58-8.67-18.03-14.82-29.04-17.94c-5.35,1.06-10.18,3.84-14.98,6.31c-9.67,5.45-18.96,13.1-22.87,23.83
		c-2.13,5.4-1.58,11.29-1.56,16.96c0.01,20.89-0.01,41.79,0.01,62.69c-20.8701,0.08-41.7401,0-62.61,0.03
		C877.93,948.95,877.86,901.1,878.02,853.26z"/>
	<path fill="#E7E7E7" d="M357.54,867.95c27.68-0.02,55.35-0.01,83.02-0.01c0.03,3.46,0.03,6.92,0.01,10.38
		c-27.68,0.03-55.35,0.03-83.03,0C357.51,874.86,357.51,871.4,357.54,867.95z"/>
	<path fill="#E7E7E7" d="M1503.49,867.95c27.67-0.03,55.34-0.02,83.01,0c0.02,3.45,0.02,6.91,0.01,10.37
		c-27.6801,0.03-55.35,0.03-83.01,0C1503.46,874.86,1503.46,871.4,1503.49,867.95z"/>
	<path fill="#E7E7E7" d="M369,881.16c20.55,7.76,40.83,16.28,61.52,23.6801c0.34-8.13-0.68-16.27,0.15-24.39
		c1.23,38.78,2.11,77.57,3.15,116.35c-23.03,0.01-46.06-0.04-69.1,0.03c1-35.86,2.33-71.72,3.55-107.58
		C368.46,886.55,368.74,883.85,369,881.16z"/>
	<path fill="#E7E7E7" d="M1515,881.19c20.55,7.76,40.84,16.24,61.5,23.72c0.21-8.1299-0.6801-16.2599,0.1899-24.36
		c1.05,38.74,2.05,77.49,3.0801,116.24c-23.04,0.04-46.0801-0.05-69.11,0.05c1.02-36.54,2.36-73.09,3.62-109.6201
		C1514.46,885.2,1514.73,883.19,1515,881.19z"/>
	<path fill="#E7E7E7" d="M955.35,902.33c7.19-6.1,15.75-10.35,24.56-13.6c9.5,3.36,18.72,8.18,25.81,15.46
		c5.64,5.82,9.5601,13.56,9.72,21.77c0.46,23.62,1.03,47.23,1.44,70.85c-24.75-0.01-49.5-0.02-74.24,0
		c-0.13-21.27-0.01-42.55-0.07-63.83c-0.01-4.55-0.44-9.2,0.91-13.61C945.52,912.61,950,906.83,955.35,902.33z"/>
	<path fill="#E7E7E7" d="M145.43,998.95c72.53-0.36,145.06-0.05,217.59-0.15c257.99-0.01,515.98,0.01,773.97-0.01
		c4.0701,0.17,8.7-0.98,12.12,1.88c83.63,0.32,167.27,0,250.91,0.16c3.1899,0.32,5.8199-2.01,8.97-2.04
		c131.26,0.04,262.53-0.04,393.8,0.05c3.35,13.8,6.75,27.59,10.0699,41.4c-557.78,0.05-1115.5701,0.02-1673.36,0.01
		C141.36,1026.47,143.59,1012.74,145.43,998.95z"/>
	<path fill="#E7E7E7" d="M145.52,1053.41c552.41-0.03,1104.8199,0.01,1657.23-0.02c3.4301,26.27,6.76,52.5599,10.12,78.85
		c-557.8,0.05-1115.6,0.02-1673.39,0.01C141.44,1105.96,143.51,1079.6899,145.52,1053.41z"/>
	<path fill="#A6A6A6" d="M203.56,298.01c1.4-6.59,11.17-7.5,14.98-2.63c1.55,2.17,0.7,5.31-1.45,6.72
		C212.67,305.05,204.78,303.94,203.56,298.01 M207.39,295.48c-1.39,0.89-2.2,2.88-0.91,4.23c2.42,2.65,7.07,2.68,9.8,0.5
		c1.45-1.04,1.44-3.38-0.03-4.4C213.78,293.85,210.02,293.81,207.39,295.48z"/>
	<path fill="#A6A6A6" d="M828.9,622.86c9-0.83,18.05-0.34,27.0699,0c60.35,0,120.71,0,181.0601,0c25.65-0.1,51.3099,0.24,76.96-0.25
		c4.36-0.06,8.73,0.03,13.09,0.44c0.9601,9.95,0.2001,19.98,0.4401,29.96c0,96.66,0,193.31,0,289.97
		c-0.2001,9.02,0.45,18.08-0.41,27.08c-7.7,0.66-15.48,0.67-23.1799,0c-0.88-10.01-0.2001-20.07-0.41-30.1
		c0.03-97.64-0.0601-195.28,0.0499-292.92c-83.5599-0.37-167.1199-0.08-250.6799-0.15c-0.03,103.73-0.01,207.45-0.01,311.17
		c-0.07,3.51,0.3,7.07-0.29,10.55c-0.7,2.42-3.67,2.01-5.6,2.14c-6.05-0.16-12.15,0.45-18.13-0.64
		c-0.96-10.34-0.21-20.74-0.44-31.11c-0.04-97.32,0.07-194.65-0.06-291.97C828.41,638.98,827.53,630.83,828.9,622.86 M830.69,624.76
		c-0.13,114.52,0.01,229.04-0.07,343.56c6.64,0.31,13.3,0.1,19.95,0.14c0.18-114.52-0.02-229.04,0.1-343.56
		C844.01,624.56,837.35,624.74,830.69,624.76 M852.9,624.9c-0.05,6.65-0.08,13.31,0.03,19.96c83.55-0.03,167.1,0.11,250.64-0.07
		c-0.0499-6.57-0.0699-13.15,0.02-19.72c-22.88-0.47-45.77-0.07-68.65-0.2C974.26,624.89,913.58,624.83,852.9,624.9 M1105.45,624.98
		c0.2101,114.48-0.0399,228.96,0.13,343.45c6.64,0.08,13.28,0.05,19.92,0.02c0.11-113.48-0.05-226.96,0.08-340.43
		c-0.22-1.11,0.4701-3.54-1.47-3.22C1117.89,624.59,1111.66,624.59,1105.45,624.98z"/>
	<path fill="#A6A6A6" d="M726.37,716.39c2.99-1.07,5.94,0.53,8.71,1.53c11.26,4.37,22,10.88,29.56,20.46
		c3.93,5.01,7.24,11.02,7.14,17.57c0.3199,27.03,0.78,54.05,1.18,81.08c0.08,1.97-0.04,5.18-2.86,4.8
		c-28.38,0.58-56.79,0.89-85.17,1.31c-2,0.38-3.88-1.07-3.51-3.18c0.23-26.32,0.84-52.65,1.14-78.98
		c0.04-9.08,3.78-17.96,9.89-24.61C701.36,726.41,713.75,720.24,726.37,716.39 M702.85,729.76c-9.92,6.88-18.03,17.76-18.25,30.22
		c-0.41,27.07-0.85,54.13-1.2599,81.2c29.21-0.43,58.42-0.87,87.64-1.28c-0.36-27.98-0.87-55.95-1.21-83.92
		c0.13-7.3-4.29-13.67-8.86-18.97c-8.54-9.23-20.04-15.5-32.02-19C719.51,719.91,710.73,724.42,702.85,729.76z"/>
	<path fill="#A6A6A6" d="M1222.34,716.5c3.6-1.32,7.17,0.81,10.5701,1.85c14.0399,5.32,28.0699,14.05,34.7,28.06
		c4.4,8.92,3.01,19.05,3.4301,28.63c0.21,22.63,1,45.25,0.84,67.88c-27.28,0.3-54.5699-0.76-81.86-0.88
		c-3.17,0.04-6.3201-0.22-9.42-0.79c-0.0699-28.41,0.8201-56.82,1.04-85.24c-0.15-6.51,3.14-12.45,6.98-17.47
		C1197.12,727.79,1209.49,720.78,1222.34,716.5 M1194.71,734.71c-5.86,5.96-11.5399,13.55-11.09,22.34
		c-0.3099,27.62-0.86,55.24-1.17,82.86c29.2001,0.38,58.41,0.86,87.6101,1.26c-0.39-27.04-0.8401-54.09-1.25-81.13
		c-0.1201-8.11-3.6901-15.88-8.9601-21.93c-9.11-10.18-21.86-16.74-34.95-20.11C1213.71,720.93,1203.16,726.79,1194.71,734.71z"/>
	<path fill="#A6A6A6" d="M598.19,722.34c1.22-0.47,2.45-0.48,3.68-0.02c12.95,4.25,22.48,15.79,26.32,28.61
		c2.12,6.13,1.28,12.69,1.46,19.04c-0.01,24.02,0.17,48.05,0.13,72.0601c0.28,2.2-1.84,3.55-3.84,3.24
		c-18.31-0.03-36.63,0.12-54.94-0.08c-2.3,0.18-3.03-2.34-2.83-4.15c0.22-22,0.47-44,0.7-66c0.12-8.03-0.4-16.27,2.16-24.02
		C574.8,737.82,585.41,727.04,598.19,722.34 M585.9,731.84c-9.47,7.79-14.83,19.95-14.92,32.14c-0.27,26.43-0.58,52.85-0.82,79.27
		c19.23,0.02,38.45,0.04,57.6801-0.01c-0.1201-25.1-0.15-50.2-0.19-75.3c-0.08-5.99,0.52-12.2-1.83-17.87
		c-3.97-12.16-13.53-22.46-25.81-26.42C594.95,725.69,590.05,728.25,585.9,731.84z"/>
	<path fill="#A6A6A6" d="M1351.3,722.37c2.13-1,4.4199,0.1,6.4199,0.94c11.51,5.2,21,15.22,24.5901,27.44
		c1.8899,5.89,2.2899,12.12,2.1899,18.27c0.1801,20.66,0.4301,41.32,0.63,61.98c-0.11,4.58,0.61,9.25-0.42,13.77
		c-5.83,1.09-11.8099,0.27-17.6899,0.51c-14.35-0.2-28.72,0.41-43.04-0.34c-0.8199-10.28-0.12-20.61-0.3199-30.92
		c0.0499-16.69,0.12-33.38,0.1-50.07C1322.8,746.2,1334.51,728.34,1351.3,722.37 M1325.86,758.01c-0.22,28.42-0.12,56.84-0.27,85.25
		c19.2101,0.01,38.4301,0.02,57.65,0c-0.29-27.26-0.46-54.53-0.91-81.79c-0.75-12.65-7.39-24.84-17.89-32
		c-3.5299-2.28-7.1899-4.87-11.4099-5.5C1338.23,728.44,1327.62,742.92,1325.86,758.01z"/>
	<path fill="#A6A6A6" d="M143.55,1054.11c-0.1-2.48,2.53-2.7999,4.44-2.72c548.66,0.02,1097.3201,0,1645.98,0
		c3.3101,0.17,6.8-0.51,10.02,0.5599c0.8201,1.4,0.9401,3.0701,1.23,4.67c3.1,24.8,6.39,49.58,9.47,74.38
		c0.4501,2.1-1.7,3.6801-3.6499,3.27c-553.3501,0-1106.6901,0-1660.04,0c-4.32-0.03-8.65,0.15-12.95-0.28
		c-0.43-1.97-0.52-3.97-0.3-5.95C139.76,1103.4,141.43,1078.73,143.55,1054.11 M145.52,1053.41
		c-2.01,26.2799-4.08,52.5499-6.04,78.84c557.79,0.01,1115.59,0.04,1673.39-0.01c-3.36-26.29-6.6899-52.58-10.12-78.85
		C1250.34,1053.42,697.93,1053.38,145.52,1053.41z"/>
	<path fill="#FFFFFF" d="M207.39,295.48c2.63-1.67,6.39-1.63,8.86,0.33c1.47,1.02,1.48,3.36,0.03,4.4c-2.73,2.18-7.38,2.15-9.8-0.5
		C205.19,298.36,206,296.37,207.39,295.48z"/>
	<path fill="#FFFFFF" d="M208.35,306.32c3.07-1.44,9.08-0.66,8.98,3.62c-1.67,3.94-7.79,4.12-10.65,1.38
		C204.86,309.67,206.36,306.96,208.35,306.32z"/>
	<path fill="#FFFFFF" d="M1738.34,306.3c2.99-1.25,7.8401-0.81,8.99,2.76c-0.5599,4.78-7.73,5.16-10.6799,2.31
		C1734.76,309.7,1736.27,306.91,1738.34,306.3z"/>
	<path fill="#FFFFFF" d="M209.34,317.35c3.07-1.04,9.03,0.38,7.8,4.62c-2.35,3.26-7.9,3.39-10.61,0.55
		C204.6,320.39,207.11,317.72,209.34,317.35z"/>
	<path fill="#FFFFFF" d="M1739.3199,317.33c2.9401-0.81,7.7401,0,8.04,3.73c-1.5499,4.44-8.85,4.56-11.29,0.89
		C1734.92,319.71,1737.33,317.77,1739.3199,317.33z"/>
	<path fill="#FFFFFF" d="M207.95,420c2.57-2.47,7.19-2.01,9.16,1c3.04,4.34,2.95,9.92,3.02,15c-0.11,11.1,0.14,22.2-0.15,33.29
		c-5.84-0.18-11.69-0.03-17.53-0.36c-0.07-11.32-0.02-22.64-0.04-33.96C202.32,429.57,203.74,423.69,207.95,420z"/>
	<path fill="#FFFFFF" d="M228.47,419.45c1.74-1.68,5.22-1.43,6.41,0.81c1.41,2.65,1.17,5.8,1.29,8.72
		c-0.2,13.78,0.14,27.57-0.2,41.35c-2.88-0.19-5.75-0.4-8.62-0.61c0.12-14.57,0.12-29.13-0.05-43.7
		C227.4,423.81,227.3,421.42,228.47,419.45z"/>
	<path fill="#FFFFFF" d="M1735.14,423.28c1.46-2.44,3.7999-4.92,6.88-4.88c2.51-0.11,4.74,1.65,5.8199,3.84
		c2.36,4.52,2.17,9.79,2.24,14.75c-0.12,10.76,0.15,21.54-0.1699,32.3c-5.8401-0.17-11.6801-0.06-17.51-0.33
		c-0.12-10.66-0.01-21.32-0.0801-31.98C1732.24,432.3,1732.58,427.34,1735.14,423.28z"/>
	<path fill="#FFFFFF" d="M186.34,419.32c1.8-1.54,5.27-1.26,6.35,1.05c1.46,2.96,1.13,6.39,1.23,9.59
		c-0.16,13.19,0.16,26.37-0.18,39.56c-2.88,0.18-5.76,0.38-8.63,0.59c0.11-14.69,0.13-29.38-0.06-44.06
		C185.17,423.78,184.97,421.27,186.34,419.32z"/>
	<path fill="#FFFFFF" d="M1715.02,424.94c-0.0601-2.64,0.35-6.94,4.04-6.55c3.96-0.2,4.6799,4.51,4.72,7.52
		c0.02,14.53,0.1799,29.08-0.11,43.61c-2.88,0.18-5.76,0.38-8.62,0.59C1715.17,455.05,1715.12,440,1715.02,424.94z"/>
	<path fill="#FFFFFF" d="M1757.26,424.99c0.04-2.53,0.1899-6.75,3.73-6.58c4.16-0.51,5.0701,4.45,5.04,7.55
		c0,14.79,0.1699,29.58-0.13,44.37c-2.88-0.19-5.75-0.39-8.61-0.6C1757.4,454.82,1757.36,439.9,1757.26,424.99z"/>
	<path fill="#FFFFFF" d="M740.35,443.42c1.36-1.71,4.65-0.71,4.66,1.55c0.35,3.26,0.45,6.62-0.2,9.86
		c-1.08,2.24-5.01,1.76-5.12-0.82C739.58,450.55,738.73,446.53,740.35,443.42z"/>
	<path fill="#FFFFFF" d="M1209.16,443.28c1.5499-1.55,4.63-0.47,4.61,1.8c0.27,3.19,0.37,6.45-0.17,9.62
		c-0.9299,2.42-5.16,1.93-5.1699-0.79C1208.34,450.43,1207.5,446.44,1209.16,443.28z"/>
	<path fill="#FFFFFF" d="M738.6,457.83c2.46,0.12,4.94,0.13,7.41,0.05c0.33,0.59,0.98,1.77,1.3,2.36c-2.01,2.22-5.35,3.38-8.03,1.58
		C737.69,461.02,738.31,459.16,738.6,457.83z"/>
	<path fill="#FFFFFF" d="M1205.99,460.27c0.45-0.6,1.33-1.8,1.77-2.4c2.13,0.08,4.28,0.09,6.4299,0.03
		c0.4301,0.59,1.28,1.76,1.7001,2.35C1213.25,463.39,1208.65,463.35,1205.99,460.27z"/>
	<path fill="#FFFFFF" d="M737.35,469.01c1.9-4.33,8.26-4.33,10.22-0.06C744.81,472.11,740.15,472.08,737.35,469.01z"/>
	<path fill="#FFFFFF" d="M1208.36,466.27c2.47-1.5,8.25-0.11,6.67,3.55c-2.3,2.37-6.9601,2.23-8.63-0.8
		C1206.49,467.67,1207.14,466.76,1208.36,466.27z"/>
	<path fill="#FFFFFF" d="M739.36,475.28c2.41-1.5,6.42-1.1,7.65,1.76c-0.55,3.55-5.68,3.98-8.04,2.01
		C737.44,478.2,737.92,475.95,739.36,475.28z"/>
	<path fill="#FFFFFF" d="M1208.17,475.07c2.4099-1.2,6.0699-0.79,7.3099,1.9c-0.5499,3.82-6.03,4.03-8.4199,1.83
		C1205.84,477.36,1206.7,475.82,1208.17,475.07z"/>
	<path fill="#FFFFFF" d="M397.24,491.18c2.31-1.47,7.5-0.81,7.03,2.74c-1.66,2.51-5.66,2.65-7.8,0.69
		C395.24,493.45,395.98,491.91,397.24,491.18z"/>
	<path fill="#FFFFFF" d="M1543.25,491.14c2.16-1.19,5.09-0.83,6.84,1c1.0801,3.72-4.74,4.77-7.09,2.93
		C1541.25,494.25,1541.5699,491.83,1543.25,491.14z"/>
	<path fill="#FFFFFF" d="M395.23,500.97c2.46-2.49,8.61-3.48,9.18,1.09C402.28,505.57,396.66,504.69,395.23,500.97z"/>
	<path fill="#FFFFFF" d="M1543.38,499.42c2.36-1.58,8.25-0.2,6.47,3.39c-2.2,2.17-6.49,2.02-8.1-0.78
		C1541.76,500.81,1542.3,499.94,1543.38,499.42z"/>
	<path fill="#FFFFFF" d="M398.29,507.44c2.22-0.7,5.79-0.13,6.14,2.66c-1.37,3.51-7.53,3.39-8.73-0.2
		C396.12,508.71,397.01,507.69,398.29,507.44z"/>
	<path fill="#FFFFFF" d="M1544.26,507.41c2.0599-0.64,4.48-0.12,5.9299,1.56c0.92,4.89-9.1799,4.94-8.2599,0.02
		C1542.54,508.23,1543.3199,507.71,1544.26,507.41z"/>
	<path fill="#FFFFFF" d="M565.9,516c1.69-0.93,3.98-0.1,3.74,2.09c0.23,2.27,0.24,4.58-0.13,6.84c-0.42,1.98-3.82,2.03-4.02-0.01
		C565.02,521.99,564.81,518.81,565.9,516z"/>
	<path fill="#FFFFFF" d="M1386.38,516.24c1.09-0.85,2.2-0.84,3.3199,0.05c0.92,2.75,0.7101,5.8,0.3101,8.64
		c-0.4301,1.96-3.53,1.97-3.98,0.02C1385.63,522.09,1385.4,519,1386.38,516.24z"/>
	<path fill="#FFFFFF" d="M563.68,528.3c2.52-0.16,5.05-0.28,7.59-0.39C571.32,532.51,564.41,532.42,563.68,528.3z"/>
	<path fill="#FFFFFF" d="M1384.4301,528c2.5199,0.07,5.0599,0.16,7.6,0.3C1391.33,532.29,1384.4301,532.42,1384.4301,528z"/>
	<path fill="#FFFFFF" d="M1360.3,550.5c1.1499-1,2.6399-0.5,3.4399,0.7c0.41,2.56,0.38,5.2,0.05,7.78
		c0.02,2.28-4.0701,2.38-4.0701,0.06C1359.5,556.27,1358.84,552.95,1360.3,550.5z"/>
	<path fill="#FFFFFF" d="M590.35,552.52c1.16-1.1,2.54-0.49,3.36,0.67c0.44,2.81,0.52,5.75-0.1,8.55c-0.86,1.6-3.73,1.3-3.92-0.63
		C589.56,558.34,588.75,554.84,590.35,552.52z"/>
	<path fill="#FFFFFF" d="M1358.89,562.36c2.17,0.05,4.35,0.03,6.5499-0.02c0.03,3.81-5.25,3.92-7.4199,1.77
		C1358.24,563.67,1358.67,562.79,1358.89,562.36z"/>
	<path fill="#FFFFFF" d="M588.07,564.97c0.26-0.1299,0.79-0.39,1.05-0.52c1.99-0.01,3.98-0.06,5.98-0.12
		c0.01,0.64,0.03,1.94,0.04,2.58C592.84,566.07,590.49,565.36,588.07,564.97z"/>
	<path fill="#FFFFFF" d="M806.02,572.19c114.25,0.04,228.5-0.03,342.75,0.03c-0.55,4.61,0.21,9.21,0.36,13.82
		c-0.28,4.13-0.83,8.26-0.64,12.42c-113.77,0-227.54,0.05-341.31-0.02C806.93,589.68,806.49,580.93,806.02,572.19z"/>
	<path fill="#FFFFFF" d="M1401.37,574.39c0.99-0.3,1.88-0.06,2.67,0.71c0.5599,2.88,0.73,5.96-0.02,8.82
		c-0.71,1.88-4.12,1.23-3.97-0.88C1400.16,580.3,1398.79,576.16,1401.37,574.39z"/>
	<path fill="#FFFFFF" d="M549.46,577.18c1.05-1.13,2.25-1.24,3.6-0.32c0.76,2.96,0.7,6.11,0.19,9.12c-0.93,1.43-3.22,1.42-3.94-0.21
		C548.81,582.94,548.77,579.97,549.46,577.18z"/>
	<path fill="#FFFFFF" d="M381.4,582.3c1.53-1.35,4.38-0.98,5.05,1.1c0.85,2.77,0.63,5.72,0.69,8.59
		c-0.11,8.84,0.12,17.69-0.15,26.54c-2.11,0.1299-4.21,0.2599-6.31,0.42c0.02-9.99,0.09-19.97-0.05-29.96
		C380.67,586.75,380.52,584.4,381.4,582.3z"/>
	<path fill="#FFFFFF" d="M397.57,582.58c1.79-1.58,4.81-1.38,6.31,0.52c2.44,3.05,2.36,7.21,2.49,10.92
		c-0.05,8.11,0.05,16.22-0.1,24.33c-4.25-0.11-8.49-0.16-12.74-0.06c-0.38-7.75-0.1-15.52-0.2-23.28
		C393.23,590.59,393.94,585.56,397.57,582.58z"/>
	<path fill="#FFFFFF" d="M411.68,586.06c-0.09-2.05,0.54-5.16,3.33-4.5c3.09,0.28,2.92,4.13,3.08,6.41
		c0.03,10.4,0.1,20.79-0.07,31.19c-2.14-0.21-4.27-0.4-6.39-0.61C411.84,607.72,411.61,596.89,411.68,586.06z"/>
	<path fill="#FFFFFF" d="M1526.83,584.02c-0.1599-2.88,4.1801-3.4,5.3201-1.08c1.0499,2.17,0.7899,4.69,0.9199,7.04
		c-0.1699,9.52,0.04,19.04-0.1499,28.56c-2.12,0.12-4.2301,0.25-6.3101,0.39C1526.89,607.3,1526.28,595.63,1526.83,584.02z"/>
	<path fill="#FFFFFF" d="M1543.51,582.58c1.8-1.6,4.87-1.37,6.36,0.58c2.36,3.04,2.3,7.13,2.4401,10.8
		c-0.0601,8.13,0.0599,16.2599-0.1001,24.39c-4.25-0.11-8.49-0.16-12.72-0.05c-0.42-7.76-0.11-15.53-0.22-23.29
		C1539.17,590.59,1539.87,585.56,1543.51,582.58z"/>
	<path fill="#FFFFFF" d="M1557.84,584.01c-0.1899-2.86,4.27-3.42,5.3301-1.03c1.01,2.16,0.7799,4.65,0.8999,6.98
		c-0.1499,9.71-0.0099,19.43-0.11,29.15c-2.1499-0.18-4.2799-0.35-6.3999-0.53C1557.95,607.06,1557.24,595.5,1557.84,584.01z"/>
	<path fill="#FFFFFF" d="M1398.77,586.63c2.23,0.12,4.47,0.07,6.71-0.18C1406.9301,591.14,1398.11,591.34,1398.77,586.63z"/>
	<path fill="#FFFFFF" d="M547.48,588.82c2.36-0.08,4.74-0.13,7.11-0.24c0.09,0.56,0.2599,1.69,0.35,2.25
		c-1.6,0.3-3.19,0.67-4.82,0.83C548.43,592.1,548.28,589.68,547.48,588.82z"/>
	<path fill="#FFFFFF" d="M729.78,622.94c3.45-6.19,9.12-10.78,15.27-14.12c5.03,3.67,8.98,8.81,11.18,14.64
		c2.2,8.47,1.71,17.36,1.18,26.0099c-10.44,0.11-20.87-0.21-31.31-0.43C724.46,640.26,725.2,630.76,729.78,622.94z"/>
	<path fill="#FFFFFF" d="M1208.28,608.82c6.1,3.22,11.6699,7.74,15.15,13.78c4.73,7.89,5.58,17.56,3.83,26.46
		c-10.4301,0.16-20.85,0.55-31.28,0.38c-0.53-8.2-0.86-16.54,0.8201-24.62C1198.66,618.38,1203.02,612.87,1208.28,608.82z"/>
	<path fill="#FFFFFF" d="M783.24,610.92c5.47,3.99,8.29,10.49,9.29,17.02c1.21,7.04,0.77,14.24-0.16,21.28
		c-6.24,0.11-12.48,0.22-18.72,0.16c-0.03-10.1,0.18-20.48,3.65-30.09C778.39,615.96,780.68,613.24,783.24,610.92z"/>
	<path fill="#FFFFFF" d="M694.68,618.7c1.48-3.78,4.91-6.16,8.67-7.34c5.07,11.99,6.53,25.66,3.31,38.35
		c-5.18,0.02-10.36,0.0099-15.53,0.07C690.76,639.38,690.48,628.44,694.68,618.7z"/>
	<path fill="#FFFFFF" d="M1163.0601,620.14c1.3799-3.7,4.0499-6.69,6.98-9.25c4.45,3.4,6.64,8.75,7.77,14.09
		c1.7699,8,2.0299,16.24,1.95,24.41c-6.27,0.05-12.52-0.12-18.78-0.19C1159.83,639.53,1159.34,629.34,1163.0601,620.14z"/>
	<path fill="#FFFFFF" d="M1249.86,611.48c4.09,0.88,7.53,3.66,9.04,7.59c3.99,9.67,3.7899,20.44,3.36,30.72
		c-5.13-0.08-10.26-0.09-15.38-0.0099C1243.3101,637.15,1245.21,623.56,1249.86,611.48z"/>
	<path fill="#FFFFFF" d="M577.3,635.35c2.53-1.42,6.09,0.65,5.91,3.62c0.11,5.3101,0.37,10.6801-0.2,15.98
		c-1.05,3.56-6.8,3.5-7.73-0.09c-0.6-4.27-0.21-8.59-0.32-12.88C575.02,639.64,574.72,636.5,577.3,635.35z"/>
	<path fill="#FFFFFF" d="M1372.37,635.37c2.53-1.46,6.13,0.62,5.95,3.6c0.1901,5,0.2401,10.02-0.0399,15.01
		c-0.04,3-3.9501,4.69-6.29,2.98c-2.11-1.21-1.83-3.9-1.91-5.95c0.03-4.04-0.13-8.08,0.12-12.11
		C1370.17,637.42,1371.01,636,1372.37,635.37z"/>
	<path fill="#FFFFFF" d="M702.85,729.76c7.88-5.34,16.66-9.85,26.04-11.75c11.98,3.5,23.48,9.77,32.02,19
		c4.57,5.3,8.9901,11.67,8.86,18.97c0.34,27.97,0.85,55.94,1.21,83.92c-29.22,0.41-58.43,0.85-87.64,1.28
		c0.41-27.07,0.85-54.13,1.2599-81.2C684.82,747.52,692.93,736.64,702.85,729.76z"/>
	<path fill="#FFFFFF" d="M1194.71,734.71c8.4501-7.92,19-13.78,30.1901-16.71c13.09,3.37,25.84,9.93,34.95,20.11
		c5.27,6.05,8.84,13.82,8.9601,21.93c0.4099,27.04,0.86,54.09,1.25,81.13c-29.2001-0.4-58.41-0.88-87.6101-1.26
		c0.3101-27.62,0.8601-55.24,1.17-82.86C1183.17,748.26,1188.85,740.67,1194.71,734.71z"/>
	<path fill="#FFFFFF" d="M585.9,731.84c4.15-3.59,9.05-6.15,14.11-8.19c12.28,3.96,21.84,14.2599,25.81,26.42
		c2.35,5.67,1.75,11.88,1.83,17.87c0.04,25.1,0.0699,50.2,0.19,75.3c-19.23,0.05-38.45,0.03-57.6801,0.01
		c0.2401-26.42,0.55-52.84,0.82-79.27C571.07,751.79,576.43,739.63,585.9,731.84z"/>
	<path fill="#FFFFFF" d="M1325.86,758.01c1.76-15.09,12.37-29.57,27.17-34.04c4.22,0.63,7.88,3.22,11.4099,5.5
		c10.5,7.16,17.14,19.35,17.89,32c0.4501,27.26,0.62,54.53,0.91,81.79c-19.22,0.02-38.4399,0.01-57.65,0
		C1325.74,814.85,1325.64,786.43,1325.86,758.01z"/>
	<path fill="#FFFFFF" d="M701.01,888.83c7.48-5.73,16.14-9.79,25.1-12.62c3.09-1.33,6.16,0.5099,9.02,1.57
		c10.96,4.4399,21.55,10.84,28.68,20.49c3.09,4.29,5.93,9.22,5.94,14.67c0.36,27.94,0.86,55.88,1.22,83.82
		c-29.23-0.1-58.46,0.12-87.6899-0.11c0.52-23.22,0.7599-46.45,1.18-69.67c0.18-5.73-0.34-11.59,1.34-17.15
		C688.22,901.31,694.05,894.14,701.01,888.83z"/>
	<path fill="#FFFFFF" d="M1218.01,877.89c3.13-1.21,6.55-3.14,9.91-1.5c14.09,4.7,28.38,12.3,36.24,25.42
		c2.86,4.88,4.6,10.46,4.6599,16.14c0.39,26.33,0.8501,52.65,1.25,78.98c-29.22,0.02-58.4299-0.02-87.6399,0.02
		c0.37-27.99,0.86-55.98,1.23-83.96c0.01-5.35,2.71-10.18,5.71-14.42C1196.45,888.86,1207.03,882.37,1218.01,877.89z"/>
	<path fill="#FFFFFF" d="M574.96,900.02c4.7-10.24,14.36-17.57,25.03-20.75c12.47,6.41,24.52,17.11,26.88,31.58
		c0.5,28.62,0.6,57.26,0.93,85.89c-19.21,0-38.41,0-57.62,0c0.18-24.57,0.52-49.14,0.74-73.71
		C570.73,915.2,571.46,907.15,574.96,900.02z"/>
	<path fill="#FFFFFF" d="M1339.5699,888.67c4.3401-3.59,8.88-7.44,14.3301-9.11c11.9199,3.27,22.2,12.54,26.14,24.35
		c1.85,5.17,2.46,10.69,2.4399,16.16c0.2001,25.62,0.5601,51.24,0.76,76.86c-19.21,0-38.4299,0-57.64,0
		c0.25-27.32,0.5801-54.65,0.78-81.97C1325.9301,904.63,1332.3199,895.42,1339.5699,888.67z"/>
	<path fill="#C5C5C5" d="M179.32,491.32c21.89-0.2,43.78,0.07,65.68-0.14c0.18,7.58-0.16,15.18,0.45,22.76
		c0.44,5.42,0.74,10.86,0.25,16.29c-0.37-1.97-0.85-4.18-2.95-4.96c-20.87-11.1-41.63-22.42-62.52-33.48
		c-0.22,3.16-0.47,6.33-0.7,9.5C179.21,497.98,179.19,494.64,179.32,491.32z"/>
	<path fill="#C5C5C5" d="M1709.17,491.3c21.9299-0.16,43.86,0.09,65.7899-0.13c0.26,8.25-0.21,16.52,0.48,24.76
		c0.5601,7.09,0.5601,14.22,0.27,21.34c-0.2-3.43-0.1599-6.9-0.86-10.26c-2.25-2.2-5.25-3.36-7.9399-4.85
		c-18.9301-10.04-37.7101-20.33-56.65-30.32c-0.27,2.53-0.54,5.05-0.75,7.59C1709.01,496.74,1708.99,494.01,1709.17,491.3z"/>
	<path fill="#C5C5C5" d="M376.77,635.48c15.97-0.17,31.95,0.04,47.92-0.1c0.43,6.12,0.46,12.26,0.23,18.4
		C408.89,647.63,392.86,641.48,376.77,635.48z"/>
	<path fill="#C5C5C5" d="M1522.27,635.37c16.09,0.12,32.1799-0.02,48.28,0.09c0.5199,6.09,0.6499,12.22,0.33,18.33
		c-15.9301-6.06-31.78-12.37-47.84-18.06c-0.1001,0.87-0.28,2.61-0.38,3.48C1522.51,637.93,1522.38,636.64,1522.27,635.37z"/>
	<path fill="#C5C5C5" d="M172.53,659.34c17.81-0.51,35.64-0.07,53.46-0.21c7.39,0.13,14.79-0.34,22.17,0.29
		c-0.6,4.55-0.02,9.14,0.35,13.69c0.26-1.74,0.52-3.49,0.72-5.23c1.22,8.81,0.84,17.74,0.69,26.6
		c-15.28-6.24-30.08-13.61-45.17-20.28c-10.16-4.71-20.45-9.15-30.54-13.98C173.79,660,172.95,659.56,172.53,659.34z"/>
	<path fill="#C5C5C5" d="M1702.46,659.31c16.17-0.44,32.3501-0.06,48.52-0.19c9.0601,0.17,18.14-0.36,27.1901,0.3
		c-0.64,4.91-0.0601,9.86,0.3199,14.77c0.23-1.15,0.46-2.29,0.7-3.42c1.3301,7.95,0.78,16.07,0.78,24.1
		c-25.24-11.63-50.63-22.94-75.8199-34.68C1703.73,659.97,1702.88,659.53,1702.46,659.31z"/>
	<path fill="#C5C5C5" d="M368.5,759.47c3.76-0.92,7.62-1.3,11.5-1.2599c10.35,0.16,20.71,0.09,31.07,0.12
		c6.44,0.06,13.05-0.7,19.3,1.3c0.01,7.99,0.45,15.98,0.17,23.96c-0.57-0.2-1.73-0.59-2.31-0.78
		c-18.51-6.85-36.72-14.51-55.27-21.27c-0.26,2.54-0.54,5.09-0.7,7.65c0-2.66-0.12-5.31-0.22-7.95c-0.38-0.19-1.14-0.58-1.52-0.77
		L368.5,759.47z"/>
	<path fill="#C5C5C5" d="M1514.47,759.47c8.6901-2.17,17.6901-0.86,26.53-1.15c11.2,0.25,22.45-0.57,33.63,0.47
		c0.4301,0.13,1.29,0.39,1.72,0.52c-0.08,8.09,0.4,16.19,0.13,24.28c-0.58-0.19-1.73-0.58-2.3099-0.77
		c-18.5-6.87-36.7201-14.5-55.25-21.29c-0.27,2.21-0.54,4.4399-0.6801,6.67c-0.0599-2.34-0.1799-4.66-0.3-6.99
		c-0.37-0.18-1.11-0.55-1.48-0.7401L1514.47,759.47z"/>
	<path fill="#C5C5C5" d="M172.65,825.38c3.44-0.4,6.9-0.52,10.35-0.48c22.93,0.11,45.86-0.04,68.79,0.05
		c0.03,7.68,1.15,15.31,1.07,22.99c-0.06,3.47,0.38,6.93,1.24,10.3c1.09,4.58,0.55,9.32,0.5,13.99c-0.19-3.95-0.47-7.89-0.76-11.82
		C226.71,848.88,199.65,837.18,172.65,825.38z"/>
	<path fill="#C5C5C5" d="M1702.64,825.39c11.41-1.03,22.89-0.21,34.33-0.46c15,0.07,30-0.12,45,0.05
		c0.35,11.77,1.72,23.49,1.47,35.28C1756.4301,848.83,1729.52,837.13,1702.64,825.39z"/>
	<path fill="#C5C5C5" d="M368.01,880.1c20.89-0.25,41.8-0.12,62.7-0.13l-0.04,0.48c-0.83,8.12,0.19,16.26-0.15,24.39
		c-20.69-7.4-40.97-15.92-61.52-23.6801c-0.26,2.69-0.54,5.39-0.73,8.09C368.11,886.2,368.04,883.15,368.01,880.1z"/>
	<path fill="#C5C5C5" d="M1513.91,880.07c20.9399-0.18,41.88-0.13,62.83-0.08l-0.05,0.56c-0.87,8.1,0.02,16.23-0.1899,24.36
		c-20.66-7.48-40.95-15.96-61.5-23.72c-0.27,2-0.54,4.01-0.72,6.03C1514.12,884.83,1514,882.45,1513.91,880.07z"/>
	<path fill="#939395" d="M1150.28,576.02c23.22-0.72,46.46,0.59,69.7,0.6c16.6801,0.2,33.35,0.33,50.03,0.52
		c4.12,0.07,8.29-0.23,12.38,0.52c6.01,1.3,11.09,5.06,15.7999,8.84c-2.08,0.71-4.2599,1.45-6.45,0.83
		c-12-2.85-24.42-3.31-36.7-3.46c-9.7001,0.13-19.3401-0.97-29.03-1.03c-17.7-0.65-35.41,0.3799-53.01,2.21
		c-7.24,0.58-14.39,2.24-21.6801,1.99C1150.99,583.36,1150.65,579.69,1150.28,576.02z"/>
	<path fill="#D5D5D5" d="M830.69,624.76c6.66-0.02,13.32-0.2,19.98,0.14c-0.12,114.52,0.08,229.04-0.1,343.56
		c-6.65-0.04-13.31,0.17-19.95-0.14C830.7,853.8,830.56,739.28,830.69,624.76z"/>
	<path fill="#D5D5D5" d="M852.9,624.9c60.68-0.07,121.36-0.01,182.0399-0.03c22.88,0.13,45.77-0.27,68.65,0.2
		c-0.09,6.57-0.0699,13.15-0.02,19.72c-83.5399,0.18-167.09,0.04-250.64,0.07C852.82,638.21,852.85,631.55,852.9,624.9z"/>
	<path fill="#D5D5D5" d="M1105.45,624.98c6.2101-0.39,12.4401-0.39,18.66-0.18c1.9401-0.32,1.25,2.11,1.47,3.22
		c-0.13,113.47,0.03,226.95-0.08,340.43c-6.64,0.03-13.28,0.06-19.92-0.02C1105.41,853.94,1105.66,739.46,1105.45,624.98z"/>
	<path fill="#D5D5D5" d="M872.21,667.17c71.13-0.01,142.27-0.1,213.4,0.04c0.0701,34.13,0.59,68.25,0.29,102.37
		c-6.34-13.37-14.67-25.83-25.3101-36.17c-19.95-19.68-45.21-33.27-71.52-42.4c-3.89-1.04-8-3.67-12.04-1.82
		c-32.53,11.63-64.89,27.51-88.3101,53.59c-6.98,7.77-12.58,16.74-16.47,26.4399C872.12,735.2,872.2,701.19,872.21,667.17z"/>
	<path fill="#DBDBDB" d="M248.16,659.42l0.48-1.16c0.51,3.17,0.81,6.4,0.59,9.62c-0.2,1.74-0.46,3.49-0.72,5.23
		C248.14,668.56,247.56,663.97,248.16,659.42z"/>
	<path fill="#DCDCDC" d="M1778.17,659.42l0.4399-1.15c0.52,4.13,0.8101,8.33,0.58,12.5c-0.24,1.13-0.47,2.27-0.7,3.42
		C1778.11,669.28,1777.53,664.33,1778.17,659.42z"/>
	<path fill="#AAAAAA" d="M870.78,665.76c3.6-1.19,7.48-0.6,11.22-0.7c64.66,0.01,129.31,0.02,193.96-0.01
		c3.4701,0.09,7.0701-0.4,10.4701,0.54c1.83,1.14,1,3.66,1.3099,5.46c0.02,33.63,0.52,67.27,0.21,100.9
		c-1.21-0.02-2.4099-0.03-3.59-0.03c-5.96-14.63-15.46-27.6-26.74-38.58c-15.12-14.3701-33.17-25.4-52.22-33.76
		c-8.27-3.46-16.62-7.05-25.39-8.99c-15.85,4.91-31.13,11.78-45.73,19.68c-16.89,9.32-32.84,20.8-45.44,35.52
		c-4.82,5.7401-9.14,11.97-12.2401,18.82c-1.18,2.54-2.13,5.21-3.56,7.63c-2.97-0.23-2.59-4.08-2.91-6.25
		c-0.05-30.01,0.02-60.02-0.03-90.03C870.19,672.56,869.67,669.03,870.78,665.76 M872.21,667.17c-0.01,34.02-0.09,68.03,0.04,102.05
		c3.89-9.7,9.49-18.67,16.47-26.4399c23.42-26.08,55.78-41.96,88.3101-53.59c4.04-1.85,8.15,0.78,12.04,1.82
		c26.31,9.13,51.57,22.72,71.52,42.4c10.64,10.34,18.9701,22.8,25.3101,36.17c0.2999-34.12-0.22-68.24-0.29-102.37
		C1014.48,667.07,943.34,667.16,872.21,667.17z"/>
	<path fill="#BDBDBD" d="M659.18,672.21c9.94-0.53,19.91-0.01,29.86-0.28c29.8-0.88,59.62-0.64,89.42-0.19
		c9.13,2.05,18.56,0.88,27.84,1.22c0.11,4.3,0.17,8.6,0.21,12.91c-66.84-0.65-133.67-1.2-200.51-1.79
		c-17.22-0.01-34.45-0.75-51.65,0.1c-1.24-0.52-2.4-1.15-3.5699-1.77c23.52-2.39,47.0099-5.15,70.56-7.21
		c1.89,0.28,3.7599,0.85,5.7,0.8c9-0.58,17.94-2.3,26.98-1.85C656.01,674.43,657.76,673.55,659.18,672.21z"/>
	<path fill="#BDBDBD" d="M1404.03,683.05c1.1899-3.38,1.4-7.02,1.87-10.55c0.1899,7.51,0.02,15.03-0.12,22.55
		c-0.53-0.05-1.5801-0.13-2.11-0.17c-75.26-5.19-150.5901-9.84-225.62-17.83c-7.88-0.93-15.8201-1.46-23.5901-3.12
		c14.52-0.8,29.0701-0.08,43.6001-0.17c31.3099,0.1,62.62,0.31,93.9299,0.36c7.3101-0.05,14.61,0.36,21.88,1.21
		c28.39,2.99,56.8,5.84,85.1801,8.96C1400.67,684.25,1403.17,684.96,1404.03,683.05z"/>
	<path fill="#DADADA" d="M251.79,824.95l1.63-0.11c0.51,11.12,0.74,22.2599,0.68,33.4c-0.86-3.37-1.3-6.83-1.24-10.3
		C252.94,840.26,251.82,832.63,251.79,824.95z"/>
	<path fill="#818181" d="M876.73,845.01c66.91-0.03,133.83-0.01,200.75-0.01c-0.02,2.07-0.02,4.14-0.02,6.23
		c-66.91,0.06-133.8099,0.09-200.72-0.01C876.73,849.14,876.72,847.07,876.73,845.01z"/>
	<g>
		<path fill="#A4A5A9" d="M1741.0566,304.4102c-4.2373,0-7.6846-2.5684-7.6846-5.7256s3.4473-5.7256,7.6846-5.7256
			s7.6846,2.5684,7.6846,5.7256S1745.2939,304.4102,1741.0566,304.4102z M1741.0566,294.6592c-3.2998,0-5.9854,1.8057-5.9854,4.0254
			s2.6855,4.0254,5.9854,4.0254s5.9854-1.8057,5.9854-4.0254S1744.3564,294.6592,1741.0566,294.6592z"/>
	</g>
</g>
</svg>
