<?xml version="1.0" encoding="UTF-8" standalone="no"?>
<!-- Created with Inkscape (http://www.inkscape.org/) -->

<svg
   xmlns:dc="http://purl.org/dc/elements/1.1/"
   xmlns:cc="http://creativecommons.org/ns#"
   xmlns:rdf="http://www.w3.org/1999/02/22-rdf-syntax-ns#"
   xmlns:svg="http://www.w3.org/2000/svg"
   xmlns="http://www.w3.org/2000/svg"
   xmlns:xlink="http://www.w3.org/1999/xlink"
   xmlns:sodipodi="http://sodipodi.sourceforge.net/DTD/sodipodi-0.dtd"
   xmlns:inkscape="http://www.inkscape.org/namespaces/inkscape"
   width="470"
   height="820"
   id="svg2"
   version="1.1"
   inkscape:version="0.48.5 r10040"
   sodipodi:docname="Japanese Bomb.svg">
  <defs
     id="defs4">
    <linearGradient
       inkscape:collect="always"
       id="linearGradient4120">
      <stop
         style="stop-color:#c0c0bf;stop-opacity:0"
         offset="0"
         id="stop4122" />
      <stop
         id="stop4130"
         offset="0.16483"
         style="stop-color:#c0c0bf;stop-opacity:1;" />
      <stop
         id="stop4128"
         offset="0.89761829"
         style="stop-color:#c0c0bf;stop-opacity:1;" />
      <stop
         style="stop-color:#c0c0bf;stop-opacity:0"
         offset="1"
         id="stop4124" />
    </linearGradient>
    <linearGradient
       inkscape:collect="always"
       id="linearGradient4102">
      <stop
         style="stop-color:#7e8669;stop-opacity:1;"
         offset="0"
         id="stop4104" />
      <stop
         id="stop4110"
         offset="0.69367397"
         style="stop-color:#7e8669;stop-opacity:1;" />
      <stop
         style="stop-color:#969d82;stop-opacity:1"
         offset="1"
         id="stop4106" />
    </linearGradient>
    <linearGradient
       id="linearGradient4096"
       inkscape:collect="always">
      <stop
         id="stop4098"
         offset="0"
         style="stop-color:#282828;stop-opacity:1;" />
      <stop
         id="stop4100"
         offset="1"
         style="stop-color:#595f47;stop-opacity:1" />
    </linearGradient>
    <linearGradient
       inkscape:collect="always"
       id="linearGradient4077">
      <stop
         style="stop-color:#e89999;stop-opacity:1"
         offset="0"
         id="stop4079" />
      <stop
         style="stop-color:#c40000;stop-opacity:1"
         offset="1"
         id="stop4081" />
    </linearGradient>
    <linearGradient
       inkscape:collect="always"
       id="linearGradient4057">
      <stop
         style="stop-color:#3e5698;stop-opacity:1;"
         offset="0"
         id="stop4059" />
      <stop
         id="stop4067"
         offset="0.10457301"
         style="stop-color:#3e5698;stop-opacity:0.60392157;" />
      <stop
         style="stop-color:#3e5698;stop-opacity:1"
         offset="1"
         id="stop4061" />
    </linearGradient>
    <linearGradient
       inkscape:collect="always"
       id="linearGradient4047">
      <stop
         style="stop-color:#ffffff;stop-opacity:1;"
         offset="0"
         id="stop4049" />
      <stop
         style="stop-color:#ffffff;stop-opacity:1"
         offset="1"
         id="stop4051" />
    </linearGradient>
    <linearGradient
       inkscape:collect="always"
       id="linearGradient4039">
      <stop
         style="stop-color:#c60000;stop-opacity:1;"
         offset="0"
         id="stop4041" />
      <stop
         id="stop4055"
         offset="0.14537317"
         style="stop-color:#c60000;stop-opacity:0.3372549;" />
      <stop
         style="stop-color:#c60000;stop-opacity:1"
         offset="1"
         id="stop4043" />
    </linearGradient>
    <linearGradient
       inkscape:collect="always"
       id="linearGradient3981">
      <stop
         style="stop-color:#282828;stop-opacity:1;"
         offset="0"
         id="stop3983" />
      <stop
         style="stop-color:#595f47;stop-opacity:1"
         offset="1"
         id="stop3985" />
    </linearGradient>
    <linearGradient
       inkscape:collect="always"
       id="linearGradient3973">
      <stop
         style="stop-color:#c0c4b4;stop-opacity:1"
         offset="0"
         id="stop3975" />
      <stop
         style="stop-color:#7e8669;stop-opacity:1"
         offset="1"
         id="stop3977" />
    </linearGradient>
    <linearGradient
       id="linearGradient3963">
      <stop
         style="stop-color:#404040;stop-opacity:0"
         offset="0"
         id="stop3965" />
      <stop
         id="stop3969"
         offset="0.0739897"
         style="stop-color:#9e9e9e;stop-opacity:1" />
      <stop
         style="stop-color:#e2e2e2;stop-opacity:1;"
         offset="0.77275062"
         id="stop3971" />
      <stop
         id="stop3967"
         offset="1"
         style="stop-color:#ffffff;stop-opacity:0" />
    </linearGradient>
    <linearGradient
       inkscape:collect="always"
       id="linearGradient3865">
      <stop
         style="stop-color:#3e442f;stop-opacity:1"
         offset="0"
         id="stop3867" />
      <stop
         style="stop-color:#7e8669;stop-opacity:1"
         offset="1"
         id="stop3869" />
    </linearGradient>
    <linearGradient
       id="linearGradient3846">
      <stop
         id="stop3860"
         offset="0"
         style="stop-color:#404040;stop-opacity:0;" />
      <stop
         style="stop-color:#000000;stop-opacity:0"
         offset="1"
         id="stop3850" />
    </linearGradient>
    <linearGradient
       inkscape:collect="always"
       xlink:href="#linearGradient3973"
       id="linearGradient4016"
       gradientUnits="userSpaceOnUse"
       x1="1176.4286"
       y1="188.07646"
       x2="1176.4286"
       y2="263.28476"
       gradientTransform="translate(862.85724,-405.71413)" />
    <linearGradient
       inkscape:collect="always"
       xlink:href="#linearGradient3865"
       id="linearGradient4025"
       gradientUnits="userSpaceOnUse"
       x1="1159.2832"
       y1="748.43359"
       x2="1185.0034"
       y2="748.43359"
       gradientTransform="translate(862.85724,-405.71413)" />
    <linearGradient
       inkscape:collect="always"
       xlink:href="#linearGradient3981"
       id="linearGradient4030"
       gradientUnits="userSpaceOnUse"
       x1="1120.2592"
       y1="729.1134"
       x2="1031.8301"
       y2="750.87238"
       gradientTransform="translate(862.85724,-405.71413)" />
    <linearGradient
       inkscape:collect="always"
       xlink:href="#linearGradient4096"
       id="linearGradient4033"
       gradientUnits="userSpaceOnUse"
       gradientTransform="matrix(-1,0,0,1,3221.7782,-405.71413)"
       x1="1120.2592"
       y1="729.1134"
       x2="1031.8301"
       y2="750.87238" />
    <linearGradient
       inkscape:collect="always"
       xlink:href="#linearGradient4039"
       id="linearGradient4045"
       x1="1913.5714"
       y1="48.790752"
       x2="2180"
       y2="12.362182"
       gradientUnits="userSpaceOnUse" />
    <linearGradient
       inkscape:collect="always"
       xlink:href="#linearGradient4047"
       id="linearGradient4053"
       x1="1945.5931"
       y1="38.99472"
       x2="2067.0903"
       y2="38.99472"
       gradientUnits="userSpaceOnUse" />
    <linearGradient
       inkscape:collect="always"
       xlink:href="#linearGradient4057"
       id="linearGradient4063"
       x1="1919.2856"
       y1="-32.637817"
       x2="2175.7144"
       y2="-18.352108"
       gradientUnits="userSpaceOnUse" />
    <linearGradient
       inkscape:collect="always"
       xlink:href="#linearGradient4057"
       id="linearGradient4075"
       x1="1945.6832"
       y1="151.69212"
       x2="2177.0938"
       y2="93.477837"
       gradientUnits="userSpaceOnUse" />
    <linearGradient
       inkscape:collect="always"
       xlink:href="#linearGradient4077"
       id="linearGradient4083"
       x1="1968.7874"
       y1="42.462173"
       x2="2038.2354"
       y2="25.54212"
       gradientUnits="userSpaceOnUse" />
    <linearGradient
       inkscape:collect="always"
       xlink:href="#linearGradient4102"
       id="linearGradient4108"
       x1="2105.7141"
       y1="183.79076"
       x2="1932.7418"
       y2="186.6479"
       gradientUnits="userSpaceOnUse" />
    <linearGradient
       inkscape:collect="always"
       xlink:href="#linearGradient4120"
       id="linearGradient4126"
       x1="1980.6001"
       y1="-157.81929"
       x2="2012.4719"
       y2="309.32358"
       gradientUnits="userSpaceOnUse" />
    <linearGradient
       inkscape:collect="always"
       xlink:href="#linearGradient4047"
       id="linearGradient3892"
       gradientUnits="userSpaceOnUse"
       gradientTransform="matrix(1.3317928,0,0,1.3328072,-2494.9403,559.72334)"
       x1="1945.5931"
       y1="38.99472"
       x2="2067.0903"
       y2="38.99472" />
    <rect
       fill="#B22234"
       height="50"
       width="1235"
       id="stripe" />
    <g
       id="u">
      <use
         id="use4018"
         y="-0.216"
         xlink:href="#x4" />
      <use
         id="use4020"
         xlink:href="#x4" />
      <use
         id="use4022"
         y="0.216"
         xlink:href="#s6" />
    </g>
    <g
       id="x4">
      <use
         id="use4009"
         xlink:href="#s6" />
      <use
         id="use4011"
         y="0.054"
         xlink:href="#s5" />
      <use
         id="use4013"
         y="0.108"
         xlink:href="#s6" />
      <use
         id="use4015"
         y="0.162"
         xlink:href="#s5" />
    </g>
    <g
       id="s6">
      <use
         id="use4004"
         x="-0.063"
         xlink:href="#s5" />
      <use
         id="use4006"
         x="0.315"
         xlink:href="#star" />
    </g>
    <g
       id="s5">
      <use
         id="use3993"
         x="-0.252"
         xlink:href="#star" />
      <use
         id="use3995"
         x="-0.126"
         xlink:href="#star" />
      <use
         id="use3997"
         xlink:href="#star" />
      <use
         id="use3999"
         x="0.126"
         xlink:href="#star" />
      <use
         id="use4001"
         x="0.252"
         xlink:href="#star" />
    </g>
    <g
       id="star">
      <use
         id="use3982"
         transform="rotate(-144)"
         xlink:href="#pt" />
      <use
         id="use3984"
         transform="rotate(-72)"
         xlink:href="#pt" />
      <use
         id="use3986"
         xlink:href="#pt" />
      <use
         id="use3988"
         transform="rotate(72)"
         xlink:href="#pt" />
      <use
         id="use3990"
         transform="rotate(144)"
         xlink:href="#pt" />
    </g>
    <polygon
       fill="#FFF"
       transform="scale(0.0616)"
       points="-0.1624598481164531,0 0,-0.5 0.1624598481164531,0"
       id="pt" />
    <linearGradient
       inkscape:collect="always"
       xlink:href="#linearGradient4047"
       id="linearGradient4087"
       gradientUnits="userSpaceOnUse"
       gradientTransform="matrix(1.3317928,0,0,1.3328072,-2494.9403,559.72334)"
       x1="1945.5931"
       y1="38.99472"
       x2="2067.0903"
       y2="38.99472" />
    <linearGradient
       inkscape:collect="always"
       xlink:href="#linearGradient4047"
       id="linearGradient4091"
       gradientUnits="userSpaceOnUse"
       gradientTransform="matrix(1.3317928,0,0,1.3328072,-2494.9403,559.72334)"
       x1="1945.5931"
       y1="38.99472"
       x2="2067.0903"
       y2="38.99472" />
  </defs>
  <sodipodi:namedview
     id="base"
     pagecolor="#ffffff"
     bordercolor="#666666"
     borderopacity="1.0"
     inkscape:pageopacity="0.0"
     inkscape:pageshadow="2"
     inkscape:zoom="1"
     inkscape:cx="101.68508"
     inkscape:cy="431.02711"
     inkscape:document-units="px"
     inkscape:current-layer="layer1"
     showgrid="false"
     showguides="true"
     inkscape:guide-bbox="true"
     inkscape:snap-global="false"
     inkscape:object-paths="true"
     inkscape:object-nodes="true"
     inkscape:snap-smooth-nodes="true"
     fit-margin-top="0"
     fit-margin-left="0"
     fit-margin-right="0"
     fit-margin-bottom="0"
     inkscape:window-width="1920"
     inkscape:window-height="1181"
     inkscape:window-x="0"
     inkscape:window-y="19"
     inkscape:window-maximized="1" />
  <metadata
     id="metadata7">
    <rdf:RDF>
      <cc:Work
         rdf:about="">
        <dc:format>image/svg+xml</dc:format>
        <dc:type
           rdf:resource="http://purl.org/dc/dcmitype/StillImage" />
        <dc:title></dc:title>
      </cc:Work>
    </rdf:RDF>
  </metadata>
  <g
     inkscape:label="Calque 1"
     inkscape:groupmode="layer"
     id="layer1"
     transform="translate(10,-242.34375)">
    <path
       inkscape:connector-curvature="0"
       id="path3857"
       d="m 226.38957,252.34528 c -0.15383,0.003 -0.31497,0.0564 -0.4684,0.0625 -0.31962,0.0133 -0.61928,0.006 -0.93678,0.0312 -0.1658,0.012 -0.33315,0.0155 -0.49962,0.0312 -0.75446,0.0717 -1.54322,0.19962 -2.31073,0.34375 -0.35772,0.0672 -0.70105,0.16656 -1.06169,0.25 -0.20882,0.0486 -0.4165,0.0716 -0.62453,0.125 -0.15355,0.0393 -0.31444,0.0828 -0.46839,0.125 -0.18565,0.0512 -0.34599,0.10133 -0.53084,0.15625 -0.32163,0.0954 -0.64399,0.17244 -0.96801,0.28125 -0.13891,0.0462 -0.26744,0.13925 -0.40594,0.1875 -0.87845,0.30967 -1.78849,0.62009 -2.68545,1.03124 C -7.6953775,397.32512 11.254355,488.95802 57.924504,703.34433 c 9.136487,41.97003 20.725045,79.0329 33.536882,115.06225 L 0,912.31264 l 0,140.03096 100.89168,0 59.54826,-42.7499 42.90473,0 4.1843,0 -0.53084,34.2811 30.22691,0 0.56207,-34.2811 12.61536,0 39.09514,0 c 0.003,-0.01 -0.003,-0.022 0,-0.031 l 59.61072,42.7811 100.89168,0 0,-140.03096 -98.26869,-100.90604 c 11.52736,-37.74458 22.661,-76.04199 33.63056,-117.5935 46.67015,-176.7821 76.08065,-296.48798 -147.04393,-438.84283 -1.32074,-0.60541 -2.62208,-1.08083 -3.90326,-1.46874 -0.13625,-0.0413 -0.2701,-0.0861 -0.40594,-0.125 -0.20564,-0.0588 -0.41809,-0.10214 -0.62453,-0.15625 -0.24851,-0.0649 -0.50237,-0.0991 -0.74942,-0.15625 -0.36145,-0.0842 -0.72868,-0.18074 -1.09292,-0.25 -0.76152,-0.14244 -1.49968,-0.27255 -2.24828,-0.34375 -0.48491,-0.0461 -0.95683,-0.045 -1.4364,-0.0625 -0.32003,-0.0135 -0.64572,-0.0616 -0.96802,-0.0625 -0.16314,2.9e-4 -0.337,-0.004 -0.49961,0 z"
       style="fill:none;stroke:#3f3f3f;stroke-width:20;stroke-miterlimit:4;stroke-opacity:1;stroke-dasharray:none" />
    <path
       style="fill:#646b51;fill-opacity:1;stroke:none"
       d="m 346.08188,805.63061 103.92552,106.69733 0,140.01926 -100.89849,0 -77.35559,-55.53652 z"
       id="path3989"
       inkscape:connector-curvature="0" />
    <path
       inkscape:connector-curvature="0"
       id="path3006"
       d="M 103.92546,805.63061 -5.9e-5,912.32794 l 0,140.01926 100.898489,0 77.35558,-55.53652 z"
       style="fill:#646b51;fill-opacity:1;stroke:none" />
    <path
       sodipodi:nodetypes="ccccscccccccsccccsccccccscccc"
       inkscape:connector-curvature="0"
       style="fill:#889074;fill-opacity:1;stroke:none"
       d="m 226.38807,252.35083 c -0.15383,0.003 -0.30445,0.0355 -0.45787,0.0416 -0.31963,0.0133 -0.63966,0.0167 -0.95716,0.0416 -0.16581,0.012 -0.33295,0.0259 -0.49943,0.0416 -0.75446,0.0717 -1.52144,0.18908 -2.28895,0.33321 -0.35772,0.0672 -0.72156,0.16646 -1.08221,0.2499 -0.20883,0.0487 -0.41619,0.0714 -0.62421,0.12488 -0.15356,0.0393 -0.30379,0.0826 -0.45774,0.12489 -0.18565,0.0512 -0.35626,0.11169 -0.54111,0.1666 -0.32163,0.0954 -0.63313,0.18274 -0.95716,0.29155 -0.1389,0.0463 -0.27781,0.11835 -0.41632,0.1666 -0.87845,0.30968 -1.76662,0.6301 -2.66358,1.04126 C -7.6822394,397.32931 11.246132,488.95286 57.916281,703.33914 82.421002,815.9058 124.65441,893.29242 160.4277,1009.5933 l 42.9037,0 47.07049,0 39.08226,0 c 35.77342,-116.30088 66.4811,-204.40693 95.88668,-315.79206 46.67015,-176.78209 76.08639,-296.47193 -147.03818,-438.82677 -1.32074,-0.60542 -2.63109,-1.06985 -3.91227,-1.45776 -0.13625,-0.0413 -0.28021,-0.086 -0.41606,-0.12489 -0.20563,-0.0588 -0.41791,-0.11249 -0.62434,-0.1666 -0.24851,-0.0649 -0.50209,-0.10942 -0.74913,-0.1666 -0.36145,-0.0842 -0.71784,-0.18063 -1.08209,-0.2499 -0.76152,-0.14244 -1.4988,-0.262 -2.2474,-0.3332 -0.4849,-0.0461 -0.977,-0.0658 -1.45658,-0.0833 -0.32003,-0.0135 -0.635,-0.0406 -0.95729,-0.0416 -0.16315,3e-4 -0.33681,-0.004 -0.49942,0 z"
       id="path2996" />
    <path
       style="fill:#ffffff;stroke:#3f3f3f;stroke-opacity:1"
       d="M 405.375 167.78125 L 38.34375 266.125 C 37.429657 320.27933 50.792541 382.38563 67.90625 461 C 74.214975 489.98022 81.722657 516.60643 89.96875 542.1875 L 392.8125 461.03125 C 393.66683 457.84162 394.52295 454.69622 395.375 451.46875 C 424.50492 341.12738 446.90218 253.03239 405.375 167.78125 z "
       transform="translate(-10,242.34375)"
       id="rect4025" />
    <path
       style="fill:#b22234"
       d="M 405.375 167.78125 L 38.34375 266.125 C 38.221471 273.36927 38.354628 280.76313 38.71875 288.3125 L 413.96875 187.78125 C 411.47998 181.08601 408.61498 174.4326 405.375 167.78125 z M 420.46875 208.34375 L 40.34375 310.1875 C 41.03913 317.22884 41.898637 324.43405 42.90625 331.78125 L 424.9375 229.4375 C 423.78284 222.36253 422.30811 215.33171 420.46875 208.34375 z M 427.46875 251.0625 L 46.15625 353.21875 C 47.308631 360.16705 48.585195 367.25459 49.9375 374.5 L 428.1875 273.15625 C 428.23735 265.72562 428.00048 258.3609 427.46875 251.0625 z M 427.21875 295.71875 L 54.0625 395.71875 C 55.449342 402.61614 56.895448 409.63232 58.40625 416.8125 L 424.8125 318.65625 C 425.83295 310.92115 426.65108 303.27998 427.21875 295.71875 z M 421.21875 341.90625 L 62.90625 437.9375 C 64.392609 444.82903 65.910468 451.84042 67.46875 459 L 416.625 365.46875 C 418.31548 357.5117 419.84302 349.6571 421.21875 341.90625 z M 411.21875 389.1875 L 72.3125 480.03125 C 74.03182 487.09936 75.805571 494.04775 77.65625 500.875 L 405.375 413.0625 C 407.42014 405.00175 409.35767 397.0234 411.21875 389.1875 z M 399.1875 437.03125 L 83.5625 521.59375 C 85.635139 528.55415 87.781099 535.40096 89.96875 542.1875 L 392.8125 461.03125 C 393.66683 457.84162 394.52295 454.69622 395.375 451.46875 C 396.65881 446.60579 397.9347 441.80946 399.1875 437.03125 z "
       transform="translate(-10,242.34375)"
       id="use4027" />
    <path
       inkscape:connector-curvature="0"
       id="rect4041"
       d="m 201.90625,461.96875 -173.562499,46.5 c -0.73567,43.58388 7.785258,92.37323 20.0625,150.71875 L 240.9375,607.59375 201.90625,461.96875 z"
       style="fill:#3c3b6e;stroke:#3c3b6e;stroke-opacity:1" />
    <path
       style="fill:#ffffff"
       d="M 195.96875 230.40625 L 195.65625 236.65625 L 189.59375 238.28125 L 195.4375 240.53125 L 195.09375 246.78125 L 199.03125 241.90625 L 204.90625 244.15625 L 201.5 238.875 L 205.4375 234.03125 L 199.375 235.65625 L 195.96875 230.40625 z M 161.875 239.53125 L 161.5625 245.78125 L 155.5 247.40625 L 161.34375 249.65625 L 161.03125 255.90625 L 164.96875 251.03125 L 170.8125 253.28125 L 167.40625 248.03125 L 171.34375 243.15625 L 165.3125 244.78125 L 161.875 239.53125 z M 127.8125 248.65625 L 127.5 254.90625 L 121.4375 256.53125 L 127.28125 258.78125 L 126.96875 265.03125 L 130.90625 260.15625 L 136.75 262.40625 L 133.34375 257.15625 L 137.28125 252.28125 L 131.21875 253.90625 L 127.8125 248.65625 z M 182.84375 249.5625 L 182.53125 255.8125 L 176.46875 257.4375 L 182.3125 259.6875 L 181.96875 265.9375 L 185.9375 261.0625 L 191.78125 263.3125 L 188.375 258.0625 L 192.3125 253.1875 L 186.25 254.8125 L 182.84375 249.5625 z M 93.71875 257.78125 L 93.40625 264.03125 L 87.34375 265.65625 L 93.1875 267.90625 L 92.875 274.15625 L 96.84375 269.28125 L 102.65625 271.53125 L 99.25 266.28125 L 103.1875 261.40625 L 97.15625 263.03125 L 93.71875 257.78125 z M 148.75 258.6875 L 148.4375 264.9375 L 142.375 266.5625 L 148.21875 268.8125 L 147.90625 275.0625 L 151.875 270.1875 L 157.6875 272.4375 L 154.28125 267.1875 L 158.21875 262.3125 L 152.15625 263.96875 L 148.75 258.6875 z M 203.78125 259.59375 L 203.46875 265.84375 L 197.40625 267.46875 L 203.25 269.71875 L 202.9375 275.96875 L 206.90625 271.09375 L 212.71875 273.34375 L 209.3125 268.125 L 213.25 263.25 L 207.1875 264.875 L 203.78125 259.59375 z M 59.65625 266.90625 L 59.34375 273.15625 L 53.28125 274.78125 L 59.125 277.03125 L 58.8125 283.3125 L 62.75 278.4375 L 68.59375 280.6875 L 65.1875 275.40625 L 69.125 270.5625 L 63.0625 272.1875 L 59.65625 266.90625 z M 114.6875 267.8125 L 114.375 274.0625 L 108.3125 275.71875 L 114.15625 277.9375 L 113.8125 284.21875 L 117.75 279.34375 L 123.625 281.59375 L 120.21875 276.3125 L 124.15625 271.46875 L 118.09375 273.09375 L 114.6875 267.8125 z M 169.71875 268.71875 L 169.40625 274.96875 L 163.34375 276.625 L 169.1875 278.875 L 168.84375 285.125 L 172.78125 280.25 L 178.65625 282.5 L 175.25 277.21875 L 179.1875 272.375 L 173.125 274 L 169.71875 268.71875 z M 80.59375 276.96875 L 80.28125 283.21875 L 74.21875 284.84375 L 80.0625 287.09375 L 79.75 293.34375 L 83.6875 288.46875 L 89.53125 290.71875 L 86.125 285.46875 L 90.0625 280.59375 L 84.03125 282.21875 L 80.59375 276.96875 z M 135.625 277.875 L 135.3125 284.125 L 129.25 285.75 L 135.09375 288 L 134.78125 294.25 L 138.71875 289.375 L 144.5625 291.625 L 141.15625 286.375 L 145.09375 281.5 L 139.03125 283.125 L 135.625 277.875 z M 190.65625 278.78125 L 190.34375 285.03125 L 184.28125 286.65625 L 190.125 288.90625 L 189.8125 295.15625 L 193.75 290.28125 L 199.59375 292.53125 L 196.1875 287.28125 L 200.125 282.40625 L 194.0625 284.03125 L 190.65625 278.78125 z M 46.53125 286.09375 L 46.21875 292.34375 L 40.15625 293.96875 L 46 296.21875 L 45.6875 302.46875 L 49.625 297.59375 L 55.46875 299.84375 L 52.0625 294.59375 L 56 289.71875 L 49.9375 291.34375 L 46.53125 286.09375 z M 101.5625 287 L 101.25 293.25 L 95.1875 294.875 L 101.03125 297.125 L 100.6875 303.375 L 104.65625 298.5 L 110.5 300.75 L 107.09375 295.5 L 111.03125 290.625 L 104.96875 292.25 L 101.5625 287 z M 156.59375 287.90625 L 156.28125 294.15625 L 150.21875 295.78125 L 156.0625 298.03125 L 155.71875 304.28125 L 159.6875 299.40625 L 165.53125 301.65625 L 162.125 296.40625 L 166.0625 291.53125 L 160 293.15625 L 156.59375 287.90625 z M 211.625 288.8125 L 211.3125 295.0625 L 205.25 296.6875 L 211.09375 298.9375 L 210.75 305.1875 L 214.71875 300.3125 L 220.5625 302.5625 L 217.15625 297.3125 L 221.09375 292.4375 L 215.03125 294.0625 L 211.625 288.8125 z M 67.46875 296.125 L 67.15625 302.375 L 61.09375 304 L 66.9375 306.25 L 66.625 312.5 L 70.59375 307.625 L 76.40625 309.875 L 73 304.625 L 76.9375 299.75 L 70.875 301.375 L 67.46875 296.125 z M 122.5 297.03125 L 122.1875 303.28125 L 116.125 304.90625 L 121.96875 307.15625 L 121.65625 313.40625 L 125.625 308.53125 L 131.4375 310.78125 L 128.03125 305.53125 L 131.96875 300.65625 L 125.90625 302.28125 L 122.5 297.03125 z M 177.53125 297.9375 L 177.21875 304.1875 L 171.15625 305.8125 L 177 308.0625 L 176.6875 314.3125 L 180.65625 309.4375 L 186.46875 311.6875 L 183.0625 306.4375 L 187 301.5625 L 180.9375 303.21875 L 177.53125 297.9375 z M 88.4375 306.15625 L 88.125 312.40625 L 82.0625 314.03125 L 87.90625 316.25 L 87.5625 322.53125 L 91.5 317.6875 L 97.375 319.9375 L 93.96875 314.65625 L 97.90625 309.8125 L 91.84375 311.4375 L 88.4375 306.15625 z M 143.46875 307.0625 L 143.15625 313.3125 L 137.09375 314.9375 L 142.9375 317.15625 L 142.59375 323.46875 L 146.53125 318.59375 L 152.40625 320.84375 L 149 315.5625 L 152.9375 310.71875 L 146.875 312.34375 L 143.46875 307.0625 z M 198.5 307.96875 L 198.1875 314.21875 L 192.125 315.875 L 197.96875 318.125 L 197.625 324.375 L 201.5625 319.5 L 207.4375 321.75 L 204.03125 316.46875 L 207.96875 311.625 L 201.90625 313.25 L 198.5 307.96875 z M 42.875 308.875 L 40.28125 309.59375 C 40.352641 310.32563 40.456291 311.04621 40.53125 311.78125 L 42.875 308.875 z M 54.34375 315.28125 L 54.03125 321.5625 L 47.96875 323.1875 L 53.8125 325.4375 L 53.5 331.6875 L 57.4375 326.8125 L 63.28125 329.0625 L 59.875 323.8125 L 63.8125 318.9375 L 57.75 320.5625 L 54.34375 315.28125 z M 109.375 316.21875 L 109.0625 322.46875 L 103 324.09375 L 108.84375 326.34375 L 108.53125 332.59375 L 112.46875 327.71875 L 118.3125 329.96875 L 114.90625 324.71875 L 118.84375 319.84375 L 112.78125 321.46875 L 109.375 316.21875 z M 41.09375 317.0625 C 41.150957 317.57266 41.191172 318.08205 41.25 318.59375 L 42.34375 319 L 41.09375 317.0625 z M 164.40625 317.125 L 164.09375 323.375 L 158.03125 325 L 163.875 327.25 L 163.5625 333.5 L 167.5 328.625 L 173.34375 330.875 L 169.9375 325.625 L 173.875 320.75 L 167.8125 322.375 L 164.40625 317.125 z M 219.4375 318.03125 L 219.125 324.28125 L 213.0625 325.90625 L 218.90625 328.15625 L 218.59375 334.40625 L 222.53125 329.53125 L 228.375 331.78125 L 224.96875 326.53125 L 228.90625 321.65625 L 222.84375 323.28125 L 219.4375 318.03125 z M 75.3125 325.34375 L 75 331.59375 L 68.9375 333.21875 L 74.78125 335.46875 L 74.4375 341.71875 L 78.375 336.84375 L 84.25 339.09375 L 80.84375 333.84375 L 84.78125 328.96875 L 78.71875 330.59375 L 75.3125 325.34375 z M 130.34375 326.25 L 130.03125 332.5 L 123.96875 334.125 L 129.8125 336.375 L 129.46875 342.625 L 133.40625 337.75 L 139.28125 340 L 135.875 334.75 L 139.8125 329.875 L 133.75 331.5 L 130.34375 326.25 z M 185.375 327.15625 L 185.0625 333.40625 L 179 335.03125 L 184.84375 337.28125 L 184.5 343.53125 L 188.46875 338.65625 L 194.3125 340.90625 L 190.90625 335.65625 L 194.84375 330.78125 L 188.78125 332.40625 L 185.375 327.15625 z M 96.25 335.375 L 95.9375 341.625 L 89.875 343.25 L 95.71875 345.5 L 95.40625 351.75 L 99.375 346.875 L 105.1875 349.125 L 101.78125 343.875 L 105.71875 339 L 99.65625 340.625 L 96.25 335.375 z M 151.28125 336.28125 L 150.96875 342.53125 L 144.90625 344.15625 L 150.75 346.40625 L 150.4375 352.65625 L 154.375 347.78125 L 160.21875 350.03125 L 156.8125 344.78125 L 160.75 339.90625 L 154.6875 341.53125 L 151.28125 336.28125 z M 206.3125 337.1875 L 206 343.4375 L 199.9375 345.0625 L 205.78125 347.3125 L 205.46875 353.5625 L 209.40625 348.6875 L 215.25 350.9375 L 211.84375 345.6875 L 215.78125 340.8125 L 209.71875 342.4375 L 206.3125 337.1875 z M 50.6875 338.09375 L 44.625 339.71875 L 43.875 338.5625 C 44.249615 341.10817 44.655521 343.66524 45.0625 346.25 L 50.15625 348.21875 L 46.75 342.96875 L 50.6875 338.09375 z M 62.1875 344.5 L 61.875 350.75 L 55.8125 352.375 L 61.65625 354.625 L 61.3125 360.875 L 65.28125 356 L 71.125 358.25 L 67.71875 353 L 71.65625 348.125 L 65.59375 349.75 L 62.1875 344.5 z M 117.21875 345.40625 L 116.90625 351.65625 L 110.84375 353.28125 L 116.6875 355.5 L 116.34375 361.78125 L 120.28125 356.9375 L 126.15625 359.15625 L 122.75 353.90625 L 126.6875 349.0625 L 120.625 350.6875 L 117.21875 345.40625 z M 172.25 346.3125 L 171.9375 352.5625 L 165.875 354.1875 L 171.71875 356.40625 L 171.375 362.71875 L 175.3125 357.84375 L 181.1875 360.09375 L 177.78125 354.8125 L 181.71875 349.96875 L 175.65625 351.59375 L 172.25 346.3125 z M 227.28125 347.21875 L 226.96875 353.46875 L 220.90625 355.09375 L 226.71875 357.3125 L 226.40625 363.625 L 230.34375 358.75 L 236.21875 361 L 232.8125 355.71875 L 236.75 350.875 L 230.6875 352.5 L 227.28125 347.21875 z M 83.125 354.53125 L 82.8125 360.78125 L 76.75 362.4375 L 82.59375 364.6875 L 82.28125 370.9375 L 86.21875 366.0625 L 92.0625 368.3125 L 88.65625 363.0625 L 92.59375 358.1875 L 86.53125 359.8125 L 83.125 354.53125 z M 138.15625 355.46875 L 137.84375 361.71875 L 131.78125 363.34375 L 137.625 365.59375 L 137.3125 371.84375 L 141.25 366.96875 L 147.09375 369.21875 L 143.6875 363.96875 L 147.625 359.09375 L 141.5625 360.71875 L 138.15625 355.46875 z M 193.1875 356.375 L 192.875 362.625 L 186.8125 364.25 L 192.65625 366.5 L 192.34375 372.75 L 196.28125 367.875 L 202.125 370.125 L 198.71875 364.875 L 202.65625 360 L 196.59375 361.625 L 193.1875 356.375 z M 49.0625 363.6875 L 48.8125 368.53125 C 49.336683 371.41927 49.882664 374.31215 50.4375 377.25 L 52.125 375.1875 L 58 377.4375 L 54.5625 372.1875 L 58.53125 367.3125 L 52.46875 368.9375 L 49.0625 363.6875 z M 104.09375 364.59375 L 103.78125 370.84375 L 97.71875 372.46875 L 103.5625 374.71875 L 103.21875 380.96875 L 107.15625 376.09375 L 113.03125 378.34375 L 109.59375 373.09375 L 113.5625 368.21875 L 107.5 369.84375 L 104.09375 364.59375 z M 159.125 365.5 L 158.8125 371.75 L 152.75 373.375 L 158.59375 375.625 L 158.25 381.875 L 162.1875 377 L 168.0625 379.25 L 164.65625 374 L 168.59375 369.125 L 162.53125 370.75 L 159.125 365.5 z M 70 373.71875 L 69.6875 379.96875 L 63.625 381.59375 L 69.46875 383.84375 L 69.15625 390.09375 L 73.09375 385.21875 L 78.9375 387.46875 L 75.53125 382.21875 L 79.46875 377.34375 L 73.40625 378.96875 L 70 373.71875 z M 125.03125 374.625 L 124.71875 380.875 L 118.65625 382.5 L 124.5 384.75 L 124.1875 391 L 128.125 386.125 L 133.96875 388.375 L 130.5625 383.125 L 134.5 378.25 L 128.4375 379.875 L 125.03125 374.625 z M 90.96875 383.75 L 90.65625 390 L 84.59375 391.625 L 90.4375 393.875 L 90.09375 400.125 L 94.0625 395.25 L 99.90625 397.5 L 96.5 392.25 L 100.4375 387.375 L 94.375 389 L 90.96875 383.75 z M 56.875 392.875 L 56.5625 399.125 L 54.84375 399.59375 C 55.053452 400.62603 55.256205 401.61782 55.46875 402.65625 L 56.34375 403 L 56.1875 406.15625 C 56.346257 406.92588 56.496024 407.72698 56.65625 408.5 L 59.96875 404.40625 L 65.8125 406.65625 L 62.40625 401.40625 L 66.34375 396.53125 L 60.28125 398.15625 L 56.875 392.875 z "
       transform="translate(-10,242.34375)"
       id="use4938" />
    <path
       style="fill:#646b51;fill-opacity:1;stroke:none"
       d="m 207.00848,1043.8725 30.2032,0 3.56721,-215.69071 -15.2204,-22.07259 -15.22052,22.07259 z"
       id="path3002"
       inkscape:connector-curvature="0" />
  </g>
</svg>
