<?xml version="1.0" encoding="UTF-8" standalone="no"?>
<!-- Creator: CorelDRAW -->

<svg
   xmlns:dc="http://purl.org/dc/elements/1.1/"
   xmlns:cc="http://creativecommons.org/ns#"
   xmlns:rdf="http://www.w3.org/1999/02/22-rdf-syntax-ns#"
   xmlns:svg="http://www.w3.org/2000/svg"
   xmlns="http://www.w3.org/2000/svg"
   xmlns:sodipodi="http://sodipodi.sourceforge.net/DTD/sodipodi-0.dtd"
   xmlns:inkscape="http://www.inkscape.org/namespaces/inkscape"
   xml:space="preserve"
   width="210mm"
   height="297mm"
   style="shape-rendering:geometricPrecision; text-rendering:geometricPrecision; image-rendering:optimizeQuality; fill-rule:evenodd; clip-rule:evenodd"
   viewBox="0 0 210 297"
   id="svg2"
   version="1.1"
   inkscape:version="0.91 r13725"
   sodipodi:docname="yeti.svg"><metadata
   id="metadata34"><rdf:RDF><cc:Work
       rdf:about=""><dc:format>image/svg+xml</dc:format><dc:type
         rdf:resource="http://purl.org/dc/dcmitype/StillImage" /><dc:title /></cc:Work></rdf:RDF></metadata><sodipodi:namedview
   pagecolor="#ffffff"
   bordercolor="#666666"
   borderopacity="1"
   objecttolerance="10"
   gridtolerance="10"
   guidetolerance="10"
   inkscape:pageopacity="0"
   inkscape:pageshadow="2"
   inkscape:window-width="1600"
   inkscape:window-height="838"
   id="namedview32"
   showgrid="false"
   inkscape:zoom="0.62580065"
   inkscape:cx="332.98774"
   inkscape:cy="760.15266"
   inkscape:window-x="-8"
   inkscape:window-y="-8"
   inkscape:window-maximized="1"
   inkscape:current-layer="Warstwa_x0020_1" />
 <defs
   id="defs4">
  <style
   type="text/css"
   id="style6">
   <![CDATA[
    .fil1 {fill:#2C2A2A}
    .fil9 {fill:#58585A}
    .fil10 {fill:#5C5E5E}
    .fil11 {fill:#777C7F}
    .fil7 {fill:#7F8385}
    .fil6 {fill:#838789}
    .fil4 {fill:#8A8D90}
    .fil5 {fill:#949699}
    .fil8 {fill:#97999E}
    .fil2 {fill:white}
    .fil3 {fill:white}
    .fil0 {fill:#1F1A17;fill-rule:nonzero}
   ]]>
  </style>
 
   
   
  
    
    
   </defs>
 <g
   id="Warstwa_x0020_1">
  <metadata
   id="CorelCorpID_0Corel-Layer" />
  <g
   id="g14"
   transform="matrix(2.2928916,0,0,2.0883651,-5.7132755,27.019848)">
     <path
   id="_103045816"
   class="fil1"
   d="m 73.3051,20.6265 -0.0789,0.1514 -0.079,0.0757 -0.0789,0.1514 -0.0789,0.1514 -0.079,0.0757 -0.0789,0.1514 -0.0789,0.1514 -0.0789,0.1513 -0.079,0.1514 -0.0789,0.1515 -0.0789,0.1513 -0.079,0.2271 -0.0789,-0.0757 -0.0789,-0.1514 -0.079,-0.0757 -0.0789,-0.1514 -0.0789,-0.0757 -0.079,-0.0756 -0.0789,-0.1514 -0.0789,-0.0757 -0.0789,-0.0757 c -0.9943,0 -1.2619,-0.6649 -1.6577,-1.2111 l -0.0789,0.0757 -0.0789,0.227 -0.079,0.2271 -0.0789,0.2271 -0.0789,0.2271 -0.079,0.2271 -0.0789,0.1514 -0.0789,0.227 -0.0791,0.1515 -0.0789,0.227 -0.0789,0.2271 -0.0789,0.2271 -0.079,0.2271 -0.0789,0.227 -0.0789,0.2271 -0.079,0.3028 0,0.3784 c 0.0733,0.263 0.5376,0.7989 0.733,1.0381 0.2537,0.3109 0.326,0.8444 0.4775,1.283 0.0611,0.1769 0.5261,2.7494 0.5261,2.9017 0,0.3436 -0.3105,0.9083 -0.6314,0.9083 -0.2613,0 -0.4887,-0.7967 -0.5527,-1.0597 l -0.1578,-0.0757 -0.0789,-0.0756 -0.079,-0.0758 -0.0789,-0.0756 -0.1579,-0.0757 -0.0789,-0.0758 -0.0789,-0.0756 -0.1579,-0.0757 -0.0789,-0.0757 -0.079,-0.0757 -0.1578,-0.0757 -0.0789,-0.0757 -0.1579,-0.0757 -0.1579,-0.0756 -0.0789,-0.0758 -0.2368,-0.0756 -0.1579,-0.0757 -0.2368,-0.0758 -0.3947,-0.0756 -0.4736,-0.0757 -0.5525,-0.0757 -0.2368,-0.0757 -0.2368,-0.0757 -0.2368,-0.0757 -0.2369,-0.0757 -0.2368,-0.0756 -0.2367,-0.0758 -0.2368,0 c 0.0821,0.295 0.4735,0.7531 0.4735,1.1354 l 0,0.4541 -0.0789,0.8327 0,0.5298 0.0789,0.3028 0.079,0.2271 0.0789,0.1513 0.0789,0.1514 0.079,0.1515 0.0789,0.0756 0,0.0757 -0.1579,-0.0757 -0.1578,-0.0756 -0.1579,-0.0758 -0.2368,-0.0757 -0.1578,-0.0756 -0.2368,-0.0758 -0.3158,-0.0756 -0.2367,-0.0757 -0.3947,-0.0757 -0.3158,-0.0757 -0.4736,-0.0757 -0.5525,-0.0757 -0.4065,-0.0038 0.0908,-0.1475 0.0789,-0.1515 0.0789,-0.1514 0.079,-0.3027 0,-0.9083 -0.079,-0.2271 -0.0789,-0.2271 -0.0789,-0.0756 -0.079,-0.1514 -0.0789,-0.0757 -0.0789,-0.0758 -0.079,-0.0756 -0.0789,-0.0757 -0.0789,-0.0757 -0.079,-0.0757 -0.0789,-0.0757 -0.079,-0.0757 L 60.202,27.2118 60.1231,27.1362 59.9652,27.0604 59.8074,26.9847 59.6495,26.9091 59.4917,26.8333 59.3338,26.7577 59.097,26.6819 58.9391,26.6063 58.7023,26.5306 58.4656,26.4548 58.1498,26.3792 57.834,26.3035 57.5183,26.2278 57.2026,26.1521 56.8079,26.0764 56.3343,26.0007 55.9397,25.925 55.3871,25.8494 54.8346,25.7736 54.282,25.6979 53.6505,25.6223 53.1769,25.5465 53.019,25.4709 l -0.0789,-0.0757 -0.1578,-0.0757 -0.079,-0.0757 -0.0789,-0.0757 -0.0789,-0.1514 -0.079,-0.0756 -0.0789,-0.0758 -0.0789,-0.0757 -0.079,-0.0756 -0.0789,-0.0758 -0.0789,-0.0756 -0.1579,-0.0757 -0.0789,-0.0757 -0.0789,-0.0757 -0.079,-0.0757 -0.1578,-0.0757 -0.079,-0.0757 -0.1579,-0.0757 -0.2368,-0.0757 -0.1579,-0.0757 -0.3157,-0.0756 -1.4208,0 -0.3947,0.0756 -0.3157,0.0757 -0.6315,0.0757 -1.9733,0 -1.3419,0 -0.3947,0.0757 -0.1579,0.0757 -0.1578,0.0757 -0.1579,0.0757 -0.1578,0.0757 -0.1579,0.0757 -0.1579,0.0757 -0.1578,0.0756 -0.1579,0.0758 -0.1579,0.0756 -0.1578,0.0757 -0.158,0.0758 -0.1578,0.0756 -0.1579,0.0757 -0.1579,0.0757 -0.1578,0.0757 -0.079,0.0757 0,0.0757 0,0.0757 -0.1578,0.0756 -0.0789,0.0758 -0.1579,0.0756 0,0.1515 0.0789,0.0756 0.079,0.0757 0.0789,0.0757 0.0789,0.0757 0.0789,0.0757 0.079,0.0757 0.0789,0.0757 0.1579,0.0756 0.0789,0.0758 0.0789,0.0757 0,0.1514 -0.0789,0.0756 -0.0789,0.0758 -0.1579,0.0756 -0.0789,0.0757 -0.079,0.0758 -0.0789,0.0756 -0.0789,0.0757 -0.0789,0.0757 -0.079,0.0757 -0.0789,0.0757 -0.0789,0.0757 -0.079,0.0757 -0.0789,0.0756 -0.0789,0.0758 -0.079,0.0757 -0.0789,0.0756 -0.1579,0.0758 -0.0789,0.0756 -0.0789,0.0757 -0.0789,0.0757 -0.079,0.0757 -0.0789,0.0757 -0.079,0.0757 -0.079,0.0757 -0.0789,0.0756 -0.0789,0.0758 -0.079,0.0757 -0.0789,0.0756 -0.0789,0.0758 -0.0789,0.0756 -0.079,0.0757 -0.0789,0.0757 -0.0789,0.0757 -0.079,0.0757 -0.0789,0.0757 -0.0789,0.0757 -0.079,0.0757 -0.0789,0.0757 -0.0789,0.0757 -0.079,0.0756 -0.0789,0.0758 -0.0789,0.0756 -0.0789,0.0757 -0.1579,0.0758 -0.0789,0.0756 -0.079,0.0757 -0.0789,0.0757 -0.0789,0.0757 -0.079,0.0757 -0.079,0.0757 -0.0789,0.0757 -0.0789,0.0756 -0.079,0.0758 -0.1578,0.0756 -0.079,0.0757 -0.0789,0.0758 -0.0789,0.0756 -0.079,0.0757 -0.0789,0.0757 -0.1579,0.0757 -0.0789,0.0757 -0.0789,0.0757 -0.0789,0.0757 -0.1579,0.0756 -0.0789,0.0758 -0.079,0.0757 -0.0789,0.0756 -0.1579,0.0758 -0.0789,0.0756 -0.1579,0.0757 -0.0789,0.0757 -0.0789,0.0757 -0.158,0.0757 -0.0789,0.0757 -0.1579,0.0757 -0.0789,0.0756 -0.1579,0.0758 -0.1578,0.0757 -0.1579,0.0757 -0.0789,0.0757 -0.1579,0.0756 -0.2368,0.0758 -0.1578,0.0757 -0.1579,0.0756 -0.1578,0.0758 -0.1579,0.0756 -0.2368,0.0757 -0.158,0.0757 -0.1578,0.0757 -0.2368,0.0757 -0.2368,0.0757 -0.1579,0.0757 -0.2368,0.0756 -0.2367,0.0758 -0.1579,0.0757 -0.2368,0.0756 -0.2368,0.0758 -0.2369,0.0756 -0.2368,0.0757 -0.2368,0.0757 -0.2368,0.0757 -0.2367,0.0757 -0.2368,0.0757 -0.2368,0.0757 -0.2368,0.0757 -0.3157,0.0757 -0.2369,0.0757 -0.2368,0.0756 -0.3158,0.0758 -0.2367,0.0756 -0.2368,0.0757 -0.3158,0.0758 -0.2368,0.0756 -0.3157,0.0757 -0.2368,0.0757 -0.3158,0.0757 -0.2368,0.0757 -0.3157,0.0757 -0.3157,0.0757 -0.2368,0.0756 -0.3157,0.0758 -0.3158,0.0756 -0.2368,0.0757 -0.3158,0.0758 -0.3157,0.0756 -0.3157,0.0757 -0.2368,0.0757 -0.3157,0.0757 -0.3158,0.0757 -0.2367,0.0757 -0.3159,0.0757 -0.2368,0.0756 -0.3157,0.0758 -0.2368,0.0757 -0.3157,0.0756 -0.2368,0.0758 -0.2368,0.0756 -0.1578,0.0757 -0.2368,0.0757 -0.1579,0.0757 -0.2369,0.0757 -0.1578,0.0757 -0.1579,0.0757 -0.0789,0.0756 -0.1579,0.0758 -0.1579,0.0757 -0.0789,0.0756 -0.0789,0.0758 -0.1579,0.0756 -0.0789,0.0757 -0.0789,0.0758 -0.079,0.0756 -0.0789,0.0758 -0.0789,0.0756 -0.079,0.0757 -0.0789,0.0757 -0.0789,0.1514 -0.079,0.0757 -0.0789,0.1513 -0.0789,0.1515 -0.0789,0.1514 -0.0791,0.227 -0.0789,0.3028 -0.0789,0.3785 -0.079,2.4221 -0.0789,0.757 -0.0789,0.4541 -0.079,0.3785 -0.0789,0.3027 -0.0789,0.3028 -0.0789,0.2271 -0.079,0.3028 -0.0789,0.2271 -0.0789,0.227 -0.079,0.2271 -0.0789,0.3027 -0.0789,0.2271 -0.079,0.2271 -0.0789,0.3027 -0.0789,0.3029 -0.079,0.3027 -0.0789,0.3785 -0.0789,0.3784 -0.0789,0.1514 -0.079,0.1514 -0.0789,0.1514 -0.0789,0.1514 -0.079,0.1514 -0.0789,0.1513 -0.0789,0.0758 -0.0791,0.1513 -0.0789,0.0757 -0.0789,0.1514 -0.079,0.0757 -0.0789,0.0757 -0.0789,0.1514 -0.0789,0.0757 -0.079,0.0757 -0.0789,0.1513 -0.0789,0.0758 -0.079,0.0756 -0.0789,0.1515 -0.0789,0.0756 -0.079,0.0757 -0.0789,0.0757 -0.0789,0.0757 -0.079,0.0757 -0.0789,0.1514 -0.0789,0.0756 -0.0789,0.0758 -0.079,0.0756 -0.0789,0.0757 -0.0789,0.0758 -0.079,0.0756 -0.0789,0.1514 -0.0789,0.0757 -0.079,0.0757 -0.0789,0.0757 -0.079,0.0757 -0.0789,0.0756 -0.079,0.0758 -0.0789,0.0757 -0.0789,0.1514 -0.079,0.0756 -0.0789,0.0757 -0.0789,0.0757 -0.079,0.0757 -0.0789,0.0757 -0.0789,0.0757 -0.079,0.0757 -0.0039,0.1628 -0.1539,-0.0872 -0.0789,-0.0756 -0.1579,-0.0757 -0.0789,-0.0757 -0.1579,-0.0757 -0.0789,-0.0757 -0.1579,-0.0757 -0.0789,-0.0757 -0.1579,0 -0.0789,0.2271 -0.0789,0.2271 -0.0791,0.3027 -0.0789,0.2271 -0.0789,0.3028 -0.079,0.1514 -0.0789,0.1514 -0.0789,0.227 -0.079,0.1515 -0.1578,0 -0.0789,0.1513 -0.079,0.3028 -0.0789,0.3028 -0.0789,0.3028 -0.079,0.3027 -0.0789,0.3028 0,0.8326 0.0789,0.3785 0.079,0.3027 0.0789,0.3028 0.0789,0.227 0.079,0.2271 0.0789,0.2271 0.0789,0.2271 0.0789,0.2271 0.079,0.227 0.0789,0.2271 0.0789,0.3785 0.079,0.4541 0.0789,0.3028 0.0789,0.3028 0.0791,0.3028 0.0789,0.227 0.0789,0.3029 0.0789,0.227 0.079,0.1514 0.0789,0.227 0.0789,0.2271 0.079,0.1514 0.0789,0.2271 0.0789,0.1514 0.079,0.1513 0.0789,0.1515 0.0789,0.227 0.079,0.0757 0.0789,0.1514 0.0789,0.1514 0.0789,0.1514 0.079,0.1514 0.0789,0.1514 0.0789,0.1513 0.079,0.0758 0.0789,0.1513 0.0789,0.1514 0.079,0.0757 0.0789,0.1514 0.0789,0.0756 0.079,0.1514 0.0789,0.0757 0.079,0.1514 0.0789,0.0757 0.079,0.0757 0.0789,0.1514 0.0789,0.0757 0.079,0.0757 0.0789,0.1514 0.0789,0.0757 0.079,0.0756 0.0789,0.0758 0.0789,0.1513 0.0789,0.0757 0.079,0.0757 0.0789,0.0758 0.0789,0.0756 0.079,0.0757 0.0789,0.0757 0.0789,0.0757 0.079,0.0757 0.0789,0.0757 0.0789,0.0757 0.079,0.0756 0.0789,0.0758 0.0789,0.0757 0.0789,0.0756 c 0.7527,0.3819 1.0575,0.2843 1.8015,0.8462 0.5419,0.4092 0.8087,0.8606 1.1444,1.476 0.6812,1.2485 1.5534,1.7604 1.5534,3.7332 0,0.1268 -0.2829,0.9083 -0.5525,0.9083 -0.2184,0 -0.1899,-0.0584 -0.2368,-0.227 -0.2981,0.0666 -0.4937,0.1514 -0.8683,0.1514 l -0.5366,0.0015 -0.0949,1.0582 c -0.0227,0.2178 0.0547,0.1747 0.0821,0.4488 l -0.4767,-0.2217 0,1.0596 0.0789,0.6056 0.0789,0.3785 0.0789,0.3027 0.079,0.3028 0.0789,0.2271 0.0789,0.1513 0.079,0.2271 0.0789,0.1514 0.0789,0.1514 0.0791,0.1514 0.0789,0.1514 0.0789,0.1514 0.0789,0.0756 0.079,0.1515 0.0789,0.0756 0.0789,0.1514 0.079,0.0757 0.0789,0.0757 0.0789,0.1514 0.079,0.0756 0.0789,0.0758 0.0789,0.0756 0.079,0.0757 0.0789,0.0758 0.0789,0.0756 0.0789,0.0757 0.079,0.0757 0.0789,0.0757 0.1579,0.0757 0.0789,0.0757 0.0789,0.0757 0.079,0.0756 0.1578,0.0758 0.079,0.0757 0.1579,0.0756 0.1579,0.0758 0.0789,0.0756 0.1579,0.0757 0.1578,0.0757 0.1579,0.0757 0.2368,0.0757 0.1578,0.0757 0.2368,0.0757 0.1579,0.0756 0.3157,0.0758 0.2368,0.0757 0.3158,0.0756 0.3947,0.0758 0.5525,0.0756 0.7203,8e-4 -0.0889,0.4534 -0.0789,0.2271 -0.0789,0.3028 -0.079,0.2271 -0.0789,0.3027 -0.0789,0.2271 -0.0789,0.2271 -0.079,0.227 -0.0789,0.2271 -0.0789,0.2271 -0.079,0.3027 -0.0789,0.2271 0,0.1514 c 0,0.4857 0.1749,0.8978 0.2312,1.3679 0.0526,0.4385 0.0056,1.1881 0.0056,1.6598 0,0.5551 10e-5,1.1101 0,1.6653 -10e-5,1.0154 0.076,0.7765 0.2368,1.4381 1.1056,0.0883 4.0873,1.795 4.5782,2.4978 l 0.1578,0.0758 0.2368,0.0757 0.2368,0.0756 0.3158,0.0758 0.2368,0.0756 0.3157,0.0758 0.3158,0.0756 0.3157,0.0757 0.3157,0.0758 0.3947,0.0756 0.4736,0.0757 0.5526,0.0757 0.6314,0.0757 0.9473,0.0757 2.6048,0 1.0261,-0.0757 0.7894,-0.0757 1.3418,0 1.184,0.0757 0.9472,0.0757 1.1051,0.0757 3.4731,0 0.4736,-0.0757 0.3947,-0.0757 0.2368,-0.0757 0.2368,-0.0757 0.1579,-0.0757 0.2368,-0.0756 0.0789,-0.0758 0.1579,-0.0757 0.0789,-0.0756 0.0789,-0.0758 0.0789,-0.0756 0.079,-0.0758 0.0789,-0.1513 0.0789,-0.2271 0.3158,-0.3785 c 4.249,0 11.7421,0.3218 14.1292,-1.211 l 0.079,-0.0758 0.0789,-0.0756 0.0789,-0.0757 0.0789,-0.1514 0.079,-0.0757 0.0789,-0.1514 0.0789,-0.0757 0.079,-0.1514 0.0789,-0.227 0.0789,-0.1515 0.079,-0.3027 0.0789,-0.6056 0,-0.3027 -0.0789,-0.5298 -0.079,-0.3028 -0.0789,-0.1514 -0.0789,-0.2271 -0.079,-0.1514 -0.0789,-0.1514 -0.0789,-0.0756 -0.079,-0.1515 -0.0789,-0.0756 -0.0789,-0.1514 -0.0789,-0.0757 -0.079,-0.0757 -0.0789,-0.1514 -0.0789,-0.0757 -0.079,-0.0757 L 62.728,88.3715 62.6491,88.2957 62.57,88.22 62.4911,88.1444 62.4122,88.0686 62.3333,87.993 l -0.079,-0.0757 -0.0789,-0.0758 -0.0789,-0.0756 -0.079,-0.0757 -0.0789,-0.0757 -0.0789,-0.0757 -0.079,-0.0757 -0.0789,-0.0757 -0.0789,-0.0757 -0.079,-0.0756 0,-0.0758 0.079,-0.0756 0.0789,-0.0757 0.0789,-0.1514 0.079,-0.0757 0.0789,-0.0757 0.0789,-0.0757 0.079,-0.1514 0.0789,-0.0757 0.0789,-0.1514 0.079,-0.0757 0.0789,-0.1514 0.0789,-0.1513 0.0789,-0.1514 0.0791,-0.1514 0.0789,-0.1513 0.0789,-0.1515 0.079,-0.227 0.0789,-0.1514 0.0789,-0.2271 0.079,-0.2271 0.0789,-0.3027 0.0789,-0.3029 0.0789,-0.3784 0.079,-0.4541 0.0789,-0.6056 0,-1.8923 -0.0789,-0.5299 -0.079,-0.4541 -0.0789,-0.3028 -0.0789,-0.227 -0.0789,-0.2271 -0.079,-0.1514 L 62.9648,78.38 62.8859,78.2286 62.8069,78.0773 62.728,77.9258 62.6491,77.8502 62.57,77.6988 62.4911,77.6231 62.4122,77.5473 62.3333,77.396 62.2543,77.3203 62.1754,77.2446 62.0965,77.0932 62.0175,77.0175 61.9386,76.8661 61.8597,76.7905 61.7807,76.639 61.7018,76.5634 61.6229,76.4877 61.5439,76.412 C 60.9446,75.5537 60.0814,74.959 59.489,73.9923 58.9808,73.163 58.7813,71.5622 58.7813,70.2809 l 0,-0.7569 c 0,-1.0805 0.4421,-2.4865 0.884,-3.164 0.2916,-0.4472 0.5264,-0.8112 0.8729,-1.2067 0.3562,-0.4068 0.7361,-0.5905 1.0057,-1.0792 l 0.079,-0.3028 0.0789,-0.4541 0.0789,-0.5298 0.079,-0.757 0.0789,-1.0597 0.0789,-1.4382 0.079,-1.8166 0.0789,-1.2868 0.0789,-0.6054 0.1579,0.0756 0.0789,0.0757 0.0789,0.0757 0.158,0.0757 0.0789,0.0757 0.1579,0.0757 0.1579,0.0757 0.1578,0.0756 0.2368,0.0758 0.2368,0.0756 0.3157,0.0757 0.3947,0.0758 1.8155,0 0.6314,-0.0758 0.3948,-0.0757 0.3946,-0.0756 0.3158,-0.0758 0.3157,-0.0756 0.3157,-0.0757 0.3157,-0.0757 0.2368,-0.0757 0.2369,-0.0757 0.3157,-0.0757 0.2368,-0.0757 0.2368,-0.0756 0.2368,-0.0758 0.2368,-0.0757 0.1579,-0.0756 0.2367,-0.0758 0.2368,-0.0756 0.2369,-0.0758 0.2368,-0.0756 0.1579,-0.0757 0.2368,-0.0758 0.2368,-0.0756 0.2368,-0.0757 0.1578,-0.0757 0.2368,-0.0757 0.2368,-0.0757 0.2368,-0.0757 0.3158,-0.0757 0.3947,-0.0756 0.2368,-0.0758 0.2367,-0.0757 0.2368,-0.0756 0.2368,-0.0758 0.1579,-0.0756 0.1579,-0.0757 0.1578,-0.0757 0.1579,-0.0757 0.1578,-0.0757 0.0791,-0.0757 0.1578,-0.0757 0.1579,-0.0756 0.0789,-0.0758 0.1579,-0.0757 0.0789,-0.0756 0.1579,-0.0758 0.0789,-0.0756 0.1579,-0.0757 0.0789,-0.0758 0.0789,-0.0756 0.1579,-0.0757 0.0789,-0.0757 0.0789,-0.0757 0.079,-0.0757 0.1578,-0.0757 0.079,-0.0757 0.0789,-0.0756 0.0789,-0.0758 0.1579,-0.0756 0.0789,-0.0757 0.079,-0.0758 0.079,-0.0756 0.0789,-0.0757 0.1579,-0.0757 0.0789,-0.0757 0.0789,-0.0757 0.079,-0.0757 0.0789,-0.0757 0.0789,-0.0756 0.079,-0.0758 0.1578,-0.0757 0.079,-0.0756 0.0789,-0.0758 0.0789,-0.0756 0.0789,-0.0757 0.079,-0.0757 0.1578,-0.0757 0.079,-0.0757 0.0789,-0.0757 0.0789,-0.0757 0.1579,-0.0756 0.0789,-0.0758 0.079,-0.0757 0.0789,-0.0756 0.1579,-0.0758 0.079,-0.0756 0.1578,-0.0757 0.079,-0.0757 0.1578,-0.0757 0.079,-0.0757 0.0789,-0.0757 0.0789,-0.0757 0.1579,-0.0757 0.0789,-0.0757 0.0789,-0.0757 0.079,-0.0757 0.0789,-0.0757 0.0789,-0.0756 0.079,-0.1515 0.0789,-0.0756 0.0789,-0.0758 0.079,-0.0756 0.0789,-0.1514 0.0789,-0.0757 0.0789,-0.1514 0.079,-0.1513 0.0789,-0.1515 0.0789,-0.1514 0.0791,-0.1513 0.0789,-0.2271 0.0789,-0.1514 0.079,-0.3027 0.0789,-0.3029 0.0789,-0.4541 0.0789,-0.984 0,-0.4541 -0.0789,-1.2112 -0.0789,-0.6054 -0.0789,-0.1515 c -0.29,-0.4151 -1.0658,-1.762 -1.1067,-2.345 -0.0431,-0.6176 0.0916,-1.0278 -0.1066,-1.563 -0.2634,-0.7113 0.0292,-0.6842 0.0292,-1.3905 0,-0.1961 -0.0528,-0.0777 -0.0789,-0.3784 l 0.7893,0.3028 0,-1.5139 -0.079,-0.2271 -0.0789,-0.3027 -0.0789,-0.2271 -0.0789,-0.3027 -0.079,-0.2271 -0.0789,-0.3028 -0.0789,-0.3028 -0.079,-0.3027 -0.0789,-0.3785 -0.0789,-0.3785 -0.079,-0.3784 -0.0789,-0.4543 c -0.0069,-0.0048 -0.9554,-1.333 -1.0595,-1.4817 -0.2652,-0.3784 -0.8349,-1.1677 -0.8349,-1.6973 l 0,-0.3784 c 0,-0.2075 0.3464,-0.9493 0.4483,-1.1597 0.2153,-0.4444 0.1458,-0.7839 0.2621,-1.2625 l 0,-0.6056 -0.079,-0.6055 -0.0789,-0.3784 -0.0789,-0.3029 -0.079,-0.3027 -0.0789,-0.2271 -0.0789,-0.2271 -0.079,-0.1514 -0.0789,-0.2271 -0.0789,-0.0756 c -0.3625,-0.6569 -0.7904,-1.0226 -1.3223,-1.5327 -0.7282,-0.6984 -0.6733,-0.8389 -1.2036,-1.5707 l -0.0789,0.0756 -0.079,0.2271 -0.0789,0.3028 -0.0789,0.2271 -0.079,0.2271 -0.0789,0.3027 -0.0789,0.2271 -0.079,0.2271 -0.0789,0.3028 -0.0789,0.1513 -0.0789,-0.1513 -0.079,-0.1514 -0.0789,-0.1514 -0.0789,-0.1513 -0.0791,-0.1515 -0.0789,-0.0756 -0.0789,-0.1514 -0.079,-0.0757 -0.0789,-0.1514 -0.0789,-0.0757 -0.0789,-0.1514 -0.079,-0.0757 -0.0789,-0.1514 -0.0789,-0.1514 -0.079,-0.1514 -0.0789,-0.1513 -0.0789,-0.1514 -0.079,-0.2271 -0.0789,-0.1514 -0.0789,-0.1513 -0.079,-0.2271 -0.0789,-0.1514 -0.0789,-0.1514 -0.0789,-0.1514 -0.079,0 0,0.6055 -1.1051,0.9083 z"
   inkscape:connector-curvature="0"
   style="fill:#2c2a2a" />
     <path
   id="_103029112"
   class="fil2"
   d="m 28.3127,81.2563 0.3157,-0.1514 -0.2368,0.2271 c -0.6631,0.4259 -1.3906,0.859 -2.2891,1.0597 0.5256,1.0504 -0.5009,2.8425 -0.884,3.391 -0.6058,0.8673 -0.9315,2.0841 -0.9315,3.4971 l 0,2.0436 c 0,0.2269 0.849,0.3652 1.1526,0.4844 0.434,0.1705 0.7841,0.3523 1.2048,0.5099 0.8445,0.3163 1.5379,0.6181 2.5075,0.926 0.9022,0.2865 1.3895,0.7851 2.3808,1.0474 0.729,0.1929 2.0084,0.5142 2.9369,0.5142 l 3.2362,0 c 0.4509,0 1.3008,-0.3589 1.3419,-0.8326 l 0.9446,0.0419 5.3702,0.2608 c 0.3782,0.0223 0.3796,-0.0756 0.7293,-0.0705 l -0.0189,-1.1405 -0.2368,-0.0758 c -1.263,0 -1.8427,-0.1449 -2.368,-0.8325 1.5615,0 1.0746,0.0794 2.3372,-0.3323 0.8974,-0.2927 1.2036,-0.4121 1.8939,-0.9088 1.1126,-0.8005 2.4782,-1.3569 2.4782,-3.1491 l 0,-0.2271 c 0,-1.1299 -0.5841,-2.699 -0.9223,-3.657 -0.2194,-0.6212 -0.2626,-1.2153 -0.2617,-2.0199 0.0013,-1.0079 -0.2651,-1.3853 -0.3157,-1.968 0.6735,0.4325 2.9995,5.8469 2.9995,7.1908 l 0,0.6055 c 0,2.337 -2.2327,3.8633 -3.8678,4.693 0.1154,0.4747 0.8543,0.4223 1.4165,0.534 0.5416,0.1076 1.0865,0.1942 1.6787,0.2825 0.9356,0.1395 2.8069,0.2431 3.7721,0.2431 l 0.3946,0 c 1.7015,0 7.3409,-0.2818 7.3409,-1.5138 l 0,-0.757 c 0,-0.4803 -0.4839,-0.5614 -0.7889,-0.9844 -0.2727,-0.3785 -0.506,-0.5977 -0.8491,-0.9267 -0.4104,-0.3935 -1.5983,-1.3898 -1.5983,-2.0248 l 0,-0.2271 c 0,-1.2585 1.1601,-0.0872 1.9996,-1.9429 0.2839,-0.6277 0.6052,-2.4459 0.6052,-3.3556 l 0,-0.6056 c 0,-1.7616 -1.6974,-3.3587 -2.4938,-4.4965 -0.7281,-1.0402 -1.9265,-3.4652 -1.9265,-5.1165 l 0,-0.9839 c 0,-3.5485 2.4724,-5.4576 2.529,-9.2316 0.0213,-1.4269 0.0453,-4.28 0.281,-5.5588 0.1489,-0.8069 0.2612,-1.7311 0.0821,-2.5916 -0.1287,-0.6187 -0.5676,-1.9662 -0.603,-2.3738 l -0.1578,-0.0756 c -0.5953,0.779 -2.7467,2.0485 -3.7884,2.4982 -1.3576,0.5864 -3.3269,1.0592 -5.2891,1.0592 -5.3529,0 -11.2875,-3.2427 -11.2875,-8.0991 l 0,-0.0756 c 0,-2.2024 0.8678,-3.7019 1.8144,-4.9968 1.1079,-1.5157 2.7637,-0.8591 2.7637,-4.0864 l 0,-0.9083 c 0,-0.6276 -2.6837,0.2222 -2.6837,-1.6652 0,-1.5131 0.4607,-2.4122 1.4206,-3.0279 0.7101,-0.4555 2.4301,-1.0192 3.4773,-1.1314 2.9516,-0.3162 5.721,-0.1551 8.9156,-0.1551 l 3.631,0 c 0.1781,-0.6401 1.5786,-1.1897 1.5786,-1.5139 0,-0.5829 -2.6247,-1.4284 -3.4753,-1.4361 -0.4038,-0.0036 -1.991,-0.0543 -2.3974,-0.1231 -0.3964,-0.0673 -0.7449,-0.0564 -1.1368,-0.121 -0.3253,-0.0537 -0.6198,-0.2605 -0.9628,-0.2878 l -0.3157,0 0,-0.6056 c -0.1397,-0.5749 -0.3723,-1.0596 -1.1052,-1.0596 -1.5261,0 -4.8074,-0.0326 -5.6832,0.5298 0,0.3359 -0.0666,0.6812 -0.3947,0.6812 l -0.6315,0 0,0.9083 c -0.6745,0.0538 -1.7986,1.4597 -2.2694,1.9112 -0.7189,0.6893 -1.471,1.3777 -2.2501,2.0054 -0.7926,0.6384 -1.5386,1.2136 -2.3271,1.8558 -0.6889,0.5609 -2.0708,1.2286 -2.4854,1.8001 l 0.0968,0.3753 c -0.1362,0.069 -0.5526,0.1773 -0.5526,0.3027 0,0.0025 0.6495,2.4406 0.7418,2.7705 0.2571,0.9181 0.5388,1.928 0.6708,2.9144 0.2825,2.112 0.6397,4.0577 0.6397,6.4259 l 0,0.2271 c 0,2.5357 -0.2443,4.4248 -0.8037,6.4201 -0.2078,0.7411 -0.6876,1.8858 -1.0636,2.5377 -0.3469,0.6015 -1.1322,1.7098 -1.1322,2.5475 0,1.5746 0.4469,3.78 0.7883,5.0725 0.1961,0.7426 0.4606,1.4947 0.7906,2.1181 0.1629,0.3076 0.6312,1.9383 0.6312,2.3467 l 0,0.227 c 0.4275,0.1095 0.7894,0.8671 0.7894,1.3625 l 0,0.3027 c 0,0.9557 -3.0293,5.45 -3.3152,5.45 -0.1808,0 -0.0918,-0.0257 -0.3158,-0.0758 0.0293,-1.26 1.8945,-3.5539 1.8945,-4.6929 l 0,-0.7569 c 0,-1.7996 -0.5313,-3.5023 -0.9807,-4.9637 -0.4105,-1.3355 -1.1506,-3.2634 -1.1506,-4.8764 l -0.0274,-0.6839 0.187,-1.3639 -0.2385,-0.0715 c 0.139,-0.2518 0.3242,-0.6821 0.3882,-0.9903 0.0727,-0.3493 0.3187,-0.6679 0.4801,-0.9778 0.3762,-0.7222 0.5045,-1.2129 0.7272,-2.1032 0.3451,-1.3787 0.6936,-3.2288 0.6936,-4.9362 l 0,-1.968 c 0,-2.8429 -0.4509,-5.0851 -1.4472,-7.0141 -0.3633,-0.7034 -1.4479,-1.7097 -2.0454,-2.2773 -0.6548,-0.622 -1.4409,-1.684 -2.6643,-1.684 -0.5886,0 -0.716,0.2789 -1.105,0.3784 l -0.0072,0.429 -4.7288,1.2363 C 22.4081,38.5499 22.4118,38.49 22.2347,38.49 l -1.0261,0 c -1.9884,0 -2.0529,2.2962 -2.0503,4.2407 0.0018,1.3726 -0.6456,4.1429 -0.9961,5.3273 -0.7078,2.3925 -1.2462,2.1576 -2.6163,3.6979 -0.5417,0.609 -0.8778,1.0794 -1.4623,1.7012 -0.4731,0.5033 -1.0984,1.2162 -1.4934,1.7621 l 0.0935,1.437 c 0.0202,0.257 -0.3579,0.5913 -0.4735,0.757 0.6147,1.2287 0.771,3.128 1.3528,4.5311 0.632,1.5243 1.2765,2.45 2.2633,3.6578 0.829,1.0146 1.9691,1.8496 2.914,3.0341 0.5548,0.6954 1.9158,2.9055 1.9158,3.9912 l 0,1.2867 c 0,0.7041 -1.2588,1.741 -2.1488,1.754 l 0.579,0.72 0.07,-0.0518 c -0.4375,0.6266 -0.3346,1.1979 -0.7893,1.4381 0.6499,1.2989 0.5733,2.2412 2.0509,2.9534 0.8469,0.4082 2.7184,1.1341 3.9481,1.1341 l 1.3419,0 c 0.8924,0 1.8575,-0.4386 2.6048,-0.6056 z"
   inkscape:connector-curvature="0"
   style="fill:#ffffff" />
     <path
   id="_103035616"
   class="fil2"
   d="m 78.3569,29.1041 -0.0893,-0.3775 0.1683,-9e-4 c 0.1693,-0.119 0.7104,-1.3994 0.7104,-1.8166 l 0,-0.6056 c 0,-0.372 -0.3456,-0.8742 -0.3935,-1.6664 -0.021,-0.3461 -0.6472,-1.2856 -0.7906,-1.2856 -0.4071,0 -0.9472,0.5179 -0.9472,0.9083 l 0,0.1514 c 0,0.8354 0.9472,2.193 0.9472,2.1951 l 0,1.2111 c 0,0.8514 -0.7454,1.224 -0.8682,1.6652 -1.4867,-0.1186 -1.8155,-2.1711 -1.8155,-3.7847 l 0,-0.9083 c 0,-0.5576 0.2368,-0.7525 0.2368,-1.211 l 0,-0.3028 c 0,-0.4658 -0.8345,-1.6652 -1.0261,-1.6652 -0.3526,0 -1.1052,0.6958 -1.1052,0.9839 l 0,0.4542 c 0,0.2613 0.5349,1.5434 0.678,1.7721 0.2629,0.4204 0.3482,1.5273 0.3482,2.1639 0,0.6602 -0.3946,0.7735 -0.3946,1.2868 0,0.3053 0.2368,0.5161 0.2368,0.6055 0,0.1234 -0.1931,0.5299 -0.3158,0.5299 -0.5996,0 -1.5465,-1.4347 -1.7926,-1.9143 -0.1405,-0.2734 -0.3454,-1.1316 -0.4068,-1.4323 -0.0714,-0.3497 0.2261,-1.4532 0.2261,-1.6491 l 0,-0.5299 c 0,-0.3636 -0.7316,-1.4381 -1.0262,-1.4381 -0.4226,0 -1.105,0.6724 -1.105,0.9083 0,1.2149 0.8598,1.9363 1.1054,2.7246 0.3215,1.0322 0.4732,1.9821 0.4732,3.3308 l 0,0.2271 c 0,0.8455 -0.7941,1.7409 -1.7365,1.7409 -0.8191,0 -0.7105,-0.0664 -0.7105,-0.4542 0,-0.0313 -0.6248,-0.9137 -0.7125,-1.0576 -0.3582,-0.588 -0.4085,-0.4902 -0.945,-0.8347 -0.6581,0 -0.7363,-0.227 -1.1052,-0.227 l -0.1578,0 c -0.2324,0 -0.4736,0.4352 -0.4736,0.6812 l 0,0.4541 c 0,0.6972 1.3239,1.3595 1.7519,1.8776 0.454,0.5497 0.9062,1.8893 1.407,2.2256 l 0.63,-0.0914 c 0.2441,1.0051 1.9732,2.787 1.9732,4.3144 l 0,0.0758 c 0,0.4878 -0.245,0.8621 -0.5525,1.0596 -0.8807,-0.0188 -2.31,-0.2646 -3.0305,-0.5 -0.7597,-0.2482 -1.8754,-0.9512 -2.4948,-1.0895 -0.3702,1.5233 -2.4933,2.8763 -4.4107,2.8751 l 0.2282,2.0282 1.8934,0.0923 c 0.0741,0.3051 0.2368,0.3783 0.2368,0.6813 l 0,0.757 c 0,1.1347 -1.659,3.9272 -1.6474,3.9346 l 0.4633,3.4832 c 0.2017,1.3478 -0.5693,1.1878 0.4589,2.4364 0.3852,0.468 1.2139,1.1212 2.067,1.1212 l 1.7366,0 c 1.5362,0 1.3812,-0.1962 2.342,-0.6305 0.3569,-0.1614 1.9039,-0.6235 2.3151,-0.6563 l 0,0.2271 c 0,0.1771 0.131,0.3027 0.3157,0.3027 0.074,0 2.4008,-0.7284 2.9268,-0.8266 0.8597,-0.1604 1.8605,-0.8261 2.4549,-1.2792 0.5652,-0.4307 3.7747,-3.2037 3.7747,-3.7225 0,-0.2517 -0.1417,-0.2216 -0.3947,-0.2271 0.511,-0.7318 1.1841,-1.0878 1.1841,-2.4978 l 0,-0.3028 0.1042,-0.013 -0.8147,-5.9667 0,-1.9681 c 0,-0.7076 0.1633,-0.5133 -0.0447,-1.1681 -0.1152,-0.3628 -0.271,-0.7952 -0.271,-1.1783 -0.5124,-0.7338 -0.3991,-2.3368 -0.6763,-3.2874 -0.2223,-0.7621 -1.1204,-2.1104 -1.1392,-2.9194 z"
   inkscape:connector-curvature="0"
   style="fill:#ffffff" />
     <path
   id="_103043968"
   class="fil3"
   d="m 44.5124,37.1257 -0.0182,1.44 c 0,0.3141 -0.0958,0.67 -0.1747,0.9679 -0.1297,0.4899 -0.0991,0.6999 -0.4568,0.4703 0,0.6584 -0.6579,0.912 -1.1368,1.2563 -0.4607,0.3311 -0.9188,0.7686 -1.2627,1.2113 -0.6245,0.8041 -1.7051,1.8958 -1.7051,3.2093 l 0,0.4541 c 0,1.0758 3.0601,4.2836 3.8991,4.8901 1.7422,1.2593 3.9837,1.998 6.9938,1.998 l 0.079,0 c 4.0252,0 5.4733,-0.9304 7.6769,-2.7054 1.0547,-0.8497 1.5689,-1.7456 2.271,-2.8938 0.3708,-0.6066 1.8132,-2.5771 1.8132,-3.3326 l -0.0023,-0.6299 -2.2868,0.1758 -0.3946,0 c 0.0793,-0.3264 0.2368,-0.4146 0.2368,-0.8327 l 0.0203,-0.834 -0.0993,-1.361 c -0.2945,-0.4219 -0.272,-1.0597 -0.9471,-1.0597 l -0.3947,0 c -1.0282,0 -2.9785,1.8923 -5.5254,1.8923 l -0.1579,0 c -1.4142,0 -1.9313,-0.0632 -2.6639,-0.776 -0.5163,-0.5023 -1.5314,-0.9083 -2.2553,-1.2434 -0.6747,-0.3125 -0.5429,-0.08 -1.0997,-0.6107 -0.2001,-0.1909 -0.6475,-0.6737 -0.8022,-0.896 -0.3764,-0.5408 -1.0488,-1.6046 -1.7162,-1.7711 l 0.1096,0.9809 z"
   inkscape:connector-curvature="0"
   style="fill:#ffffff" />
     <path
   id="_103021480"
   class="fil3"
   d="m 51.2825,35.3866 0,0.9083 c 0,2.6558 1.6392,3.4819 4.4203,3.4819 l 0.1579,0 c 0.6258,0 2.294,-1.0597 2.7627,-1.0597 l 1.2629,0 c 0.7618,0 0.506,0.984 1.0262,0.984 0.8062,0 2.5081,-1.1735 2.9816,-1.6068 1.1092,-1.0151 1.0406,-1.5781 1.0421,-3.5422 0.0016,-2.2064 0.2915,-1.9089 -1.8664,-2.5967 -0.8276,-0.2638 -3.1641,-0.4291 -4.2885,-0.4291 l -3.3153,0 c -1.3361,0 -2.5973,0.1144 -3.2579,0.812 -0.2977,0.3143 -0.9256,2.4575 -0.9256,3.0483 z"
   inkscape:connector-curvature="0"
   style="fill:#ffffff" />
     <path
   id="_103043872"
   class="fil1"
   d="m 45.2046,41.2907 0,0.1513 c 0,0.4837 0.1579,0.576 0.1579,1.0597 l 0,0.0757 c 0,0.4209 -0.9473,1.4289 -0.9473,1.968 l -0.0304,0.3817 0.1883,1.7377 c 0.5584,-0.3585 1.8391,-2.0437 2.6049,-2.0437 0.1148,0 0.6779,0.5721 0.8997,0.7267 0.3892,0.2714 0.6571,0.396 1.1,0.6105 0.4767,0.2307 1.9533,0.7822 2.5785,0.7822 l 0.9471,0 c 0.4281,0 1.1841,-0.3538 1.1841,-0.6812 l 0,-0.9083 c -0.8086,0 -2.6306,-0.3311 -3.2517,-0.5153 -1.1609,-0.3442 -1.5852,-0.7068 -2.4322,-1.3008 -0.6656,-0.4668 -1.2458,-1.2941 -1.6338,-2.0666 -0.0324,-0.0646 -0.313,-1.3882 -0.3304,-1.4997 -0.0655,-0.4192 -0.3469,-1.118 -0.5611,-1.3543 0,0.8312 -0.4736,1.853 -0.4736,2.8764 z"
   inkscape:connector-curvature="0"
   style="fill:#2c2a2a" />
     <path
   id="_103022656"
   class="fil2"
   d="m 52.7823,34.9324 0,1.1354 c 0,0.7414 0.7109,2.4222 1.184,2.4222 1.1916,0 0.943,-1.3662 0.9473,-2.4979 0.0039,-1.0144 -0.079,-2.1891 -0.0948,-3.3153 L 54.6654,32.567 53.4926,32.2832 c -0.4537,0.6498 -0.7103,1.5691 -0.7103,2.6492 z"
   inkscape:connector-curvature="0"
   style="fill:#ffffff" />
     <polygon
   id="_103036672"
   class="fil4"
   points="51.8446,26.5301 51.7562,26.0007 51.7562,26.6063 52.0719,26.6063 "
   style="fill:#8a8d90" />
     <polygon
   id="_103044472"
   class="fil5"
   points="46.0729,93.0644 46.1504,92.9026 45.8361,92.9886 "
   style="fill:#949699" />
     <polygon
   id="_103029088"
   class="fil6"
   points="78.3501,28.8731 78.4359,28.7257 78.2676,28.7266 78.3569,29.1041 "
   style="fill:#838789" />
     <polygon
   id="_103049200"
   class="fil7"
   points="59.6495,50.7522 59.6456,50.5894 59.4917,50.6766 "
   style="fill:#7f8385" />
     <polygon
   id="_103037680"
   class="fil8"
   points="73.0683,26.5306 73.2262,26.6063 73.2262,26.4548 "
   style="fill:#97999e" />
     <polygon
   id="_103040368"
   class="fil9"
   points="63.912,27.0604 63.912,26.9847 63.833,26.9847 "
   style="fill:#58585a" />
     <polygon
   id="_103020352"
   class="fil10"
   points="28.3127,81.2563 28.3916,81.332 28.6284,81.1049 "
   style="fill:#5c5e5e" />
     <polygon
   id="_103027456"
   class="fil11"
   points="28.6284,81.1049 28.7206,81.0923 28.6284,81.0292 "
   style="fill:#777c7f" />
    </g>
 </g>
</svg>