<svg xmlns="http://www.w3.org/2000/svg" width="100%" viewBox="0 0 660.46 1206.46" fill="none">
  <g class="Body/Male/Back">
    <g class="Muscles/Male/Back">
      
      <g class="Trapezius">
        <path fill="lightslategray" d="M322.97 170.3V123.19C322.97 122.78 322.8 122.39 322.47 122.1 320.3 120.22 319.17 120.25 317.64 122.39 317.57 122.5 317.51 122.61 317.47 122.73 313.76 132.89 301.82 154.46 283.05 167.12 265.17 179.19 232.31 191.25 216.56 196.55 215.37 196.95 215.03 198.27 215.91 199.07 241.1 221.75 267.01 199.05 266.72 275.35 266.5 336.25 299.91 371.42 320.28 383.65 321.45 384.35 322.97 383.59 322.97 382.35V227.6C322.97 203.73 304.83 198.95 304.83 194.18 304.83 189.4 322.97 186.22 322.97 170.3Z" class="trap-left"></path>
        <path fill="lightslategray" d="M330.23 170.3V123.19C330.23 122.78 330.4 122.39 330.73 122.1 332.9 120.22 334.03 120.25 335.56 122.39 335.64 122.5 335.69 122.61 335.74 122.73 339.44 132.89 351.39 154.46 370.15 167.12 388.03 179.19 420.89 191.25 436.64 196.55 437.83 196.95 438.18 198.27 437.29 199.07 412.1 221.75 386.19 199.05 386.48 275.35 386.7 336.25 353.29 371.42 332.92 383.65 331.75 384.35 330.23 383.59 330.23 382.35V227.6C330.23 203.73 348.37 198.95 348.37 194.18 348.37 189.4 330.23 186.22 330.23 170.3Z" class="trap-right"></path>
      </g>
      
      <g class="Shoulders">
        <path fill="lightslategray" d="M161.69 295.86C172.61 286.25 189.16 272.07 217.73 265.8 238.25 261.3 257.45 249.89 255.84 237.15 253.62 219.65 231.14 217.72 221.36 210.1 163.3 179.85 125.2 237.15 158.73 295.25 159.15 296.36 160.75 296.69 161.69 295.86Z" class="shoulder-left"></path>
        <path fill="lightslategray" d="M491.52 295.86C480.59 286.25 464.04 272.07 435.47 265.8 414.95 261.3 395.75 249.89 397.36 237.15 399.58 219.65 422.06 217.72 431.84 210.1 489.9 179.85 528.01 237.15 494.47 295.25 494.05 296.36 492.46 296.69 491.52 295.86Z" class="shoulder-right"></path>
      </g>
      
      <g class="Lats">
        <path fill="lightslategray" d="M260.65 288.92C260.65 275.6 260.65 266.09 258.93 255.47 258.71 254.1 256.71 253.64 255.64 254.66 235.32 274.06 202.5 272.61 206.85 278.54 223.6 301.42 260.65 292.03 260.65 289.12V288.92Z" class="lat-left"></path>
        <path fill="lightslategray" d="M392.55 288.92C392.55 275.6 392.55 266.09 394.27 255.47 394.49 254.1 396.49 253.64 397.56 254.66 417.88 274.06 450.7 272.61 446.35 278.54 429.6 301.42 392.55 292.03 392.55 289.12V288.92Z" class="lat-right"></path>
        <path fill="lightslategray" d="M258.75 297.08C235.82 305.77 215.28 295.28 205.65 287.14 204.59 286.24 202.77 286.66 202.51 287.93 196.59 317.03 211.12 365.52 232.25 385.18 240.64 392.98 246.53 414.56 251.89 431.9 252.08 432.52 252.67 432.99 253.41 432.98 269 432.9 318.07 404.24 322.67 392.6 322.92 391.98 322.54 391.33 321.89 391 281.97 370.56 263.75 319.76 261.48 298.47 261.36 297.32 259.96 296.62 258.75 297.08Z" class="lat-left-2"></path>
        <path fill="lightslategray" d="M394.45 297.08C417.38 305.77 437.92 295.28 447.55 287.14 448.61 286.24 450.43 286.66 450.7 287.93 456.61 317.03 442.08 365.52 420.95 385.18 412.57 392.98 406.67 414.56 401.31 431.9 401.12 432.52 400.53 432.99 399.8 432.98 384.21 432.9 335.14 404.24 330.53 392.6 330.29 391.98 330.66 391.33 331.31 391 371.24 370.56 389.45 319.76 391.73 298.47 391.85 297.32 393.25 296.62 394.45 297.08Z" class="lat-right-2"></path>
      </g>
      
      <g class="Triceps">
        <path fill="lightslategray" d="M197.65 339.77C194.94 326.89 190.76 297.79 196.83 282.81 196.87 282.71 196.9 282.6 196.91 282.49 197.09 280.07 191.98 281.34 187.17 286.59 168.53 306.93 160.49 345.97 163.32 358.98 165.39 368.47 150.58 382.01 150.27 389.56 150.22 390.58 151.52 390.99 152.46 390.37 168.11 380.12 199.86 350.26 197.65 339.77Z" class="tricep-left"></path>
        <path fill="lightslategray" d="M455.55 339.77C458.26 326.89 462.44 297.79 456.37 282.81 456.33 282.71 456.3 282.6 456.29 282.49 456.11 280.07 461.23 281.34 466.04 286.59 484.68 306.93 492.71 345.97 489.88 358.98 487.81 368.47 502.62 382.01 502.94 389.56 502.98 390.58 501.68 390.99 500.74 390.37 485.09 380.12 453.35 350.26 455.55 339.77Z" class="tricep-right"></path>
        <path fill="lightslategray" d="M128.86 354.05C132.05 326.61 151.34 311.25 164.43 301.79 166.01 300.65 168.84 302.61 168.02 304.26 159.95 320.53 154.75 340.17 155.01 350.97 155.03 351.59 154.65 352.17 154.02 352.45 150.36 354.06 146.9 355.78 142.71 371.08 140.97 377.43 137.33 386.39 126.62 392.99 125.54 393.66 124.08 393.03 123.95 391.87 122.01 373.61 127.03 369.84 128.86 354.05Z" class="tricep-left-2"></path>
        <path fill="lightslategray" d="M524.34 354.05C521.15 326.61 501.86 311.25 488.78 301.79 487.2 300.65 484.37 302.61 485.18 304.26 493.25 320.53 498.45 340.17 498.19 350.97 498.18 351.59 498.55 352.17 499.18 352.45 502.84 354.06 506.31 355.78 510.49 371.08 512.23 377.43 515.87 386.39 526.59 392.99 527.67 393.66 529.13 393.03 529.25 391.87 531.19 373.61 526.17 369.84 524.34 354.05Z" class="tricep-right-2"></path>
      </g>
      
      <g class="Forearms">
        <path fill="lightslategray" d="M111.98 470.47C139.41 450.33 168.77 420.84 167.14 393.82 167.07 392.71 165.74 392.07 164.64 392.62 150.79 399.49 136.33 413.66 130.64 421.78L130.54 421.92C125.14 429.64 111.55 449.05 109.17 469.19 109 470.55 110.78 471.34 111.98 470.47Z" class="forearm-left"></path>
        <path fill="lightslategray" d="M541.22 470.47C513.8 450.33 484.43 420.84 486.06 393.82 486.13 392.71 487.47 392.07 488.57 392.62 502.41 399.49 516.87 413.66 522.56 421.78L522.66 421.92C528.06 429.64 541.65 449.05 544.04 469.19 544.2 470.55 542.42 471.34 541.22 470.47Z" class="forearm-right"></path>
        <path fill="lightslategray" d="M50.83 508.13C51.29 512.68 59.52 518.42 69.57 518.85 70.29 518.88 70.94 518.5 71.25 517.92 77.57 506.11 101.61 477.27 101.61 469.53 101.61 443.04 125.18 431.63 115.01 385.04 114.73 383.77 112.93 383.3 111.93 384.26 103.26 392.58 85.6 410.56 81.65 431.33 77.33 454.08 60.14 492.29 51.01 507.39 50.87 507.62 50.8 507.87 50.83 508.13Z" class="forearm-left-2"></path>
        <path fill="lightslategray" d="M602.38 508.13C601.91 512.68 593.68 518.42 583.64 518.85 582.91 518.88 582.26 518.5 581.95 517.92 575.63 506.11 551.59 477.27 551.59 469.53 551.59 443.04 528.02 431.63 538.19 385.04 538.47 383.77 540.27 383.3 541.27 384.26 549.95 392.58 567.6 410.56 571.55 431.33 575.87 454.08 593.06 492.29 602.19 507.39 602.33 507.62 602.4 507.87 602.38 508.13Z" class="forearm-right-2"></path>
      </g>
      
      <g class="Lowerback">
        <path fill="lightslategray" d="M322.97 511.89V405.15C322.97 403.7 320.94 403.01 319.8 404.05 299.86 422.4 285.4 430.65 257.31 438.86 256.47 439.11 255.94 439.86 256.07 440.63 259.3 459.73 259.42 476.05 257.91 488.32 257.78 489.31 258.72 490.16 259.85 490.13 289.79 489.13 309.69 502.75 318.71 513 319.89 514.34 322.97 513.58 322.97 511.89Z" class="lowerback-left"></path>
        <path fill="lightslategray" d="M330.23 511.89V405.15C330.23 403.7 332.26 403.01 333.4 404.05 353.34 422.4 367.8 430.65 395.89 438.86 396.74 439.11 397.26 439.86 397.14 440.63 393.91 459.73 393.78 476.05 395.3 488.32 395.42 489.31 394.49 490.16 393.35 490.13 363.41 489.13 343.52 502.75 334.49 513 333.31 514.34 330.23 513.58 330.23 511.89Z" class="lowerback-right"></path>
      </g>
      
      <g class="Obliques">
        <path fill="lightslategray" id="obliques" d="M248.58 490.22C253.21 472.48 245.98 437.53 240.38 421.71 239.81 420.11 237.41 420.48 237.13 422.14 235.12 433.92 228.35 441.69 226.81 455.21 224.93 471.69 232.53 472.67 232.49 496.93 232.48 498.65 235.78 499.52 237.21 498.35 242.47 494.05 246.99 496.31 248.58 490.22Z"></path>
        <path fill="lightslategray" id="obliques" d="M404.62 490.22C399.99 472.48 407.22 437.53 412.82 421.71 413.39 420.11 415.79 420.48 416.08 422.14 418.09 433.92 424.86 441.69 426.4 455.21 428.28 471.69 420.68 472.67 420.72 496.93 420.72 498.65 417.43 499.52 415.99 498.35 410.73 494.05 406.21 496.31 404.62 490.22Z"></path>
      </g>
      
      <g class="Glutes">
        <path fill="lightslategray" id="glutes" d="M322.97 596.71V533.41C322.97 533.27 322.95 533.13 322.91 532.99 311.8 498.09 238.09 473.48 230.44 526.83 230.44 552.3 232.25 588.91 234.06 596.86 250.36 642.94 315.48 627.16 322.93 597.03 322.96 596.92 322.97 596.82 322.97 596.71Z"></path>
        <path fill="lightslategray" id="glutes" d="M330.23 596.71V533.41C330.23 533.27 330.25 533.13 330.29 532.99 341.4 498.09 415.11 473.48 422.77 526.83 422.77 552.3 420.95 588.91 419.14 596.86 402.84 642.94 337.72 627.16 330.27 597.03 330.24 596.92 330.23 596.82 330.23 596.71Z"></path>
      </g>
      
      <g class="Hamstrings">
        <path fill="lightslategray" d="M284.87 630.29C298.07 627.72 306.53 625.14 312.16 621.73 313.52 620.9 315.6 621.75 315.53 623.2 313.76 661.38 310.39 680.46 304.03 712.7 303.72 714.25 301.38 714.51 300.72 713.05 286.19 680.8 281.5 630.94 284.87 630.29Z" class="hamstring-left"></path>
        <path fill="lightslategray" d="M368.33 630.29C355.13 627.72 346.67 625.14 341.04 621.73 339.69 620.9 337.6 621.75 337.67 623.2 339.45 661.38 342.81 680.46 349.17 712.7 349.48 714.25 351.82 714.51 352.48 713.05 367.02 680.8 371.7 630.94 368.33 630.29Z" class="hamstring-right"></path>
        <path fill="lightslategray" d="M275.53 630.83C269.71 630.66 264.06 629.85 260.6 629 259.91 628.83 259.18 628.96 258.76 629.48 246.29 644.92 243.2 737.77 246.77 783.08 249.66 819.85 268.75 828.53 276.74 859.92 277.11 861.37 279.27 861.7 279.96 860.34 294.64 831.23 301.13 754.06 301.2 729.35 301.2 729.09 301.12 728.85 300.98 728.62 280.7 695.68 276.41 645.29 277.48 632.78 277.56 631.78 276.67 630.87 275.53 630.83Z" class="hamstring-left-2"></path>
        <path fill="lightslategray" d="M377.67 630.83C383.49 630.66 389.14 629.85 392.6 629 393.29 628.83 394.03 628.96 394.45 629.48 406.92 644.92 410 737.77 406.44 783.08 403.55 819.85 384.46 828.53 376.46 859.92 376.09 861.37 373.93 861.7 373.24 860.34 358.56 831.23 352.07 754.06 352 729.35 352 729.09 352.08 728.85 352.22 728.62 372.51 695.68 376.79 645.29 375.73 632.78 375.64 631.78 376.53 630.87 377.67 630.83Z" class="hamstring-right-2"></path>
        <path fill="lightslategray" d="M250.71 625.7C247.64 624.21 245.37 622.71 243.1 620.76 242.21 619.99 240.72 620.15 240.14 621.12 224.97 646.7 201.4 697.96 201.99 732.81 202.44 759.3 222.45 786.37 214.22 826.73 213.88 828.38 216.24 829.4 217.39 828.06 227.52 816.22 240.35 796.15 238.97 770.52 235.23 701.02 243.32 646.76 251.58 627.75 251.92 626.97 251.54 626.1 250.71 625.7Z" class="hamstring-left-3"></path>
        <path fill="lightslategray" d="M402.5 625.7C405.56 624.21 407.84 622.71 410.11 620.76 410.99 619.99 412.49 620.15 413.06 621.12 428.24 646.7 451.81 697.96 451.21 732.81 450.76 759.3 430.75 786.37 438.98 826.73 439.32 828.38 436.96 829.4 435.82 828.06 425.68 816.22 412.85 796.15 414.23 770.52 417.97 701.02 409.88 646.76 401.62 627.75 401.28 626.97 401.66 626.1 402.5 625.7Z" class="hamstring-right-3"></path>
        <path fill="lightslategray" d="M235.41 613.43C232.23 609.01 229.85 603.9 228.74 599.68 228.4 598.37 226.48 597.79 225.41 598.75 193.08 627.64 195.04 653.27 198.02 710.23 201.03 675.92 225.38 630.65 235.48 615.1 235.82 614.57 235.78 613.94 235.41 613.43Z" class="hamstring-left-4"></path>
        <path fill="lightslategray" d="M417.79 613.43C420.98 609.01 423.35 603.9 424.46 599.68 424.8 598.37 426.72 597.79 427.79 598.75 460.12 627.64 458.16 653.27 455.18 710.23 452.17 675.92 427.83 630.65 417.73 615.1 417.39 614.57 417.42 613.94 417.79 613.43Z" class="hamstring-right-4"></path>
        <path fill="lightslategray" d="M224.99 587.31C224.94 585.01 223.86 572.68 223.39 561.33 223.32 559.55 220.44 559.13 219.79 560.82 212.72 579.22 203.23 607.08 204.59 609.48 204.75 609.75 205.12 609.46 205.31 609.21 210.95 601.29 225.07 590.72 224.99 587.31Z" class="hamstring-left-5"></path>
        <path fill="lightslategray" d="M428.21 587.31C428.26 585.01 429.35 572.68 429.81 561.33 429.89 559.55 432.76 559.13 433.41 560.82 440.48 579.22 449.97 607.08 448.61 609.48 448.46 609.75 448.08 609.46 447.9 609.21 442.25 601.29 428.13 590.72 428.21 587.31Z" class="hamstring-right-5"></path>
      </g>
      
      <g class="Calves">
        <path fill="lightslategray" d="M288.5 940.66C276.23 869.95 260.58 830.42 248.08 824.92 247.34 824.59 246.48 824.89 246.22 825.59 240.19 841.46 252.21 945.07 252.21 990 252.21 1007.51 269.89 1034.05 275.8 1020.24 281.24 1007.51 292.9 966.02 288.5 940.66Z" class="calf-left"></path>
        <path fill="lightslategray" d="M364.7 940.66C376.97 869.95 392.62 830.42 405.12 824.92 405.87 824.59 406.72 824.89 406.99 825.59 413.01 841.46 400.99 945.07 400.99 990 400.99 1007.51 383.31 1034.05 377.41 1020.24 371.96 1007.51 360.31 966.02 364.7 940.66Z" class="calf-right"></path>
        <path fill="lightslategray" d="M244.95 977.26C246.77 990 244.95 1020.82 221.36 1017.06 197.78 1013.29 197.36 945.43 199.59 910.42 202.36 866.9 210.66 840.46 231.93 824.7 232.14 824.55 232.4 824.4 232.66 824.48 239.37 826.42 236.06 914.84 244.95 977.26Z" class="calf-left-2"></path>
        <path fill="lightslategray" d="M408.25 977.26C406.44 990 408.25 1020.82 431.84 1017.06 455.43 1013.29 455.84 945.43 453.61 910.42 450.84 866.9 442.55 840.46 421.27 824.7 421.07 824.55 420.8 824.4 420.54 824.48 413.83 826.42 417.15 914.84 408.25 977.26Z" class="calf-right-2"></path>
        <path fill="lightslategray" d="M221.36 1023.42C218.34 1023.42 215.7 1022.12 213.73 1020.86 212.46 1020.05 211.18 1020.82 211.61 1022.15 231.09 1082.7 233.73 1111.08 231.01 1131.15 230.82 1132.54 232.39 1133.26 233.19 1132.05 246.15 1112.45 226.77 1023.42 221.36 1023.42Z" class="calf-left-3"></path>
        <path fill="lightslategray" d="M431.84 1023.42C434.86 1023.42 437.51 1022.12 439.47 1020.86 440.75 1020.05 442.02 1020.82 441.59 1022.15 422.11 1082.7 419.47 1111.08 422.19 1131.15 422.38 1132.54 420.81 1133.26 420.01 1132.05 407.05 1112.45 426.43 1023.42 431.84 1023.42Z" class="calf-right-3"></path>
      </g>
      
    </g>
  </g>
</svg>
