<svg xmlns="http://www.w3.org/2000/svg" width="100%" viewBox="0 0 660.46 1206.46" fill="none">
  <g class="Body/Male/Front">
    <g class="Muscles/Male/Front">
      
      <g class="Trapezius">
        <path fill="lightslategray" d="M288.75 165.53c-11.31 8.51-39.41 20.8-57.38 27.88-1.69 0.67-1.35 3.08 0.46 3.44C249.35 200.36 281.05 210.1 290.57 210.1c10.57 0 13.13-3.18 10.88-7.96-12.7-27.06-9.76-38.82-12.7-36.61z" class="trap-left"></path>
        <path fill="lightslategray" d="M372.22 165.53c11.31 8.51 39.41 20.8 57.38 27.88 1.69 0.67 1.35 3.08-0.45 3.44-17.52 3.51-49.23 13.24-58.75 13.25-10.57 0-13.13-3.18-10.88-7.96 12.7-27.06 9.77-38.82 12.7-36.61z" class="trap-right"></path>
      </g>
      
      <g class="Shoulders">
        <path fill="lightslategray" d="M196.21 262.62c17.48-30.67 37.81-47.22 49.97-52.56 1.5-0.66 1.6-2.75 0.06-3.32-87.09-22.28-116.12 28.65-90.44 91.91a1.74 1.53 0 0 0 2.63 1.04c12.53-6.98 29.21-22.02 37.78-37.07z" class="shoulder-left"></path>
        <path fill="lightslategray" d="M464.75 262.62c-17.48-30.67-37.81-47.22-49.97-52.56-1.5-0.66-1.59-2.75-0.05-3.32 87.09-22.28 116.12 28.65 90.44 91.91a1.74 1.53 0 0 1-2.63 1.04c-12.53-6.98-29.21-22.02-37.79-37.07z" class="shoulder-right"></path>
      </g>
      
      <g class="Chest">
        <path fill="lightslategray" d="M326.86 238.75v65.25c0 0.88-0.8 1.59-1.81 1.6-11.83 0.1-36.98 1.14-56.26 4.77-25.4 4.77-41.73-6.37-48.99-17.51-5.42-8.31-18.17-10.63-26.1-11.06-1.35-0.07-2.16-1.3-1.43-2.29 3.51-4.78 11.39-14.43 16.65-23.26 22.83-38.34 46.81-45.19 58.06-44.56 8.06 0.45 40.28 8.91 48.99 12.73 8.71 3.82 10.89 11.14 10.89 14.33z" class="pec-left"></path>
        <path fill="lightslategray" d="M334.11 238.75v65.25c0 0.88 0.8 1.59 1.81 1.6 11.83 0.1 36.98 1.14 56.26 4.77 25.4 4.77 41.73-6.37 48.99-17.51 5.42-8.31 18.17-10.63 26.1-11.06 1.35-0.07 2.16-1.3 1.43-2.29-3.5-4.78-11.39-14.43-16.65-23.26-22.83-38.34-46.81-45.19-58.06-44.56-8.05 0.45-40.28 8.91-48.99 12.73-8.71 3.82-10.89 11.14-10.89 14.33z" class="pec-right"></path>
      </g>
      
      <g class="Biceps">
        <path fill="lightslategray" d="M163.43 307.24c-24.36 10.63-49.59 95.91-14.39 90.67 10.24-1.31 48.99-33.42 47.17-66.85-1.81-9.55 13.36-34.61 5.45-38.2-15.17-6.87-21.74 4.24-37.99 14.25a1.84 1.61 0 0 1-0.24 0.13z" class="bicep-left"></path>
        <path fill="lightslategray" d="M497.54 307.24c24.36 10.63 49.59 95.91 14.39 90.67-10.24-1.31-48.99-33.42-47.18-66.85 1.81-9.55-13.36-34.61-5.44-38.2 15.18-6.87 21.74 4.24 37.98 14.25a2.14 1.88 0 0 0 0.25 0.13z" class="bicep-right"></path>
      </g>
      
      <g class="Forearms">
        <path fill="lightslategray" d="M85.53 436.11c0-17.71 20.74-40.27 31.86-45.78a1.7 1.49 0 0 1 1.62-0.01c9.98 4.51 13 6.83 6.19 37.83-9.99 45.43-69.65 82.24-65.18 73.41a1.84 1.61 0 0 1 0.24-0.33c9.1-9.74 25.28-44.52 25.27-65.12z" class="forearm-left"></path>
        <path fill="lightslategray" d="M575.43 436.11c0-17.71-20.74-40.27-31.85-45.78a1.71 1.5 0 0 0-1.63-0.01c-9.98 4.51-13 6.83-6.18 37.83 9.99 45.43 69.65 82.24 65.17 73.41a1.79 1.57 0 0 0-0.23-0.33c-9.1-9.74-25.28-44.52-25.28-65.12z" class="forearm-right"></path>
        <path fill="lightslategray" d="M138.92 405.32c7.46 2.54 18.1 2.29 26.54-5.23 1.23-1.1 3.6-0.43 3.59 1.11-0.18 17.16-4.92 37.64-39.97 65.15-33.69 26.44-46.58 49.84-50.54 55.35a1.63 1.43 0 0 1-0.72 0.54c-10.78 4.32-19.22-0.8-22.22-3.85-0.58-0.6-0.36-1.48 0.35-1.96 71.37-48.24 77.56-75.27 80.2-109.66 0.09-1.16 1.53-1.87 2.77-1.45z" class="forearm-left-2"></path>
        <path fill="lightslategray" d="M522.05 405.32c-7.46 2.54-18.09 2.29-26.54-5.23-1.23-1.1-3.61-0.43-3.59 1.11 0.18 17.16 4.92 37.64 39.97 65.15 33.69 26.44 46.59 49.84 50.54 55.35a1.65 1.45 0 0 0 0.72 0.54c10.79 4.32 19.23-0.8 22.22-3.85 0.59-0.6 0.36-1.48-0.36-1.96-71.37-48.24-77.56-75.27-80.19-109.66-0.09-1.16-1.53-1.87-2.77-1.45z" class="forearm-right-2"></path>
      </g>
      
      <g class="Abdominals">
        <g class="Lower-Abss">
          <path fill="lightslategray" d="M326.86 444.07v-51.59c0-0.58-0.36-1.12-1-1.27-5.6-1.38-24.32-0.31-31.66 3.52-20.01 10.41-11.59 49.95 7.25 50.93 2.48 0.13 15.84 0.02 23.59 0a1.81 1.59 0 0 0 1.82-1.59z" class="lower-abs-left"></path>
          <path fill="lightslategray" d="M326.86 577.76v-124.14c0-0.88-0.81-1.59-1.82-1.61-10.05-0.15-30.95-1.19-32.66 4.79-14.44 50.68 17.35 117.23 32.72 122.25 0.94 0.31 1.75-0.41 1.76-1.29z" class="lower-abs-left-2"></path>
        </g>
        <g class="Lower-Abs_2">
          <path fill="lightslategray" d="M334.11 444.07v-51.59c0-0.58 0.36-1.12 1-1.27 5.6-1.38 24.32-0.31 31.66 3.52 20.01 10.41 11.59 49.95-7.25 50.93-2.48 0.13-15.84 0.02-23.6 0a1.81 1.59 0 0 1-1.81-1.59z" class="lower-abs-right"></path>
          <path fill="lightslategray" d="M334.11 577.76v-124.14c0-0.88 0.81-1.59 1.82-1.61 10.05-0.15 30.96-1.19 32.66 4.79 14.45 50.68-17.35 117.23-32.72 122.25-0.94 0.31-1.76-0.41-1.76-1.29z" class="lower-abs-right-2"></path>
        </g>
        <g class="Upper-Abs">
          <path fill="lightslategray" d="M268.79 359.71c19.32-10.59 37-21.59 56.25-22.25a1.87 1.64 0 0 0 1.82-1.62v-21.81c0-0.31-0.09-0.63-0.37-0.83-5.43-4.17-45.62 0.48-68.58 5.12-24.6 4.98-3.63 49.34 10.88 41.39z" class="upper-abs-left"></path>
          <path fill="lightslategray" d="M326.86 383.26v-37.73a1.76 1.54 0 0 0-1.96-1.56c-23.21 2.59-52.88 20.54-52.48 25.29 0.4 4.65 6.97 24.01 14.52 20.69 9.81-4.32 28.02-5.98 37.77-5.04a1.92 1.69 0 0 0 2.15-1.65z" class="upper-abs-left-2"></path>
        </g>
        <g class="Upper-Abs_2">
          <path fill="lightslategray" d="M392.18 359.71c-19.32-10.59-37-21.59-56.25-22.25a1.87 1.64 0 0 1-1.82-1.62v-21.81c0-0.31 0.09-0.63 0.37-0.83 5.44-4.17 45.62 0.48 68.58 5.12 24.6 4.98 3.63 49.34-10.88 41.39z" class="upper-abs-right"></path>
          <path fill="lightslategray" d="M334.11 383.26v-37.73c0-0.93 0.91-1.67 1.96-1.56 23.21 2.59 52.88 20.54 52.48 25.29-0.4 4.65-6.97 24.01-14.52 20.69-9.81-4.32-28.01-5.98-37.77-5.04a1.92 1.69 0 0 1-2.15-1.65z" class="upper-abs-right-2"></path>
        </g>
      </g>
      
      <g class="Obliques">
        <path fill="lightslategray" d="M233.25 447.74c-4.39 9.46-4.45 22.44-2.56 29.75 11.04 26.5 25.97 40.26 41.59 46.95a1.65 1.45 0 0 0 2.38-1.05c2.5-13.49-4.72-40.09-7.68-44.31-9.75-13.9-21.59-23.31-30.87-31.77-0.88-0.8-2.39-0.6-2.86 0.43z" class="oblique-left"></path>
        <path fill="lightslategray" d="M427.72 447.74c4.39 9.46 4.45 22.44 2.56 29.75-11.04 26.5-25.96 40.26-41.59 46.95a1.65 1.45 0 0 1-2.39-1.05c-2.5-13.49 4.72-40.09 7.69-44.31 9.75-13.9 21.59-23.31 30.86-31.77 0.88-0.8 2.39-0.6 2.87 0.43z" class="oblique-right"></path>
        <path fill="lightslategray" d="M271.02 464.2c1.07-5.49 0.91-17.89 1.15-23.32 0.38-8.66-16.01-17.3-28.24-24.14a1.92 1.68 0 0 0-2.88 1.08c-1.89 7.59-6.03 17.17-1.29 21.47 10.91 9.9 18.58 16.3 28.81 25.45 0.87 0.78 2.25 0.53 2.45-0.54z" class="oblique-left-2"></path>
        <path fill="lightslategray" d="M389.95 464.2c-1.07-5.49-0.91-17.89-1.15-23.32-0.38-8.66 16.01-17.3 28.24-24.14a1.92 1.68 0 0 1 2.88 1.08c1.9 7.59 6.03 17.17 1.29 21.47-10.91 9.9-18.58 16.3-28.81 25.45-0.87 0.78-2.24 0.53-2.45-0.54z" class="oblique-right-2"></path>
        <path fill="lightslategray" d="M274.4 422c0.32-21.15-5.49-49.21-33.04-55.3-1.42-0.32-2.58 0.98-2.06 2.18 4.71 10.91 6.78 28.57 5.9 36.99 0.08 3.81 16.21 9.23 25.62 17.25 1.23 1.05 3.56 0.38 3.58-1.12z" class="oblique-left-3"></path>
        <path fill="lightslategray" d="M386.57 422c-0.32-21.15 5.48-49.21 33.04-55.3 1.42-0.32 2.58 0.98 2.06 2.18-4.7 10.91-6.78 28.57-5.91 36.99-0.08 3.81-16.21 9.23-25.61 17.25-1.23 1.05-3.56 0.38-3.58-1.12z" class="oblique-right-3"></path>
      </g>
      
      <g class="Adductors">
        <g class="Abductors-Front">
          <path fill="lightslategray" d="M253.05 526.63c-19.81 23.31-28.93 72.91-41.96 87.3-0.87 0.97-2.43 0.49-2.45-0.74-0.25-18.34 25.68-60.66 25.95-99.64 0.01-1.71 3.04-2.5 4.18-1.1 4.84 5.98 9.71 9.4 13.82 11.82a1.89 1.66 0 0 1 0.46 2.36z" class="adductor-left"></path>
          <path fill="lightslategray" d="M407.92 526.63c19.81 23.31 28.93 72.91 41.96 87.3 0.88 0.97 2.43 0.49 2.45-0.74 0.25-18.34-25.68-60.66-25.95-99.64-0.01-1.71-3.04-2.5-4.18-1.1-4.84 5.98-9.71 9.4-13.81 11.82a1.89 1.66 0 0 0-0.47 2.36z" class="adductor-right"></path>
        </g>
        <g class="Adductors-Front_2">
          <path fill="lightslategray" d="M314.15 606.41c-6.38-6.74-18.21-23.23-25.71-33.97-1.05-1.51-3.78-0.58-3.47 1.17 10.19 55.65 2.01 76.88 5.6 82.14 8.25 12.11 9.05 20.49 12.57 40.67 0.08 0.45 0.41 0.96 0.92 0.87 7.8-1.36 14.37-86.36 10.09-90.88z" class="adductor-left-2"></path>
          <path fill="lightslategray" d="M346.81 606.41c6.38-6.74 18.21-23.23 25.72-33.97 1.06-1.51 3.78-0.58 3.46 1.17-10.19 55.65-2.01 76.88-5.59 82.14-8.25 12.11-9.05 20.49-12.57 40.67-0.08 0.45-0.41 0.96-0.92 0.87-7.8-1.36-14.37-86.36-10.1-90.88z" class="adductor-right-2"></path>
        </g>
      </g>
      
      <g class="Obliques-Side" id="obliques">
        <path fill="lightslategray" d="M236.78 318.02c-5.9-1.81-14.54-7.9-20.41-14.13-1.18-1.24-4.06-0.53-4.37 1.06-1.52 8.2-5.81 14.76-6.69 22.77a1.82 1.59 0 0 0 0 0.31c2.93 24.59 15.58 43.89 26.02 54.34 1.07 1.07 2.91 0.38 2.71-1.03-1.3-9.05-6.54-15.37-3.35-20.04 5.38-7.86 11.76-13.23 7.42-41.89a2 1.75 0 0 0-1.33-1.39z" class="oblique-side-left"></path>
        <path fill="lightslategray" d="M424.19 318.02c5.9-1.81 14.54-7.9 20.42-14.13 1.17-1.24 4.06-0.53 4.35 1.06 1.53 8.2 5.82 14.76 6.71 22.77a1.67 1.46 0 0 1-0.01 0.31c-2.93 24.59-15.58 43.89-26.02 54.34-1.07 1.07-2.91 0.38-2.71-1.03 1.3-9.05 6.55-15.37 3.35-20.04-5.37-7.86-11.75-13.23-7.43-41.89a2 1.75 0 0 1 1.34-1.39z" class="oblique-side-right"></path>
      </g>
      
      <g class="Quadriceps">
        <path fill="lightslategray" d="M228.87 791.04c-31.43-14.83-39.45-153.68-11.73-175.04 1.07-0.82 2.54-0.04 2.43 1.2-2.23 25.71-10.14 85.41 5.68 118.14 19.71 40.79 9.5 58.48 3.62 55.7z" class="quad-left"></path>
        <path fill="lightslategray" d="M432.09 791.04c31.43-14.83 39.45-153.68 11.74-175.04-1.07-0.82-2.54-0.04-2.43 1.2 2.23 25.71 10.14 85.41-5.68 118.14-19.71 40.79-9.5 58.48-3.63 55.7z" class="quad-right"></path>
        <path fill="lightslategray" d="M262.62 532.67c25.94 27.9 23.79 215.1-15.01 218.54a1.54 1.35 0 0 1-1.07-0.24c-37.07-23.14-21.5-187.12 13.79-218.36 0.68-0.6 1.68-0.6 2.3 0.06z" class="quad-left-2"></path>
        <path fill="lightslategray" d="M398.34 532.67c-25.94 27.9-23.79 215.1 15.01 218.54a1.55 1.36 0 0 0 1.07-0.24c37.08-23.14 21.5-187.12-13.79-218.36-0.68-0.6-1.68-0.6-2.29 0.06z" class="quad-right-2"></path>
        <path fill="lightslategray" d="M301.45 733.74c0-11.94-6.3-44.89-11.55-61.98-0.52-1.7-2.86-1.34-2.9 0.42-0.54 26.52-7.72 65.74-27.28 88.62-18.54 21.68-14.52 50.93 12.7 57.3s29.03-62.02 29.03-84.36z" class="quad-left-3"></path>
        <path fill="lightslategray" d="M359.52 733.74c0-11.94 6.3-44.89 11.55-61.98 0.52-1.7 2.86-1.34 2.9 0.42 0.54 26.52 7.72 65.74 27.28 88.62 18.54 21.68 14.52 50.93-12.7 57.3s-29.03-62.02-29.03-84.36z" class="quad-right-3"></path>
      </g>
      
      <g class="Calves">
        <path fill="lightslategray" d="M230.69 921.56c-9.97-11.37-13.9-22.1-18.73-41.21-0.38-1.52-2.65-1.72-3.2-0.23-12.41 34.06-10.5 118.51 12.86 162.4 12.7 23.87 23.59 74.81 27.21 66.85s0-167.12-18.14-187.81z" class="calf-left"></path>
        <path fill="lightslategray" d="M430.28 921.56c9.98-11.37 13.91-22.1 18.73-41.21 0.38-1.52 2.65-1.72 3.19-0.23 12.41 34.06 10.5 118.51-12.85 162.4-12.7 23.87-23.59 74.81-27.22 66.85s0-167.12 18.15-187.81z" class="calf-right"></path>
        <path fill="lightslategray" d="M276.62 1010.98c19.5-44.87 10.18-93.64 2.52-116.11-0.46-1.34-2.15-1.39-2.47-0.02-4.71 20.14-7.32 106.33-1.63 116.47 0.4 0.71 1.26 0.4 1.58-0.34z" class="calf-left-2"></path>
        <path fill="lightslategray" d="M384.35 1010.98c-19.5-44.87-10.18-93.64-2.52-116.11 0.46-1.34 2.15-1.39 2.47-0.02 4.71 20.14 7.32 106.33 1.63 116.47-0.4 0.71-1.26 0.4-1.58-0.34z" class="calf-right-2"></path>
      </g>
      
    </g>
  </g>
</svg>
